<svg xmlns="http://www.w3.org/2000/svg" width="300" height="90" viewBox="0 0 300 90"><defs><style>.a,.b{fill:#fff;}.a{opacity:0.091;}.b{font-size:26px;font-family:Roboto-Medium, Roboto;font-weight:500;}.c{fill:#f5f6f6;}</style></defs><g transform="translate(-1937 -1969)"><rect class="a" width="300" height="90" rx="8" transform="translate(1937 1969)"/><g transform="translate(-77 -1)"><text class="b" transform="translate(2127 2025)"><tspan x="0" y="0">App Store</tspan></text><g transform="translate(1065.98 1559.924)"><g transform="translate(1022.519 446.494)"><path class="c" d="M1041.13,464.129c-2.532-.188-4.682,1.414-5.88,1.414-1.216,0-3.092-1.375-5.081-1.337a7.532,7.532,0,0,0-6.362,3.857c-2.713,4.708-.693,11.683,1.949,15.5,1.291,1.866,2.833,3.97,4.857,3.892,1.948-.076,2.685-1.259,5.042-1.259s3.017,1.259,5.076,1.221c2.1-.038,3.426-1.905,4.709-3.782a16.89,16.89,0,0,0,2.131-4.374,6.789,6.789,0,0,1-4.128-6.225,6.95,6.95,0,0,1,3.324-5.855,7.224,7.224,0,0,0-5.637-3.057" transform="translate(-1022.519 -464.113)"/></g><g transform="translate(1034.966 439.076)"><path class="c" d="M1069.129,443.988a6.766,6.766,0,0,0,1.6-4.912,6.893,6.893,0,0,0-4.533,2.331,6.442,6.442,0,0,0-1.631,4.758,5.7,5.7,0,0,0,4.562-2.177" transform="translate(-1064.528 -439.076)"/></g></g></g></g></svg>