<svg xmlns="http://www.w3.org/2000/svg" xmlns:xlink="http://www.w3.org/1999/xlink" width="300" height="90" viewBox="0 0 300 90"><defs><style>.a{fill:none;}.b,.c{fill:#fff;}.b{opacity:0.091;}.c{font-size:26px;font-family:Roboto-Medium, Roboto;font-weight:500;}.d{clip-path:url(#a);}.e{fill:url(#b);}.f{fill:url(#d);}.g{fill:url(#f);}.h{fill:url(#h);}</style><clipPath id="a"><path class="a" d="M519.45,454.513l-6.439-3.717-12.42-7.171c-.691-.4-1.379-.158-1.379.675v29.219c0,.626.492.892,1.092.548l12.706-7.337,6.439-3.718s5.463-3.154,6.19-3.575.656-.993.043-1.325S519.45,454.513,519.45,454.513Z" transform="translate(-499.212 -443.437)"/></clipPath><linearGradient id="b" x1="-20.787" y1="3.199" x2="-20.787" y2="-2.862" gradientUnits="objectBoundingBox"><stop offset="0" stop-color="#2776a5"/><stop offset="0.286" stop-color="#498bab"/><stop offset="0.767" stop-color="#75b4b3"/><stop offset="1" stop-color="#85c7b6"/></linearGradient><linearGradient id="d" x1="-18.774" y1="3.371" x2="-12.714" y2="3.371" gradientUnits="objectBoundingBox"><stop offset="0" stop-color="#53b8a4"/><stop offset="1" stop-color="#d7e097"/></linearGradient><linearGradient id="f" x1="-15.744" y1="-0.659" x2="-15.744" y2="-6.72" gradientUnits="objectBoundingBox"><stop offset="0" stop-color="#dd433d"/><stop offset="0.167" stop-color="#cd4350"/><stop offset="0.575" stop-color="#a74775"/><stop offset="0.862" stop-color="#8c4789"/><stop offset="1" stop-color="#814793"/></linearGradient><linearGradient id="h" x1="-22.666" y1="2.296" x2="-22.666" y2="-3.764" gradientUnits="objectBoundingBox"><stop offset="0" stop-color="#ea8476"/><stop offset="0.119" stop-color="#eb8b76"/><stop offset="0.713" stop-color="#f3b376"/><stop offset="1" stop-color="#f5c273"/></linearGradient></defs><g transform="translate(-1597 -1969)"><path class="b" d="M5.8,0H294.2c3.2,0,5.8,3.5,5.8,7.826V82.174C300,86.5,297.4,90,294.2,90H5.8C2.6,90,0,86.5,0,82.174V7.826C0,3.5,2.6,0,5.8,0Z" transform="translate(1597 1969)"/><g transform="translate(20)"><text class="c" transform="translate(1676 2024)"><tspan x="0" y="0">Google Play</tspan></text></g><g transform="translate(1659 1998.8)"><g class="d" transform="translate(0)"><path class="e" d="M515.166,457.708l-15.952-15.819v31.635Z" transform="translate(-499.213 -442.38)"/></g></g><g transform="translate(1659 1998.8)"><g class="d" transform="translate(0)"><path class="f" d="M515.166,457.457l4.285-4.251-6.439-3.717-13.8-7.967v.117Z" transform="translate(-499.213 -442.129)"/></g></g><g transform="translate(1659 1998.8)"><g class="d" transform="translate(0)"><path class="g" d="M515.166,491.736l-15.952,15.816v.115l13.8-7.965,6.439-3.718Z" transform="translate(-499.213 -476.408)"/></g></g><g transform="translate(1659 1998.8)"><g class="d" transform="translate(0)"><path class="h" d="M561.123,482.591l-7.359-4.251-4.285,4.251,4.285,4.247Z" transform="translate(-533.527 -467.263)"/></g></g></g></svg>