<svg xmlns="http://www.w3.org/2000/svg" width="145.968" height="56" viewBox="0 0 145.968 56"><defs><style>.a,.b{fill:#333;}.a{font-size:49px;font-family:NEXONLv1GothicLowOTFRegular, NEXON Lv1 Gothic Low OTF;letter-spacing:-0.025em;}</style></defs><g transform="translate(-360.083 -105)"><text class="a" transform="translate(412.05 149)"><tspan x="0" y="0">pick</tspan></text><path class="b" d="M49.915,64.658A19.11,19.11,0,0,1,53.328,61.9,13.047,13.047,0,0,1,58.6,59.826l3.762,20.111.022.092a1.591,1.591,0,0,1,.031.192A15.329,15.329,0,1,0,74.653,62.338,15.951,15.951,0,0,0,70.38,63.81L67.759,49.794c-.59-3.111-3.3-4.448-6.248-3.889a15.174,15.174,0,0,0-2.525.642,15.588,15.588,0,0,0-8.6,7.886C48.478,58.572,49.915,64.658,49.915,64.658ZM78.533,83.021A5.733,5.733,0,0,1,72.875,80.8a5.814,5.814,0,0,1-1.018-2.337,5.719,5.719,0,1,1,6.676,4.561Z" transform="translate(310.687 65.583)"/></g></svg>