<?xml version="1.0" encoding="utf-8"?>
<!-- Generator: Adobe Illustrator 16.0.0, SVG Export Plug-In . SVG Version: 6.00 Build 0)  -->
<!DOCTYPE svg PUBLIC "-//W3C//DTD SVG 1.1//EN" "http://www.w3.org/Graphics/SVG/1.1/DTD/svg11.dtd">
<svg version="1.1" id="레이어_1" xmlns="http://www.w3.org/2000/svg" xmlns:xlink="http://www.w3.org/1999/xlink" x="0px"
	 y="0px" width="56px" height="170px" viewBox="0 0 56 170" enable-background="new 0 0 56 170" xml:space="preserve">
<rect x="27.041" y="29.885" fill="#C9C9D0" width="1.917" height="107.905"/>
<g>
	
		<image overflow="visible" opacity="0.3" enable-background="new    " width="39" height="40" xlink:href="8E6293F0.png"  transform="matrix(1 0 0 1 8.4995 67.5)">
	</image>
	<g>
		<circle fill="#8354C8" cx="28" cy="84.502" r="13.166"/>
	</g>
</g>
<g>
	
		<rect x="21.501" y="86.243" transform="matrix(-0.6951 -0.7189 0.7189 -0.6951 -21.2597 164.9571)" fill="#FFFFFF" width="5.698" height="1.487"/>
	
		<rect x="24.118" y="84.759" transform="matrix(-0.7382 0.6746 -0.6746 -0.7382 109.5267 128.4999)" fill="#FFFFFF" width="11.422" height="1.486"/>
</g>
<g>
	
		<image overflow="visible" opacity="0.3" enable-background="new    " width="39" height="39" xlink:href="8E6293F7.png"  transform="matrix(1 0 0 1 8.4995 26.5)">
	</image>
	<g>
		<circle fill="#8354C8" cx="28" cy="43.053" r="13.166"/>
	</g>
</g>
<g>
	
		<rect x="21.502" y="44.794" transform="matrix(-0.6951 -0.7189 0.7189 -0.6951 8.5391 94.6958)" fill="#FFFFFF" width="5.698" height="1.487"/>
	
		<rect x="24.117" y="43.309" transform="matrix(-0.7382 0.6746 -0.6746 -0.7382 81.5663 56.4495)" fill="#FFFFFF" width="11.424" height="1.487"/>
</g>
<g>
	
		<image overflow="visible" opacity="0.3" enable-background="new    " width="39" height="40" xlink:href="8E6293F3.png"  transform="matrix(1 0 0 1 8.4995 109.5)">
	</image>
	<g>
		<circle fill="#8354C8" cx="28" cy="126.368" r="13.166"/>
	</g>
</g>
<g>
	
		<rect x="21.5" y="128.107" transform="matrix(-0.6951 -0.7189 0.7189 -0.6951 -51.353 235.9233)" fill="#FFFFFF" width="5.697" height="1.486"/>
	
		<rect x="24.121" y="126.626" transform="matrix(-0.7383 0.6745 -0.6745 -0.7383 137.77 201.2792)" fill="#FFFFFF" width="11.423" height="1.488"/>
</g>
</svg>
