<?xml version="1.0" encoding="utf-8"?>
<!-- Generator: Adobe Illustrator 16.0.0, SVG Export Plug-In . SVG Version: 6.00 Build 0)  -->
<!DOCTYPE svg PUBLIC "-//W3C//DTD SVG 1.1//EN" "http://www.w3.org/Graphics/SVG/1.1/DTD/svg11.dtd">
<svg version="1.1" id="레이어_1" xmlns:sketch="http://www.bohemiancoding.com/sketch/ns"
	 xmlns="http://www.w3.org/2000/svg" xmlns:xlink="http://www.w3.org/1999/xlink" x="0px" y="0px" width="60px" height="60px"
	 viewBox="0 0 60 60" enable-background="new 0 0 60 60" xml:space="preserve">
<g>
	<g>
		<circle fill="#707070" cx="29.333" cy="30.063" r="24.413"/>
	</g>
</g>
<title></title>
<desc></desc>
<path fill="none" stroke="#FFFFFF" stroke-width="2.2" stroke-miterlimit="10" d="M19.567,28.134
	c0.735-4.816,4.895-8.506,9.915-8.506c5.539,0,10.03,4.491,10.03,10.031s-4.491,10.029-10.03,10.029
	c-5.539,0-10.03-4.491-10.03-10.03C19.452,29.14,19.492,28.63,19.567,28.134"/>
<rect x="15.202" y="25.232" transform="matrix(-0.953 -0.3028 0.3028 -0.953 31.7953 59.8741)" fill="#707070" width="10.675" height="4.479"/>
<polyline fill="#FFFFFF" points="24.386,25.152 19.449,26.063 19.865,21.057 "/>
<rect x="34.175" y="30.521" transform="matrix(-0.953 -0.303 0.303 -0.953 67.2415 75.9516)" fill="#707070" width="10.674" height="4.478"/>
<polyline fill="#FFFFFF" points="34.345,34.352 39.355,34.054 38.33,38.969 "/>
</svg>
