<?xml version="1.0" encoding="utf-8"?>
<!-- Generator: Adobe Illustrator 16.0.0, SVG Export Plug-In . SVG Version: 6.00 Build 0)  -->
<!DOCTYPE svg PUBLIC "-//W3C//DTD SVG 1.1//EN" "http://www.w3.org/Graphics/SVG/1.1/DTD/svg11.dtd">
<svg version="1.1" id="레이어_1" xmlns="http://www.w3.org/2000/svg" xmlns:xlink="http://www.w3.org/1999/xlink" x="0px"
	 y="0px" width="20px" height="20px" viewBox="0 0 20 20" enable-background="new 0 0 20 20" xml:space="preserve">
<path fill="none" stroke="#707070" stroke-width="2.2" stroke-miterlimit="10" d="M1.613,8.708c0.624-4.087,4.154-7.22,8.416-7.22
	c4.702,0,8.514,3.812,8.514,8.513c0,4.7-3.813,8.511-8.514,8.511s-8.514-3.811-8.514-8.511C1.515,9.561,1.549,9.128,1.613,8.708"/>
<rect x="-2.092" y="6.244" transform="matrix(-0.953 -0.3029 0.3029 -0.953 2.2951 16.6455)" fill="#FFFFFF" width="9.06" height="3.801"/>
<rect x="14.013" y="10.733" transform="matrix(-0.9531 -0.3027 0.3027 -0.9531 32.3891 30.2881)" fill="#FFFFFF" width="9.058" height="3.801"/>
<polygon fill="#FFFFFF" points="-1.313,3.781 6.219,6.949 3.344,8.375 0,7.813 "/>
<polyline fill="#707070" points="5.703,6.177 1.513,6.949 1.866,2.7 "/>
<polygon fill="#FFFFFF" points="15.063,11.844 22.594,15.012 19.719,16.438 16.375,15.875 "/>
<polyline fill="#707070" points="14.156,13.982 18.408,13.73 17.539,17.902 "/>
</svg>
