<?xml version="1.0" encoding="utf-8"?>
<!-- Generator: Adobe Illustrator 16.0.0, SVG Export Plug-In . SVG Version: 6.00 Build 0)  -->
<!DOCTYPE svg PUBLIC "-//W3C//DTD SVG 1.1//EN" "http://www.w3.org/Graphics/SVG/1.1/DTD/svg11.dtd">
<svg version="1.1" id="레이어_1" xmlns="http://www.w3.org/2000/svg" xmlns:xlink="http://www.w3.org/1999/xlink" x="0px"
	 y="0px" width="17px" height="17px" viewBox="0 0 17 17" enable-background="new 0 0 17 17" xml:space="preserve">
<g>
	<path fill="none" stroke="#333333" stroke-width="1.3" stroke-linecap="round" stroke-linejoin="round" stroke-miterlimit="10" d="
		M14.375,6.886c0-3.245-2.63-5.875-5.875-5.875s-5.875,2.63-5.875,5.875c0,1.236,0.384,2.384,1.037,3.328H3.66l0.016,0.021
		c0.207,0.297,0.383,0.573,0.64,0.827L8.5,15.989l4.184-4.929c0.258-0.255,0.436-0.531,0.643-0.828l0.016-0.021H13.34
		C13.991,9.27,14.375,8.122,14.375,6.886z M8.5,9.53c-1.513,0-2.739-1.226-2.739-2.738S6.988,4.054,8.5,4.054
		c1.513,0,2.739,1.226,2.739,2.738C11.239,8.304,10.014,9.53,8.5,9.53z"/>
</g>
</svg>
