<?xml version="1.0" encoding="utf-8"?>
<!-- Generator: Adobe Illustrator 16.0.0, SVG Export Plug-In . SVG Version: 6.00 Build 0)  -->
<!DOCTYPE svg PUBLIC "-//W3C//DTD SVG 1.1//EN" "http://www.w3.org/Graphics/SVG/1.1/DTD/svg11.dtd">
<svg version="1.1" id="레이어_1" xmlns="http://www.w3.org/2000/svg" xmlns:xlink="http://www.w3.org/1999/xlink" x="0px"
	 y="0px" width="283.46px" height="283.46px" viewBox="0 0 283.46 283.46" enable-background="new 0 0 283.46 283.46"
	 xml:space="preserve">
<path fill="none" stroke="#000000" stroke-width="15" stroke-miterlimit="10" d="M100.315,155.998"/>
<path fill="none" stroke="#000000" stroke-width="15" stroke-miterlimit="10" d="M105.139,144.438"/>
<g>
	<path fill="none" stroke="#000000" stroke-width="15" stroke-miterlimit="10" d="M140.959,19.262
		c35.47,0,64.243,28.778,64.243,64.242c0,35.485-28.774,64.243-64.243,64.243c-35.465,0-64.24-28.76-64.24-64.243
		C76.718,48.038,105.492,19.262,140.959,19.262z"/>
	<path fill="none" stroke="#000000" stroke-width="15" stroke-miterlimit="10" d="M250.392,267.216L250.392,267.216
		c0-66.105-48.672-119.636-108.759-119.636c-60.064,0-108.76,53.532-108.76,119.636"/>
</g>
<text transform="matrix(1 0 0 1 -164.5435 280.73)" font-family="'SpoqaHanSans-Bold'" font-size="12">MY</text>
<path fill="#8354C8" d="M-88.885,182.304c0,28.316-22.953,51.271-51.271,51.271h-84.624c-28.316,0-51.271-22.955-51.271-51.271l0,0
	c0-28.314,22.955-51.27,51.271-51.27h84.624C-111.838,131.036-88.885,153.992-88.885,182.304L-88.885,182.304z"/>
<g>
	<path fill="#FFFFFF" stroke="#FFFFFF" stroke-miterlimit="10" d="M-189.891,150.83c2.334,0,4.563,0.4,6.684,1.199
		c2.119,0.799,3.977,1.996,5.574,3.594c1.597,1.598,2.873,3.594,3.826,5.992c0.951,2.395,1.428,5.191,1.428,8.389v32.719h-11.613
		V172.4c0-2.271-0.245-4.148-0.734-5.623c-0.493-1.473-1.17-2.627-2.029-3.457c-0.859-0.828-1.844-1.396-2.947-1.703
		c-1.108-0.309-2.275-0.461-3.504-0.461c-1.105,0-2.229,0.17-3.364,0.508c-1.138,0.336-2.136,0.922-2.994,1.75
		c-0.861,0.83-1.568,1.951-2.12,3.363c-0.554,1.414-0.83,3.166-0.83,5.256v30.689h-11.613v-30.506c0-2.152-0.248-3.934-0.738-5.35
		c-0.492-1.412-1.151-2.55-1.98-3.408c-0.831-0.859-1.798-1.461-2.902-1.797c-1.107-0.338-2.306-0.508-3.597-0.508
		c-2.765,0-5.01,0.859-6.729,2.579c-1.719,1.722-2.58,4.332-2.58,7.837v31.15h-11.614v-50.783h10.969v6.451h0.184
		c1.228-2.334,3.025-4.178,5.392-5.531c2.364-1.35,5.206-2.027,8.523-2.027c3.135,0,5.945,0.709,8.435,2.121
		c2.489,1.414,4.192,3.287,5.116,5.621c1.779-2.58,3.886-4.516,6.313-5.807C-196.911,151.476-193.762,150.83-189.891,150.83z"/>
	<path fill="#FFFFFF" stroke="#FFFFFF" stroke-miterlimit="10" d="M-151.642,151.937l11.521,37.512h0.369l11.612-37.512h12.351
		l-26.359,71.891l-10.875-3.777l6.544-16.684l-18.063-51.43H-151.642z"/>
</g>
<path fill="none" stroke="#000000" stroke-width="15" stroke-miterlimit="10" d="M102.315,155.998"/>
<path fill="none" stroke="#000000" stroke-width="15" stroke-miterlimit="10" d="M107.139,144.438"/>
<path fill="none" stroke="#000000" stroke-width="15" stroke-miterlimit="10" d="M102.495,157.354"/>
<path fill="#8354C8" d="M273.256,216.304c0,28.316-21.23,51.271-47.422,51.271h-78.271c-26.191,0-47.422-22.955-47.422-51.271l0,0
	c0-28.314,21.231-51.27,47.422-51.27h78.271C252.026,165.037,273.256,187.992,273.256,216.304L273.256,216.304z"/>
<g>
	<path fill="#FFFFFF" stroke="#FFFFFF" stroke-miterlimit="10" d="M129.951,184.583h14.52l11.154,30.678
		c0.707,2.068,1.387,4.166,2.037,6.295c0.647,2.128,1.297,4.256,1.944,6.384h0.442c0.71-2.128,1.373-4.256,1.992-6.384
		c0.619-2.129,1.283-4.227,1.992-6.295l10.889-30.678h14.521v65.609h-11.881v-27.396c0-1.535,0.06-3.235,0.176-5.098
		c0.116-1.861,0.249-3.754,0.396-5.675c0.146-1.92,0.307-3.813,0.481-5.675c0.178-1.861,0.354-3.561,0.531-5.098h-0.354
		l-5.309,15.426L163.4,244.251h-7.521l-10.174-27.574l-5.221-15.426h-0.353c0.177,1.537,0.356,3.236,0.535,5.098
		s0.357,3.755,0.536,5.675c0.179,1.921,0.329,3.813,0.448,5.675s0.179,3.563,0.179,5.098v27.396h-11.881v-65.609H129.951z"/>
	<path fill="#FFFFFF" stroke="#FFFFFF" stroke-miterlimit="10" d="M216.75,226.166l-19.684-41.582h13.92l6.563,15.959
		c0.943,2.482,1.875,4.893,2.791,7.227c0.916,2.336,1.878,4.773,2.884,7.314h0.354c1.004-2.541,1.995-4.979,2.971-7.314
		c0.975-2.334,1.936-4.743,2.881-7.227l6.562-15.959h13.654l-19.772,41.582v24.027h-13.121v-24.027H216.75z"/>
</g>
</svg>
