<?xml version="1.0" encoding="utf-8"?>
<!-- Generator: Adobe Illustrator 16.0.0, SVG Export Plug-In . SVG Version: 6.00 Build 0)  -->
<!DOCTYPE svg PUBLIC "-//W3C//DTD SVG 1.1//EN" "http://www.w3.org/Graphics/SVG/1.1/DTD/svg11.dtd">
<svg version="1.1" id="레이어_1" xmlns="http://www.w3.org/2000/svg" xmlns:xlink="http://www.w3.org/1999/xlink" x="0px"
	 y="0px" width="283.46px" height="283.46px" viewBox="0 0 283.46 283.46" enable-background="new 0 0 283.46 283.46"
	 xml:space="preserve">
<g>
	<polyline fill="#3C3C3C" points="-965.307,-316.836 -986.842,-288.699 -1008.379,-316.85 	"/>
	<polyline fill="#FFFFFF" points="-1008.379,-329.607 -1008.379,-261.656 -1077.871,-294.935 -1077.871,-364.333 	"/>
	<polyline fill="#FFFFFF" points="-1008.379,-329.607 -1008.379,-261.656 -938.886,-294.935 -938.886,-363.886 	"/>
	<polyline fill="#FFFFFF" points="-981.526,-385.97 -938.886,-364.333 -1008.379,-329.404 -1077.871,-364.333 -1024.078,-392.038 	
		"/>
	<g>
		<path fill="#8354C8" d="M-1054.069-297.289l-3.18-1.637l0.258-20.725l-6.257-3.207l0.04-3.273l15.72,8.103l-0.033,3.247
			l-6.283-3.229L-1054.069-297.289z"/>
		<path fill="#8354C8" d="M-1040.656-314.509l-0.299,23.971l-3.191-1.649l0.298-23.973L-1040.656-314.509z"/>
		<path fill="#8354C8" d="M-1022.989-298.115c-0.013,1.218-0.196,2.232-0.54,3.045c-0.339,0.813-0.818,1.407-1.421,1.813
			c-0.596,0.38-1.326,0.542-2.191,0.475c-0.853-0.054-1.813-0.353-2.842-0.879l-2.468-1.272l-0.115,8.712l-3.192-1.649l0.297-23.972
			l5.567,2.867c1.122,0.568,2.109,1.286,2.982,2.083c0.866,0.813,1.597,1.691,2.185,2.666c0.589,0.946,1.021,1.947,1.318,3.003
			C-1023.11-300.183-1022.976-299.156-1022.989-298.115z M-1026.168-299.602c0.014-1.258-0.312-2.448-0.961-3.558
			c-0.656-1.123-1.731-2.07-3.267-2.867l-1.928-0.975l-0.108,8.86l1.677,0.866c1.441,0.743,2.57,0.906,3.369,0.479
			C-1026.587-297.221-1026.195-298.154-1026.168-299.602z"/>
	</g>
	<g>
		<path fill="#8354C8" d="M-984.651-301.158c0.419-0.067,0.826,0,1.218,0.189c0.365,0.188,0.718,0.528,1.002,0.974
			c0.27,0.461,0.5,1.015,0.662,1.679c0.176,0.688,0.257,1.46,0.257,2.34c-0.014,1.041-0.135,2.137-0.354,3.246
			c-0.216,1.109-0.554,2.164-1.014,3.179c-0.446,1.002-0.988,1.908-1.664,2.729c-0.662,0.813-1.434,1.438-2.313,1.881l-5.235,2.666
			l0.163-27.611l5.141-2.598c0.784-0.419,1.487-0.567,2.069-0.5c0.582,0.081,1.055,0.312,1.447,0.717
			c0.393,0.42,0.677,0.96,0.866,1.663c0.162,0.69,0.257,1.436,0.257,2.247c-0.014,1.42-0.217,2.746-0.649,3.964
			c-0.433,1.23-1.042,2.299-1.866,3.205v0.027L-984.651-301.158L-984.651-301.158z M-987.207-308.571l-2.273,1.149l-0.054,7.278
			l2.097-1.055c0.825-0.42,1.475-1.015,1.961-1.827c0.487-0.797,0.73-1.948,0.73-3.423c0.014-1-0.175-1.718-0.581-2.137
			C-985.72-309.018-986.342-309.018-987.207-308.571z M-987.289-297.816l-2.26,1.137l-0.054,9.414l2.558-1.271
			c0.892-0.459,1.596-1.271,2.124-2.407c0.513-1.137,0.784-2.396,0.784-3.748c0.013-1.353-0.243-2.353-0.771-2.989
			C-985.423-298.316-986.234-298.357-987.289-297.816z"/>
		<path fill="#8354C8" d="M-972.191-292.053c-1.069,0.541-2.017,0.662-2.841,0.365c-0.825-0.312-1.543-0.947-2.111-1.894
			c-0.568-0.988-0.987-2.247-1.284-3.815c-0.299-1.556-0.435-3.314-0.419-5.303c0.013-1.975,0.175-3.91,0.473-5.79
			c0.312-1.881,0.758-3.599,1.339-5.154c0.582-1.568,1.313-2.936,2.151-4.1c0.839-1.162,1.785-2.015,2.854-2.543
			c1.068-0.554,2.028-0.662,2.868-0.351c0.812,0.311,1.528,0.96,2.096,1.947c0.568,0.979,1.002,2.232,1.299,3.828
			c0.284,1.556,0.434,3.329,0.42,5.316c0,1.976-0.163,3.896-0.487,5.764c-0.311,1.881-0.771,3.584-1.353,5.141
			c-0.582,1.556-1.299,2.896-2.138,4.045C-970.163-293.433-971.123-292.594-972.191-292.053z M-972.165-295.829
			c0.69-0.364,1.299-0.905,1.813-1.677c0.514-0.757,0.973-1.69,1.312-2.773c0.365-1.095,0.636-2.327,0.813-3.68
			c0.202-1.338,0.284-2.786,0.297-4.314c0.014-1.516-0.068-2.868-0.243-4.046c-0.176-1.188-0.419-2.146-0.771-2.867
			c-0.353-0.73-0.771-1.231-1.299-1.461c-0.514-0.257-1.122-0.203-1.799,0.148c-0.69,0.338-1.285,0.906-1.813,1.678
			c-0.515,0.771-0.961,1.705-1.313,2.786c-0.352,1.069-0.623,2.301-0.812,3.653c-0.177,1.366-0.271,2.801-0.271,4.329
			c-0.014,1.529,0.055,2.882,0.23,4.044c0.162,1.178,0.419,2.139,0.757,2.868c0.352,0.758,0.785,1.229,1.312,1.461
			C-973.449-295.435-972.841-295.489-972.165-295.829z"/>
		<path fill="#8354C8" d="M-956.053-314.469l4.775,11.498l-2.746,1.395l-3.314-8.631l-0.055,0.013l-3.449,12.067l-2.747,1.407
			l4.966-16.274v-0.067l-4.694-11.322l2.732-1.396l3.273,8.428l0.041-0.028l3.313-11.755l2.747-1.379l-4.83,15.976v0.067
			L-956.053-314.469L-956.053-314.469z"/>
	</g>
	<path fill="none" stroke="#FFFFFF" stroke-width="10" stroke-linejoin="bevel" stroke-miterlimit="10" d="M-1014.521-372.531"/>
	<polygon fill="#FFFFFF" points="-1029.374,-362.425 -1011.971,-434.88 -972.097,-425.777 -989.318,-356.013 -1029.882,-356.636 	
		"/>
	<path fill="#8354C8" d="M-998.814-401.277c8.522,2.049,13.757,10.632,11.715,19.155c-2.056,8.508-10.619,13.785-19.155,11.708
		c-8.522-2.042-13.778-10.612-11.722-19.148C-1015.914-398.078-1007.351-403.333-998.814-401.277z"/>
	<g>
		<path fill="#FFFFFF" d="M-995.501-383.961c-0.148,0.446-0.311,0.893-0.514,1.312c-0.216,0.44-0.446,0.866-0.703,1.259
			c-0.258,0.392-0.527,0.757-0.813,1.088c-0.284,0.333-0.567,0.596-0.853,0.819l-1.664-1.772c0.528-0.453,0.975-0.934,1.325-1.447
			c0.365-0.501,0.704-1.108,0.988-1.807l-4.465-1.075c-0.257,0.48-0.527,0.968-0.831,1.447c-0.298,0.479-0.656,0.907-1.075,1.259
			c-0.427,0.352-0.927,0.608-1.502,0.758c-0.568,0.155-1.238,0.147-2.002-0.041l-0.38-0.088c-0.404-0.102-0.811-0.284-1.203-0.534
			c-0.393-0.243-0.724-0.589-1.008-1.015c-0.278-0.434-0.479-0.961-0.589-1.596c-0.121-0.637-0.108-1.38,0.028-2.246l-1.212-0.284
			l0.386-1.583l1.191,0.284c0.229-0.743,0.54-1.475,0.96-2.164c0.419-0.703,0.899-1.252,1.461-1.637l1.508,1.703
			c-0.453,0.414-0.818,0.84-1.104,1.279c-0.271,0.44-0.474,0.894-0.615,1.359l4.314,1.042c0.48-0.88,0.928-1.583,1.347-2.117
			c0.433-0.534,0.853-0.934,1.285-1.204c0.433-0.264,0.879-0.398,1.34-0.44c0.46-0.021,0.973,0.027,1.502,0.156l0.176,0.034
			c0.784,0.189,1.406,0.459,1.865,0.832c0.448,0.357,0.799,0.805,1.016,1.291c0.229,0.494,0.352,1.049,0.379,1.651
			c0.014,0.602-0.04,1.244-0.149,1.906l1.475,0.346l-0.393,1.575L-995.501-383.961z M-1007.08-384.787
			c0.304,0.067,0.582,0.095,0.798,0.067c0.216-0.014,0.427-0.088,0.615-0.195c0.184-0.115,0.353-0.284,0.521-0.48
			c0.148-0.218,0.331-0.461,0.5-0.771l-3.889-0.92c-0.061,0.42-0.061,0.785,0.013,1.062c0.062,0.277,0.156,0.493,0.291,0.67
			c0.123,0.162,0.265,0.271,0.42,0.338c0.142,0.068,0.257,0.108,0.365,0.135L-1007.08-384.787z M-998.855-388.548
			c-0.243-0.061-0.46-0.094-0.69-0.107c-0.202-0.021-0.405,0.026-0.622,0.135c-0.202,0.095-0.405,0.271-0.608,0.487
			c-0.203,0.224-0.419,0.555-0.662,0.975l4.098,0.993c0.096-0.771,0-1.346-0.27-1.725c-0.271-0.378-0.623-0.622-1.015-0.703
			L-998.855-388.548z"/>
	</g>
	<g>
		<path fill="#8354C8" d="M-985.22-354.728l17.789-73.943l-46.657-11.229l-20.468,85.111 M-1027.623-356.534
			c-0.757-0.196-1.521-0.196-2.259-0.103l16.519-68.653c0.628,0.419,1.305,0.744,2.063,0.927c3.923,0.94,7.947-1.833,8.981-6.202
			c0.148-0.596,0.217-1.204,0.229-1.799l20.9,5.038c-0.243,0.534-0.446,1.09-0.608,1.698c-1.056,4.39,1.271,8.679,5.195,9.625
			c0.554,0.142,1.109,0.169,1.663,0.156l-14.38,59.833"/>
	</g>
	<line fill="none" x1="-1040.799" y1="-355.865" x2="-975.845" y2="-355.865"/>
</g>
<path fill="none" stroke="#8354C8" stroke-width="20" stroke-linejoin="round" stroke-miterlimit="10" d="M-240.991-40.466v1.911
	c0,46.476-39.53,84.134-88.204,84.134h-12.804c-48.692,0-88.203-37.658-88.203-84.134v-1.911"/>
<line fill="none" stroke="#8354C8" stroke-width="20" stroke-linejoin="round" stroke-miterlimit="10" x1="-335.669" y1="45.58" x2="-335.669" y2="77.142"/>
<line fill="none" stroke="#8354C8" stroke-width="20" stroke-linejoin="round" stroke-miterlimit="10" x1="-397.128" y1="84.867" x2="-275.43" y2="84.867"/>
<path fill="none" stroke="#8354C8" stroke-width="20" stroke-linejoin="round" stroke-miterlimit="10" d="M-283.271-41.369
	c0,26.242-23.741,47.521-53.025,47.521l0,0c-29.26,0-52.989-21.279-52.989-47.521v-87.779c0-26.231,23.74-47.586,52.989-47.586l0,0
	c29.284,0,53.025,21.355,53.025,47.586V-41.369L-283.271-41.369z"/>
<path fill="none" stroke="#8354C8" stroke-width="20" stroke-linejoin="round" stroke-miterlimit="10" d="M-381.379-96.72"/>
<path fill="none" stroke="#8354C8" stroke-width="20" stroke-linejoin="round" stroke-miterlimit="10" d="M-320.692-96.72"/>
<line fill="none" stroke="#8354C8" stroke-width="20" stroke-linejoin="round" stroke-miterlimit="10" x1="-335.597" y1="-112.115" x2="-286.887" y2="-112.115"/>
<path fill="none" stroke="#333333" stroke-width="20" stroke-miterlimit="10" d="M124.029,36.611
	c22.051,26.472,18.467,65.81-8.007,87.856c-26.474,22.053-65.812,18.465-87.86-8.006C6.11,89.989,9.696,50.653,36.169,28.601
	C62.642,6.552,101.979,10.14,124.029,36.611z"/>
<polyline fill="none" stroke="#333333" stroke-width="20" stroke-miterlimit="10" points="134.727,102.443 231.103,218.149 
	190.191,252.225 93.816,136.517 "/>
<polyline fill="none" stroke="#8354C8" stroke-width="25" stroke-miterlimit="10" points="99.758,394.018 115.603,413.041 
	95.296,429.955 79.45,410.932 "/>
<line fill="none" stroke="#333333" stroke-width="20" stroke-miterlimit="10" x1="124.974" y1="175.201" x2="163.117" y2="143.429"/>
<line fill="none" stroke="#333333" stroke-width="20" stroke-miterlimit="10" x1="25.148" y1="115.527" x2="127.042" y2="37.547"/>
<circle fill="none" stroke="#8354C8" stroke-width="20" stroke-miterlimit="10" cx="524.068" cy="155.737" r="60.333"/>
<polyline fill="none" stroke="#8354C8" stroke-width="20" stroke-miterlimit="10" points="553.75,212.07 553.75,379.966 
	494.386,379.966 494.386,212.07 "/>
<polyline fill="none" stroke="#8354C8" stroke-width="20" stroke-miterlimit="10" points="539.068,379.966 539.068,408.07 
	509.068,408.07 509.068,379.966 "/>
<line fill="none" stroke="#8354C8" stroke-width="20" stroke-miterlimit="10" x1="494.386" y1="253.236" x2="549.736" y2="253.236"/>
<line fill="none" stroke="#8354C8" stroke-width="20" stroke-miterlimit="10" x1="-342.938" y1="703.359" x2="-328.255" y2="763.949"/>
<circle fill="none" stroke="#8354C8" stroke-width="20" stroke-miterlimit="10" cx="228.989" cy="550.179" r="54.4"/>
<polyline fill="none" stroke="#8354C8" stroke-width="20" stroke-miterlimit="10" points="282.06,572.08 378.949,688.4 
	337.82,722.658 240.933,606.333 "/>
<polyline fill="none" stroke="#8354C8" stroke-width="20" stroke-miterlimit="10" points="368.777,696.873 384.994,716.341 
	364.21,733.654 347.992,714.185 "/>
<line fill="none" stroke="#8354C8" stroke-width="20" stroke-miterlimit="10" x1="264.689" y1="634.857" x2="303.035" y2="602.916"/>
<line fill="none" stroke="#8354C8" stroke-width="20" stroke-miterlimit="10" x1="377.652" y1="722.658" x2="392.335" y2="783.246"/>
<path fill="none" stroke="#333333" stroke-width="20" stroke-miterlimit="10" d="M208.278,238.048c0,0,13.556,13.699,18.781,17.394
	c13.541,9.569,56.401,9.903,35.409-56.084c-5.196-17.376-8.94-53.797,34.828-42.524"/>
<path fill="none" stroke="#8354C8" stroke-width="20" stroke-miterlimit="10" d="M-194.264,76.763
	c22.167,26.613,18.563,66.159-8.05,88.325c-26.614,22.17-66.16,18.563-88.326-8.049c-22.167-26.616-18.563-66.159,8.051-88.328
	C-255.976,46.543-216.431,50.15-194.264,76.763z"/>
<polyline fill="none" stroke="#8354C8" stroke-width="20" stroke-miterlimit="10" points="-183.51,142.941 -86.622,259.261 
	-127.75,293.519 -224.637,177.197 "/>
<polyline fill="none" stroke="#8354C8" stroke-width="20" stroke-miterlimit="10" points="-96.793,267.735 -80.578,287.205 
	-101.361,304.516 -117.579,285.046 "/>
<line fill="none" stroke="#8354C8" stroke-width="20" stroke-miterlimit="10" x1="-200.882" y1="205.718" x2="-162.536" y2="173.779"/>
<path fill="none" stroke="#8354C8" stroke-width="20" stroke-miterlimit="10" d="M-91.15,296.011c0,0,7.252,23,26.502,17.25
	c0,0,34-4.729,12-95.031c0,0-23.333-100.968,20.667-89.635"/>
</svg>
