<?xml version="1.0" encoding="utf-8"?>
<!-- Generator: Adobe Illustrator 16.0.0, SVG Export Plug-In . SVG Version: 6.00 Build 0)  -->
<!DOCTYPE svg PUBLIC "-//W3C//DTD SVG 1.1//EN" "http://www.w3.org/Graphics/SVG/1.1/DTD/svg11.dtd">
<svg version="1.1" id="레이어_1" xmlns="http://www.w3.org/2000/svg" xmlns:xlink="http://www.w3.org/1999/xlink" x="0px"
	 y="0px" width="283.46px" height="283.46px" viewBox="0 0 283.46 283.46" enable-background="new 0 0 283.46 283.46"
	 xml:space="preserve">
<g>
	<polyline fill="#3C3C3C" points="-965.307,-316.836 -986.842,-288.699 -1008.379,-316.85 	"/>
	<polyline fill="#FFFFFF" points="-1008.379,-329.607 -1008.379,-261.656 -1077.871,-294.935 -1077.871,-364.333 	"/>
	<polyline fill="#FFFFFF" points="-1008.379,-329.607 -1008.379,-261.656 -938.886,-294.935 -938.886,-363.886 	"/>
	<polyline fill="#FFFFFF" points="-981.526,-385.97 -938.886,-364.333 -1008.379,-329.404 -1077.871,-364.333 -1024.078,-392.038 	
		"/>
	<g>
		<path fill="#8354C8" d="M-1054.069-297.289l-3.18-1.637l0.258-20.725l-6.257-3.207l0.04-3.273l15.72,8.103l-0.033,3.247
			l-6.283-3.229L-1054.069-297.289z"/>
		<path fill="#8354C8" d="M-1040.656-314.509l-0.299,23.971l-3.191-1.649l0.298-23.973L-1040.656-314.509z"/>
		<path fill="#8354C8" d="M-1022.989-298.115c-0.013,1.218-0.196,2.232-0.54,3.045c-0.339,0.813-0.818,1.407-1.421,1.813
			c-0.596,0.38-1.326,0.542-2.191,0.475c-0.853-0.054-1.813-0.353-2.842-0.879l-2.468-1.272l-0.115,8.712l-3.192-1.649l0.297-23.972
			l5.567,2.867c1.122,0.568,2.109,1.286,2.982,2.083c0.866,0.813,1.597,1.691,2.185,2.666c0.589,0.946,1.021,1.947,1.318,3.003
			C-1023.11-300.183-1022.976-299.156-1022.989-298.115z M-1026.168-299.602c0.014-1.258-0.312-2.448-0.961-3.558
			c-0.656-1.123-1.731-2.07-3.267-2.867l-1.928-0.975l-0.108,8.86l1.677,0.866c1.441,0.743,2.57,0.906,3.369,0.479
			C-1026.587-297.221-1026.195-298.154-1026.168-299.602z"/>
	</g>
	<g>
		<path fill="#8354C8" d="M-984.651-301.158c0.419-0.067,0.826,0,1.218,0.189c0.365,0.188,0.718,0.528,1.002,0.974
			c0.27,0.461,0.5,1.015,0.662,1.679c0.176,0.688,0.257,1.46,0.257,2.34c-0.014,1.041-0.135,2.137-0.354,3.246
			c-0.216,1.109-0.554,2.164-1.014,3.179c-0.446,1.002-0.988,1.908-1.664,2.729c-0.662,0.813-1.434,1.438-2.313,1.881l-5.235,2.666
			l0.163-27.611l5.141-2.598c0.784-0.419,1.487-0.567,2.069-0.5c0.582,0.081,1.055,0.312,1.447,0.717
			c0.393,0.42,0.677,0.96,0.866,1.663c0.162,0.69,0.257,1.436,0.257,2.247c-0.014,1.42-0.217,2.746-0.649,3.964
			c-0.433,1.23-1.042,2.299-1.866,3.205v0.027L-984.651-301.158L-984.651-301.158z M-987.207-308.571l-2.273,1.149l-0.054,7.278
			l2.097-1.055c0.825-0.42,1.475-1.015,1.961-1.827c0.487-0.797,0.73-1.948,0.73-3.423c0.014-1-0.175-1.718-0.581-2.137
			C-985.72-309.018-986.342-309.018-987.207-308.571z M-987.289-297.816l-2.26,1.137l-0.054,9.414l2.558-1.271
			c0.892-0.459,1.596-1.271,2.124-2.407c0.513-1.137,0.784-2.396,0.784-3.748c0.013-1.353-0.243-2.353-0.771-2.989
			C-985.423-298.316-986.234-298.357-987.289-297.816z"/>
		<path fill="#8354C8" d="M-972.191-292.053c-1.069,0.541-2.017,0.662-2.841,0.365c-0.825-0.312-1.543-0.947-2.111-1.894
			c-0.568-0.988-0.987-2.247-1.284-3.815c-0.299-1.556-0.437-3.314-0.419-5.303c0.013-1.975,0.175-3.91,0.473-5.79
			c0.312-1.881,0.758-3.599,1.339-5.154c0.582-1.568,1.313-2.936,2.151-4.1c0.839-1.162,1.785-2.015,2.854-2.543
			c1.068-0.554,2.028-0.662,2.868-0.351c0.812,0.311,1.528,0.96,2.096,1.947c0.568,0.979,1.002,2.232,1.299,3.828
			c0.284,1.556,0.434,3.329,0.42,5.316c0,1.976-0.163,3.896-0.487,5.764c-0.311,1.881-0.771,3.584-1.353,5.141
			c-0.582,1.556-1.299,2.896-2.138,4.045C-970.163-293.433-971.123-292.594-972.191-292.053z M-972.165-295.829
			c0.69-0.364,1.299-0.905,1.813-1.677c0.514-0.757,0.973-1.69,1.312-2.773c0.365-1.095,0.636-2.327,0.813-3.68
			c0.202-1.338,0.284-2.786,0.297-4.314c0.014-1.516-0.068-2.868-0.243-4.046c-0.176-1.188-0.419-2.146-0.771-2.867
			c-0.353-0.73-0.771-1.231-1.299-1.461c-0.514-0.257-1.122-0.203-1.799,0.148c-0.69,0.338-1.285,0.906-1.813,1.678
			c-0.515,0.771-0.961,1.705-1.313,2.786c-0.352,1.069-0.623,2.301-0.812,3.653c-0.177,1.366-0.271,2.801-0.271,4.329
			c-0.014,1.529,0.055,2.882,0.23,4.044c0.162,1.178,0.419,2.139,0.757,2.868c0.352,0.758,0.785,1.229,1.312,1.461
			C-973.449-295.435-972.841-295.489-972.165-295.829z"/>
		<path fill="#8354C8" d="M-956.053-314.469l4.775,11.498l-2.746,1.395l-3.314-8.631l-0.055,0.013l-3.449,12.067l-2.747,1.407
			l4.966-16.274v-0.067l-4.694-11.322l2.732-1.396l3.273,8.428l0.041-0.028l3.313-11.755l2.747-1.379l-4.83,15.976v0.067
			L-956.053-314.469L-956.053-314.469z"/>
	</g>
	<path fill="none" stroke="#FFFFFF" stroke-width="10" stroke-linejoin="bevel" stroke-miterlimit="10" d="M-1014.521-372.531"/>
	<polygon fill="#FFFFFF" points="-1029.374,-362.425 -1011.971,-434.88 -972.097,-425.777 -989.318,-356.013 -1029.882,-356.636 	
		"/>
	<path fill="#8354C8" d="M-998.814-401.277c8.522,2.049,13.757,10.632,11.715,19.155c-2.056,8.508-10.619,13.785-19.155,11.708
		c-8.522-2.042-13.778-10.612-11.722-19.148C-1015.914-398.078-1007.351-403.333-998.814-401.277z"/>
	<g>
		<path fill="#FFFFFF" d="M-995.501-383.961c-0.148,0.446-0.311,0.893-0.514,1.312c-0.216,0.44-0.446,0.866-0.703,1.259
			c-0.258,0.392-0.527,0.757-0.813,1.088c-0.284,0.333-0.565,0.596-0.853,0.819l-1.664-1.772c0.528-0.453,0.975-0.934,1.325-1.447
			c0.365-0.501,0.704-1.108,0.988-1.807l-4.465-1.075c-0.257,0.48-0.527,0.968-0.831,1.447c-0.298,0.479-0.656,0.907-1.075,1.259
			c-0.427,0.352-0.927,0.608-1.502,0.758c-0.568,0.155-1.238,0.147-2.002-0.041l-0.38-0.088c-0.404-0.102-0.811-0.284-1.203-0.534
			c-0.393-0.243-0.724-0.589-1.008-1.015c-0.278-0.434-0.479-0.961-0.589-1.596c-0.121-0.637-0.108-1.38,0.028-2.246l-1.212-0.284
			l0.386-1.583l1.191,0.284c0.229-0.743,0.54-1.475,0.96-2.164c0.419-0.703,0.899-1.252,1.461-1.637l1.508,1.703
			c-0.453,0.414-0.818,0.84-1.104,1.279c-0.271,0.44-0.474,0.894-0.615,1.359l4.314,1.042c0.48-0.88,0.928-1.583,1.347-2.117
			c0.433-0.534,0.853-0.934,1.285-1.204c0.433-0.264,0.879-0.398,1.34-0.44c0.46-0.021,0.973,0.027,1.502,0.156l0.176,0.034
			c0.784,0.189,1.406,0.459,1.865,0.832c0.448,0.357,0.799,0.805,1.016,1.291c0.229,0.494,0.352,1.049,0.379,1.651
			c0.014,0.602-0.04,1.244-0.149,1.906l1.475,0.346l-0.395,1.575L-995.501-383.961z M-1007.08-384.787
			c0.304,0.067,0.582,0.095,0.798,0.067c0.216-0.014,0.427-0.088,0.615-0.195c0.184-0.115,0.353-0.284,0.521-0.48
			c0.148-0.218,0.331-0.461,0.5-0.771l-3.889-0.92c-0.061,0.42-0.061,0.785,0.013,1.062c0.062,0.277,0.156,0.493,0.291,0.67
			c0.123,0.162,0.265,0.271,0.42,0.338c0.142,0.068,0.257,0.108,0.365,0.135L-1007.08-384.787z M-998.855-388.548
			c-0.243-0.061-0.46-0.094-0.69-0.107c-0.202-0.021-0.405,0.026-0.622,0.135c-0.202,0.095-0.405,0.271-0.608,0.487
			c-0.203,0.224-0.419,0.555-0.662,0.975l4.098,0.993c0.096-0.771,0-1.346-0.27-1.725c-0.271-0.378-0.623-0.622-1.015-0.703
			L-998.855-388.548z"/>
	</g>
	<g>
		<path fill="#8354C8" d="M-985.22-354.728l17.789-73.943l-46.657-11.229l-20.468,85.111 M-1027.623-356.534
			c-0.757-0.196-1.521-0.196-2.259-0.103l16.519-68.653c0.628,0.419,1.305,0.744,2.063,0.927c3.923,0.94,7.947-1.833,8.979-6.202
			c0.148-0.596,0.217-1.204,0.229-1.799l20.899,5.038c-0.243,0.534-0.446,1.09-0.607,1.698c-1.056,4.39,1.271,8.679,5.195,9.625
			c0.554,0.142,1.109,0.169,1.663,0.156l-14.38,59.833"/>
	</g>
	<line fill="none" x1="-1040.799" y1="-355.865" x2="-975.845" y2="-355.865"/>
</g>
<g>
	
		<path fill="#8A8B8E" stroke="#8A8B8E" stroke-width="10" stroke-linecap="round" stroke-linejoin="round" stroke-miterlimit="10" d="
		M-230.796,374.927h-94.346v35.453c0,3.99-4.31,7.261-9.643,7.261h-53.831l-9.91,6.528v77.09c0,5.871,6.355,10.678,14.234,10.678
		h79.195l43.95,28.986v-28.986h30.351c7.878,0,14.221-4.807,14.221-10.678V385.63C-216.575,379.722-222.918,374.927-230.796,374.927
		z"/>
	<path fill="#FFFFFF" stroke="#FFFFFF" stroke-width="0.4" stroke-miterlimit="10" d="M-351.818,434.416
		c5.544,0,10.034,4.482,10.034,10.033c0,5.525-4.49,10.035-10.034,10.035c-5.543,0-10.034-4.51-10.034-10.035
		C-361.852,438.898-357.361,434.416-351.818,434.416z"/>
	<path fill="#FFFFFF" stroke="#FFFFFF" stroke-width="0.4" stroke-miterlimit="10" d="M-307.872,434.439
		c5.524,0,10.008,4.484,10.008,10.01c0,5.551-4.483,10.035-10.008,10.035c-5.537,0-10.035-4.484-10.035-10.035
		C-317.907,438.923-313.409,434.439-307.872,434.439z"/>
	<path fill="#FFFFFF" stroke="#FFFFFF" stroke-width="0.4" stroke-miterlimit="10" d="M-263.265,434.439
		c5.537,0,10.021,4.484,10.021,10.01c0,5.551-4.484,10.035-10.021,10.035s-10.021-4.484-10.021-10.035
		C-273.286,438.923-268.802,434.439-263.265,434.439z"/>
	
		<path fill="#8A8B8E" stroke="#8A8B8E" stroke-width="10" stroke-linecap="round" stroke-linejoin="round" stroke-miterlimit="10" d="
		M-325.142,374.927v-43.133c0-4.002-4.31-7.26-9.643-7.26h-104.348c-5.327,0-9.638,3.258-9.638,7.26v78.586
		c0,3.99,4.311,7.261,9.638,7.261h20.657v19.673l19.938-13.145"/>
	
		<rect x="-386.955" y="374.927" fill="#8A8B8E" stroke="#8A8B8E" stroke-width="10" stroke-linecap="round" stroke-linejoin="round" stroke-miterlimit="10" width="79.393" height="40.386"/>
	<path fill="none" stroke="#FFFFFF" stroke-miterlimit="10" d="M-317.907,356.979"/>
</g>
<path fill="#8A8B8E" d="M-148.77,124.163c0,9.704-60.553,17.567-135.241,17.567c-74.689,0-135.24-7.863-135.24-17.567
	c0-9.705,60.551-17.568,135.24-17.568C-209.323,106.594-148.77,114.458-148.77,124.163z"/>
<g>
	<g>
		
			<path fill="#FFFFFF" stroke="#FFFFFF" stroke-width="10" stroke-linecap="round" stroke-linejoin="round" stroke-miterlimit="10" d="
			M-195.25-15.849c0-49.03-39.733-88.762-88.76-88.762c-49.03,0-88.762,39.732-88.762,88.762c0,18.677,5.799,36,15.669,50.279
			h-0.029l0.234,0.299c3.128,4.515,5.791,8.672,9.671,12.511l63.216,74.448l63.206-74.478c3.894-3.836,6.578-8.028,9.706-12.512
			l0.236-0.297h-0.029C-201.048,20.151-195.25,2.828-195.25-15.849z M-284.009,37.058c-29.642,0-53.662-23.99-53.662-53.646
			c0-29.625,24.02-53.645,53.662-53.645c29.64,0,53.644,24.02,53.644,53.645C-230.366,13.039-254.37,37.058-284.009,37.058z"/>
	</g>
	<g>
		
			<path fill="#8A8B8E" stroke="#8A8B8E" stroke-width="10" stroke-linecap="round" stroke-linejoin="round" stroke-miterlimit="10" d="
			M-207.329-15.214c0-42.358-34.325-76.683-76.681-76.683c-42.358,0-76.684,34.325-76.684,76.683
			c0,16.135,5.01,31.102,13.538,43.438h-0.026l0.202,0.256c2.704,3.902,5.003,7.493,8.355,10.809l54.615,64.317l54.604-64.344
			c3.364-3.312,5.688-6.935,8.388-10.809l0.204-0.254h-0.025C-212.336,15.887-207.329,0.92-207.329-15.214z M-284.009,30.495
			c-25.609,0-46.36-20.725-46.36-46.347c0-25.593,20.75-46.344,46.36-46.344c25.604,0,46.344,20.751,46.344,46.344
			C-237.666,9.744-258.404,30.495-284.009,30.495z"/>
	</g>
</g>
<polyline fill="#3C3C3C" points="484.123,486.648 450.982,529.945 417.839,486.625 "/>
<polyline fill="#8A8B8E" stroke="#8A8B8E" stroke-width="10" stroke-linecap="round" stroke-linejoin="round" stroke-miterlimit="10" points="
	417.839,466.994 417.839,571.558 307.898,520.347 307.898,413.559 "/>
<polyline fill="#8A8B8E" stroke="#8A8B8E" stroke-width="10" stroke-linecap="round" stroke-linejoin="round" stroke-miterlimit="10" points="
	417.839,466.994 417.839,571.558 527.787,520.347 527.787,414.244 "/>
<polyline fill="#8A8B8E" stroke="#8A8B8E" stroke-width="10" stroke-linecap="round" stroke-linejoin="round" stroke-miterlimit="10" points="
	460.326,380.259 527.787,413.559 417.839,467.304 307.898,413.559 393.001,370.923 "/>
<g>
	<path fill="#FFFFFF" stroke="#FFFFFF" stroke-width="3" stroke-miterlimit="10" d="M340.46,516.726l-4.896-2.521l0.396-31.891
		l-9.632-4.936l0.063-5.035l24.188,12.469l-0.053,4.994l-9.668-4.975L340.46,516.726z"/>
	<path fill="#FFFFFF" stroke="#FFFFFF" stroke-width="3" stroke-miterlimit="10" d="M361.103,490.224l-0.461,36.889l-4.91-2.535
		l0.459-36.891L361.103,490.224z"/>
	<path fill="#FFFFFF" stroke="#FFFFFF" stroke-width="3" stroke-miterlimit="10" d="M388.289,515.455
		c-0.02,1.875-0.301,3.439-0.83,4.689c-0.52,1.25-1.26,2.168-2.188,2.785c-0.916,0.584-2.041,0.832-3.371,0.73
		c-1.313-0.086-2.789-0.545-4.373-1.355l-3.799-1.959l-0.178,13.408l-4.912-2.541l0.457-36.887l8.563,4.412
		c1.729,0.875,3.248,1.977,4.595,3.205c1.334,1.25,2.459,2.602,3.356,4.102c0.902,1.457,1.57,2.996,2.027,4.623
		C388.103,512.273,388.308,513.851,388.289,515.455z M383.398,513.167c0.02-1.936-0.48-3.77-1.48-5.479
		c-1.008-1.73-2.657-3.189-5.021-4.412l-2.967-1.498l-0.166,13.635l2.58,1.332c2.219,1.145,3.955,1.395,5.188,0.729
		C382.753,516.83,383.357,515.394,383.398,513.167z"/>
</g>
<g>
	<path fill="#FFFFFF" stroke="#FFFFFF" stroke-width="3" stroke-miterlimit="10" d="M459.402,510.771
		c0.646-0.102,1.271,0,1.873,0.293c0.563,0.291,1.105,0.813,1.543,1.5c0.414,0.707,0.771,1.559,1.021,2.58
		c0.271,1.061,0.396,2.248,0.396,3.602c-0.021,1.602-0.207,3.289-0.547,4.994c-0.328,1.709-0.85,3.33-1.559,4.895
		c-0.688,1.541-1.521,2.939-2.563,4.205c-1.021,1.25-2.205,2.207-3.561,2.896l-8.063,4.102l0.252-42.479l7.912-3.998
		c1.203-0.646,2.287-0.873,3.185-0.771c0.896,0.123,1.62,0.48,2.229,1.105c0.604,0.645,1.041,1.475,1.334,2.557
		c0.248,1.064,0.396,2.209,0.396,3.459c-0.021,2.188-0.334,4.229-0.997,6.102c-0.669,1.895-1.605,3.535-2.875,4.934v0.043h0.021
		v-0.01h0.002v-0.004h0.002V510.771L459.402,510.771z M455.468,499.365l-3.498,1.768l-0.08,11.203l3.223-1.625
		c1.271-0.645,2.271-1.561,3.021-2.813c0.752-1.227,1.123-2.996,1.123-5.266c0.021-1.539-0.271-2.645-0.896-3.289
		C457.757,498.675,456.8,498.675,455.468,499.365z M455.341,515.916l-3.479,1.748l-0.08,14.486l3.938-1.957
		c1.371-0.705,2.455-1.955,3.27-3.701c0.789-1.75,1.205-3.688,1.205-5.77c0.021-2.082-0.371-3.621-1.188-4.602
		C458.216,515.144,456.966,515.082,455.341,515.916z"/>
	<path fill="#FFFFFF" stroke="#FFFFFF" stroke-width="3" stroke-miterlimit="10" d="M478.576,524.783
		c-1.645,0.834-3.104,1.02-4.369,0.563c-1.271-0.479-2.375-1.459-3.25-2.916c-0.875-1.52-1.521-3.447-1.977-5.859
		c-0.463-2.396-0.668-5.105-0.646-8.158c0.021-3.037,0.271-6.021,0.73-8.91c0.477-2.896,1.166-5.537,2.059-7.938
		c0.896-2.412,2.021-4.521,3.313-6.314c1.292-1.789,2.746-3.1,4.396-3.914c1.646-0.852,3.122-1.02,4.416-0.539
		c1.245,0.48,2.354,1.48,3.229,2.996c0.875,1.498,1.541,3.439,1.998,5.896c0.436,2.395,0.668,5.117,0.646,8.184
		c0,3.039-0.252,5.996-0.752,8.869c-0.479,2.895-1.188,5.516-2.08,7.906c-0.896,2.395-1.997,4.455-3.288,6.229
		C481.699,522.66,480.22,523.953,478.576,524.783z M478.619,518.972c1.063-0.561,1.998-1.393,2.789-2.58
		c0.789-1.164,1.496-2.6,2.021-4.268c0.563-1.684,0.979-3.58,1.25-5.662c0.313-2.061,0.438-4.287,0.459-6.641
		c0.021-2.332-0.104-4.412-0.377-6.23c-0.271-1.834-0.646-3.309-1.188-4.41c-0.539-1.121-1.188-1.895-1.998-2.246
		c-0.791-0.396-1.727-0.314-2.768,0.229c-1.063,0.521-1.979,1.396-2.791,2.582c-0.789,1.189-1.479,2.623-2.021,4.285
		c-0.54,1.645-0.959,3.541-1.243,5.623c-0.271,2.102-0.418,4.311-0.418,6.662c-0.021,2.352,0.084,4.436,0.354,6.223
		c0.248,1.814,0.646,3.293,1.166,4.412c0.541,1.168,1.207,1.895,2.019,2.248C476.638,519.578,477.578,519.498,478.619,518.972z"/>
	<path fill="#FFFFFF" stroke="#FFFFFF" stroke-width="3" stroke-miterlimit="10" d="M503.41,490.291l7.354,17.693l-4.229,2.145
		l-5.102-13.281l-0.084,0.021l-5.312,18.568l-4.229,2.164l7.643-25.045v-0.104l-7.221-17.422l4.201-2.146l5.037,12.973l0.063-0.047
		l5.103-18.09l4.229-2.121l-7.436,24.582v0.105h-0.021v0.002h0.005L503.41,490.291L503.41,490.291L503.41,490.291z"/>
</g>
<path fill="none" stroke="#FFFFFF" stroke-width="10" stroke-linejoin="bevel" stroke-miterlimit="10" d="M408.388,400.941"/>
<polygon fill="#FFFFFF" points="373.177,416.718 408.472,305.224 489.341,319.234 454.414,426.585 369.07,425.626 "/>
<path fill="#8A8B8E" d="M432.556,356.707c13.117,3.152,21.172,16.36,18.029,29.479c-3.164,13.093-16.347,21.213-29.479,18.019
	c-13.115-3.144-21.203-16.328-18.037-29.469C406.244,361.628,419.423,353.541,432.556,356.707z"/>
<g>
	<path fill="#FFFFFF" d="M437.658,383.351c-0.229,0.688-0.479,1.375-0.789,2.018c-0.334,0.68-0.688,1.336-1.084,1.939
		c-0.396,0.602-0.811,1.162-1.25,1.674c-0.436,0.51-0.873,0.917-1.311,1.26l-2.563-2.727c0.813-0.697,1.5-1.438,2.037-2.227
		c0.563-0.772,1.086-1.709,1.521-2.781l-6.873-1.656c-0.396,0.74-0.813,1.49-1.273,2.229c-0.459,0.738-1.014,1.396-1.655,1.938
		c-0.65,0.541-1.425,0.937-2.313,1.166c-0.875,0.237-1.902,0.228-3.076-0.063l-0.584-0.135c-0.623-0.154-1.248-0.438-1.854-0.822
		c-0.604-0.373-1.113-0.902-1.556-1.56c-0.428-0.668-0.733-1.479-0.899-2.457c-0.188-0.979-0.168-2.125,0.041-3.457l-1.865-0.438
		l0.6-2.436l1.832,0.438c0.354-1.145,0.832-2.27,1.479-3.33c0.645-1.082,1.383-1.928,2.246-2.52l2.313,2.621
		c-0.69,0.637-1.258,1.293-1.69,1.969c-0.414,0.678-0.729,1.377-0.945,2.092l6.641,1.604c0.738-1.354,1.433-2.437,2.07-3.256
		c0.666-0.823,1.313-1.438,1.979-1.854c0.669-0.406,1.354-0.613,2.063-0.676c0.709-0.043,1.496,0.041,2.314,0.239l0.27,0.052
		c1.209,0.291,2.164,0.705,2.869,1.279c0.688,0.55,1.229,1.236,1.563,1.986c0.354,0.76,0.541,1.613,0.584,2.543
		c0.021,0.926-0.063,1.914-0.229,2.935l2.271,0.53l-0.604,2.424L437.658,383.351z M419.837,382.082
		c0.469,0.105,0.896,0.146,1.229,0.105c0.33-0.021,0.65-0.137,0.943-0.301c0.276-0.178,0.541-0.439,0.805-0.74
		c0.229-0.336,0.508-0.709,0.771-1.188l-5.984-1.416c-0.094,0.646-0.094,1.209,0.02,1.633c0.101,0.426,0.242,0.762,0.447,1.031
		c0.189,0.248,0.408,0.418,0.646,0.521c0.219,0.104,0.396,0.166,0.563,0.205L419.837,382.082z M432.496,376.292
		c-0.373-0.092-0.707-0.146-1.063-0.166c-0.313-0.029-0.625,0.043-0.959,0.207c-0.309,0.146-0.623,0.42-0.934,0.752
		c-0.314,0.344-0.646,0.854-1.021,1.5l6.307,1.529c0.146-1.189,0-2.072-0.414-2.656c-0.418-0.58-0.959-0.955-1.563-1.082
		L432.496,376.292z"/>
</g>
<g>
	
		<path fill="#8A8B8E" stroke="#8A8B8E" stroke-width="5" stroke-linecap="round" stroke-linejoin="round" stroke-miterlimit="10" d="
		M459.283,428.335l33.922-113.787l-88.969-17.277l-39.029,130.971 M376.888,428.636c-1.443-0.305-2.902-0.305-4.313-0.158
		l33.037-108.723c1.195,0.643,2.484,1.146,3.938,1.424c7.479,1.449,15.149-2.818,17.129-9.541c0.281-0.918,0.412-1.854,0.438-2.768
		l39.854,7.75c-0.465,0.817-0.854,1.678-1.16,2.608c-2.014,6.759,2.426,13.354,9.906,14.813c1.055,0.217,2.114,0.258,3.172,0.24
		l-27.42,92.072"/>
</g>
<line fill="none" stroke="#FFFFFF" stroke-width="4" stroke-miterlimit="10" x1="367.953" y1="426.585" x2="467.906" y2="426.585"/>
<path fill="none" stroke="#333333" stroke-width="20" stroke-linejoin="round" stroke-miterlimit="10" d="M269.564,210.125
	c0-44.652-32.875-80.811-73.464-80.811c-40.568,0-73.461,36.158-73.461,80.811"/>
<path fill="none" stroke="#333333" stroke-width="20" stroke-linejoin="round" stroke-miterlimit="10" d="M196.255,43.751
	c23.563,0,42.684,19.122,42.684,42.685c0,23.579-19.117,42.686-42.684,42.686c-23.564,0-42.687-19.107-42.687-42.686
	C153.569,62.874,172.691,43.751,196.255,43.751z"/>
<path fill="#8354C8" stroke="#FFFFFF" stroke-width="10" stroke-linecap="round" stroke-linejoin="round" stroke-miterlimit="10" d="
	M-27.881,286.324c0-65.681-48.359-118.867-108.063-118.867c-59.676,0-108.062,53.188-108.062,118.867H-27.881z"/>
<path fill="#8354C8" stroke="#FFFFFF" stroke-width="10" stroke-linecap="round" stroke-linejoin="round" stroke-miterlimit="10" d="
	M-138.432,64.22c34.666,0,62.79,28.125,62.79,62.787c0,34.682-28.124,62.79-62.79,62.79c-34.664,0-62.787-28.104-62.787-62.79
	C-201.221,92.346-173.097,64.22-138.432,64.22z"/>
<path fill="#FFFFFF" stroke="#FFFFFF" stroke-width="20" stroke-linejoin="round" stroke-miterlimit="10" d="M236.085,250.408
	c0-73.986-54.479-133.902-121.73-133.902c-67.224,0-121.729,59.917-121.729,133.902H121.22H236.085L236.085,250.408z"/>
<path fill="#FFFFFF" stroke="#FFFFFF" stroke-width="20" stroke-miterlimit="10" d="M118.356,8.684
	c36.301,0,65.751,29.453,65.751,65.75c0,36.318-29.45,65.751-65.751,65.751c-36.299,0-65.75-29.435-65.75-65.751
	C52.605,38.136,82.055,8.684,118.356,8.684z"/>
<path fill="none" stroke="#333333" stroke-width="20" stroke-miterlimit="10" d="M112.979,15.195
	c32.153,0,58.24,26.089,58.24,58.238c0,32.169-26.087,58.24-58.24,58.24c-32.151,0-58.238-26.071-58.238-58.24
	C54.74,41.284,80.826,15.195,112.979,15.195z"/>
<path fill="none" stroke="#333333" stroke-width="20" stroke-linejoin="round" stroke-miterlimit="10" d="M216.193,242.27
	L216.193,242.27c0-60.923-44.855-110.255-100.231-110.255c-55.353,0-100.232,49.335-100.232,110.255"/>
</svg>
