<?xml version="1.0" encoding="utf-8"?>
<!-- Generator: Adobe Illustrator 16.0.0, SVG Export Plug-In . SVG Version: 6.00 Build 0)  -->
<!DOCTYPE svg PUBLIC "-//W3C//DTD SVG 1.1//EN" "http://www.w3.org/Graphics/SVG/1.1/DTD/svg11.dtd">
<svg version="1.1" id="레이어_1" xmlns="http://www.w3.org/2000/svg" xmlns:xlink="http://www.w3.org/1999/xlink" x="0px"
	 y="0px" width="283.46px" height="283.46px" viewBox="0 0 283.46 283.46" enable-background="new 0 0 283.46 283.46"
	 xml:space="preserve">
<g>
	<polyline fill="#3C3C3C" points="-965.307,-316.836 -986.842,-288.699 -1008.379,-316.85 	"/>
	<polyline fill="#FFFFFF" points="-1008.379,-329.607 -1008.379,-261.656 -1077.871,-294.935 -1077.871,-364.333 	"/>
	<polyline fill="#FFFFFF" points="-1008.379,-329.607 -1008.379,-261.656 -938.886,-294.935 -938.886,-363.886 	"/>
	<polyline fill="#FFFFFF" points="-981.526,-385.97 -938.886,-364.333 -1008.379,-329.404 -1077.871,-364.333 -1024.078,-392.038 	
		"/>
	<g>
		<path fill="#8354C8" d="M-1054.069-297.289l-3.18-1.637l0.258-20.725l-6.257-3.207l0.04-3.273l15.72,8.103l-0.033,3.247
			l-6.283-3.229L-1054.069-297.289z"/>
		<path fill="#8354C8" d="M-1040.656-314.509l-0.299,23.971l-3.191-1.649l0.298-23.973L-1040.656-314.509z"/>
		<path fill="#8354C8" d="M-1022.989-298.115c-0.013,1.218-0.196,2.232-0.54,3.045c-0.339,0.813-0.818,1.407-1.421,1.813
			c-0.596,0.38-1.326,0.542-2.191,0.475c-0.853-0.054-1.813-0.353-2.842-0.879l-2.468-1.272l-0.115,8.712l-3.192-1.649l0.297-23.972
			l5.567,2.867c1.122,0.568,2.109,1.286,2.982,2.083c0.866,0.813,1.597,1.691,2.185,2.666c0.589,0.946,1.021,1.947,1.318,3.003
			C-1023.11-300.183-1022.976-299.156-1022.989-298.115z M-1026.168-299.602c0.014-1.258-0.312-2.448-0.961-3.558
			c-0.656-1.123-1.731-2.07-3.267-2.867l-1.928-0.975l-0.108,8.86l1.677,0.866c1.441,0.743,2.57,0.906,3.369,0.477
			C-1026.587-297.221-1026.195-298.154-1026.168-299.602z"/>
	</g>
	<g>
		<path fill="#8354C8" d="M-984.651-301.158c0.419-0.067,0.826,0,1.218,0.189c0.365,0.188,0.718,0.528,1.002,0.974
			c0.27,0.461,0.5,1.015,0.662,1.679c0.176,0.688,0.257,1.46,0.257,2.34c-0.014,1.041-0.135,2.137-0.354,3.246
			c-0.216,1.109-0.554,2.164-1.014,3.179c-0.446,1.002-0.988,1.908-1.664,2.729c-0.662,0.813-1.434,1.438-2.313,1.881l-5.235,2.666
			l0.163-27.611l5.141-2.598c0.784-0.419,1.487-0.567,2.069-0.5c0.582,0.081,1.055,0.312,1.447,0.717
			c0.393,0.42,0.677,0.96,0.866,1.663c0.162,0.69,0.257,1.436,0.257,2.247c-0.014,1.42-0.217,2.746-0.649,3.964
			c-0.433,1.23-1.042,2.299-1.866,3.205v0.027L-984.651-301.158L-984.651-301.158z M-987.207-308.571l-2.273,1.149l-0.054,7.278
			l2.097-1.055c0.825-0.42,1.475-1.015,1.961-1.827c0.487-0.797,0.73-1.948,0.73-3.423c0.014-1-0.175-1.718-0.581-2.137
			C-985.72-309.018-986.342-309.018-987.207-308.571z M-987.289-297.816l-2.26,1.137l-0.054,9.414l2.558-1.271
			c0.892-0.459,1.596-1.271,2.124-2.407c0.513-1.137,0.784-2.396,0.784-3.748c0.013-1.353-0.243-2.353-0.771-2.989
			C-985.423-298.316-986.234-298.357-987.289-297.816z"/>
		<path fill="#8354C8" d="M-972.191-292.053c-1.069,0.541-2.017,0.662-2.841,0.365c-0.825-0.312-1.543-0.947-2.111-1.894
			c-0.568-0.988-0.987-2.247-1.284-3.815c-0.299-1.556-0.436-3.314-0.419-5.303c0.013-1.975,0.175-3.91,0.473-5.79
			c0.312-1.881,0.758-3.599,1.339-5.154c0.582-1.568,1.313-2.936,2.151-4.1c0.839-1.162,1.785-2.015,2.854-2.543
			c1.068-0.554,2.028-0.662,2.868-0.351c0.812,0.311,1.528,0.96,2.096,1.947c0.568,0.977,1.002,2.232,1.299,3.828
			c0.284,1.556,0.434,3.329,0.42,5.316c0,1.976-0.163,3.896-0.487,5.764c-0.311,1.881-0.771,3.584-1.353,5.141
			c-0.582,1.556-1.299,2.896-2.138,4.045C-970.163-293.433-971.123-292.594-972.191-292.053z M-972.165-295.829
			c0.69-0.364,1.299-0.905,1.813-1.677c0.514-0.757,0.973-1.69,1.312-2.773c0.365-1.095,0.636-2.327,0.813-3.68
			c0.202-1.338,0.284-2.786,0.297-4.314c0.014-1.516-0.068-2.868-0.243-4.046c-0.176-1.188-0.419-2.147-0.771-2.867
			c-0.353-0.73-0.771-1.231-1.299-1.461c-0.514-0.257-1.122-0.203-1.799,0.148c-0.69,0.338-1.285,0.906-1.813,1.678
			c-0.515,0.771-0.961,1.705-1.313,2.786c-0.352,1.069-0.623,2.301-0.812,3.653c-0.177,1.366-0.271,2.801-0.271,4.329
			c-0.014,1.529,0.055,2.882,0.23,4.044c0.162,1.178,0.419,2.139,0.757,2.868c0.352,0.758,0.785,1.229,1.312,1.461
			C-973.449-295.435-972.841-295.489-972.165-295.829z"/>
		<path fill="#8354C8" d="M-956.053-314.469l4.775,11.498l-2.746,1.395l-3.314-8.631l-0.055,0.013l-3.449,12.067l-2.747,1.407
			l4.966-16.274v-0.067l-4.694-11.322l2.732-1.396l3.273,8.428l0.041-0.028l3.313-11.755l2.747-1.379l-4.83,15.976v0.067
			L-956.053-314.469L-956.053-314.469z"/>
	</g>
	<path fill="none" stroke="#FFFFFF" stroke-width="10" stroke-linejoin="bevel" stroke-miterlimit="10" d="M-1014.521-372.531"/>
	<polygon fill="#FFFFFF" points="-1029.374,-362.425 -1011.971,-434.88 -972.097,-425.777 -989.318,-356.013 -1029.882,-356.636 	
		"/>
	<path fill="#8354C8" d="M-998.814-401.277c8.522,2.049,13.757,10.632,11.715,19.155c-2.056,8.508-10.619,13.785-19.155,11.708
		c-8.522-2.042-13.778-10.612-11.722-19.148C-1015.914-398.078-1007.351-403.333-998.814-401.277z"/>
	<g>
		<path fill="#FFFFFF" d="M-995.501-383.961c-0.148,0.446-0.311,0.893-0.514,1.312c-0.216,0.44-0.446,0.866-0.703,1.259
			c-0.258,0.392-0.527,0.757-0.813,1.088c-0.284,0.333-0.566,0.596-0.853,0.819l-1.664-1.772c0.528-0.453,0.975-0.934,1.325-1.447
			c0.365-0.501,0.704-1.108,0.988-1.807l-4.465-1.075c-0.257,0.48-0.527,0.968-0.831,1.447c-0.298,0.479-0.656,0.907-1.075,1.259
			c-0.427,0.352-0.927,0.608-1.502,0.758c-0.568,0.155-1.238,0.147-2.002-0.041l-0.38-0.088c-0.404-0.102-0.811-0.284-1.203-0.534
			c-0.393-0.243-0.724-0.589-1.008-1.015c-0.278-0.434-0.479-0.961-0.589-1.596c-0.121-0.637-0.108-1.38,0.028-2.246l-1.212-0.284
			l0.386-1.583l1.191,0.284c0.229-0.743,0.54-1.475,0.96-2.164c0.419-0.703,0.899-1.252,1.461-1.637l1.508,1.703
			c-0.453,0.414-0.818,0.84-1.104,1.279c-0.271,0.44-0.474,0.894-0.615,1.359l4.314,1.042c0.48-0.88,0.928-1.583,1.347-2.117
			c0.433-0.534,0.853-0.934,1.285-1.204c0.433-0.264,0.879-0.398,1.34-0.44c0.46-0.023,0.973,0.027,1.502,0.156l0.176,0.034
			c0.784,0.189,1.406,0.459,1.865,0.832c0.448,0.357,0.799,0.805,1.016,1.291c0.229,0.494,0.352,1.049,0.379,1.651
			c0.014,0.602-0.04,1.244-0.149,1.906l1.475,0.346l-0.394,1.575L-995.501-383.961z M-1007.08-384.787
			c0.304,0.067,0.582,0.095,0.798,0.067c0.216-0.014,0.427-0.088,0.615-0.195c0.184-0.115,0.353-0.284,0.521-0.48
			c0.148-0.218,0.331-0.461,0.5-0.771l-3.889-0.92c-0.061,0.42-0.061,0.785,0.013,1.062c0.062,0.277,0.156,0.493,0.291,0.67
			c0.123,0.162,0.265,0.271,0.42,0.338c0.142,0.068,0.257,0.108,0.365,0.135L-1007.08-384.787z M-998.855-388.548
			c-0.243-0.061-0.46-0.094-0.69-0.107c-0.202-0.021-0.405,0.026-0.622,0.135c-0.202,0.095-0.405,0.271-0.608,0.487
			c-0.203,0.224-0.419,0.555-0.662,0.975l4.098,0.993c0.096-0.771,0-1.346-0.27-1.725c-0.271-0.378-0.623-0.622-1.015-0.703
			L-998.855-388.548z"/>
	</g>
	<g>
		<path fill="#8354C8" d="M-985.22-354.728l17.789-73.943l-46.657-11.229l-20.468,85.111 M-1027.623-356.534
			c-0.757-0.196-1.521-0.196-2.259-0.103l16.519-68.653c0.628,0.419,1.305,0.744,2.063,0.927c3.923,0.94,7.947-1.833,8.98-6.202
			c0.148-0.596,0.217-1.204,0.229-1.799l20.9,5.038c-0.243,0.534-0.446,1.09-0.608,1.698c-1.056,4.39,1.271,8.679,5.195,9.625
			c0.554,0.142,1.109,0.169,1.663,0.156l-14.38,59.833"/>
	</g>
	<line fill="none" x1="-1040.799" y1="-355.865" x2="-975.845" y2="-355.865"/>
</g>
<g enable-background="new    ">
	<path fill="#FFFFFF" d="M358.265,210.134h-7.939v-26.877c0-5.395-2.395-8.092-7.178-8.092c-2.342,0-4.275,0.967-5.803,2.898
		c-1.834,2.238-2.75,5.396-2.75,9.471v22.6h-8.019v-26.877c0-5.395-2.395-8.092-7.178-8.092c-2.395,0-4.303,0.939-5.727,2.824
		c-1.783,2.238-2.677,5.422-2.677,9.545v22.6h-8.093v-30.77c0-2.344-0.023-4.377-0.075-6.109c-0.053-1.729-0.129-3.18-0.229-4.352
		h7.941v3.738c2.288-3.104,5.879-4.654,10.766-4.654c2.086,0,4.174,0.605,6.262,1.832c2.139,1.322,3.641,2.979,4.504,4.963
		c2.854-4.529,7.104-6.795,12.752-6.795c4.326,0,7.688,1.297,10.078,3.895c2.24,2.395,3.359,5.677,3.359,9.85L358.265,210.134
		L358.265,210.134z"/>
	<path fill="#FFFFFF" d="M406.98,168.83l-15.119,42.223c-1.271,3.564-2.596,6.033-3.971,7.406c-1.68,1.883-3.92,2.854-6.719,2.902
		h-0.767c-1.936,0-3.92-0.257-5.955-0.766l0.843-7.635c1.778,0.66,3.229,0.992,4.352,0.992c0.102,0,0.318-0.016,0.648-0.039
		c0.332-0.025,0.772-0.063,1.336-0.113c1.172-0.104,2.237-1.809,3.207-5.116l0.608-1.983l-13.817-37.871h8.396l9.24,27.869
		l9.621-27.869H406.98z"/>
</g>
<path fill="none" stroke="#333333" stroke-width="20" stroke-miterlimit="10" d="M121.077,27.834
	c32.153,0,58.24,26.089,58.24,58.238c0,32.169-26.087,58.24-58.24,58.24c-32.151,0-58.238-26.071-58.238-58.24
	C62.837,53.923,88.923,27.834,121.077,27.834z"/>
<path fill="none" stroke="#333333" stroke-width="20" stroke-miterlimit="10" d="M224.291,254.91L224.291,254.91
	c0-60.924-44.854-110.256-100.229-110.256c-55.354,0-100.232,49.336-100.232,110.256"/>
<path fill="none" stroke="#8A8B8E" stroke-width="20" stroke-linecap="square" stroke-miterlimit="10" d="M-146.787,80.343h-99.628
	v37.438c0,4.213-4.552,7.667-10.184,7.667h-56.845l-10.465,6.894v81.406c0,6.199,6.711,11.275,15.031,11.275h83.629l46.41,30.609
	v-30.609h32.051c8.318,0,15.017-5.076,15.017-11.275V91.645C-131.77,85.406-138.468,80.343-146.787,80.343z"/>
<rect x="141.73" y="173.23" fill="#FFFFFF" width="135.5" height="97.68"/>
<g>
	<g>
		<path fill="#333333" d="M188.198,256.132v-29.676c0-1.615,0.063-3.41,0.185-5.338c0.121-1.922,0.259-3.873,0.408-5.855
			c0.002-0.014,0.004-0.028,0.004-0.043l-1.868,5.434l-10.741,29.369h-9.829l-10.826-29.338l-1.686-4.98
			c0.172,1.903,0.311,3.68,0.421,5.414c0.123,1.932,0.186,3.729,0.186,5.338v29.676h-15.22v-70.477h17.483l11.832,32.539
			c0.746,2.178,1.455,4.371,2.119,6.549l0.825,2.707c0.277-0.898,0.546-1.795,0.806-2.689c0.646-2.213,1.343-4.414,2.072-6.541
			l11.558-32.564h17.491v70.477H188.198L188.198,256.132z"/>
		<path fill="#333333" d="M201.917,187.156v67.477h-12.221v-28.176c0-1.58,0.061-3.328,0.182-5.242
			c0.121-1.916,0.258-3.859,0.408-5.836c0.15-1.975,0.315-3.922,0.498-5.838c0.18-1.914,0.361-3.66,0.545-5.242h-0.365
			l-5.457,15.867l-10.372,28.357H167.4l-10.464-28.357l-5.369-15.867h-0.362c0.184,1.582,0.366,3.328,0.549,5.242
			c0.187,1.916,0.369,3.863,0.555,5.838c0.183,1.977,0.338,3.92,0.46,5.836c0.122,1.914,0.183,3.662,0.183,5.242v28.176h-12.22
			v-67.477h14.935l11.473,31.551c0.729,2.129,1.427,4.285,2.095,6.476c0.666,2.188,1.335,4.376,2.002,6.563h0.456
			c0.729-2.188,1.411-4.377,2.048-6.563c0.638-2.188,1.32-4.347,2.05-6.476l11.198-31.551H201.917 M204.917,184.156h-3h-14.934
			h-2.117l-0.71,1.996l-11.198,31.551c-0.518,1.512-1.015,3.041-1.486,4.582c-0.482-1.523-0.983-3.047-1.497-4.549l-0.011-0.027
			l-0.01-0.026l-11.473-31.552l-0.718-1.975h-2.103H140.73h-3v3v67.477v3h3h12.221h3v-3v-28.176c0-0.1,0-0.199-0.002-0.299
			l8.637,23.404l0.725,1.961h2.091h7.735h2.097l0.722-1.971l8.75-23.922c-0.004,0.279-0.006,0.556-0.006,0.826v28.176v3h3h12.221h3
			v-3v-67.477v-3H204.917z"/>
	</g>
	<g>
		<path fill="#333333" d="M233.5,256.132v-25.875l-21.11-44.602h17.69l7.129,17.342c0.984,2.586,1.939,5.055,2.881,7.453
			c0.568,1.45,1.154,2.939,1.757,4.467c0.614-1.521,1.231-3.023,1.847-4.496c0.98-2.348,1.973-4.832,2.945-7.389l7.145-17.377
			h17.422l-21.207,44.604v25.871H233.5V256.132z"/>
		<path fill="#333333" d="M268.83,187.156l-20.334,42.766v24.711H235v-24.711l-20.242-42.766h14.316l6.746,16.412
			c0.973,2.555,1.93,5.029,2.873,7.432c0.941,2.402,1.93,4.91,2.964,7.522h0.364c1.032-2.612,2.052-5.12,3.055-7.522
			c1.004-2.399,1.99-4.877,2.963-7.432l6.748-16.412H268.83 M273.578,184.156h-4.748h-14.043h-2.01l-0.765,1.859l-6.748,16.412
			l-0.017,0.035l-0.014,0.037c-0.967,2.541-1.952,5.01-2.927,7.342c-0.146,0.349-0.29,0.697-0.437,1.049
			c-0.13-0.33-0.259-0.659-0.387-0.984c-0.947-2.412-1.91-4.902-2.861-7.404l-0.015-0.037l-0.017-0.037l-6.745-16.411l-0.765-1.858
			h-2.011h-14.315h-4.739l2.026,4.282L232,230.595v24.037v3h3h13.496h3v-3v-24.034l20.043-42.153L273.578,184.156L273.578,184.156z"
			/>
	</g>
</g>
</svg>
