<?xml version="1.0" encoding="utf-8"?>
<!-- Generator: Adobe Illustrator 16.0.0, SVG Export Plug-In . SVG Version: 6.00 Build 0)  -->
<!DOCTYPE svg PUBLIC "-//W3C//DTD SVG 1.1//EN" "http://www.w3.org/Graphics/SVG/1.1/DTD/svg11.dtd">
<svg version="1.1" id="레이어_1" xmlns="http://www.w3.org/2000/svg" xmlns:xlink="http://www.w3.org/1999/xlink" x="0px"
	 y="0px" width="283.46px" height="283.46px" viewBox="0 0 283.46 283.46" enable-background="new 0 0 283.46 283.46"
	 xml:space="preserve">
<path fill="none" stroke="#8A8B8E" stroke-width="20" stroke-linecap="square" stroke-miterlimit="10" d="M-140.676,483.267V357.576
	"/>
<path fill="none" stroke="#8A8B8E" stroke-width="20" stroke-linecap="square" stroke-miterlimit="10" d="M-233.815,500.021
	l44.688,28.422v-33.568"/>
<path fill="#8A8B8E" stroke="#8A8B8E" stroke-width="6" stroke-miterlimit="10" d="M-286.662,414.722
	c6.026,0,10.907,4.871,10.907,10.906c0,6.008-4.881,10.908-10.907,10.908s-10.908-4.9-10.908-10.908
	C-297.569,419.593-292.687,414.722-286.662,414.722z"/>
<path fill="#8A8B8E" stroke="#8A8B8E" stroke-width="6" stroke-miterlimit="10" d="M-238.89,414.75
	c6.006,0,10.876,4.873,10.876,10.881c0,6.031-4.869,10.908-10.876,10.908c-6.021,0-10.909-4.875-10.909-10.908
	C-249.799,419.623-244.911,414.75-238.89,414.75z"/>
<path fill="#8A8B8E" stroke="#8A8B8E" stroke-width="6" stroke-miterlimit="10" d="M-190.4,414.75
	c6.021,0,10.894,4.873,10.894,10.881c0,6.031-4.873,10.908-10.894,10.908c-6.019,0-10.894-4.875-10.894-10.908
	C-201.293,419.623-196.418,414.75-190.4,414.75z"/>
<path fill="none" stroke="#FFFFFF" stroke-miterlimit="10" d="M-250.829,326.427"/>
<polyline fill="none" stroke="#8A8B8E" stroke-width="20" stroke-linecap="square" stroke-miterlimit="10" points="
	-247.741,494.728 -343.446,494.728 -343.446,345.941 -140.676,345.941 -140.676,494.728 -189.127,494.728 "/>
<rect x="-389.776" y="287.816" fill="#FFFFFF" width="139.977" height="94.705"/>
<polygon fill="#FFFFFF" points="-347.564,367.082 -347.564,408.773 -297.569,367.082 "/>
<path fill="none" stroke="#8A8B8E" stroke-width="20" stroke-linecap="square" stroke-miterlimit="10" d="M-354.853,393.332v25.383
	l31.347-22.877"/>
<polyline fill="none" stroke="#8A8B8E" stroke-width="20" stroke-linecap="square" stroke-miterlimit="10" points="
	-311.122,390.705 -243.624,390.705 -243.624,283.46 -389.776,283.46 -389.776,390.705 -354.852,390.705 "/>
<path fill="none" stroke="#333333" stroke-width="20" stroke-linecap="square" stroke-miterlimit="10" d="M239.001,96.835
	c19.844,0,33.931,16.086,33.931,35.93c0,19.844-14.087,35.93-33.931,35.93"/>
<g>
	<path fill="#333333" d="M43.501,196.147l12.071,46.644H36.586l-12.071-46.644H43.501 M58.984,176.147H43.501H24.515H-1.32
		l6.473,25.011l12.071,46.645l3.879,14.988h15.483h18.987h25.835l-6.473-25.01l-12.071-46.645L58.984,176.147L58.984,176.147z"/>
</g>
<rect x="-42.971" y="56.831" fill="#FFFFFF" width="46.691" height="155.868"/>
<g>
	<path fill="#333333" d="M84.23,88.72v86.276H23.72V88.72H84.23 M104.23,68.72H3.72v126.276h100.51V68.72L104.23,68.72z"/>
</g>
<g>
	<path fill="#333333" d="M228.198,51.012v161.693L104.171,179.63V84.084L228.198,51.012 M248.198,24.979L84.171,68.719v126.277
		l164.026,43.74L248.198,24.979L248.198,24.979z"/>
</g>
<line fill="none" stroke="#333333" stroke-width="20" stroke-linecap="square" stroke-miterlimit="10" x1="134.23" y1="68.72" x2="134.23" y2="193.339"/>
</svg>
