<?xml version="1.0" encoding="utf-8"?>
<!-- Generator: Adobe Illustrator 16.0.0, SVG Export Plug-In . SVG Version: 6.00 Build 0)  -->
<!DOCTYPE svg PUBLIC "-//W3C//DTD SVG 1.1//EN" "http://www.w3.org/Graphics/SVG/1.1/DTD/svg11.dtd">
<svg version="1.1" id="레이어_1" xmlns="http://www.w3.org/2000/svg" xmlns:xlink="http://www.w3.org/1999/xlink" x="0px"
	 y="0px" width="283.46px" height="283.46px" viewBox="0 0 283.46 283.46" enable-background="new 0 0 283.46 283.46"
	 xml:space="preserve">
<g>
	<path fill="none" stroke="#8A8B8E" stroke-width="20" stroke-linecap="square" stroke-miterlimit="10" d="M265.953,216.904V92.407"
		/>
	<path fill="none" stroke="#333333" stroke-width="20" stroke-linecap="square" stroke-miterlimit="10" d="M173.701,233.498
		l44.262,28.15V228.4"/>
	<path fill="none" stroke="#FFFFFF" stroke-miterlimit="10" d="M156.847,61.558"/>
	<polyline fill="none" stroke="#333333" stroke-width="20" stroke-linecap="square" stroke-miterlimit="10" points="
		159.907,228.253 65.113,228.253 65.113,80.883 265.953,80.883 265.953,228.253 217.96,228.253 	"/>
	<rect x="19.224" y="23.313" fill="#FFFFFF" width="138.645" height="93.804"/>
	<polygon fill="#FFFFFF" points="61.034,101.823 61.034,143.117 110.552,101.823 	"/>
	<path fill="none" stroke="#333333" stroke-width="20" stroke-linecap="square" stroke-miterlimit="10" d="M53.814,127.823v25.141
		l31.049-22.661"/>
	<polyline fill="none" stroke="#333333" stroke-width="20" stroke-linecap="square" stroke-miterlimit="10" points="97.129,125.221 
		163.985,125.221 163.985,18.999 19.224,18.999 19.224,125.221 53.815,125.221 	"/>
</g>
<g>
	<polyline fill="#3C3C3C" points="-965.307,-316.836 -986.842,-288.699 -1008.379,-316.85 	"/>
	<polyline fill="#FFFFFF" points="-1008.379,-329.607 -1008.379,-261.656 -1077.871,-294.935 -1077.871,-364.333 	"/>
	<polyline fill="#FFFFFF" points="-1008.379,-329.607 -1008.379,-261.656 -938.886,-294.935 -938.886,-363.886 	"/>
	<polyline fill="#FFFFFF" points="-981.526,-385.97 -938.886,-364.333 -1008.379,-329.404 -1077.871,-364.333 -1024.078,-392.038 	
		"/>
	<g>
		<path fill="#8354C8" d="M-1054.069-297.289l-3.18-1.637l0.258-20.725l-6.257-3.207l0.04-3.273l15.72,8.103l-0.033,3.247
			l-6.283-3.229L-1054.069-297.289z"/>
		<path fill="#8354C8" d="M-1040.656-314.509l-0.299,23.971l-3.191-1.649l0.298-23.973L-1040.656-314.509z"/>
		<path fill="#8354C8" d="M-1022.989-298.115c-0.013,1.218-0.196,2.232-0.54,3.045c-0.339,0.813-0.818,1.407-1.421,1.813
			c-0.596,0.38-1.326,0.542-2.191,0.475c-0.853-0.054-1.813-0.353-2.842-0.879l-2.468-1.272l-0.115,8.712l-3.192-1.649l0.297-23.972
			l5.567,2.867c1.122,0.568,2.109,1.286,2.982,2.083c0.866,0.813,1.597,1.691,2.185,2.666c0.589,0.946,1.021,1.947,1.318,3.003
			C-1023.11-300.183-1022.976-299.156-1022.989-298.115z M-1026.168-299.602c0.014-1.258-0.312-2.448-0.961-3.558
			c-0.656-1.123-1.731-2.07-3.267-2.867l-1.928-0.975l-0.108,8.86l1.677,0.866c1.441,0.743,2.57,0.906,3.369,0.479
			C-1026.587-297.221-1026.195-298.154-1026.168-299.602z"/>
	</g>
	<g>
		<path fill="#8354C8" d="M-984.651-301.158c0.419-0.067,0.826,0,1.218,0.189c0.365,0.188,0.718,0.528,1.002,0.974
			c0.27,0.461,0.5,1.015,0.662,1.679c0.176,0.688,0.257,1.46,0.257,2.34c-0.014,1.041-0.135,2.137-0.354,3.246
			c-0.216,1.109-0.554,2.164-1.014,3.179c-0.446,1.002-0.988,1.908-1.664,2.729c-0.662,0.813-1.434,1.438-2.313,1.881l-5.235,2.666
			l0.163-27.611l5.141-2.598c0.784-0.419,1.487-0.567,2.069-0.5c0.582,0.081,1.055,0.312,1.447,0.717
			c0.393,0.42,0.677,0.96,0.866,1.663c0.162,0.69,0.257,1.436,0.257,2.247c-0.014,1.42-0.217,2.746-0.649,3.964
			c-0.433,1.23-1.042,2.299-1.866,3.205v0.027L-984.651-301.158L-984.651-301.158z M-987.207-308.571l-2.273,1.149l-0.054,7.278
			l2.097-1.055c0.825-0.42,1.475-1.015,1.961-1.827c0.487-0.797,0.73-1.948,0.73-3.423c0.014-1-0.175-1.718-0.581-2.137
			C-985.72-309.018-986.342-309.018-987.207-308.571z M-987.289-297.816l-2.26,1.137l-0.054,9.414l2.558-1.271
			c0.892-0.459,1.596-1.271,2.124-2.407c0.513-1.137,0.784-2.396,0.784-3.748c0.013-1.353-0.243-2.353-0.771-2.989
			C-985.423-298.316-986.234-298.357-987.289-297.816z"/>
		<path fill="#8354C8" d="M-972.191-292.053c-1.069,0.541-2.017,0.662-2.841,0.365c-0.825-0.312-1.543-0.947-2.111-1.894
			c-0.568-0.988-0.987-2.247-1.284-3.815c-0.299-1.556-0.435-3.314-0.419-5.303c0.013-1.975,0.175-3.91,0.473-5.79
			c0.312-1.881,0.758-3.599,1.339-5.154c0.582-1.568,1.313-2.936,2.151-4.1c0.839-1.162,1.785-2.015,2.854-2.543
			c1.068-0.554,2.028-0.662,2.868-0.351c0.812,0.311,1.528,0.96,2.096,1.947c0.568,0.979,1.002,2.232,1.299,3.828
			c0.284,1.556,0.434,3.329,0.42,5.316c0,1.976-0.163,3.896-0.487,5.764c-0.311,1.881-0.771,3.584-1.353,5.141
			c-0.582,1.556-1.299,2.896-2.138,4.045C-970.163-293.433-971.123-292.594-972.191-292.053z M-972.165-295.829
			c0.69-0.364,1.299-0.905,1.813-1.677c0.514-0.757,0.973-1.69,1.312-2.773c0.365-1.095,0.636-2.327,0.813-3.68
			c0.202-1.338,0.284-2.786,0.297-4.314c0.014-1.516-0.068-2.868-0.243-4.046c-0.176-1.188-0.419-2.146-0.771-2.867
			c-0.353-0.73-0.771-1.231-1.299-1.461c-0.514-0.257-1.122-0.203-1.799,0.148c-0.69,0.338-1.285,0.906-1.813,1.678
			c-0.515,0.771-0.961,1.705-1.313,2.786c-0.352,1.069-0.623,2.301-0.812,3.653c-0.177,1.366-0.271,2.801-0.271,4.329
			c-0.014,1.529,0.055,2.882,0.23,4.044c0.162,1.178,0.419,2.139,0.757,2.868c0.352,0.758,0.785,1.229,1.312,1.461
			C-973.449-295.435-972.841-295.489-972.165-295.829z"/>
		<path fill="#8354C8" d="M-956.053-314.469l4.775,11.498l-2.746,1.395l-3.314-8.631l-0.055,0.013l-3.449,12.067l-2.747,1.407
			l4.966-16.274v-0.067l-4.694-11.322l2.732-1.396l3.273,8.428l0.041-0.028l3.313-11.755l2.747-1.379l-4.83,15.976v0.067
			L-956.053-314.469L-956.053-314.469z"/>
	</g>
	<path fill="none" stroke="#FFFFFF" stroke-width="10" stroke-linejoin="bevel" stroke-miterlimit="10" d="M-1014.521-372.531"/>
	<polygon fill="#FFFFFF" points="-1029.374,-362.425 -1011.971,-434.88 -972.097,-425.777 -989.318,-356.013 -1029.882,-356.636 	
		"/>
	<path fill="#8354C8" d="M-998.814-401.277c8.522,2.049,13.757,10.632,11.715,19.155c-2.056,8.508-10.619,13.785-19.155,11.708
		c-8.522-2.042-13.778-10.612-11.722-19.148C-1015.914-398.078-1007.351-403.333-998.814-401.277z"/>
	<g>
		<path fill="#FFFFFF" d="M-995.501-383.961c-0.148,0.446-0.311,0.893-0.514,1.312c-0.216,0.44-0.446,0.866-0.703,1.259
			c-0.258,0.392-0.527,0.757-0.813,1.088c-0.284,0.333-0.567,0.596-0.853,0.819l-1.664-1.772c0.528-0.453,0.975-0.934,1.325-1.447
			c0.365-0.501,0.704-1.108,0.988-1.807l-4.465-1.075c-0.257,0.48-0.527,0.968-0.831,1.447c-0.298,0.479-0.656,0.907-1.075,1.259
			c-0.427,0.352-0.927,0.608-1.502,0.758c-0.568,0.155-1.238,0.147-2.002-0.041l-0.38-0.088c-0.404-0.102-0.811-0.284-1.203-0.534
			c-0.393-0.243-0.724-0.589-1.008-1.015c-0.278-0.434-0.479-0.961-0.589-1.596c-0.121-0.637-0.108-1.38,0.028-2.246l-1.212-0.284
			l0.386-1.583l1.191,0.284c0.229-0.743,0.54-1.475,0.96-2.164c0.419-0.703,0.899-1.252,1.461-1.637l1.508,1.703
			c-0.453,0.414-0.818,0.84-1.104,1.279c-0.271,0.44-0.474,0.894-0.615,1.359l4.314,1.042c0.48-0.88,0.928-1.583,1.347-2.117
			c0.433-0.534,0.853-0.934,1.285-1.204c0.433-0.264,0.879-0.398,1.34-0.44c0.46-0.021,0.973,0.027,1.502,0.156l0.176,0.034
			c0.784,0.189,1.406,0.459,1.865,0.832c0.448,0.357,0.799,0.805,1.016,1.291c0.229,0.494,0.352,1.049,0.379,1.651
			c0.014,0.602-0.04,1.244-0.149,1.906l1.475,0.346l-0.393,1.575L-995.501-383.961z M-1007.08-384.787
			c0.304,0.067,0.582,0.095,0.798,0.067c0.216-0.014,0.427-0.088,0.615-0.195c0.184-0.115,0.353-0.284,0.521-0.48
			c0.148-0.218,0.331-0.461,0.5-0.771l-3.889-0.92c-0.061,0.42-0.061,0.785,0.013,1.062c0.062,0.277,0.156,0.493,0.291,0.67
			c0.123,0.162,0.265,0.271,0.42,0.338c0.142,0.068,0.257,0.108,0.365,0.135L-1007.08-384.787z M-998.855-388.548
			c-0.243-0.061-0.46-0.094-0.69-0.107c-0.202-0.021-0.405,0.026-0.622,0.135c-0.202,0.095-0.405,0.271-0.608,0.487
			c-0.203,0.224-0.419,0.555-0.662,0.975l4.098,0.993c0.096-0.771,0-1.346-0.27-1.725c-0.271-0.378-0.623-0.622-1.015-0.703
			L-998.855-388.548z"/>
	</g>
	<g>
		<path fill="#8354C8" d="M-985.22-354.728l17.789-73.943l-46.657-11.229l-20.468,85.111 M-1027.623-356.534
			c-0.757-0.196-1.521-0.196-2.259-0.103l16.519-68.653c0.628,0.419,1.305,0.744,2.063,0.927c3.923,0.94,7.947-1.833,8.981-6.202
			c0.148-0.596,0.217-1.204,0.229-1.799l20.9,5.038c-0.243,0.534-0.446,1.09-0.608,1.698c-1.056,4.39,1.271,8.679,5.195,9.625
			c0.554,0.142,1.109,0.169,1.663,0.156l-14.38,59.833"/>
	</g>
	<line fill="none" x1="-1040.799" y1="-355.865" x2="-975.845" y2="-355.865"/>
</g>
<path fill="#8A8B8E" stroke="#8A8B8E" stroke-width="10" stroke-linecap="round" stroke-linejoin="round" stroke-miterlimit="10" d="
	M11.412-242.072h-94.346v35.453c0,3.989-4.311,7.26-9.643,7.26h-53.831l-9.91,6.528v77.09c0,5.871,6.355,10.678,14.234,10.678
	h79.195l43.949,28.986v-28.986h30.352c7.878,0,14.221-4.807,14.221-10.678v-115.628C25.633-237.277,19.29-242.072,11.412-242.072z"
	/>
<path fill="#8A8B8E" stroke="#8A8B8E" stroke-width="10" stroke-linecap="round" stroke-linejoin="round" stroke-miterlimit="10" d="
	M-82.934-242.072v-43.134c0-4.001-4.311-7.259-9.643-7.259h-104.347c-5.327,0-9.638,3.258-9.638,7.259v78.587
	c0,3.989,4.311,7.26,9.638,7.26h20.657v19.673l19.938-13.145"/>
<rect x="-144.747" y="-242.072" fill="#8A8B8E" stroke="#8A8B8E" stroke-width="10" stroke-linecap="round" stroke-linejoin="round" stroke-miterlimit="10" width="79.394" height="40.385"/>
<path fill="none" stroke="#FFFFFF" stroke-miterlimit="10" d="M-75.699-260.021"/>
<g>
	<path fill="#FFFFFF" stroke="#FFFFFF" stroke-width="3" stroke-miterlimit="10" d="M-71.07-152.454v-5.053
		c0-1.789,0.16-3.387,0.483-4.783c0.322-1.396,0.896-2.775,1.722-4.139c0.822-1.359,1.896-2.777,3.225-4.246
		c1.324-1.471,2.99-3.17,4.999-5.105c1.288-1.219,2.524-2.397,3.71-3.549c1.182-1.146,2.255-2.346,3.225-3.6
		c0.969-1.256,1.737-2.618,2.313-4.087c0.57-1.469,0.859-3.135,0.859-4.999v-1.72c0-3.871-1.31-6.934-3.925-9.191
		c-2.616-2.258-6.182-3.386-10.694-3.386c-3.656,0-6.988,0.736-9.998,2.204c-3.012,1.47-5.627,3.458-7.849,5.966l-4.837-4.944
		c0.932-1.146,2.109-2.328,3.545-3.548c1.436-1.218,3.102-2.313,5-3.279s4.016-1.755,6.344-2.365
		c2.328-0.604,4.854-0.914,7.577-0.914c7.165,0,12.722,1.757,16.664,5.267c3.938,3.512,5.911,8.208,5.911,14.083v1.827
		c0,2.649-0.412,4.98-1.234,6.987c-0.824,2.007-1.899,3.854-3.228,5.536c-1.325,1.688-2.813,3.279-4.459,4.783
		c-1.649,1.506-3.299,3.047-4.947,4.623c-1.218,1.147-2.256,2.203-3.114,3.17c-0.86,0.967-1.598,1.937-2.205,2.904
		c-0.608,0.967-1.061,2.006-1.345,3.116c-0.286,1.112-0.429,2.349-0.429,3.708v4.73h-7.313V-152.454z M-72.574-142.026h10.319
		v10.535h-10.319V-142.026z"/>
</g>
<path fill="#8A8B8E" stroke="#8A8B8E" stroke-width="10" stroke-linecap="round" stroke-linejoin="round" stroke-miterlimit="10" d="
	M-232.393,60.929h-94.346v35.453c0,3.989-4.313,7.26-9.643,7.26h-53.831l-9.91,6.528v77.089c0,5.871,6.355,10.679,14.234,10.679
	h79.195l43.949,28.985v-28.985h30.352c7.878,0,14.221-4.808,14.221-10.679V71.632C-218.172,65.724-224.515,60.929-232.393,60.929z"
	/>
<path fill="#8A8B8E" stroke="#8A8B8E" stroke-width="10" stroke-linecap="round" stroke-linejoin="round" stroke-miterlimit="10" d="
	M-326.739,60.929V17.795c0-4.001-4.311-7.259-9.643-7.259h-104.347c-5.327,0-9.638,3.258-9.638,7.259v78.587
	c0,3.989,4.311,7.26,9.638,7.26h20.657v19.673l19.938-13.145"/>
<rect x="-388.552" y="60.929" fill="#8A8B8E" stroke="#8A8B8E" stroke-width="10" stroke-linecap="round" stroke-linejoin="round" stroke-miterlimit="10" width="79.394" height="40.385"/>
<path fill="none" stroke="#FFFFFF" stroke-miterlimit="10" d="M-319.504,42.98"/>
<g>
	<path fill="#333333" stroke="#333333" stroke-width="5" stroke-miterlimit="10" d="M74.501,44.426c2.789,0,5.452,0.4,7.991,1.2
		c2.537,0.801,4.767,2.058,6.688,3.772c1.921,1.714,3.44,3.921,4.561,6.618c1.12,2.698,1.681,5.968,1.681,9.81v8.162
		c0,3.292-0.39,6.128-1.166,8.506c-0.778,2.378-1.852,4.435-3.225,6.174l5.693,5.624l-5.008,5.144l-6.378-6.309
		c-1.601,0.777-3.315,1.348-5.145,1.715c-1.829,0.365-3.727,0.549-5.693,0.549c-2.836,0-5.522-0.389-8.061-1.166
		c-2.538-0.777-4.755-2.013-6.653-3.705c-1.897-1.69-3.407-3.897-4.526-6.618c-1.123-2.721-1.681-6.024-1.681-9.913v-8.162
		c0-3.842,0.559-7.11,1.681-9.81c1.12-2.698,2.641-4.904,4.561-6.618c1.92-1.715,4.151-2.973,6.688-3.772
		C69.046,44.827,71.711,44.426,74.501,44.426z M74.501,87.364c0.776,0,1.542-0.035,2.297-0.104c0.755-0.07,1.475-0.217,2.162-0.447
		l-5.83-5.831l5.006-5.143l6.449,6.448c0.639-1.099,1.131-2.413,1.474-3.944c0.342-1.531,0.514-3.351,0.514-5.454v-5.968
		c0-2.834-0.309-5.189-0.926-7.064c-0.618-1.875-1.476-3.36-2.572-4.459c-1.097-1.097-2.379-1.863-3.841-2.298
		c-1.464-0.435-3.041-0.652-4.732-0.652c-1.647,0-3.203,0.218-4.665,0.652c-1.465,0.435-2.744,1.2-3.842,2.298
		c-1.097,1.097-1.967,2.584-2.606,4.459c-0.642,1.875-0.96,4.229-0.96,7.064v5.968c0,2.837,0.319,5.191,0.96,7.065
		c0.639,1.876,1.509,3.36,2.606,4.459c1.098,1.097,2.378,1.863,3.842,2.297C71.298,87.146,72.853,87.364,74.501,87.364z"/>
</g>
<g>
	<path fill="#8A8B8E" stroke="#8A8B8E" stroke-width="5" stroke-miterlimit="10" d="M400.634-145.473
		c0,4.755-0.412,8.991-1.236,12.707c-0.821,3.718-2.117,7.07-3.885,10.057l11.154,13.439h-13.986l-4.389-5.486
		c-2.687,2.256-5.563,3.916-8.644,4.982c-3.077,1.065-6.201,1.6-9.369,1.6h-0.729c-2.743,0-5.485-0.32-8.229-0.959
		c-2.743-0.641-5.211-1.662-7.404-3.063c-2.192-1.397-3.962-3.245-5.303-5.53c-1.342-2.286-2.012-5.043-2.012-8.274v-1.735
		c0-2.191,0.365-4.206,1.098-6.034c0.73-1.829,1.736-3.488,3.02-4.982c1.276-1.493,2.833-2.864,4.661-4.114
		c1.83-1.249,3.84-2.392,6.034-3.428l-2.194-2.469c-1.771-2.011-3.048-3.945-3.84-5.805c-0.792-1.859-1.188-3.886-1.188-6.08v-1.097
		c0-4.205,1.522-7.647,4.57-10.331c3.047-2.681,7.344-4.021,12.891-4.021c2.863,0,5.378,0.396,7.541,1.188
		c2.163,0.793,3.962,1.86,5.396,3.2c1.431,1.341,2.513,2.911,3.242,4.708c0.731,1.799,1.101,3.672,1.101,5.623v1.005
		c0,2.926-0.824,5.775-2.469,8.548c-1.646,2.774-4.694,5.531-9.146,8.273l10.787,12.342c0.304-0.731,0.579-1.508,0.824-2.331
		c0.241-0.824,0.438-1.767,0.593-2.834c0.151-1.065,0.26-2.331,0.32-3.794c0.06-1.463,0.091-3.23,0.091-5.303L400.634-145.473
		L400.634-145.473z M370.008-118.413c4.813,0,8.651-1.401,11.519-4.205l-13.712-16.181c-3.72,1.889-6.263,3.732-7.634,5.529
		c-1.371,1.799-2.061,3.703-2.061,5.715v1.28c0,2.192,1.065,4.054,3.2,5.575C363.457-119.173,366.351-118.413,370.008-118.413z
		 M365.254-160.466c0,1.159,0.605,2.576,1.825,4.251c1.223,1.677,2.563,3.336,4.021,4.981c1.465-0.913,2.638-1.751,3.521-2.513
		c0.884-0.762,1.582-1.493,2.104-2.194c0.516-0.7,0.868-1.401,1.051-2.103c0.187-0.7,0.274-1.447,0.274-2.24v-0.64
		c0-1.463-0.55-2.757-1.646-3.885c-1.098-1.127-2.683-1.692-4.754-1.692c-2.315,0-3.962,0.534-4.937,1.6
		c-0.979,1.067-1.466,2.24-1.466,3.52v0.915H365.254z"/>
</g>
<g>
	<path fill="#333333" stroke="#333333" stroke-width="5" stroke-miterlimit="10" d="M228.753,187.187h-11.736l-5.911-16.721h-20.521
		l-5.994,16.721h-11.063l22.631-60.88h9.709L228.753,187.187z M193.71,161.432h14.271l-4.139-12.412
		c-0.73-2.026-1.31-3.729-1.729-5.108c-0.421-1.379-0.859-2.8-1.309-4.264c-0.227,0.844-0.438,1.604-0.635,2.28
		c-0.196,0.675-0.407,1.365-0.633,2.068c-0.226,0.705-0.465,1.449-0.719,2.238c-0.254,0.787-0.576,1.717-0.969,2.785L193.71,161.432
		z"/>
</g>
<g>
	<path fill="#8A8B8E" d="M-247.273,329.851v-4.197c0-1.59,0.048-3.021,0.143-4.293c0.096-1.271,0.366-2.527,0.812-3.77
		c0.443-1.24,1.16-2.527,2.146-3.864c0.985-1.335,2.399-2.829,4.246-4.483c2.098-1.972,3.782-3.609,5.056-4.914
		c1.271-1.303,2.242-2.479,2.91-3.529c0.668-1.049,1.098-2.033,1.288-2.959c0.19-0.92,0.287-2.018,0.287-3.291v-0.952
		c0-1.972-0.781-3.704-2.338-5.198c-1.56-1.492-4.215-2.24-7.967-2.24c-2.99,0-5.709,0.57-8.156,1.717
		c-2.449,1.145-4.691,2.703-6.727,4.674l-6.678-8.395c3.053-3.055,6.44-5.279,10.161-6.681c3.721-1.397,7.646-2.101,11.783-2.101
		c3.496,0,6.612,0.445,9.348,1.336c2.735,0.893,5.057,2.115,6.966,3.672c1.908,1.561,3.354,3.438,4.341,5.629
		c0.984,2.193,1.479,4.598,1.479,7.203v1.336c0,2.355-0.319,4.439-0.955,6.248c-0.636,1.814-1.478,3.482-2.527,5.012
		c-1.049,1.527-2.259,2.977-3.625,4.342c-1.368,1.367-2.783,2.752-4.245,4.146c-1.209,1.146-2.229,2.146-3.053,3.007
		c-0.827,0.858-1.479,1.688-1.957,2.479c-0.477,0.797-0.827,1.67-1.048,2.625c-0.225,0.953-0.335,2.131-0.335,3.528v3.911h-11.355
		V329.851z M-247.845,337.771h12.593v12.402h-12.593V337.771z"/>
</g>
<path fill="none" stroke="#FFFFFF" stroke-miterlimit="10" d="M157.869,58.499"/>
</svg>
