<?xml version="1.0" encoding="utf-8"?>
<!-- Generator: Adobe Illustrator 16.0.0, SVG Export Plug-In . SVG Version: 6.00 Build 0)  -->
<!DOCTYPE svg PUBLIC "-//W3C//DTD SVG 1.1//EN" "http://www.w3.org/Graphics/SVG/1.1/DTD/svg11.dtd">
<svg version="1.1" id="레이어_1" xmlns="http://www.w3.org/2000/svg" xmlns:xlink="http://www.w3.org/1999/xlink" x="0px"
	 y="0px" width="283.46px" height="283.46px" viewBox="0 0 283.46 283.46" enable-background="new 0 0 283.46 283.46"
	 xml:space="preserve">
<g>
	<polyline fill="#3C3C3C" points="-965.307,-316.836 -986.842,-288.699 -1008.379,-316.85 	"/>
	<polyline fill="#FFFFFF" points="-1008.379,-329.607 -1008.379,-261.656 -1077.871,-294.935 -1077.871,-364.333 	"/>
	<polyline fill="#FFFFFF" points="-1008.379,-329.607 -1008.379,-261.656 -938.886,-294.935 -938.886,-363.886 	"/>
	<polyline fill="#FFFFFF" points="-981.526,-385.97 -938.886,-364.333 -1008.379,-329.404 -1077.871,-364.333 -1024.078,-392.038 	
		"/>
	<g>
		<path fill="#8354C8" d="M-1054.069-297.289l-3.18-1.637l0.258-20.725l-6.257-3.207l0.04-3.273l15.72,8.103l-0.033,3.247
			l-6.283-3.229L-1054.069-297.289z"/>
		<path fill="#8354C8" d="M-1040.656-314.509l-0.299,23.971l-3.191-1.649l0.298-23.973L-1040.656-314.509z"/>
		<path fill="#8354C8" d="M-1022.989-298.115c-0.013,1.218-0.196,2.232-0.54,3.045c-0.339,0.813-0.818,1.407-1.421,1.813
			c-0.596,0.38-1.326,0.542-2.191,0.475c-0.853-0.054-1.813-0.353-2.842-0.879l-2.468-1.272l-0.115,8.712l-3.192-1.649l0.297-23.972
			l5.567,2.867c1.122,0.568,2.109,1.286,2.982,2.083c0.866,0.813,1.597,1.691,2.185,2.666c0.589,0.946,1.021,1.947,1.318,3.003
			C-1023.11-300.183-1022.976-299.156-1022.989-298.115z M-1026.168-299.602c0.014-1.258-0.312-2.448-0.961-3.558
			c-0.656-1.123-1.731-2.07-3.267-2.867l-1.928-0.975l-0.108,8.86l1.677,0.866c1.441,0.743,2.57,0.906,3.369,0.477
			C-1026.587-297.221-1026.195-298.154-1026.168-299.602z"/>
	</g>
	<g>
		<path fill="#8354C8" d="M-984.651-301.158c0.419-0.067,0.826,0,1.218,0.189c0.365,0.188,0.718,0.528,1.002,0.974
			c0.27,0.461,0.5,1.015,0.662,1.679c0.176,0.688,0.257,1.46,0.257,2.34c-0.014,1.041-0.135,2.137-0.354,3.246
			c-0.216,1.109-0.554,2.164-1.014,3.179c-0.446,1.002-0.988,1.908-1.664,2.729c-0.662,0.813-1.434,1.438-2.313,1.881l-5.235,2.666
			l0.163-27.611l5.141-2.598c0.784-0.419,1.487-0.567,2.069-0.5c0.582,0.081,1.055,0.312,1.447,0.717
			c0.393,0.42,0.677,0.96,0.866,1.663c0.162,0.69,0.257,1.436,0.257,2.247c-0.014,1.42-0.217,2.746-0.649,3.964
			c-0.433,1.23-1.042,2.299-1.866,3.205v0.027L-984.651-301.158L-984.651-301.158z M-987.207-308.571l-2.273,1.149l-0.054,7.278
			l2.097-1.055c0.825-0.42,1.475-1.015,1.961-1.827c0.487-0.797,0.73-1.948,0.73-3.423c0.014-1-0.175-1.718-0.581-2.137
			C-985.72-309.018-986.342-309.018-987.207-308.571z M-987.289-297.816l-2.26,1.137l-0.054,9.414l2.558-1.271
			c0.892-0.459,1.596-1.271,2.124-2.407c0.513-1.137,0.784-2.396,0.784-3.748c0.013-1.353-0.243-2.353-0.771-2.989
			C-985.423-298.316-986.234-298.357-987.289-297.816z"/>
		<path fill="#8354C8" d="M-972.191-292.053c-1.069,0.541-2.017,0.662-2.841,0.365c-0.825-0.312-1.543-0.947-2.111-1.894
			c-0.568-0.988-0.987-2.247-1.284-3.815c-0.299-1.556-0.436-3.314-0.419-5.303c0.013-1.975,0.175-3.91,0.473-5.79
			c0.312-1.881,0.758-3.599,1.339-5.154c0.582-1.568,1.313-2.936,2.151-4.1c0.839-1.162,1.785-2.015,2.854-2.543
			c1.068-0.554,2.028-0.662,2.868-0.351c0.812,0.311,1.528,0.96,2.096,1.947c0.568,0.977,1.002,2.232,1.299,3.828
			c0.284,1.556,0.434,3.329,0.42,5.316c0,1.976-0.163,3.896-0.487,5.764c-0.311,1.881-0.771,3.584-1.353,5.141
			c-0.582,1.556-1.299,2.896-2.138,4.045C-970.163-293.433-971.123-292.594-972.191-292.053z M-972.165-295.829
			c0.69-0.364,1.299-0.905,1.813-1.677c0.514-0.757,0.973-1.69,1.312-2.773c0.365-1.095,0.636-2.327,0.813-3.68
			c0.202-1.338,0.284-2.786,0.297-4.314c0.014-1.516-0.068-2.868-0.243-4.046c-0.176-1.188-0.419-2.147-0.771-2.867
			c-0.353-0.73-0.771-1.231-1.299-1.461c-0.514-0.257-1.122-0.203-1.799,0.148c-0.69,0.338-1.285,0.906-1.813,1.678
			c-0.515,0.771-0.961,1.705-1.313,2.786c-0.352,1.069-0.623,2.301-0.812,3.653c-0.177,1.366-0.271,2.801-0.271,4.329
			c-0.014,1.529,0.055,2.882,0.23,4.044c0.162,1.178,0.419,2.139,0.757,2.868c0.352,0.758,0.785,1.229,1.312,1.461
			C-973.449-295.435-972.841-295.489-972.165-295.829z"/>
		<path fill="#8354C8" d="M-956.053-314.469l4.775,11.498l-2.746,1.395l-3.314-8.631l-0.055,0.013l-3.449,12.067l-2.747,1.407
			l4.966-16.274v-0.067l-4.694-11.322l2.732-1.396l3.273,8.428l0.041-0.028l3.313-11.755l2.747-1.379l-4.83,15.976v0.067
			L-956.053-314.469L-956.053-314.469z"/>
	</g>
	<path fill="none" stroke="#FFFFFF" stroke-width="10" stroke-linejoin="bevel" stroke-miterlimit="10" d="M-1014.521-372.531"/>
	<polygon fill="#FFFFFF" points="-1029.374,-362.425 -1011.971,-434.88 -972.097,-425.777 -989.318,-356.013 -1029.882,-356.636 	
		"/>
	<path fill="#8354C8" d="M-998.814-401.277c8.522,2.049,13.757,10.632,11.715,19.155c-2.056,8.508-10.619,13.785-19.155,11.708
		c-8.522-2.042-13.778-10.612-11.722-19.148C-1015.914-398.078-1007.351-403.333-998.814-401.277z"/>
	<g>
		<path fill="#FFFFFF" d="M-995.501-383.961c-0.148,0.446-0.311,0.893-0.514,1.312c-0.216,0.44-0.446,0.866-0.703,1.259
			c-0.258,0.392-0.527,0.757-0.813,1.088c-0.284,0.333-0.566,0.596-0.853,0.819l-1.664-1.772c0.528-0.453,0.975-0.934,1.325-1.447
			c0.365-0.501,0.704-1.108,0.988-1.807l-4.465-1.075c-0.257,0.48-0.527,0.968-0.831,1.447c-0.298,0.479-0.656,0.907-1.075,1.259
			c-0.427,0.352-0.927,0.608-1.502,0.758c-0.568,0.155-1.238,0.147-2.002-0.041l-0.38-0.088c-0.404-0.102-0.811-0.284-1.203-0.534
			c-0.393-0.243-0.724-0.589-1.008-1.015c-0.278-0.434-0.479-0.961-0.589-1.596c-0.121-0.637-0.108-1.38,0.028-2.246l-1.212-0.284
			l0.386-1.583l1.191,0.284c0.229-0.743,0.54-1.475,0.96-2.164c0.419-0.703,0.899-1.252,1.461-1.637l1.508,1.703
			c-0.453,0.414-0.818,0.84-1.104,1.279c-0.271,0.44-0.474,0.894-0.615,1.359l4.314,1.042c0.48-0.88,0.928-1.583,1.347-2.117
			c0.433-0.534,0.853-0.934,1.285-1.204c0.433-0.264,0.879-0.398,1.34-0.44c0.46-0.023,0.973,0.027,1.502,0.156l0.176,0.034
			c0.784,0.189,1.406,0.459,1.865,0.832c0.448,0.357,0.799,0.805,1.016,1.291c0.229,0.494,0.352,1.049,0.379,1.651
			c0.014,0.602-0.04,1.244-0.149,1.906l1.475,0.346l-0.394,1.575L-995.501-383.961z M-1007.08-384.787
			c0.304,0.067,0.582,0.095,0.798,0.067c0.216-0.014,0.427-0.088,0.615-0.195c0.184-0.115,0.353-0.284,0.521-0.48
			c0.148-0.218,0.331-0.461,0.5-0.771l-3.889-0.92c-0.061,0.42-0.061,0.785,0.013,1.062c0.062,0.277,0.156,0.493,0.291,0.67
			c0.123,0.162,0.265,0.271,0.42,0.338c0.142,0.068,0.257,0.108,0.365,0.135L-1007.08-384.787z M-998.855-388.548
			c-0.243-0.061-0.46-0.094-0.69-0.107c-0.202-0.021-0.405,0.026-0.622,0.135c-0.202,0.095-0.405,0.271-0.608,0.487
			c-0.203,0.224-0.419,0.555-0.662,0.975l4.098,0.993c0.096-0.771,0-1.346-0.27-1.725c-0.271-0.378-0.623-0.622-1.015-0.703
			L-998.855-388.548z"/>
	</g>
	<g>
		<path fill="#8354C8" d="M-985.22-354.728l17.789-73.943l-46.657-11.229l-20.468,85.111 M-1027.623-356.534
			c-0.757-0.196-1.521-0.196-2.259-0.103l16.519-68.653c0.628,0.419,1.305,0.744,2.063,0.927c3.923,0.94,7.947-1.833,8.98-6.202
			c0.148-0.596,0.217-1.204,0.229-1.799l20.9,5.038c-0.243,0.534-0.446,1.09-0.608,1.698c-1.056,4.39,1.271,8.679,5.195,9.625
			c0.554,0.142,1.109,0.169,1.663,0.156l-14.38,59.833"/>
	</g>
	<line fill="none" x1="-1040.799" y1="-355.865" x2="-975.845" y2="-355.865"/>
</g>
<path fill="#8A8B8E" d="M-358.019,488.951v-31.059c0-14.982,13.032-27.131,29.108-27.131h173.856
	c16.077,0,29.108,12.146,29.108,27.131v31.059"/>
<path fill="#8A8B8E" stroke="#FFFFFF" stroke-width="8" stroke-miterlimit="10" d="M-208.506,31.356c0,6.903-6.439,12.5-14.382,12.5
	l0,0c-7.942,0-14.382-5.597-14.382-12.5v-29c0-6.903,6.439-12.5,14.382-12.5l0,0c7.942,0,14.382,5.597,14.382,12.5V31.356z"/>
<path fill="#8A8B8E" stroke="#FFFFFF" stroke-width="8" stroke-miterlimit="10" d="M-76.77,31.356c0,6.903-6.439,12.5-14.382,12.5
	l0,0c-7.942,0-14.382-5.597-14.382-12.5v-29c0-6.903,6.438-12.5,14.382-12.5l0,0c7.942,0,14.382,5.597,14.382,12.5V31.356z"/>
<path fill="none" stroke="#8A8B8E" stroke-width="20" stroke-linecap="square" stroke-miterlimit="10" d="M553.739,134.027
	c0,51.914-94,132.763-94,132.763s-94-80.85-94-132.764c0-51.915,42.085-94,94-94C511.653,40.027,553.739,82.112,553.739,134.027z"/>
<rect x="27.917" y="44.343" fill="none" stroke="#333333" stroke-width="20" stroke-linecap="square" stroke-miterlimit="10" width="227.374" height="213.259"/>
<rect x="66.095" y="14.788" fill="#333333" stroke="#FFFFFF" stroke-width="8" stroke-miterlimit="10" width="29.246" height="51.323"/>
<rect x="190.287" y="14.788" fill="#333333" stroke="#FFFFFF" stroke-width="8" stroke-miterlimit="10" width="29.244" height="51.323"/>
<g>
	<path fill="#333333" stroke="#333333" stroke-width="3" stroke-miterlimit="10" d="M121.281,146.462v59.455h12.061v10.471H94.826
		v-10.471h13.648v-37.986l0.374-6.066l-11.405,10.359l-7.386-8.4l20.192-17.359h11.032V146.462z"/>
	<path fill="#333333" stroke="#333333" stroke-width="3" stroke-miterlimit="10" d="M170.828,172.919
		c2.678,0,5.295,0.437,7.853,1.309c2.555,0.873,4.799,2.197,6.729,3.973c1.932,1.776,3.49,4.006,4.676,6.686
		c1.183,2.681,1.775,5.796,1.775,9.348c0,3.305-0.607,6.404-1.824,9.303c-1.215,2.897-2.912,5.438-5.095,7.619
		c-2.182,2.182-4.829,3.895-7.946,5.141c-3.115,1.246-6.543,1.871-10.281,1.871c-3.803,0-7.215-0.607-10.236-1.824
		c-3.023-1.215-5.596-2.911-7.713-5.094c-2.119-2.182-3.756-4.83-4.907-7.947c-1.153-3.114-1.729-6.543-1.729-10.282
		c0-3.179,0.715-6.56,2.149-10.144c1.435-3.584,3.49-7.213,6.17-10.891l7.199-9.629l11.778-15.986h15.703
		c-3.489,4.363-6.933,8.682-10.328,12.949c-3.396,4.27-6.811,8.584-10.235,12.946l-0.937,0.842l-1.401,1.401l1.028-0.469
		c1.059-0.373,2.244-0.654,3.552-0.84C168.116,173.013,169.455,172.919,170.828,172.919z M154.466,194.888
		c0,3.988,1.105,7.104,3.32,9.348c2.211,2.244,5.125,3.365,8.739,3.365c1.744,0,3.396-0.295,4.954-0.887
		c1.559-0.594,2.928-1.449,4.113-2.572c1.183-1.121,2.104-2.461,2.757-4.02c0.655-1.558,0.981-3.271,0.981-5.143
		c0-4.051-1.168-7.119-3.504-9.208c-2.339-2.088-5.408-3.132-9.209-3.132c-3.74,0-6.701,1.121-8.882,3.365
		C155.556,188.251,154.466,191.21,154.466,194.888z"/>
</g>
<g>
	<path fill="#8A8B8E" stroke="#8A8B8E" stroke-miterlimit="10" d="M-246.037,191.656h12.651l9.719,26.729
		c0.617,1.805,1.208,3.632,1.774,5.486c0.564,1.854,1.131,3.707,1.696,5.562h0.386c0.617-1.854,1.195-3.708,1.735-5.562
		c0.54-1.854,1.118-3.683,1.736-5.486l9.487-26.729h12.649v57.166h-10.352v-23.871c0-1.338,0.051-2.818,0.153-4.441
		c0.102-1.623,0.218-3.27,0.346-4.943c0.128-1.673,0.268-3.322,0.421-4.943c0.153-1.623,0.308-3.103,0.462-4.441h-0.309
		l-4.624,13.441l-8.787,24.023h-6.552l-8.864-24.023l-4.549-13.441h-0.308c0.154,1.34,0.311,2.818,0.466,4.441
		c0.156,1.621,0.312,3.271,0.468,4.943c0.155,1.674,0.286,3.32,0.39,4.943c0.104,1.623,0.155,3.104,0.155,4.441v23.871h-10.352
		v-57.166H-246.037z"/>
	<path fill="#8A8B8E" stroke="#8A8B8E" stroke-miterlimit="10" d="M-170.41,227.886l-17.149-36.23h12.129l5.716,13.905
		c0.823,2.163,1.635,4.263,2.434,6.296c0.798,2.035,1.635,4.159,2.511,6.373h0.309c0.875-2.214,1.738-4.338,2.588-6.373
		c0.85-2.033,1.687-4.133,2.511-6.296l5.717-13.905h11.896l-17.227,36.23v20.936h-11.434L-170.41,227.886L-170.41,227.886z"/>
</g>
<line fill="none" stroke="#333333" stroke-width="20" stroke-linecap="square" stroke-miterlimit="10" x1="27.917" y1="102.23" x2="255.291" y2="102.23"/>
</svg>
