<?xml version="1.0" encoding="utf-8"?>
<!-- Generator: Adobe Illustrator 16.0.0, SVG Export Plug-In . SVG Version: 6.00 Build 0)  -->
<!DOCTYPE svg PUBLIC "-//W3C//DTD SVG 1.1//EN" "http://www.w3.org/Graphics/SVG/1.1/DTD/svg11.dtd">
<svg version="1.1" id="레이어_1" xmlns="http://www.w3.org/2000/svg" xmlns:xlink="http://www.w3.org/1999/xlink" x="0px"
	 y="0px" width="283.46px" height="311.813px" viewBox="0 0 283.46 311.813" enable-background="new 0 0 283.46 311.813"
	 xml:space="preserve">
<g>
	<polyline fill="#3C3C3C" points="-965.307,-316.836 -986.842,-288.699 -1008.379,-316.85 	"/>
	<polyline fill="#FFFFFF" points="-1008.379,-329.607 -1008.379,-261.656 -1077.871,-294.935 -1077.871,-364.333 	"/>
	<polyline fill="#FFFFFF" points="-1008.379,-329.607 -1008.379,-261.656 -938.886,-294.935 -938.886,-363.885 	"/>
	<polyline fill="#FFFFFF" points="-981.526,-385.969 -938.886,-364.333 -1008.379,-329.405 -1077.871,-364.333 -1024.078,-392.038 	
		"/>
	<g>
		<path fill="#8354C8" d="M-1054.069-297.289l-3.18-1.637l0.258-20.727l-6.257-3.207l0.04-3.271l15.72,8.103l-0.033,3.247
			l-6.283-3.229L-1054.069-297.289z"/>
		<path fill="#8354C8" d="M-1040.656-314.509l-0.299,23.971l-3.191-1.648l0.298-23.974L-1040.656-314.509z"/>
		<path fill="#8354C8" d="M-1022.989-298.115c-0.013,1.219-0.196,2.232-0.54,3.045c-0.339,0.813-0.818,1.407-1.421,1.813
			c-0.596,0.38-1.326,0.542-2.191,0.475c-0.853-0.054-1.813-0.353-2.842-0.879l-2.468-1.271l-0.115,8.712l-3.192-1.649l0.297-23.972
			l5.567,2.867c1.122,0.565,2.109,1.284,2.982,2.083c0.866,0.813,1.597,1.688,2.185,2.666c0.589,0.943,1.021,1.944,1.318,3.003
			C-1023.11-300.183-1022.976-299.156-1022.989-298.115z M-1026.168-299.602c0.014-1.258-0.312-2.446-0.961-3.559
			c-0.656-1.123-1.731-2.069-3.267-2.867l-1.928-0.975l-0.108,8.858l1.677,0.865c1.441,0.743,2.57,0.906,3.369,0.479
			C-1026.587-297.219-1026.195-298.155-1026.168-299.602z"/>
	</g>
	<g>
		<path fill="#8354C8" d="M-984.651-301.158c0.419-0.066,0.826,0,1.218,0.189c0.365,0.188,0.718,0.526,1.002,0.974
			c0.27,0.461,0.5,1.016,0.662,1.68c0.176,0.688,0.257,1.46,0.257,2.34c-0.014,1.041-0.135,2.139-0.354,3.246
			c-0.216,1.108-0.554,2.164-1.014,3.181c-0.446,1.002-0.988,1.906-1.664,2.729c-0.662,0.813-1.434,1.438-2.313,1.882l-5.235,2.666
			l0.163-27.609l5.141-2.6c0.784-0.42,1.487-0.565,2.069-0.5c0.582,0.08,1.055,0.313,1.447,0.718
			c0.393,0.421,0.677,0.961,0.866,1.662c0.162,0.689,0.257,1.438,0.257,2.247c-0.014,1.42-0.217,2.746-0.649,3.964
			c-0.433,1.229-1.042,2.301-1.866,3.205v0.026L-984.651-301.158L-984.651-301.158z M-987.207-308.572l-2.273,1.149l-0.054,7.276
			l2.097-1.056c0.825-0.42,1.475-1.015,1.961-1.827c0.487-0.797,0.73-1.947,0.73-3.423c0.014-1-0.175-1.718-0.581-2.137
			C-985.72-309.018-986.342-309.018-987.207-308.572z M-987.289-297.816l-2.26,1.139l-0.054,9.412l2.558-1.271
			c0.892-0.459,1.596-1.271,2.124-2.407c0.513-1.137,0.784-2.396,0.784-3.747c0.013-1.354-0.243-2.354-0.771-2.987
			C-985.423-298.316-986.234-298.357-987.289-297.816z"/>
		<path fill="#8354C8" d="M-972.191-292.052c-1.069,0.541-2.017,0.66-2.841,0.363c-0.825-0.313-1.543-0.945-2.111-1.895
			c-0.568-0.988-0.987-2.247-1.284-3.814c-0.299-1.557-0.436-3.313-0.419-5.304c0.013-1.975,0.175-3.91,0.473-5.79
			c0.312-1.881,0.758-3.599,1.339-5.153c0.582-1.566,1.313-2.937,2.151-4.101c0.839-1.162,1.785-2.015,2.854-2.543
			c1.068-0.554,2.028-0.662,2.868-0.351c0.812,0.311,1.528,0.96,2.096,1.944c0.568,0.979,1.002,2.232,1.299,3.828
			c0.284,1.557,0.434,3.329,0.42,5.316c0,1.976-0.163,3.896-0.487,5.764c-0.311,1.881-0.771,3.584-1.353,5.142
			s-1.299,2.896-2.138,4.047C-970.163-293.433-971.123-292.594-972.191-292.052z M-972.165-295.829
			c0.69-0.364,1.299-0.904,1.813-1.677c0.514-0.757,0.973-1.69,1.312-2.773c0.365-1.095,0.636-2.326,0.813-3.68
			c0.202-1.338,0.284-2.786,0.297-4.313c0.014-1.517-0.068-2.868-0.243-4.047c-0.176-1.188-0.419-2.146-0.771-2.866
			c-0.353-0.729-0.771-1.229-1.299-1.461c-0.514-0.258-1.122-0.203-1.799,0.147c-0.69,0.338-1.285,0.906-1.813,1.678
			c-0.515,0.771-0.961,1.705-1.313,2.786c-0.352,1.069-0.623,2.302-0.812,3.653c-0.177,1.366-0.271,2.801-0.271,4.329
			c-0.014,1.527,0.055,2.882,0.23,4.044c0.162,1.178,0.419,2.139,0.757,2.868c0.352,0.758,0.785,1.229,1.312,1.461
			C-973.449-295.435-972.841-295.49-972.165-295.829z"/>
		<path fill="#8354C8" d="M-956.053-314.469l4.775,11.498l-2.746,1.395l-3.314-8.631l-0.055,0.013l-3.449,12.067l-2.747,1.407
			l4.966-16.274v-0.066l-4.694-11.32l2.732-1.396l3.273,8.429l0.041-0.026l3.313-11.755l2.747-1.379l-4.83,15.976v0.067
			L-956.053-314.469L-956.053-314.469z"/>
	</g>
	<path fill="none" stroke="#FFFFFF" stroke-width="10" stroke-linejoin="bevel" stroke-miterlimit="10" d="M-1014.521-372.531"/>
	<polygon fill="#FFFFFF" points="-1029.374,-362.425 -1011.971,-434.88 -972.097,-425.778 -989.318,-356.011 -1029.882,-356.635 	
		"/>
	<path fill="#8354C8" d="M-998.814-401.278c8.522,2.05,13.757,10.633,11.715,19.155c-2.056,8.508-10.619,13.785-19.155,11.708
		c-8.522-2.042-13.778-10.611-11.722-19.147C-1015.914-398.078-1007.351-403.333-998.814-401.278z"/>
	<g>
		<path fill="#FFFFFF" d="M-995.501-383.961c-0.148,0.446-0.311,0.894-0.514,1.313c-0.216,0.439-0.446,0.865-0.703,1.261
			c-0.258,0.392-0.527,0.757-0.813,1.088c-0.284,0.333-0.566,0.596-0.853,0.817l-1.664-1.771c0.528-0.453,0.975-0.936,1.325-1.447
			c0.365-0.501,0.704-1.106,0.988-1.807l-4.465-1.075c-0.257,0.479-0.527,0.968-0.831,1.447c-0.298,0.479-0.656,0.905-1.075,1.259
			c-0.427,0.353-0.927,0.606-1.502,0.758c-0.568,0.155-1.238,0.147-2.002-0.041l-0.38-0.088c-0.404-0.104-0.811-0.284-1.203-0.534
			c-0.393-0.242-0.724-0.589-1.008-1.015c-0.278-0.436-0.479-0.961-0.589-1.598c-0.121-0.638-0.108-1.38,0.028-2.245l-1.212-0.283
			l0.386-1.583l1.191,0.283c0.229-0.742,0.54-1.477,0.96-2.163c0.419-0.703,0.899-1.253,1.461-1.639l1.508,1.702
			c-0.453,0.414-0.818,0.841-1.104,1.279c-0.271,0.438-0.474,0.895-0.615,1.357l4.314,1.042c0.48-0.88,0.928-1.583,1.347-2.115
			c0.433-0.534,0.853-0.936,1.285-1.204c0.433-0.266,0.879-0.398,1.34-0.44c0.46-0.021,0.973,0.027,1.502,0.156l0.176,0.034
			c0.784,0.188,1.406,0.459,1.865,0.832c0.448,0.355,0.799,0.805,1.016,1.291c0.229,0.493,0.352,1.049,0.379,1.649
			c0.014,0.604-0.04,1.243-0.149,1.905l1.475,0.347l-0.394,1.574L-995.501-383.961z M-1007.08-384.787
			c0.304,0.067,0.582,0.096,0.798,0.067c0.216-0.016,0.427-0.09,0.615-0.195c0.184-0.115,0.353-0.284,0.521-0.479
			c0.148-0.219,0.331-0.461,0.5-0.771l-3.889-0.92c-0.061,0.42-0.061,0.785,0.013,1.063c0.062,0.276,0.156,0.492,0.291,0.67
			c0.123,0.162,0.265,0.271,0.42,0.34c0.142,0.065,0.257,0.105,0.365,0.135L-1007.08-384.787z M-998.855-388.548
			c-0.243-0.063-0.46-0.096-0.69-0.107c-0.202-0.021-0.405,0.026-0.622,0.136c-0.202,0.097-0.405,0.271-0.608,0.486
			c-0.203,0.225-0.419,0.556-0.662,0.976l4.098,0.993c0.096-0.771,0-1.347-0.27-1.726c-0.271-0.378-0.623-0.622-1.015-0.703
			L-998.855-388.548z"/>
	</g>
	<g>
		<path fill="#8354C8" d="M-985.22-354.728l17.789-73.941l-46.657-11.229l-20.468,85.11 M-1027.623-356.534
			c-0.757-0.195-1.521-0.195-2.259-0.103l16.519-68.653c0.628,0.419,1.305,0.744,2.063,0.927c3.923,0.94,7.947-1.833,8.98-6.201
			c0.148-0.597,0.217-1.204,0.229-1.8l20.9,5.038c-0.243,0.534-0.446,1.09-0.608,1.698c-1.056,4.39,1.271,8.679,5.195,9.625
			c0.554,0.142,1.109,0.169,1.663,0.156l-14.38,59.833"/>
	</g>
	<line fill="none" x1="-1040.799" y1="-355.865" x2="-975.845" y2="-355.865"/>
</g>
<g>
	
		<path fill="#8A8B8E" stroke="#8A8B8E" stroke-width="10" stroke-linecap="round" stroke-linejoin="round" stroke-miterlimit="10" d="
		M-230.796,374.927h-94.346v35.453c0,3.99-4.31,7.262-9.643,7.262h-53.831l-9.91,6.527v77.09c0,5.871,6.355,10.678,14.234,10.678
		h79.195l43.95,28.986v-28.986h30.351c7.878,0,14.221-4.807,14.221-10.678V385.63C-216.575,379.721-222.918,374.927-230.796,374.927
		z"/>
	<path fill="#FFFFFF" stroke="#FFFFFF" stroke-width="0.4" stroke-miterlimit="10" d="M-351.818,434.416
		c5.544,0,10.034,4.481,10.034,10.033c0,5.522-4.49,10.034-10.034,10.034c-5.543,0-10.034-4.512-10.034-10.034
		C-361.852,438.898-357.361,434.416-351.818,434.416z"/>
	<path fill="#FFFFFF" stroke="#FFFFFF" stroke-width="0.4" stroke-miterlimit="10" d="M-307.872,434.439
		c5.524,0,10.008,4.483,10.008,10.012c0,5.551-4.483,10.033-10.008,10.033c-5.537,0-10.035-4.482-10.035-10.033
		C-317.907,438.923-313.409,434.439-307.872,434.439z"/>
	<path fill="#FFFFFF" stroke="#FFFFFF" stroke-width="0.4" stroke-miterlimit="10" d="M-263.265,434.439
		c5.537,0,10.021,4.483,10.021,10.012c0,5.551-4.484,10.033-10.021,10.033s-10.021-4.482-10.021-10.033
		C-273.286,438.923-268.802,434.439-263.265,434.439z"/>
	
		<path fill="#8A8B8E" stroke="#8A8B8E" stroke-width="10" stroke-linecap="round" stroke-linejoin="round" stroke-miterlimit="10" d="
		M-325.142,374.927v-43.133c0-4.002-4.31-7.26-9.643-7.26h-104.348c-5.327,0-9.638,3.258-9.638,7.26v78.586
		c0,3.99,4.311,7.262,9.638,7.262h20.657v19.672l19.938-13.145"/>
	
		<rect x="-386.955" y="374.927" fill="#8A8B8E" stroke="#8A8B8E" stroke-width="10" stroke-linecap="round" stroke-linejoin="round" stroke-miterlimit="10" width="79.393" height="40.387"/>
	<path fill="none" stroke="#FFFFFF" stroke-miterlimit="10" d="M-317.907,356.979"/>
</g>
<path fill="#8A8B8E" d="M-148.77,124.163c0,9.704-60.553,17.565-135.241,17.565c-74.689,0-135.24-7.861-135.24-17.565
	c0-9.705,60.551-17.568,135.24-17.568C-209.323,106.594-148.77,114.458-148.77,124.163z"/>
<g>
	<g>
		
			<path fill="#FFFFFF" stroke="#FFFFFF" stroke-width="10" stroke-linecap="round" stroke-linejoin="round" stroke-miterlimit="10" d="
			M-195.25-15.849c0-49.028-39.733-88.763-88.76-88.763c-49.03,0-88.762,39.732-88.762,88.763c0,18.679,5.799,36,15.669,50.278
			h-0.029l0.234,0.3c3.128,4.517,5.791,8.672,9.671,12.513l63.216,74.446l63.206-74.479c3.894-3.836,6.578-8.028,9.706-12.512
			l0.236-0.299h-0.029C-201.048,20.151-195.25,2.828-195.25-15.849z M-284.009,37.058c-29.642,0-53.662-23.988-53.662-53.646
			c0-29.625,24.02-53.646,53.662-53.646c29.64,0,53.644,24.021,53.644,53.646C-230.366,13.039-254.37,37.058-284.009,37.058z"/>
	</g>
	<g>
		
			<path fill="#8A8B8E" stroke="#8A8B8E" stroke-width="10" stroke-linecap="round" stroke-linejoin="round" stroke-miterlimit="10" d="
			M-207.329-15.214c0-42.358-34.325-76.685-76.681-76.685c-42.358,0-76.684,34.324-76.684,76.685
			c0,16.135,5.01,31.102,13.538,43.438h-0.026l0.202,0.256c2.704,3.901,5.003,7.492,8.355,10.811l54.615,64.315l54.604-64.345
			c3.364-3.312,5.688-6.935,8.388-10.809l0.204-0.254h-0.025C-212.336,15.886-207.329,0.92-207.329-15.214z M-284.009,30.495
			c-25.609,0-46.36-20.727-46.36-46.349c0-25.594,20.75-46.345,46.36-46.345c25.604,0,46.344,20.751,46.344,46.345
			C-237.666,9.744-258.404,30.495-284.009,30.495z"/>
	</g>
</g>
<polyline fill="none" stroke="#333333" stroke-width="20" stroke-linecap="square" stroke-linejoin="round" stroke-miterlimit="10" points="
	142.123,198.264 142.123,301.359 13.099,244.192 13.099,138.797 "/>
<polyline fill="none" stroke="#333333" stroke-width="20" stroke-linecap="square" stroke-linejoin="round" stroke-miterlimit="10" points="
	142.123,198.264 142.123,301.359 271.148,244.192 271.148,139.503 "/>
<polyline fill="none" stroke="#333333" stroke-width="20" stroke-linecap="square" stroke-linejoin="bevel" stroke-miterlimit="10" points="
	191.981,99.139 277.017,139.832 142.123,192.377 7.231,138.797 112.973,89.473 "/>
<path fill="none" stroke="#FFFFFF" stroke-width="10" stroke-linejoin="bevel" stroke-miterlimit="10" d="M131.864,110.2"/>
<g>
	<path fill="#8A8B8E" stroke="#8A8B8E" stroke-width="7" stroke-miterlimit="10" d="M-205.85-71.066l36.672-113.787l-96.181-17.276
		L-307.55-71.16 M-294.922-70.766c-1.562-0.305-3.138-0.305-4.657-0.157l35.714-108.723c1.295,0.644,2.689,1.146,4.251,1.426
		c8.088,1.447,16.384-2.819,18.518-9.542c0.304-0.917,0.446-1.854,0.472-2.771l43.086,7.75c-0.502,0.824-0.92,1.678-1.254,2.615
		c-2.18,6.754,2.619,13.354,10.709,14.812c1.14,0.22,2.284,0.261,3.43,0.24l-29.646,92.072"/>
</g>
<path fill="none" stroke="#8354C8" stroke-width="20" stroke-linejoin="round" stroke-miterlimit="10" d="M642.662,232.762
	c0-44.649-32.875-80.811-73.464-80.811c-40.564,0-73.461,36.156-73.461,80.811"/>
<path fill="none" stroke="#8354C8" stroke-width="20" stroke-linejoin="round" stroke-miterlimit="10" d="M569.353,66.389
	c23.564,0,42.684,19.122,42.684,42.688c0,23.579-19.113,42.686-42.684,42.686c-23.564,0-42.684-19.104-42.684-42.686
	C526.667,85.512,545.789,66.389,569.353,66.389z"/>
<path fill="#FFFFFF" stroke="#FFFFFF" stroke-width="20" stroke-linejoin="round" stroke-miterlimit="10" d="M607.183,273.046
	c0-73.985-54.479-133.9-121.73-133.9c-67.225,0-121.729,59.917-121.729,133.9h128.594H607.183L607.183,273.046z"/>
<path fill="#FFFFFF" stroke="#FFFFFF" stroke-width="20" stroke-miterlimit="10" d="M489.454,31.323
	c36.305,0,65.751,29.451,65.751,65.75c0,36.316-29.446,65.75-65.751,65.75c-36.299,0-65.75-29.438-65.75-65.75
	C423.703,60.775,453.153,31.323,489.454,31.323z"/>
<path fill="none" stroke="#8354C8" stroke-width="20" stroke-miterlimit="10" d="M486.077,37.834
	c32.153,0,58.24,26.089,58.24,58.238c0,32.169-26.087,58.238-58.24,58.238c-32.147,0-58.234-26.069-58.234-58.238
	C427.837,63.923,453.923,37.834,486.077,37.834z"/>
<path fill="none" stroke="#8354C8" stroke-width="20" stroke-linejoin="round" stroke-miterlimit="10" d="M589.291,264.91
	L589.291,264.91c0-60.924-44.854-110.256-100.229-110.256c-55.354,0-100.232,49.336-100.232,110.256"/>
<polygon fill="#FFFFFF" points="-336.286,343.703 -276.024,368.773 -210.286,345.752 -214.525,336.23 -323.395,336.23 "/>
<line fill="none" stroke="#8A8B8E" stroke-width="20" stroke-linecap="square" stroke-linejoin="bevel" stroke-miterlimit="10" x1="-284.011" y1="223.23" x2="-185.23" y2="223.23"/>
<line fill="none" stroke="#FFFFFF" stroke-width="5" stroke-linecap="square" stroke-miterlimit="10" x1="58.116" y1="324.535" x2="169.451" y2="324.535"/>
<polyline fill="#FFFFFF" points="106.864,61.946 102.231,114.581 191.536,133.752 202.707,75.378 102.231,66.252 "/>
<g>
	<circle fill="#333333" stroke="#333333" stroke-miterlimit="10" cx="150.501" cy="101.671" r="32.082"/>
	<g>
		<path fill="#FFFFFF" d="M159.904,88.553c3.196,0,5.746,0.657,7.649,1.969c1.903,1.313,3.177,3.34,3.824,6.08h3.367v9.589h-3.539
			c-0.837,2.703-2.396,4.777-4.682,6.222c-2.281,1.447-5.155,2.17-8.619,2.17l-0.855-9.988c4.187,0,6.278-1.007,6.278-3.024
			c0-0.913-0.313-1.598-0.941-2.055c-0.625-0.454-1.626-0.685-2.997-0.685c-1.179,0-2.103,0.438-2.769,1.315
			c-0.669,0.875-1.379,2.224-2.141,4.053c-0.875,2.053-1.731,3.729-2.567,5.023c-0.838,1.294-2.092,2.417-3.769,3.367
			c-1.674,0.952-3.844,1.426-6.507,1.426c-3.196,0-5.746-0.634-7.648-1.912c-1.902-1.273-3.178-3.243-3.825-5.908h-3.367v-9.593
			h3.482c1.485-4.984,5.651-7.479,12.501-7.479l0.57,9.989c-0.342-0.037-0.799-0.057-1.369-0.057c-2.699,0-4.054,0.78-4.054,2.34
			c0,1.749,1.408,2.626,4.226,2.626c1.104,0,1.962-0.418,2.567-1.256c0.608-0.839,1.294-2.188,2.054-4.053
			c0.877-2.093,1.742-3.817,2.599-5.167c0.855-1.35,2.138-2.521,3.853-3.512C154.938,89.05,157.165,88.553,159.904,88.553z"/>
	</g>
</g>
<polyline fill="none" stroke="#333333" stroke-width="20" stroke-miterlimit="10" points="89.965,175.774 113.28,11.794 
	215.292,11.794 191.977,175.774 "/>
<path fill="none" stroke="#333333" stroke-width="12" stroke-miterlimit="10" d="M145.657,10.829c0,0,2.818,38.201-38.275,31.27
	l4.706-31.27H145.657z"/>
<path fill="none" stroke="#333333" stroke-width="12" stroke-miterlimit="10" d="M217.043,12.829l-3.52,30.769
	c-41.574,7.012-31.478-30.769-31.478-30.769H217.043z"/>
</svg>
