<?xml version="1.0" encoding="utf-8"?>
<!-- Generator: Adobe Illustrator 16.0.0, SVG Export Plug-In . SVG Version: 6.00 Build 0)  -->
<!DOCTYPE svg PUBLIC "-//W3C//DTD SVG 1.1//EN" "http://www.w3.org/Graphics/SVG/1.1/DTD/svg11.dtd">
<svg version="1.1" id="레이어_1" xmlns:sketch="http://www.bohemiancoding.com/sketch/ns"
	 xmlns="http://www.w3.org/2000/svg" xmlns:xlink="http://www.w3.org/1999/xlink" x="0px" y="0px" width="20px" height="20px"
	 viewBox="0 0 20 20" enable-background="new 0 0 20 20" xml:space="preserve">
<title></title>
<desc></desc>
<g>
	<g>
		<path fill="#FFFFFF" d="M6.815,1.368v5.53h-5.53v-5.53H6.815 M6.815,0.168h-5.53c-0.663,0-1.2,0.538-1.2,1.2v5.53
			c0,0.663,0.538,1.2,1.2,1.2h5.53c0.663,0,1.2-0.538,1.2-1.2v-5.53C8.016,0.706,7.478,0.168,6.815,0.168L6.815,0.168z"/>
	</g>
	<rect x="3.143" y="3.226" fill="#FFFFFF" width="1.814" height="1.813"/>
	<g>
		<path fill="#FFFFFF" d="M18.684,1.368v5.53h-5.531v-5.53H18.684 M18.684,0.168h-5.531c-0.662,0-1.199,0.538-1.199,1.2v5.53
			c0,0.663,0.537,1.2,1.199,1.2h5.531c0.662,0,1.199-0.538,1.199-1.2v-5.53C19.883,0.706,19.346,0.168,18.684,0.168L18.684,0.168z"
			/>
	</g>
	<rect x="15.01" y="3.226" fill="#FFFFFF" width="1.814" height="1.813"/>
	<g>
		<path fill="#FFFFFF" d="M6.843,13.178v5.529H1.314v-5.529H6.843 M6.843,11.979H1.314c-0.663,0-1.2,0.537-1.2,1.199v5.529
			c0,0.663,0.538,1.2,1.2,1.2h5.528c0.663,0,1.2-0.537,1.2-1.2v-5.529C8.043,12.516,7.505,11.979,6.843,11.979L6.843,11.979z"/>
	</g>
	<rect x="3.17" y="15.037" fill="#FFFFFF" width="1.816" height="1.813"/>
	<g>
		<rect x="0.729" y="9.232" fill="#FFFFFF" width="4.354" height="1.583"/>
		<rect x="9.258" y="0.653" fill="#FFFFFF" width="1.584" height="3.295"/>
		<polygon fill="#FFFFFF" points="9.258,6.052 9.258,9.208 9.005,9.208 7.422,9.208 7.422,10.791 7.422,11.504 9.005,11.504 
			9.005,10.791 9.258,10.791 9.258,10.815 10.842,10.815 10.842,6.052 		"/>
		<polygon fill="#FFFFFF" points="14.498,11.037 14.474,11.037 14.474,9.219 12.89,9.219 12.89,11.037 11.063,11.037 11.063,11.127 
			11.063,12.621 11.063,12.852 10.141,12.852 10.141,14.436 12.646,14.436 12.646,13.998 12.646,12.852 12.646,12.621 
			14.498,12.621 		"/>
		<rect x="12.89" y="14.652" fill="#FFFFFF" width="1.584" height="4.59"/>
		<rect x="9.261" y="16.14" fill="#FFFFFF" width="1.584" height="3.099"/>
		<rect x="16.191" y="9.208" fill="#FFFFFF" width="3.101" height="1.584"/>
		<rect x="14.672" y="12.852" fill="#FFFFFF" width="2.766" height="1.584"/>
		<rect x="17.656" y="17.647" fill="#FFFFFF" width="1.636" height="1.584"/>
	</g>
</g>
</svg>
