<svg xmlns="http://www.w3.org/2000/svg" width="56" height="56" viewBox="0 0 56 56"><defs><style>.a,.b{fill:none;}.a{opacity:0.684;}.b{stroke:#767676;stroke-linecap:round;stroke-miterlimit:10;stroke-width:2px;}</style></defs><g transform="translate(-153 -2486)"><rect class="a" width="56" height="56" transform="translate(153 2486)"/><g transform="translate(4077 2748)"><path class="b" d="M-3876-232.611v-2.775a1.484,1.484,0,0,0-1.181-1.453l-6.141-1.279a13.26,13.26,0,0,0-.8-1.929l3.442-5.254a1.482,1.482,0,0,0-.191-1.86l-1.963-1.963a1.482,1.482,0,0,0-1.86-.191l-5.254,3.442a13.251,13.251,0,0,0-1.929-.8l-1.28-6.143a1.48,1.48,0,0,0-1.45-1.179h-2.776a1.48,1.48,0,0,0-1.45,1.179l-1.28,6.143a13.251,13.251,0,0,0-1.929.8l-5.254-3.442a1.482,1.482,0,0,0-1.86.191l-1.963,1.963a1.482,1.482,0,0,0-.191,1.86l3.442,5.254a7.534,7.534,0,0,0-.8,1.929l-6.143,1.28a1.48,1.48,0,0,0-1.179,1.45v2.776a1.48,1.48,0,0,0,1.179,1.45l6.143,1.28a13.26,13.26,0,0,0,.8,1.929l-3.442,5.254a1.482,1.482,0,0,0,.191,1.86l1.963,1.963a1.482,1.482,0,0,0,1.86.191l5.254-3.442a13.251,13.251,0,0,0,1.929.8l1.28,6.143a1.48,1.48,0,0,0,1.45,1.179h2.776a1.48,1.48,0,0,0,1.45-1.179l1.28-6.143a13.251,13.251,0,0,0,1.929-.8l5.254,3.442a1.482,1.482,0,0,0,1.86-.191l1.963-1.963a1.482,1.482,0,0,0,.191-1.86l-3.442-5.254a13.26,13.26,0,0,0,.8-1.929l6.143-1.28A1.48,1.48,0,0,0-3876-232.611Z"/><circle class="b" cx="6" cy="6" r="6" transform="translate(-3902 -240)"/></g></g></svg>