<svg xmlns="http://www.w3.org/2000/svg" width="50" height="50" viewBox="0 0 50 50"><defs><style>.a,.b{fill:none;}.a{opacity:0.549;}.b{stroke:#111;stroke-linecap:round;stroke-miterlimit:10;stroke-width:2px;}</style></defs><g transform="translate(-405 -83)"><rect class="a" width="50" height="50" transform="translate(405 83)"/><g transform="translate(4101.662 971.381)"><path class="b" d="M-3655.122-844.495a1.871,1.871,0,0,0,1.871-1.871v-19.677a1.869,1.869,0,0,0-.7-1.461l-16.835-13.468a1.871,1.871,0,0,0-2.336,0l-16.835,13.468a1.87,1.87,0,0,0-.7,1.461v19.677a1.871,1.871,0,0,0,1.871,1.871h8.417a1.871,1.871,0,0,0,1.871-1.871v-11.223a1.871,1.871,0,0,1,1.871-1.871h9.353a1.87,1.87,0,0,1,1.871,1.871v11.223a1.871,1.871,0,0,0,1.871,1.871Z" transform="translate(0 0)"/></g></g></svg>