<svg xmlns="http://www.w3.org/2000/svg" width="56" height="30" viewBox="0 0 56 30">
  <g id="그룹_1397" data-name="그룹 1397" transform="translate(-224 -464)">
    <g id="그룹_1396" data-name="그룹 1396" transform="translate(62)">
      <rect id="사각형_1087" data-name="사각형 1087" width="56" height="30" transform="translate(162 464)" fill="#fe912c"/>
    </g>
    <path id="패스_689" data-name="패스 689" d="M3.9,15V.605H6.874V6.094H12.5V.605h2.988V15H12.5V8.574H6.874V15Zm20.33-2.148a3.436,3.436,0,0,0,2.837-1.318,5.891,5.891,0,0,0,1.05-3.75,5.9,5.9,0,0,0-1.05-3.745,3.431,3.431,0,0,0-2.837-1.323,3.477,3.477,0,0,0-2.852,1.318,5.833,5.833,0,0,0-1.064,3.75,5.833,5.833,0,0,0,1.064,3.75A3.477,3.477,0,0,0,24.226,12.852ZM31.12,7.783a7.785,7.785,0,0,1-2.178,5.938,6.277,6.277,0,0,1-4.717,1.68,6.277,6.277,0,0,1-4.717-1.68,7.765,7.765,0,0,1-2.187-5.937q0-3.955,2.188-5.937A6.277,6.277,0,0,1,24.226.166a6.277,6.277,0,0,1,4.717,1.68Q31.12,3.828,31.12,7.783ZM43.374.605V3.154H39.067V15H36.04V3.154H31.714V.605Z" transform="translate(228 471)" fill="#fff"/>
  </g>
</svg>
