<svg xmlns="http://www.w3.org/2000/svg" width="43.893" height="14.395" viewBox="0 0 43.893 14.395">
  <path id="패스_687" data-name="패스 687" d="M5.645.605H8.8l5.732,10.049V.605h2.8V15H14.326L8.447,4.775V15h-2.8ZM30.281,3.154H22.664V6.211h6.992v2.5H22.664v3.7h7.969V15H19.725V.605H30.281ZM34.439.605l1.9,8.242.41,2.295.42-2.246L38.795.605h3.174l1.709,8.242.439,2.295.439-2.207L46.48.605h3.057L45.484,15H42.613L40.875,6.582,40.367,3.8l-.508,2.783L38.121,15H35.328L31.246.605Z" transform="translate(-5.645 -0.605)" fill="#8354c8"/>
</svg>
