<svg xmlns="http://www.w3.org/2000/svg" width="56" height="56" viewBox="0 0 56 56"><defs><style>.a,.b{fill:none;}.a{opacity:0.684;}.b{stroke:#767676;stroke-linecap:round;stroke-miterlimit:10;stroke-width:2px;}</style></defs><g transform="translate(-324 -2488)"><g transform="translate(171 2)"><rect class="a" width="56" height="56" transform="translate(153 2486)"/></g><g transform="translate(4136.662 3592.662)"><path class="b" d="M-3772.035-1066.662v-18.154c0-7.647-5.706-11.846-12.745-11.846h0c-7.039,0-12.745,4.2-12.745,11.846v6.165a6.174,6.174,0,0,0-6.137,5.989,6.174,6.174,0,0,0,6.137,5.989v.011"/><line class="b" y2="14.34" transform="translate(-3797.525 -1081.002)"/><path class="b" d="M-3772.035-1068.662c0,7.647-5.706,11.846-12.745,11.846"/><path class="b" d="M-3782.42-1059.662a3.1,3.1,0,0,1-3.186,3,3.1,3.1,0,0,1-3.186-3,3.1,3.1,0,0,1,3.186-3A3.1,3.1,0,0,1-3782.42-1059.662Z"/><path class="b" d="M-3771.8-1066.662v-.011a6.174,6.174,0,0,0,6.137-5.989,6.174,6.174,0,0,0-6.137-5.989"/></g></g></svg>