<svg xmlns="http://www.w3.org/2000/svg" width="42" height="42" viewBox="0 0 42 42"><defs><style>.a,.b{fill:none;}.a{opacity:0.671;}.b{stroke:#111;stroke-linecap:round;stroke-miterlimit:10;stroke-width:2px;}</style></defs><g transform="translate(-52 -327.585)"><rect class="a" width="42" height="42" transform="translate(52 327.585)"/><g transform="translate(61.357 334.238)"><path class="b" d="M-4115.628-1096.662h-12.57a1.465,1.465,0,0,0-1.464,1.464v26.352a1.464,1.464,0,0,0,1.464,1.464h20.5a1.464,1.464,0,0,0,1.463-1.464v-18.425a1.463,1.463,0,0,0-.429-1.036l-7.926-7.926A1.463,1.463,0,0,0-4115.628-1096.662Z" transform="translate(4129.662 1096.662)"/><line class="b" x2="12.475" transform="translate(5.924 20.442)"/><line class="b" x2="6.238" transform="translate(5.924 15.244)"/><path class="b" d="M-4100.878-1087.878h-7.319a1.465,1.465,0,0,1-1.465-1.464v-7.32" transform="translate(4124.303 1096.662)"/></g></g></svg>