<svg xmlns="http://www.w3.org/2000/svg" xmlns:xlink="http://www.w3.org/1999/xlink" width="177" height="168" viewBox="0 0 177 168"><defs><style>.a,.d{fill:#8354c8;}.b,.c{fill:#fff;}.c{stroke:#8354c8;stroke-width:4px;}.d{font-size:32px;font-family:SpoqaHanSans-Bold, SpoqaHanSans;font-weight:700;}.e{filter:url(#a);}</style><filter id="a" x="9" y="0" width="168" height="168" filterUnits="userSpaceOnUse"><feOffset dy="3" input="SourceAlpha"/><feGaussianBlur stdDeviation="6" result="b"/><feFlood flood-opacity="0.161"/><feComposite operator="in" in2="b"/><feComposite in="SourceGraphic"/></filter></defs><g transform="translate(-194 -1180)"><g transform="translate(-343.5 -94.5)"><g class="e" transform="matrix(1, 0, 0, 1, 537.5, 1274.5)"><rect class="a" width="132" height="132" rx="14" transform="translate(27 15)"/></g><path class="b" d="M20.4,21.48a21.392,21.392,0,0,0,.64-3.536q.128-1.552.128-3.024H4.976V11.592H25.392v2.432q0,1.76-.112,3.68a21.073,21.073,0,0,1-.72,4.192Zm-5.312,15.1a14.194,14.194,0,0,0,4.64-.592q1.632-.592,1.632-1.776,0-1.216-1.632-1.808a14.194,14.194,0,0,0-4.64-.592,14.043,14.043,0,0,0-4.624.592Q8.848,33,8.848,34.216q0,1.184,1.616,1.776A14.043,14.043,0,0,0,15.088,36.584Zm0-7.936a22.125,22.125,0,0,1,4.32.384,12.314,12.314,0,0,1,3.3,1.1,5.831,5.831,0,0,1,2.112,1.76,3.923,3.923,0,0,1,.736,2.32,3.852,3.852,0,0,1-.736,2.3A5.907,5.907,0,0,1,22.7,38.264a12.314,12.314,0,0,1-3.3,1.1,22.125,22.125,0,0,1-4.32.384,22.189,22.189,0,0,1-4.3-.384,12.06,12.06,0,0,1-3.3-1.1,5.938,5.938,0,0,1-2.1-1.744,3.852,3.852,0,0,1-.736-2.3,3.923,3.923,0,0,1,.736-2.32,5.862,5.862,0,0,1,2.1-1.76,12.06,12.06,0,0,1,3.3-1.1A22.189,22.189,0,0,1,15.088,28.648Zm13.44-5.184v3.328H2V23.464h9.824V18.312h4.224v5.152Zm7.232-3.808a3.935,3.935,0,0,0,1.056,2.912A3.641,3.641,0,0,0,39.5,23.624a3.7,3.7,0,0,0,2.7-1.056,3.9,3.9,0,0,0,1.072-2.912,3.859,3.859,0,0,0-1.072-2.88,3.7,3.7,0,0,0-2.7-1.056,3.641,3.641,0,0,0-2.688,1.056A3.892,3.892,0,0,0,35.76,19.656Zm11.3-1.92q.1.448.16.928a7.5,7.5,0,0,1,.064.992q0,.48-.048.96a5.286,5.286,0,0,1-.176.928h4.736V17.736ZM45.3,24.9a7.9,7.9,0,0,1-2.576,1.76,8.052,8.052,0,0,1-3.216.64,7.951,7.951,0,0,1-3.04-.576A7.676,7.676,0,0,1,34,25.128a7.313,7.313,0,0,1-1.648-2.416,8.142,8.142,0,0,1,0-6.1A7.1,7.1,0,0,1,34,14.2a7.816,7.816,0,0,1,2.464-1.584,7.951,7.951,0,0,1,3.04-.576,8.181,8.181,0,0,1,3.184.608,7.581,7.581,0,0,1,2.544,1.728h6.56v-4.1h4.224V31.848H51.792V24.9ZM56.688,35.88v3.36h-20.1v-9.5h4.224V35.88ZM25.584,59.7H5.2V49.08H25.424v3.36H9.392v3.936H25.584Zm-10.4,14.848a14.184,14.184,0,0,0,4.464-.528q1.488-.528,1.488-1.68,0-2.24-5.952-2.24t-5.952,2.24q0,1.152,1.488,1.68A14.184,14.184,0,0,0,15.184,74.552Zm0-7.648a23.544,23.544,0,0,1,4.288.352,11.273,11.273,0,0,1,3.216,1.056,5.627,5.627,0,0,1,2.032,1.712,3.951,3.951,0,0,1,.7,2.32,3.879,3.879,0,0,1-.7,2.3,5.7,5.7,0,0,1-2.032,1.7A11.273,11.273,0,0,1,19.472,77.4a23.544,23.544,0,0,1-4.288.352A23.544,23.544,0,0,1,10.9,77.4a11.048,11.048,0,0,1-3.2-1.056,5.733,5.733,0,0,1-2.016-1.7,3.879,3.879,0,0,1-.7-2.3,3.951,3.951,0,0,1,.7-2.32A5.658,5.658,0,0,1,7.7,68.312a11.048,11.048,0,0,1,3.2-1.056A23.544,23.544,0,0,1,15.184,66.9Zm13.44-5.152v3.456H1.968V61.752Zm5.7,7.328H54.992v8.576H50.768V72.408H34.32Zm23.744-5.024v3.36H31.376v-3.36H42.608V61.944H34.7v-8.1H50.64V52.056h-16v-3.2H54.8v7.968H38.864v1.92H55.408v3.2H46.832v2.112Z" transform="translate(600.5 1311.5)"/></g><circle class="c" cx="25" cy="25" r="25" transform="translate(196 1236)"/><text class="d" transform="translate(221 1273)"><tspan x="-9.424" y="0">+</tspan></text></g></svg>