<?xml version="1.0" encoding="utf-8"?>
<!-- Generator: Adobe Illustrator 16.0.0, SVG Export Plug-In . SVG Version: 6.00 Build 0)  -->
<!DOCTYPE svg PUBLIC "-//W3C//DTD SVG 1.1//EN" "http://www.w3.org/Graphics/SVG/1.1/DTD/svg11.dtd">
<svg version="1.1" id="레이어_1" xmlns="http://www.w3.org/2000/svg" xmlns:xlink="http://www.w3.org/1999/xlink" x="0px"
	 y="0px" width="90px" height="30px" viewBox="0 0 90 30" enable-background="new 0 0 90 30" xml:space="preserve">
<g>
	<g>
		<g>
			<path fill="#C0C1CE" d="M12.917,10.817h-0.816c0.448,0.721,0.673,1.509,0.673,2.366c0,0.609-0.116,1.188-0.347,1.731
				c-0.231,0.545-0.551,1.021-0.958,1.429c-0.408,0.407-0.884,0.729-1.428,0.959s-1.122,0.35-1.734,0.35
				c-0.612,0-1.189-0.115-1.733-0.35c-0.544-0.229-1.02-0.552-1.428-0.959c-0.408-0.408-0.727-0.884-0.958-1.429
				c-0.231-0.543-0.347-1.122-0.347-1.731c0-0.857,0.225-1.646,0.673-2.366H3.698V7.676H6.9v-2.1h3.141v2.102h2.875L12.917,10.817
				L12.917,10.817z M8.307,14.51c0.367,0,0.68-0.13,0.938-0.389c0.258-0.259,0.387-0.57,0.387-0.938
				c0-0.369-0.129-0.682-0.387-0.938c-0.258-0.258-0.571-0.388-0.938-0.388c-0.367,0-0.68,0.129-0.938,0.387
				c-0.258,0.259-0.387,0.57-0.387,0.938c0,0.369,0.129,0.682,0.387,0.938C7.627,14.378,7.94,14.51,8.307,14.51z M20.769,7.656
				v9.973h-2.814v-3.365h-1.204v3.365h-2.814V7.656h2.814v3.488h1.204V7.656H20.769z"/>
		</g>
		<g>
			<path fill="#C0C1CE" d="M36.423,17.551H22.677V14.45h2.225v-3.772h-2.225V9.127c0-0.435,0.15-0.802,0.449-1.102
				c0.299-0.299,0.667-0.449,1.102-0.449h12.196v3.1h-2.223v3.773h2.223L36.423,17.551L36.423,17.551z M31.101,10.678H28v3.772
				h3.101V10.678z M41.972,17.551h-3.121V7.577h3.121V17.551z"/>
		</g>
		<g>
			<path fill="#C0C1CE" d="M43.726,16.785V5.935h3.18v2.265h2.021V5.935h1.581c0.438,0,0.813,0.156,1.13,0.47
				c0.313,0.313,0.473,0.688,0.473,1.122v2.671h2.43V6.833h3.117v9.974H54.54v-3.484h-2.43v3.467L43.726,16.785L43.726,16.785z
				 M48.925,13.624V11.36h-2.02v2.264H48.925z"/>
		</g>
		<g>
			<path fill="#C0C1CE" d="M80.735,6.132v8.423c0,0.437-0.15,0.803-0.449,1.103c-0.299,0.299-0.666,0.448-1.102,0.448h-1.57v-2.447
				h-3.896v-3.12h3.896v-0.51c0-0.53-0.258-0.796-0.774-0.796h-3.12V6.134h7.016V6.132z M81.755,25.793
				c-0.611,0-1.186-0.115-1.723-0.348c-0.538-0.23-1.01-0.547-1.418-0.947c-0.408-0.402-0.729-0.874-0.959-1.418
				c-0.23-0.544-0.346-1.121-0.346-1.732c0-0.609,0.111-1.188,0.346-1.725c0.229-0.537,0.551-1.01,0.959-1.418
				c0.408-0.406,0.88-0.727,1.418-0.958c0.537-0.231,1.111-0.347,1.723-0.347c0.612,0,1.189,0.115,1.732,0.347
				c0.545,0.231,1.021,0.552,1.429,0.958c0.408,0.408,0.728,0.881,0.958,1.418c0.232,0.537,0.348,1.111,0.348,1.725
				c0,0.612-0.115,1.188-0.348,1.732c-0.23,0.544-0.55,1.016-0.958,1.418c-0.407,0.4-0.884,0.717-1.429,0.947
				C82.944,25.678,82.366,25.793,81.755,25.793z M81.755,20.041c-0.354,0-0.66,0.129-0.918,0.389
				c-0.258,0.258-0.387,0.563-0.387,0.918c0,0.365,0.129,0.683,0.387,0.938s0.564,0.387,0.918,0.387c0.367,0,0.68-0.129,0.938-0.387
				c0.262-0.259,0.392-0.572,0.392-0.938c0-0.354-0.13-0.66-0.392-0.918C82.435,20.17,82.122,20.041,81.755,20.041z M86.303,16.105
				h-3.12V6.131h3.12V16.105z"/>
		</g>
		<g>
			<path fill="#C0C1CE" d="M71.899,15.646l-2.916,1.957l-1.366-2.241l-2.142-3.528l-2.145,3.528l-1.35,2.241l-1.527-0.813
				c-0.219-0.106-0.41-0.223-0.58-0.338c-0.171-0.115-0.289-0.271-0.354-0.459c-0.141-0.396-0.074-0.813,0.184-1.265l0.408-0.674
				l1.729-2.834l0.269-0.449l1.918-3.14h2.916l1.896,3.14l0.285,0.449l1.714,2.834L71.899,15.646z"/>
		</g>
	</g>
	<path fill="#C0C1CE" d="M70.298,18.505c0,2.507-2.07,4.54-4.623,4.54c-2.554,0-4.625-2.033-4.625-4.54"/>
</g>
<g>
	<g>
		
			<linearGradient id="SVGID_1_" gradientUnits="userSpaceOnUse" x1="54.6426" y1="-119.2002" x2="54.6426" y2="-107.124" gradientTransform="matrix(1 0 0 -1 -41.6602 -133.96)">
			<stop  offset="0" style="stop-color:#8354C8"/>
			<stop  offset="1" style="stop-color:#C750BF"/>
		</linearGradient>
		<path fill="url(#SVGID_1_)" d="M13.666-21.595H12.85c0.448,0.721,0.673,1.509,0.673,2.366c0,0.61-0.116,1.188-0.347,1.732
			c-0.231,0.545-0.551,1.02-0.958,1.428c-0.408,0.408-0.884,0.729-1.428,0.959c-0.544,0.231-1.122,0.35-1.734,0.35
			c-0.612,0-1.189-0.115-1.733-0.35c-0.544-0.229-1.02-0.551-1.428-0.959c-0.408-0.408-0.727-0.883-0.958-1.428
			C4.706-18.04,4.59-18.619,4.59-19.229c0-0.857,0.225-1.646,0.673-2.366H4.447v-3.141h3.202v-2.1h3.141v2.101h2.875L13.666-21.595
			L13.666-21.595z M9.056-17.902c0.367,0,0.68-0.13,0.938-0.389c0.258-0.259,0.387-0.57,0.387-0.938s-0.129-0.681-0.387-0.938
			c-0.258-0.258-0.571-0.388-0.938-0.388c-0.367,0-0.68,0.129-0.938,0.387c-0.258,0.259-0.387,0.57-0.387,0.938
			s0.129,0.681,0.387,0.938C8.376-18.034,8.689-17.902,9.056-17.902z M21.518-24.756v9.973h-2.814v-3.365H17.5v3.365h-2.814v-9.973
			H17.5v3.488h1.204v-3.488H21.518z"/>
	</g>
	<g>
		
			<linearGradient id="SVGID_2_" gradientUnits="userSpaceOnUse" x1="74.7344" y1="-119.0991" x2="74.7344" y2="-109.124" gradientTransform="matrix(1 0 0 -1 -41.6602 -133.96)">
			<stop  offset="0" style="stop-color:#8354C8"/>
			<stop  offset="1" style="stop-color:#C750BF"/>
		</linearGradient>
		<path fill="url(#SVGID_2_)" d="M37.172-14.861H23.426v-3.101h2.225v-3.772h-2.225v-1.551c0-0.435,0.15-0.802,0.449-1.102
			c0.299-0.299,0.667-0.449,1.102-0.449h12.196v3.1H34.95v3.773h2.223L37.172-14.861L37.172-14.861z M31.85-21.734h-3.101v3.772
			h3.101V-21.734z M42.721-14.861H39.6v-9.974h3.121V-14.861z"/>
	</g>
	<g>
		
			<linearGradient id="SVGID_3_" gradientUnits="userSpaceOnUse" x1="93.1016" y1="-118.355" x2="93.1016" y2="-107.4829" gradientTransform="matrix(1 0 0 -1 -41.6602 -133.96)">
			<stop  offset="0" style="stop-color:#8354C8"/>
			<stop  offset="1" style="stop-color:#C750BF"/>
		</linearGradient>
		<path fill="url(#SVGID_3_)" d="M44.475-15.627v-10.85h3.179v2.264h2.021v-2.264h1.581c0.438,0,0.813,0.156,1.13,0.469
			c0.313,0.313,0.473,0.687,0.473,1.122v2.671h2.43v-3.364h3.117v9.974h-3.117v-3.485h-2.43v3.467L44.475-15.627L44.475-15.627z
			 M49.674-18.788v-2.264h-2.02v2.264H49.674z"/>
	</g>
	<g>
		
			<linearGradient id="SVGID_4_" gradientUnits="userSpaceOnUse" x1="122.4199" y1="-127.3408" x2="122.4199" y2="-107.6787" gradientTransform="matrix(1 0 0 -1 -41.6602 -133.96)">
			<stop  offset="0" style="stop-color:#8354C8"/>
			<stop  offset="1" style="stop-color:#C750BF"/>
		</linearGradient>
		<path fill="url(#SVGID_4_)" d="M81.484-26.28v8.423c0,0.436-0.15,0.803-0.449,1.102c-0.299,0.299-0.666,0.449-1.102,0.449h-1.57
			v-2.448h-3.896v-3.12h3.896v-0.51c0-0.53-0.258-0.795-0.774-0.795h-3.12v-3.1h7.016V-26.28z M82.504-6.619
			c-0.611,0-1.186-0.115-1.723-0.348c-0.538-0.23-1.01-0.547-1.418-0.947c-0.408-0.402-0.729-0.874-0.959-1.418
			c-0.23-0.544-0.346-1.121-0.346-1.732c0-0.61,0.111-1.188,0.346-1.725c0.229-0.537,0.551-1.01,0.959-1.418
			c0.408-0.406,0.88-0.727,1.418-0.958c0.537-0.231,1.111-0.347,1.723-0.347c0.612,0,1.189,0.115,1.732,0.347
			c0.545,0.231,1.021,0.552,1.429,0.958c0.408,0.408,0.728,0.881,0.958,1.418c0.232,0.537,0.348,1.111,0.348,1.725
			c0,0.612-0.115,1.188-0.348,1.732c-0.23,0.544-0.55,1.016-0.958,1.418c-0.407,0.4-0.884,0.717-1.429,0.947
			C83.693-6.734,83.115-6.619,82.504-6.619z M82.504-12.371c-0.354,0-0.66,0.129-0.918,0.389c-0.258,0.258-0.387,0.563-0.387,0.918
			c0,0.365,0.129,0.682,0.387,0.938s0.564,0.387,0.918,0.387c0.367,0,0.68-0.129,0.938-0.387c0.262-0.259,0.392-0.572,0.392-0.938
			c0-0.354-0.13-0.66-0.392-0.918C83.184-12.242,82.871-12.371,82.504-12.371z M87.052-16.307h-3.12v-9.974h3.12V-16.307z"/>
	</g>
	<g>
		
			<linearGradient id="SVGID_5_" gradientUnits="userSpaceOnUse" x1="108.084" y1="-119.1509" x2="108.084" y2="-109.1797" gradientTransform="matrix(1 0 0 -1 -41.6602 -133.96)">
			<stop  offset="0" style="stop-color:#8354C8"/>
			<stop  offset="1" style="stop-color:#C750BF"/>
		</linearGradient>
		<path fill="url(#SVGID_5_)" d="M72.648-16.766l-2.916,1.957l-1.366-2.241l-2.142-3.528L64.08-17.05l-1.35,2.241l-1.527-0.813
			c-0.219-0.107-0.41-0.223-0.58-0.338c-0.171-0.115-0.289-0.27-0.354-0.459c-0.141-0.395-0.074-0.814,0.184-1.264l0.408-0.674
			l1.729-2.834l0.269-0.449l1.918-3.14h2.916l1.896,3.14l0.285,0.449l1.714,2.834L72.648-16.766z"/>
	</g>
</g>
<linearGradient id="SVGID_6_" gradientUnits="userSpaceOnUse" x1="108.084" y1="-124.5928" x2="108.084" y2="-120.0527" gradientTransform="matrix(1 0 0 -1 -41.6602 -133.96)">
	<stop  offset="0" style="stop-color:#8354C8"/>
	<stop  offset="1" style="stop-color:#C750BF"/>
</linearGradient>
<path fill="url(#SVGID_6_)" d="M71.047-13.907c0,2.507-2.07,4.54-4.623,4.54c-2.554,0-4.625-2.033-4.625-4.54"/>
<g>
	<g>
		<g>
			
				<linearGradient id="SVGID_7_" gradientUnits="userSpaceOnUse" x1="4009.8926" y1="-4051.0767" x2="4009.8926" y2="-4038.9995" gradientTransform="matrix(1 0 0 -1 -41.6602 -133.96)">
				<stop  offset="0" style="stop-color:#8354C8"/>
				<stop  offset="1" style="stop-color:#C750BF"/>
			</linearGradient>
			<path fill="url(#SVGID_7_)" d="M3968.916,3910.28h-0.816c0.448,0.721,0.674,1.509,0.674,2.366c0,0.61-0.116,1.188-0.348,1.732
				c-0.23,0.545-0.551,1.02-0.958,1.428s-0.884,0.729-1.428,0.959c-0.544,0.231-1.122,0.351-1.733,0.351
				c-0.613,0-1.189-0.115-1.733-0.351c-0.544-0.229-1.021-0.551-1.429-0.959s-0.727-0.883-0.957-1.428
				c-0.231-0.543-0.348-1.122-0.348-1.732c0-0.857,0.225-1.646,0.674-2.366h-0.816v-3.142h3.201v-2.1h3.142v2.102h2.875
				L3968.916,3910.28L3968.916,3910.28z M3964.307,3913.973c0.366,0,0.68-0.13,0.938-0.389s0.387-0.57,0.387-0.938
				s-0.129-0.681-0.387-0.938s-0.571-0.388-0.938-0.388c-0.367,0-0.681,0.129-0.938,0.387c-0.259,0.259-0.388,0.57-0.388,0.938
				s0.129,0.681,0.388,0.938C3963.626,3913.841,3963.939,3913.973,3964.307,3913.973z M3976.768,3907.119v9.973h-2.813v-3.365
				h-1.204v3.365h-2.814v-9.973h2.814v3.488h1.204v-3.488H3976.768z"/>
		</g>
		<g>
			
				<linearGradient id="SVGID_8_" gradientUnits="userSpaceOnUse" x1="4029.9834" y1="-4050.9741" x2="4029.9834" y2="-4040.9995" gradientTransform="matrix(1 0 0 -1 -41.6602 -133.96)">
				<stop  offset="0" style="stop-color:#8354C8"/>
				<stop  offset="1" style="stop-color:#C750BF"/>
			</linearGradient>
			<path fill="url(#SVGID_8_)" d="M3992.422,3917.014h-13.746v-3.101h2.225v-3.772h-2.225v-1.551c0-0.435,0.15-0.802,0.449-1.102
				c0.299-0.299,0.667-0.449,1.102-0.449h12.196v3.1h-2.223v3.773h2.223L3992.422,3917.014L3992.422,3917.014z M3987.1,3910.141
				h-3.101v3.772h3.101V3910.141z M3997.971,3917.014h-3.121v-9.974h3.121V3917.014z"/>
		</g>
		<g>
			
				<linearGradient id="SVGID_9_" gradientUnits="userSpaceOnUse" x1="4048.3496" y1="-4050.23" x2="4048.3496" y2="-4039.3589" gradientTransform="matrix(1 0 0 -1 -41.6602 -133.96)">
				<stop  offset="0" style="stop-color:#8354C8"/>
				<stop  offset="1" style="stop-color:#C750BF"/>
			</linearGradient>
			<path fill="url(#SVGID_9_)" d="M3999.725,3916.248v-10.85h3.18v2.264h2.021v-2.264h1.581c0.438,0,0.813,0.156,1.129,0.469
				c0.314,0.313,0.473,0.688,0.473,1.122v2.671h2.431v-3.364h3.116v9.974h-3.116v-3.484h-2.431v3.467L3999.725,3916.248
				L3999.725,3916.248z M4004.924,3913.087v-2.264h-2.02v2.264H4004.924z"/>
		</g>
		<g>
			
				<linearGradient id="SVGID_10_" gradientUnits="userSpaceOnUse" x1="4077.6699" y1="-4059.2163" x2="4077.6699" y2="-4039.5552" gradientTransform="matrix(1 0 0 -1 -41.6602 -133.96)">
				<stop  offset="0" style="stop-color:#8354C8"/>
				<stop  offset="1" style="stop-color:#C750BF"/>
			</linearGradient>
			<path fill="url(#SVGID_10_)" d="M4036.734,3905.595v8.423c0,0.436-0.15,0.803-0.449,1.102s-0.666,0.449-1.102,0.449h-1.57v-2.448
				h-3.896V3910h3.896v-0.51c0-0.53-0.258-0.795-0.774-0.795h-3.12v-3.101H4036.734z M4037.754,3925.256
				c-0.611,0-1.186-0.115-1.723-0.348c-0.538-0.23-1.01-0.547-1.418-0.947c-0.408-0.402-0.729-0.874-0.959-1.418
				c-0.23-0.544-0.346-1.121-0.346-1.732c0-0.609,0.111-1.188,0.346-1.725c0.229-0.537,0.551-1.01,0.959-1.418
				c0.408-0.406,0.88-0.727,1.418-0.958c0.537-0.231,1.111-0.347,1.723-0.347c0.612,0,1.189,0.115,1.732,0.347
				c0.545,0.231,1.021,0.552,1.429,0.958c0.408,0.408,0.728,0.881,0.958,1.418c0.232,0.537,0.348,1.111,0.348,1.725
				c0,0.612-0.115,1.188-0.348,1.732c-0.23,0.544-0.55,1.016-0.958,1.418c-0.407,0.4-0.884,0.717-1.429,0.947
				C4038.943,3925.141,4038.365,3925.256,4037.754,3925.256z M4037.754,3919.504c-0.354,0-0.66,0.129-0.918,0.389
				c-0.258,0.258-0.387,0.563-0.387,0.918c0,0.365,0.129,0.683,0.387,0.938s0.564,0.387,0.918,0.387c0.367,0,0.68-0.129,0.938-0.387
				c0.262-0.259,0.392-0.572,0.392-0.938c0-0.354-0.13-0.66-0.392-0.918C4038.434,3919.633,4038.121,3919.504,4037.754,3919.504z
				 M4042.302,3915.568h-3.12v-9.974h3.12V3915.568z"/>
		</g>
		<g>
			
				<linearGradient id="SVGID_11_" gradientUnits="userSpaceOnUse" x1="4063.333" y1="-4051.0269" x2="4063.333" y2="-4041.0562" gradientTransform="matrix(1 0 0 -1 -41.6602 -133.96)">
				<stop  offset="0" style="stop-color:#8354C8"/>
				<stop  offset="1" style="stop-color:#C750BF"/>
			</linearGradient>
			<path fill="url(#SVGID_11_)" d="M4027.898,3915.109l-2.916,1.957l-1.366-2.24l-2.142-3.528l-2.145,3.528l-1.35,2.24l-1.527-0.813
				c-0.219-0.107-0.41-0.223-0.58-0.338c-0.171-0.115-0.289-0.27-0.354-0.459c-0.141-0.395-0.074-0.814,0.184-1.264l0.408-0.674
				l1.729-2.834l0.269-0.449l1.918-3.141h2.916l1.896,3.141l0.285,0.449l1.714,2.834L4027.898,3915.109z"/>
		</g>
	</g>
</g>
<g>
	<g>
		
			<linearGradient id="SVGID_12_" gradientUnits="userSpaceOnUse" x1="4063.333" y1="-4056.4683" x2="4063.333" y2="-4051.9282" gradientTransform="matrix(1 0 0 -1 -41.6602 -133.96)">
			<stop  offset="0" style="stop-color:#8354C8"/>
			<stop  offset="1" style="stop-color:#C750BF"/>
		</linearGradient>
		<path fill="url(#SVGID_12_)" d="M4026.297,3917.968c0,2.507-2.07,4.54-4.623,4.54c-2.554,0-4.625-2.033-4.625-4.54"/>
	</g>
</g>
<g>
	<g>
		<g>
			
				<linearGradient id="SVGID_13_" gradientUnits="userSpaceOnUse" x1="53.6426" y1="-151.0913" x2="53.6426" y2="-139.0156" gradientTransform="matrix(1 0 0 -1 -41.6602 -133.96)">
				<stop  offset="0" style="stop-color:#8354C8"/>
				<stop  offset="1" style="stop-color:#C750BF"/>
			</linearGradient>
			<path fill="url(#SVGID_13_)" d="M12.666,10.297H11.85c0.448,0.721,0.673,1.509,0.673,2.366c0,0.609-0.116,1.188-0.347,1.731
				c-0.231,0.545-0.551,1.021-0.958,1.429c-0.408,0.407-0.884,0.729-1.428,0.959s-1.122,0.35-1.734,0.35
				c-0.612,0-1.189-0.115-1.733-0.35c-0.544-0.229-1.02-0.552-1.428-0.959c-0.408-0.408-0.727-0.884-0.958-1.429
				c-0.231-0.543-0.347-1.122-0.347-1.731c0-0.857,0.225-1.646,0.673-2.366H3.447V7.155h3.202v-2.1H9.79v2.102h2.875L12.666,10.297
				L12.666,10.297z M8.056,13.989c0.367,0,0.68-0.13,0.938-0.389c0.258-0.259,0.387-0.57,0.387-0.938
				c0-0.369-0.129-0.682-0.387-0.938c-0.258-0.258-0.571-0.388-0.938-0.388c-0.367,0-0.68,0.129-0.938,0.387
				c-0.258,0.259-0.387,0.57-0.387,0.938c0,0.369,0.129,0.682,0.387,0.938C7.376,13.857,7.689,13.989,8.056,13.989z M20.518,7.136
				v9.973h-2.814v-3.365H16.5v3.365h-2.814V7.136H16.5v3.488h1.204V7.136H20.518z"/>
		</g>
		<g>
			
				<linearGradient id="SVGID_14_" gradientUnits="userSpaceOnUse" x1="73.7334" y1="-150.9897" x2="73.7334" y2="-141.0156" gradientTransform="matrix(1 0 0 -1 -41.6602 -133.96)">
				<stop  offset="0" style="stop-color:#8354C8"/>
				<stop  offset="1" style="stop-color:#C750BF"/>
			</linearGradient>
			<path fill="url(#SVGID_14_)" d="M36.172,17.03H22.426V13.93h2.225v-3.772h-2.225V8.606c0-0.435,0.15-0.802,0.449-1.102
				c0.299-0.299,0.667-0.449,1.102-0.449h12.196v3.1H33.95v3.773h2.223L36.172,17.03L36.172,17.03z M30.85,10.157h-3.101v3.772
				h3.101V10.157z M41.721,17.03H38.6V7.057h3.121V17.03z"/>
		</g>
		<g>
			
				<linearGradient id="SVGID_15_" gradientUnits="userSpaceOnUse" x1="92.1016" y1="-150.2456" x2="92.1016" y2="-139.3745" gradientTransform="matrix(1 0 0 -1 -41.6602 -133.96)">
				<stop  offset="0" style="stop-color:#8354C8"/>
				<stop  offset="1" style="stop-color:#C750BF"/>
			</linearGradient>
			<path fill="url(#SVGID_15_)" d="M43.475,16.265V5.415h3.18v2.264h2.021V5.415h1.581c0.438,0,0.813,0.156,1.13,0.469
				c0.313,0.313,0.473,0.688,0.473,1.122v2.671h2.43V6.313h3.117v9.974h-3.117v-3.484h-2.43v3.467L43.475,16.265L43.475,16.265z
				 M48.674,13.104V10.84h-2.02v2.264H48.674z"/>
		</g>
		<g>
			
				<linearGradient id="SVGID_16_" gradientUnits="userSpaceOnUse" x1="121.4199" y1="-159.2319" x2="121.4199" y2="-139.5703" gradientTransform="matrix(1 0 0 -1 -41.6602 -133.96)">
				<stop  offset="0" style="stop-color:#8354C8"/>
				<stop  offset="1" style="stop-color:#C750BF"/>
			</linearGradient>
			<path fill="url(#SVGID_16_)" d="M80.484,5.611v8.423c0,0.437-0.15,0.803-0.449,1.103c-0.299,0.299-0.666,0.448-1.102,0.448h-1.57
				v-2.447h-3.896v-3.12h3.896v-0.51c0-0.53-0.258-0.796-0.774-0.796h-3.12V5.613h7.016V5.611z M81.504,25.272
				c-0.611,0-1.186-0.115-1.723-0.348c-0.538-0.23-1.01-0.547-1.418-0.947c-0.408-0.402-0.729-0.874-0.959-1.418
				c-0.23-0.544-0.346-1.121-0.346-1.732c0-0.609,0.111-1.188,0.346-1.725c0.229-0.537,0.551-1.01,0.959-1.418
				c0.408-0.406,0.88-0.727,1.418-0.958c0.537-0.231,1.111-0.347,1.723-0.347c0.612,0,1.189,0.115,1.732,0.347
				c0.545,0.231,1.021,0.552,1.429,0.958c0.408,0.408,0.728,0.881,0.958,1.418c0.232,0.537,0.348,1.111,0.348,1.725
				c0,0.612-0.115,1.188-0.348,1.732c-0.23,0.544-0.55,1.016-0.958,1.418c-0.407,0.4-0.884,0.717-1.429,0.947
				C82.693,25.157,82.115,25.272,81.504,25.272z M81.504,19.521c-0.354,0-0.66,0.129-0.918,0.389
				c-0.258,0.258-0.387,0.563-0.387,0.918c0,0.365,0.129,0.683,0.387,0.938s0.564,0.387,0.918,0.387c0.367,0,0.68-0.129,0.938-0.387
				c0.262-0.259,0.392-0.572,0.392-0.938c0-0.354-0.13-0.66-0.392-0.918C82.184,19.649,81.871,19.521,81.504,19.521z M86.052,15.585
				h-3.12V5.61h3.12V15.585z"/>
		</g>
		<g>
			
				<linearGradient id="SVGID_17_" gradientUnits="userSpaceOnUse" x1="107.084" y1="-151.0425" x2="107.084" y2="-141.0713" gradientTransform="matrix(1 0 0 -1 -41.6602 -133.96)">
				<stop  offset="0" style="stop-color:#8354C8"/>
				<stop  offset="1" style="stop-color:#C750BF"/>
			</linearGradient>
			<path fill="url(#SVGID_17_)" d="M71.648,15.126l-2.916,1.957l-1.366-2.241l-2.142-3.528l-2.145,3.528l-1.35,2.241l-1.527-0.813
				c-0.219-0.106-0.41-0.223-0.58-0.338c-0.171-0.115-0.289-0.271-0.354-0.459c-0.141-0.396-0.074-0.813,0.184-1.265l0.408-0.674
				l1.729-2.834l0.269-0.449l1.918-3.14h2.916l1.896,3.14l0.285,0.449l1.714,2.834L71.648,15.126z"/>
		</g>
	</g>
	
		<linearGradient id="SVGID_18_" gradientUnits="userSpaceOnUse" x1="107.084" y1="-156.4839" x2="107.084" y2="-151.9438" gradientTransform="matrix(1 0 0 -1 -41.6602 -133.96)">
		<stop  offset="0" style="stop-color:#8354C8"/>
		<stop  offset="1" style="stop-color:#C750BF"/>
	</linearGradient>
	<path fill="url(#SVGID_18_)" d="M70.047,17.984c0,2.507-2.07,4.54-4.623,4.54c-2.554,0-4.625-2.033-4.625-4.54"/>
</g>
</svg>
