<?xml version="1.0" encoding="utf-8"?>
<!-- Generator: Adobe Illustrator 16.0.0, SVG Export Plug-In . SVG Version: 6.00 Build 0)  -->
<!DOCTYPE svg PUBLIC "-//W3C//DTD SVG 1.1//EN" "http://www.w3.org/Graphics/SVG/1.1/DTD/svg11.dtd">
<svg version="1.1" id="레이어_1" xmlns="http://www.w3.org/2000/svg" xmlns:xlink="http://www.w3.org/1999/xlink" x="0px"
	 y="0px" width="90px" height="30px" viewBox="0 0 90 30" enable-background="new 0 0 90 30" xml:space="preserve">
<g>
	<g>
		<path fill="#FFFFFF" d="M12.916,10.28H12.1c0.448,0.721,0.673,1.509,0.673,2.366c0,0.611-0.116,1.189-0.347,1.733
			c-0.231,0.545-0.551,1.02-0.958,1.428c-0.408,0.408-0.884,0.729-1.428,0.959c-0.544,0.231-1.122,0.348-1.734,0.348
			c-0.612,0-1.189-0.115-1.733-0.348c-0.544-0.229-1.02-0.551-1.428-0.959c-0.408-0.408-0.727-0.883-0.958-1.428
			c-0.231-0.543-0.347-1.122-0.347-1.733c0-0.857,0.225-1.646,0.673-2.366H3.697V7.139h3.202v-2.1h3.141V7.14h2.875L12.916,10.28
			L12.916,10.28z M8.306,13.972c0.367,0,0.68-0.129,0.938-0.388c0.258-0.259,0.387-0.571,0.387-0.938s-0.129-0.68-0.387-0.938
			C8.986,11.45,8.673,11.32,8.306,11.32c-0.367,0-0.68,0.129-0.938,0.387c-0.258,0.259-0.387,0.571-0.387,0.938
			s0.129,0.68,0.387,0.938C7.626,13.841,7.939,13.972,8.306,13.972z M20.768,7.119v9.973h-2.814v-3.365H16.75v3.365h-2.814V7.119
			h2.814v3.488h1.204V7.119H20.768z"/>
	</g>
	<g>
		<path fill="#FFFFFF" d="M36.422,17.014H22.676v-3.101H24.9V10.14h-2.224V8.59c0-0.435,0.15-0.802,0.449-1.102
			c0.299-0.299,0.667-0.449,1.102-0.449h12.196v3.1H34.2v3.773h2.223L36.422,17.014L36.422,17.014z M31.099,10.14h-3.1v3.773h3.1
			V10.14z M41.97,17.014h-3.121V7.04h3.121V17.014z"/>
	</g>
	<g>
		<path fill="#FFFFFF" d="M43.724,16.248V5.398h3.18v2.264h2.021V5.398h1.581c0.438,0,0.813,0.156,1.129,0.469
			c0.314,0.313,0.473,0.687,0.473,1.122V9.66h2.428V6.296h3.119v9.974h-3.119v-3.487h-2.428v3.467L43.724,16.248L43.724,16.248z
			 M48.924,13.087v-2.264h-2.02v2.264H48.924z"/>
	</g>
	<g>
		<path fill="#FFFFFF" d="M80.734,5.595v8.422c0,0.436-0.15,0.803-0.449,1.102c-0.299,0.299-0.666,0.449-1.102,0.449h-1.57V13.12
			h-3.896V10h3.896V9.49c0-0.53-0.258-0.795-0.774-0.795h-3.12v-3.1H80.734z M81.754,25.256c-0.611,0-1.186-0.115-1.723-0.348
			c-0.538-0.23-1.01-0.547-1.418-0.947c-0.408-0.402-0.729-0.874-0.959-1.418s-0.346-1.121-0.346-1.732
			c0-0.612,0.114-1.188,0.346-1.725c0.23-0.537,0.551-1.01,0.959-1.418c0.408-0.406,0.88-0.727,1.418-0.958
			c0.537-0.231,1.111-0.347,1.723-0.347c0.612,0,1.189,0.115,1.732,0.347c0.545,0.231,1.021,0.552,1.429,0.958
			c0.408,0.408,0.728,0.881,0.958,1.418c0.232,0.537,0.348,1.111,0.348,1.725c0,0.612-0.115,1.188-0.348,1.732
			c-0.23,0.544-0.55,1.016-0.958,1.418c-0.407,0.4-0.884,0.717-1.429,0.947C82.943,25.141,82.365,25.256,81.754,25.256z
			 M81.754,19.504c-0.354,0-0.66,0.129-0.918,0.389c-0.258,0.258-0.387,0.563-0.387,0.918c0,0.365,0.129,0.68,0.387,0.938
			s0.564,0.387,0.918,0.387c0.367,0,0.68-0.129,0.938-0.387c0.259-0.259,0.389-0.572,0.389-0.938c0-0.354-0.13-0.66-0.389-0.918
			C82.434,19.633,82.121,19.504,81.754,19.504z M86.302,15.568h-3.12V5.595h3.12V15.568z"/>
	</g>
	<g>
		<path fill="#FFFFFF" d="M71.898,15.109l-2.916,1.958l-1.366-2.243l-2.142-3.528l-2.142,3.528l-1.347,2.243l-1.53-0.814
			c-0.217-0.109-0.41-0.223-0.58-0.338c-0.171-0.115-0.289-0.268-0.356-0.459c-0.138-0.394-0.074-0.814,0.184-1.264l0.408-0.673
			l1.732-2.835l0.266-0.448l1.918-3.141h2.916l1.896,3.141l0.285,0.448l1.714,2.835L71.898,15.109z"/>
	</g>
</g>
<path fill="none" stroke="#FFFFFF" stroke-width="3" stroke-linejoin="round" stroke-miterlimit="10" d="M69.777,18.117
	c0,2.09-1.838,3.783-4.104,3.783c-2.266,0-4.104-1.693-4.104-3.783"/>
<g>
	<g>
		
			<linearGradient id="SVGID_1_" gradientUnits="userSpaceOnUse" x1="382.5684" y1="-232.0229" x2="382.5684" y2="-219.9482" gradientTransform="matrix(1 0 0 -1 -375.96 -251.6602)">
			<stop  offset="0" style="stop-color:#8354C8"/>
			<stop  offset="1" style="stop-color:#C750BF"/>
		</linearGradient>
		<path fill="url(#SVGID_1_)" d="M7.291-26.47H6.475c0.448,0.721,0.673,1.509,0.673,2.366c0,0.611-0.116,1.189-0.347,1.733
			c-0.231,0.545-0.551,1.02-0.958,1.428c-0.408,0.408-0.884,0.729-1.428,0.959c-0.544,0.231-1.122,0.347-1.734,0.347
			c-0.612,0-1.189-0.115-1.733-0.347c-0.544-0.23-1.02-0.551-1.428-0.959c-0.408-0.408-0.727-0.883-0.958-1.428
			c-0.231-0.543-0.347-1.122-0.347-1.733c0-0.857,0.225-1.646,0.673-2.366h-0.815v-3.141h3.202v-2.101h3.141v2.101h2.875V-26.47z
			 M2.681-22.778c0.367,0,0.68-0.129,0.938-0.388c0.258-0.259,0.387-0.571,0.387-0.938s-0.129-0.68-0.387-0.938
			C3.361-25.3,3.048-25.43,2.681-25.43c-0.367,0-0.68,0.129-0.938,0.387c-0.258,0.259-0.387,0.571-0.387,0.938
			s0.129,0.68,0.387,0.938C2.001-22.909,2.314-22.778,2.681-22.778z M15.143-29.631v9.973h-2.814v-3.365h-1.204v3.365H8.31v-9.973
			h2.814v3.488h1.204v-3.488H15.143z"/>
	</g>
	<g>
		
			<linearGradient id="SVGID_2_" gradientUnits="userSpaceOnUse" x1="402.6582" y1="-231.9233" x2="402.6582" y2="-221.9492" gradientTransform="matrix(1 0 0 -1 -375.96 -251.6602)">
			<stop  offset="0" style="stop-color:#8354C8"/>
			<stop  offset="1" style="stop-color:#C750BF"/>
		</linearGradient>
		<path fill="url(#SVGID_2_)" d="M30.797-19.737H17.051v-3.1h2.224v-3.773h-2.224v-1.55c0-0.435,0.15-0.802,0.449-1.102
			c0.299-0.299,0.667-0.449,1.102-0.449h12.196v3.1h-2.223v3.773h2.223L30.797-19.737L30.797-19.737z M25.474-26.61h-3.1v3.773h3.1
			V-26.61z M36.345-19.737h-3.121v-9.973h3.121V-19.737z"/>
	</g>
	<g>
		
			<linearGradient id="SVGID_3_" gradientUnits="userSpaceOnUse" x1="421.0254" y1="-231.1782" x2="421.0254" y2="-220.3081" gradientTransform="matrix(1 0 0 -1 -375.96 -251.6602)">
			<stop  offset="0" style="stop-color:#8354C8"/>
			<stop  offset="1" style="stop-color:#C750BF"/>
		</linearGradient>
		<path fill="url(#SVGID_3_)" d="M38.099-20.502v-10.85h3.181v2.264h2.02v-2.264h1.581c0.438,0,0.813,0.156,1.129,0.469
			c0.314,0.313,0.473,0.687,0.473,1.122v2.671h2.428v-3.365h3.119v9.973H48.91v-3.487h-2.43v3.467H38.099z M43.299-23.663v-2.264
			h-2.02v2.264H43.299z"/>
	</g>
	<g>
		
			<linearGradient id="SVGID_4_" gradientUnits="userSpaceOnUse" x1="450.3457" y1="-240.166" x2="450.3457" y2="-220.5039" gradientTransform="matrix(1 0 0 -1 -375.96 -251.6602)">
			<stop  offset="0" style="stop-color:#8354C8"/>
			<stop  offset="1" style="stop-color:#C750BF"/>
		</linearGradient>
		<path fill="url(#SVGID_4_)" d="M75.109-31.155v8.422c0,0.436-0.15,0.803-0.449,1.102c-0.299,0.299-0.666,0.449-1.102,0.449h-1.57
			v-2.448h-3.896v-3.121h3.896v-0.51c0-0.53-0.258-0.795-0.774-0.795h-3.12v-3.1h7.016V-31.155z M76.129-11.494
			c-0.611,0-1.186-0.116-1.723-0.348c-0.538-0.23-1.01-0.547-1.418-0.947c-0.408-0.402-0.729-0.874-0.959-1.418
			s-0.346-1.121-0.346-1.733s0.114-1.187,0.346-1.724c0.23-0.537,0.551-1.01,0.959-1.418c0.408-0.407,0.88-0.727,1.418-0.958
			c0.537-0.231,1.111-0.347,1.723-0.347c0.612,0,1.189,0.115,1.732,0.347c0.545,0.232,1.021,0.551,1.429,0.958
			c0.408,0.408,0.728,0.881,0.958,1.418c0.232,0.537,0.348,1.111,0.348,1.724c0,0.613-0.115,1.189-0.348,1.733
			c-0.23,0.544-0.55,1.016-0.958,1.418c-0.407,0.4-0.884,0.717-1.429,0.947C77.318-11.61,76.74-11.494,76.129-11.494z
			 M76.129-17.246c-0.354,0-0.66,0.129-0.918,0.388c-0.258,0.259-0.387,0.563-0.387,0.918c0,0.366,0.129,0.68,0.387,0.938
			s0.564,0.387,0.918,0.387c0.367,0,0.68-0.129,0.938-0.387c0.259-0.259,0.389-0.572,0.389-0.938c0-0.354-0.13-0.659-0.389-0.918
			C76.809-17.117,76.496-17.246,76.129-17.246z M80.677-21.182h-3.12v-9.973h3.12V-21.182z"/>
	</g>
	<g>
		
			<linearGradient id="SVGID_5_" gradientUnits="userSpaceOnUse" x1="436.0098" y1="-231.9761" x2="436.0098" y2="-222.0039" gradientTransform="matrix(1 0 0 -1 -375.96 -251.6602)">
			<stop  offset="0" style="stop-color:#8354C8"/>
			<stop  offset="1" style="stop-color:#C750BF"/>
		</linearGradient>
		<path fill="url(#SVGID_5_)" d="M66.273-21.641l-2.916,1.957l-1.366-2.243l-2.142-3.528l-2.142,3.528l-1.347,2.243l-1.53-0.814
			c-0.217-0.109-0.41-0.222-0.58-0.338c-0.171-0.115-0.289-0.268-0.356-0.459c-0.138-0.394-0.074-0.814,0.184-1.264l0.408-0.673
			l1.732-2.835l0.266-0.448l1.918-3.141h2.916l1.896,3.141l0.285,0.448l1.714,2.835L66.273-21.641z"/>
	</g>
</g>
<linearGradient id="SVGID_6_" gradientUnits="userSpaceOnUse" x1="436.0088" y1="-239.3101" x2="436.0088" y2="-234.0273" gradientTransform="matrix(1 0 0 -1 -375.96 -251.6602)">
	<stop  offset="0" style="stop-color:#8354C8"/>
	<stop  offset="1" style="stop-color:#C750BF"/>
</linearGradient>
<path fill="none" stroke="url(#SVGID_6_)" stroke-width="3" stroke-linejoin="round" stroke-miterlimit="10" d="M64.152-17.633
	c0,2.09-1.838,3.783-4.104,3.783c-2.266,0-4.104-1.693-4.104-3.783"/>
</svg>
