<?xml version="1.0" encoding="utf-8"?>
<!-- Generator: Adobe Illustrator 16.0.0, SVG Export Plug-In . SVG Version: 6.00 Build 0)  -->
<!DOCTYPE svg PUBLIC "-//W3C//DTD SVG 1.1//EN" "http://www.w3.org/Graphics/SVG/1.1/DTD/svg11.dtd">
<svg version="1.1" id="레이어_1" xmlns="http://www.w3.org/2000/svg" xmlns:xlink="http://www.w3.org/1999/xlink" x="0px"
	 y="0px" width="145px" height="30px" viewBox="0 0 145 30" enable-background="new 0 0 145 30" xml:space="preserve">
<g>
	<g>
		<g>
			
				<linearGradient id="SVGID_1_" gradientUnits="userSpaceOnUse" x1="4341.9355" y1="7439.498" x2="4341.9355" y2="7427.4189" gradientTransform="matrix(1 0 0 1 -373.6963 -3522.3848)">
				<stop  offset="0" style="stop-color:#8354C8"/>
				<stop  offset="1" style="stop-color:#C750BF"/>
			</linearGradient>
			<path fill="url(#SVGID_1_)" d="M3968.916,3910.28h-0.814c0.447,0.721,0.682,1.509,0.682,2.363c0,0.604-0.113,1.188-0.354,1.729
				c-0.23,0.545-0.551,1.021-0.957,1.428c-0.406,0.408-0.885,0.729-1.43,0.959c-0.543,0.231-1.121,0.354-1.73,0.354
				c-0.604,0-1.188-0.115-1.729-0.354c-0.543-0.229-1.021-0.551-1.43-0.959c-0.406-0.4-0.729-0.883-0.957-1.428
				c-0.23-0.543-0.354-1.122-0.354-1.729c0-0.854,0.229-1.646,0.678-2.363h-0.813v-3.146h3.197v-2.1h3.146v2.102h2.875
				L3968.916,3910.28L3968.916,3910.28z M3964.307,3913.973c0.367,0,0.682-0.13,0.938-0.389c0.26-0.259,0.391-0.57,0.391-0.938
				c0-0.359-0.129-0.683-0.391-0.938c-0.26-0.257-0.568-0.388-0.938-0.388c-0.365,0-0.68,0.129-0.938,0.387
				c-0.262,0.259-0.391,0.57-0.391,0.938c0,0.359,0.129,0.683,0.391,0.938C3963.627,3913.841,3963.938,3913.973,3964.307,3913.973z
				 M3976.77,3907.119v9.973h-2.813v-3.365h-1.205v3.365h-2.813v-9.973h2.813v3.485h1.205v-3.485H3976.77z"/>
		</g>
		<g>
			
				<linearGradient id="SVGID_2_" gradientUnits="userSpaceOnUse" x1="4362.0195" y1="7439.3984" x2="4362.0195" y2="7429.4248" gradientTransform="matrix(1 0 0 1 -373.6963 -3522.3848)">
				<stop  offset="0" style="stop-color:#8354C8"/>
				<stop  offset="1" style="stop-color:#C750BF"/>
			</linearGradient>
			<path fill="url(#SVGID_2_)" d="M3992.422,3917.014h-13.746v-3.101h2.229v-3.772h-2.229v-1.551c0-0.437,0.15-0.802,0.449-1.104
				c0.299-0.306,0.668-0.445,1.104-0.445h12.195v3.1h-2.223v3.773h2.223L3992.422,3917.014L3992.422,3917.014z M3987.102,3910.144
				H3984v3.771h3.102V3910.144z M3997.971,3917.014h-3.121v-9.974h3.121V3917.014z"/>
		</g>
		<g>
			
				<linearGradient id="SVGID_3_" gradientUnits="userSpaceOnUse" x1="4380.3955" y1="7438.6572" x2="4380.3955" y2="7427.7803" gradientTransform="matrix(1 0 0 1 -373.6963 -3522.3848)">
				<stop  offset="0" style="stop-color:#8354C8"/>
				<stop  offset="1" style="stop-color:#C750BF"/>
			</linearGradient>
			<path fill="url(#SVGID_3_)" d="M3999.727,3916.248v-10.853h3.189v2.267h2.02v-2.267h1.58c0.439,0,0.814,0.148,1.129,0.472
				c0.314,0.313,0.48,0.688,0.48,1.122v2.671h2.432v-3.364h3.115v9.977h-3.115v-3.479h-2.432v3.467L3999.727,3916.248
				L3999.727,3916.248z M4004.924,3913.087v-2.264h-2.02v2.264H4004.924z"/>
		</g>
		<g>
			
				<linearGradient id="SVGID_4_" gradientUnits="userSpaceOnUse" x1="4409.709" y1="7447.6406" x2="4409.709" y2="7427.9736" gradientTransform="matrix(1 0 0 1 -373.6963 -3522.3848)">
				<stop  offset="0" style="stop-color:#8354C8"/>
				<stop  offset="1" style="stop-color:#C750BF"/>
			</linearGradient>
			<path fill="url(#SVGID_4_)" d="M4036.732,3905.595v8.426c0,0.438-0.148,0.811-0.447,1.104c-0.301,0.295-0.666,0.449-1.104,0.449
				h-1.564v-2.448h-3.895V3910h3.895v-0.51c0-0.53-0.264-0.795-0.773-0.795h-3.119v-3.104L4036.732,3905.595L4036.732,3905.595z
				 M4037.754,3925.256c-0.611,0-1.188-0.112-1.723-0.348c-0.539-0.229-1.012-0.547-1.418-0.947
				c-0.408-0.396-0.729-0.874-0.959-1.418s-0.348-1.121-0.348-1.729c0-0.609,0.105-1.188,0.348-1.729
				c0.229-0.537,0.551-1.01,0.959-1.418c0.406-0.402,0.879-0.727,1.418-0.958c0.537-0.229,1.109-0.347,1.723-0.347
				s1.188,0.115,1.73,0.347c0.545,0.231,1.021,0.556,1.43,0.958c0.406,0.408,0.729,0.885,0.959,1.418
				c0.229,0.537,0.348,1.111,0.348,1.729c0,0.604-0.115,1.188-0.348,1.729c-0.23,0.544-0.553,1.021-0.959,1.418
				c-0.406,0.4-0.885,0.72-1.43,0.947C4038.943,3925.144,4038.365,3925.256,4037.754,3925.256z M4037.754,3919.504
				c-0.354,0-0.66,0.129-0.918,0.389c-0.258,0.261-0.387,0.563-0.387,0.918c0,0.365,0.129,0.688,0.387,0.938
				s0.563,0.387,0.918,0.387c0.367,0,0.68-0.129,0.938-0.387c0.271-0.262,0.396-0.572,0.396-0.938c0-0.354-0.129-0.657-0.396-0.918
				C4038.436,3919.633,4038.121,3919.504,4037.754,3919.504z M4042.303,3915.568h-3.121v-9.979h3.121V3915.568z"/>
		</g>
		<g>
			
				<linearGradient id="SVGID_5_" gradientUnits="userSpaceOnUse" x1="4395.3633" y1="7439.4482" x2="4395.3633" y2="7429.4707" gradientTransform="matrix(1 0 0 1 -373.6963 -3522.3848)">
				<stop  offset="0" style="stop-color:#8354C8"/>
				<stop  offset="1" style="stop-color:#C750BF"/>
			</linearGradient>
			<path fill="url(#SVGID_5_)" d="M4027.896,3915.106l-2.916,1.957l-1.365-2.237l-2.145-3.528l-2.146,3.528l-1.354,2.237
				l-1.525-0.813c-0.219-0.104-0.402-0.223-0.58-0.338c-0.17-0.115-0.289-0.271-0.354-0.459c-0.145-0.396-0.074-0.813,0.186-1.264
				l0.406-0.679l1.73-2.834l0.268-0.444l1.918-3.146h2.916l1.896,3.146l0.281,0.444l1.719,2.834L4027.896,3915.106z"/>
		</g>
	</g>
</g>
<g>
	<g>
		
			<linearGradient id="SVGID_6_" gradientUnits="userSpaceOnUse" x1="4395.3691" y1="7444.8926" x2="4395.3691" y2="7440.3525" gradientTransform="matrix(1 0 0 1 -373.6963 -3522.3848)">
			<stop  offset="0" style="stop-color:#8354C8"/>
			<stop  offset="1" style="stop-color:#C750BF"/>
		</linearGradient>
		<path fill="url(#SVGID_6_)" d="M4026.297,3917.968c0,2.51-2.068,4.54-4.623,4.54c-2.553,0-4.625-2.03-4.625-4.54"/>
	</g>
</g>
<g>
	<g>
		<path fill="#A0A2A8" d="M47.024-32.769c-3.209,0-5.723-3.271-5.723-7.442s2.514-7.44,5.723-7.44s5.723,3.269,5.723,7.44
			S50.233-32.769,47.024-32.769z M47.024-44.153c-1.049,0-2.223,1.686-2.223,3.941s1.174,3.941,2.223,3.941
			c1.049,0,2.223-1.686,2.223-3.941S48.074-44.153,47.024-44.153z"/>
	</g>
	<g>
		<path fill="#A2A2A2" d="M52.968-49.426c0,0.88-0.713,1.594-1.594,1.594h-8.557c-0.88,0-1.594-0.714-1.594-1.594l0,0
			c0-0.88,0.714-1.594,1.594-1.594h8.557C52.253-51.02,52.968-50.306,52.968-49.426L52.968-49.426z"/>
	</g>
	<g>
		<path fill="#A2A2A2" d="M61.021-42.659c0,0.881-0.435,1.594-0.971,1.594h-5.215c-0.537,0-0.972-0.713-0.972-1.594l0,0
			c0-0.88,0.435-1.594,0.972-1.594h5.215C60.585-44.252,61.021-43.539,61.021-42.659L61.021-42.659z"/>
	</g>
	<g>
		<path fill="#A0A2A8" d="M118.891-49.849c0,0.849-0.826,1.536-1.848,1.536l0,0c-1.021,0-1.848-0.688-1.848-1.536l-0.031-0.673
			c0.455-0.667,0.959-1.875,1.879-1.91l0,0c1.076,0,2.082,0.8,1.979,1.899C118.959-49.875,118.891-49.849,118.891-49.849z"/>
		<path fill="#A0A2A8" d="M117.043-48.073c-1.15,0-2.088-0.797-2.088-1.776l-0.031-0.661c-0.002-0.052,0.013-0.104,0.041-0.146
			c0.089-0.128,0.178-0.277,0.271-0.435c0.414-0.688,0.93-1.547,1.799-1.581l0,0c0.672,0,1.321,0.277,1.743,0.742
			c0.36,0.396,0.531,0.899,0.481,1.42c-0.037,0.4-0.08,0.612-0.131,0.729C119.086-48.833,118.168-48.073,117.043-48.073z
			 M115.408-50.455l0.027,0.594c0.001,0.727,0.723,1.308,1.607,1.308c0.887,0,1.606-0.581,1.606-1.296c0-0.051,0.017-0.1,0.045-0.14
			c0.013-0.037,0.05-0.175,0.087-0.566c0.047-0.493-0.169-0.844-0.357-1.052c-0.334-0.367-0.85-0.585-1.381-0.585
			c-0.601,0.023-1.021,0.727-1.396,1.348C115.565-50.706,115.485-50.573,115.408-50.455z"/>
	</g>
	<g>
		<path fill="#A2A2A2" d="M57.105-32.282c0,0.927-0.751,1.677-1.678,1.677l0,0c-0.927,0-1.678-0.75-1.678-1.677v-19.297
			c0-0.927,0.751-1.678,1.678-1.678l0,0c0.927,0,1.678,0.751,1.678,1.678V-32.282z"/>
	</g>
	<g>
		<path fill="#A2A2A2" d="M47.151-53.243c-0.927,0-1.678,0.752-1.678,1.678v2.009h3.355v-2.009
			C48.83-52.491,48.079-53.243,47.151-53.243z"/>
	</g>
	<g>
		<path fill="#A2A2A2" d="M83.506-32.268c0,0.928-0.75,1.678-1.678,1.678l0,0c-0.928,0-1.679-0.75-1.679-1.678v-19.297
			c0-0.926,0.751-1.678,1.679-1.678l0,0c0.928,0,1.678,0.752,1.678,1.678V-32.268z"/>
	</g>
	<g>
		<path fill="#A2A2A2" d="M108.523-32.823c-0.828,0-1.501-0.75-1.501-1.678l0,0c0-0.931,0.673-1.682,1.501-1.682h17.262
			c0.828,0,1.502,0.751,1.502,1.682l0,0c0,0.928-0.674,1.678-1.502,1.678H108.523z"/>
	</g>
	<g>
		<path fill="#A2A2A2" d="M65.192-33.178c-0.609,0-1.102-0.751-1.102-1.678l0,0c0-0.928,0.493-1.678,1.102-1.678
			c0,0,4.748,0.447,6.329,0.447c3.986,0,8.479-1.011,8.479-1.011c0.607,0,1.104,0.753,1.104,1.683l0,0
			c0,0.926-0.494,1.678-1.104,1.678c0,0-4.492,0.895-8.479,0.895C67.876-32.842,65.192-33.178,65.192-33.178z"/>
	</g>
	<g>
		<path fill="#A2A2A2" d="M65.255-51.579c-0.609,0-1.103,0.751-1.103,1.678l0,0c0,0.927,0.494,1.678,1.103,1.678
			c0,0,4.746-0.448,6.329-0.448c1.587,0,6.354,0.448,6.354,0.448c0.608,0,1.103-0.751,1.103-1.678l0,0
			c0-0.927-0.494-1.678-1.103-1.678c0,0-3.124-0.335-6.354-0.335C67.938-51.915,65.255-51.579,65.255-51.579z"/>
	</g>
	<g>
		<path fill="#A2A2A2" d="M61.693-32.282c0,0.927-0.751,1.677-1.678,1.677l0,0c-0.926,0-1.678-0.75-1.678-1.677v-19.297
			c0-0.927,0.752-1.678,1.678-1.678l0,0c0.927,0,1.678,0.751,1.678,1.678V-32.282z"/>
	</g>
	<g>
		<path fill="#A2A2A2" d="M70.923-35.616c0,0.615-0.752,1.115-1.679,1.115l0,0c-0.926,0-1.678-0.5-1.678-1.115v-12.825
			c0-0.617,0.752-1.116,1.678-1.116l0,0c0.927,0,1.679,0.499,1.679,1.116V-35.616z"/>
	</g>
	<g>
		<path fill="#A2A2A2" d="M75.508-35.502c0,0.614-0.75,1.114-1.678,1.114l0,0c-0.927,0-1.678-0.5-1.678-1.114V-48.33
			c0-0.616,0.751-1.115,1.678-1.115l0,0c0.928,0,1.678,0.5,1.678,1.115V-35.502z"/>
	</g>
	<g>
		<path fill="#A2A2A2" d="M105.094-32.261c0,0.927-0.748,1.679-1.678,1.679l0,0c-0.929,0-1.677-0.752-1.677-1.679v-19.297
			c0-0.927,0.748-1.678,1.677-1.678l0,0c0.93,0,1.678,0.751,1.678,1.678V-32.261z"/>
	</g>
	<g>
		<rect x="97.098" y="-44.041" fill="#A2A2A2" width="6.318" height="3.357"/>
	</g>
	<g>
		<path fill="#A2A2A2" d="M97.098-51.821c-0.928,0-1.68,0.627-1.68,1.4v5.491h-5.703v-5.491c0-0.773-0.752-1.4-1.68-1.4
			s-1.68,0.627-1.68,1.4v14.163v1.954c0,0.773,0.752,1.401,1.68,1.401h9.063c0.926,0,1.679-0.628,1.679-1.401v-1.954v-14.163
			C98.773-51.194,98.021-51.821,97.098-51.821z M89.715-36.258v-5.313h5.703v5.313H89.715z"/>
	</g>
	<g>
		<g>
			<path fill="#A2A2A2" d="M148.946-51.452c0-0.927-0.752-1.677-1.679-1.677c-0.926,0-1.676,0.749-1.678,1.675v9.653
				c0,0.93,0.752,1.68,1.678,1.68c0.927,0,1.679-0.75,1.679-1.68v-9.408v-0.001V-51.452z"/>
		</g>
	</g>
	<g>
		<path fill="#A2A2A2" d="M140.551-52.785h-1.953h-7.227c-0.115,0-0.229,0.02-0.336,0.051c-0.611,0.182-1.063,0.84-1.063,1.626
			c0,0.821,0.49,1.503,1.146,1.648l0.02,0.03h0.236h2.188h3.906c0.33,0,0.484,0.468,0.484,1.045v0.149
			c-0.002-0.252,0.004-0.03,0.004,0.224h-6.309c-0.928,0-1.68,0.751-1.68,1.678s0.752,1.678,1.68,1.678h5.82
			c-0.48,0.793-1.102,1.104-2.021,1.271c-0.279,0.021-0.563,0.039-0.851,0.06c-1.173,0.076-2.315,0.024-2.968,0.024
			c-0.403,0-0.771,0.083-1.061,0.254c-0.347,0.207-0.57,0.542-0.602,1.013c-0.002-0.043-0.006-0.085-0.006-0.125v0.224l0.013,0.004
			c0.043,1.118,0.812,1.786,1.668,1.786h2.582l0.022,0.011c0.277,0,0.547-0.005,0.808-0.011h0.276l0.021-0.008
			c0.313-0.014,0.609-0.029,0.896-0.061c1.487-0.15,2.691-0.584,3.856-1.768c1.146-1.16,1.541-2.089,1.726-3.955
			c0.035-0.384,0.109-1.541,0.109-1.541v-3.63C141.953-52.034,141.326-52.785,140.551-52.785z"/>
	</g>
	<g>
		<path fill="#A0A2A8" d="M109.963-41.534c-0.353,0.307-1.07,0.057-1.609-0.56l0,0c-0.536-0.614-0.689-1.358-0.342-1.667
			c0,0,2.984-2.093,3.894-2.89c2.289-2.008,4.28-4.937,4.28-4.937c0.352-0.307,1.068-0.057,1.607,0.557l0,0
			c0.539,0.614,0.69,1.361,0.344,1.668c0,0-2.061,2.854-4.348,4.862C111.699-42.663,109.963-41.534,109.963-41.534z"/>
		<path fill="#A0A2A8" d="M109.578-40.953c-0.517,0-1.101-0.315-1.563-0.843c-0.721-0.827-0.852-1.815-0.301-2.302
			c0.068-0.052,3.015-2.12,3.895-2.891c2.221-1.947,4.186-4.823,4.205-4.853c0.021-0.032,0.047-0.061,0.076-0.086
			c0.535-0.469,1.543-0.198,2.24,0.6c0.726,0.825,0.855,1.814,0.305,2.302c-0.02,0.044-2.051,2.845-4.35,4.863
			c-2.09,1.836-3.806,2.957-3.877,3.004C110.078-41.038,109.842-40.953,109.578-40.953z M116.57-51.267
			c-0.096,0.056-2.063,2.934-4.367,4.957c-0.918,0.804-3.811,2.833-3.933,2.92c-0.036,0.035-0.021,0.494,0.422,1.002
			c0.39,0.443,0.89,0.593,0.976,0.517c0.066-0.051,1.787-1.174,3.824-2.964c2.225-1.952,4.26-4.759,4.279-4.787
			c0.145-0.141,0.129-0.601-0.316-1.108C117.131-51.1,116.771-51.267,116.57-51.267z"/>
	</g>
	<g>
		<path fill="#A0A2A8" d="M124.115-41.534c0.35,0.307,1.07,0.057,1.607-0.56l0,0c0.539-0.614,0.689-1.358,0.342-1.667
			c0,0-2.982-2.093-3.893-2.89c-2.287-2.008-4.281-4.937-4.281-4.937c-0.35-0.307-1.068-0.057-1.605,0.557l0,0
			c-0.539,0.614-0.693,1.361-0.344,1.668c0,0,2.059,2.854,4.346,4.862C122.381-42.663,124.115-41.534,124.115-41.534z"/>
		<path fill="#A0A2A8" d="M124.5-40.953L124.5-40.953c-0.265,0-0.5-0.085-0.682-0.243c-0.021-0.008-1.734-1.129-3.828-2.965
			c-2.188-1.92-4.132-4.55-4.388-4.901c-0.505-0.499-0.362-1.459,0.345-2.264c0.696-0.796,1.707-1.068,2.24-0.599
			c0.027,0.025,0.055,0.053,0.075,0.084c0.021,0.029,1.989,2.907,4.206,4.853c0.881,0.771,3.824,2.839,3.854,2.86
			c0.592,0.519,0.461,1.508-0.263,2.333C125.601-41.268,125.017-40.953,124.5-40.953z M117.549-51.25
			c-0.279,0-0.621,0.168-0.926,0.517c-0.445,0.508-0.461,0.967-0.386,1.034c0.025,0.021,0.048,0.047,0.068,0.075
			s2.057,2.838,4.276,4.787c2.043,1.791,3.76,2.915,3.777,2.927l0.139,0.058c0.201,0,0.563-0.167,0.885-0.535
			c0.445-0.507,0.457-0.967,0.383-1.034c-0.083-0.055-2.975-2.084-3.893-2.888c-2.113-1.856-3.947-4.433-4.299-4.938
			C117.567-51.249,117.558-51.25,117.549-51.25z"/>
	</g>
	<g>
		<g>
			<path fill="#A2A2A2" d="M145.043-39.168h-10.674c-2.336,0-4.229,1.871-4.229,4.182c0,2.308,1.893,4.179,4.229,4.179h10.674
				c2.334,0,4.229-1.871,4.229-4.179C149.271-37.297,147.377-39.168,145.043-39.168z M139.76-34.079c-3.223,0-5.848,0.14-5.83-0.967
				c0.013-0.968,2.607-0.968,5.83-0.968c3.221,0,5.842,0,5.83,0.968C145.576-33.939,142.979-34.079,139.76-34.079z"/>
		</g>
	</g>
</g>
<g>
	
		<linearGradient id="SVGID_7_" gradientUnits="userSpaceOnUse" x1="-669.4019" y1="-1903.4189" x2="-641.3091" y2="-1903.4189" gradientTransform="matrix(1 0 0 -1 670.5449 -1888.0449)">
		<stop  offset="0" style="stop-color:#8354C8"/>
		<stop  offset="1" style="stop-color:#C750BF"/>
	</linearGradient>
	<path fill="url(#SVGID_7_)" d="M24.74,2.357c-1.213-0.657-2.602-1.029-4.078-1.029H9.717c-4.735,0-8.574,3.839-8.574,8.574v2.708
		v8.239c0,1.788,0.549,3.448,1.488,4.823c1.543,2.265,4.142,3.747,7.086,3.747h10.945c2.023,0,3.881-0.702,5.347-1.873
		c1.966-1.57,3.227-3.984,3.227-6.697V9.901C29.237,6.642,27.418,3.808,24.74,2.357z"/>
	<g>
		<path opacity="0.02" fill="#FFFFFF" enable-background="new    " d="M4.76,15.312c0,0,0.568-0.6,1.236-1
			c1.181-0.71,1.908-0.75,1.908-0.75l1.364,7.28c0.002,0.014,0.005,0.025,0.008,0.037c0.004,0.023,0.008,0.047,0.012,0.07
			c0.564,3.013,3.464,4.996,6.477,4.432c3.012-0.564,4.997-3.464,4.432-6.477c-0.565-3.012-3.465-4.996-6.477-4.434
			c-0.554,0.104-1.072,0.287-1.546,0.536L11.222,9.93c-0.211-1.128-1.197-1.608-2.263-1.41C8.712,8.567,8.461,8.61,8.043,8.753
			c-0.97,0.331-2.385,1.287-3.112,2.857C4.238,13.106,4.76,15.312,4.76,15.312z M15.124,21.963
			c-0.808,0.148-1.593-0.189-2.049-0.809c-0.179-0.243-0.308-0.529-0.367-0.846c-0.089-0.479-0.006-0.953,0.206-1.354
			c0.286-0.539,0.804-0.946,1.448-1.066c1.124-0.211,2.206,0.529,2.417,1.654C16.988,20.67,16.248,21.752,15.124,21.963z"/>
		<path opacity="0.1" fill="#FFFFFF" enable-background="new    " d="M5.937,14.704c0,0,0.568-0.598,1.236-1
			c1.182-0.708,1.908-0.75,1.908-0.75l1.365,7.28c0.003,0.014,0.006,0.022,0.009,0.037c0.003,0.021,0.007,0.047,0.012,0.067
			c0.564,3.015,3.464,4.996,6.476,4.435c3.012-0.564,4.996-3.465,4.432-6.479c-0.564-3.013-3.464-4.997-6.477-4.433
			c-0.553,0.104-1.072,0.287-1.546,0.534L12.4,9.321c-0.211-1.128-1.197-1.61-2.264-1.41c-0.247,0.047-0.498,0.09-0.915,0.234
			C8.25,8.477,6.835,9.433,6.108,11.002C5.415,12.5,5.937,14.704,5.937,14.704z M16.302,21.354c-0.808,0.152-1.593-0.188-2.05-0.808
			c-0.178-0.241-0.307-0.528-0.366-0.846c-0.09-0.479-0.006-0.951,0.206-1.354c0.285-0.535,0.803-0.941,1.447-1.063
			c1.124-0.209,2.206,0.531,2.417,1.656C18.166,20.061,17.425,21.143,16.302,21.354z"/>
		<path opacity="0.15" fill="#FFFFFF" enable-background="new    " d="M7.12,13.931c0,0,0.568-0.6,1.236-1.001
			c1.182-0.708,1.908-0.75,1.908-0.75l1.364,7.281c0.002,0.012,0.005,0.023,0.008,0.035c0.004,0.023,0.007,0.047,0.012,0.07
			c0.565,3.013,3.464,4.998,6.477,4.434c3.012-0.564,4.997-3.464,4.432-6.477c-0.565-3.016-3.464-5-6.477-4.435
			c-0.553,0.104-1.071,0.287-1.546,0.534l-0.951-5.077c-0.212-1.127-1.198-1.61-2.264-1.41c-0.248,0.045-0.498,0.089-0.916,0.232
			c-0.97,0.333-2.385,1.288-3.113,2.858C6.598,11.726,7.12,13.931,7.12,13.931z M17.484,20.581c-0.807,0.149-1.593-0.188-2.049-0.81
			c-0.179-0.242-0.308-0.528-0.367-0.847c-0.09-0.479-0.006-0.95,0.206-1.353c0.285-0.537,0.803-0.943,1.447-1.064
			c1.124-0.211,2.206,0.529,2.417,1.653C19.348,19.288,18.608,20.37,17.484,20.581z"/>
		<path fill="#FFFFFF" d="M8.19,13.193c0,0,0.556-0.586,1.21-0.98c1.157-0.694,1.869-0.734,1.869-0.734l1.336,7.13
			c0.002,0.012,0.005,0.021,0.008,0.035c0.003,0.021,0.008,0.047,0.012,0.067c0.553,2.949,3.393,4.896,6.343,4.341
			c2.95-0.554,4.893-3.392,4.34-6.343c-0.553-2.951-3.393-4.894-6.343-4.341c-0.542,0.102-1.049,0.281-1.515,0.523L14.518,7.92
			c-0.207-1.104-1.172-1.577-2.217-1.38c-0.242,0.044-0.488,0.087-0.896,0.227c-0.95,0.326-2.336,1.261-3.048,2.799
			C7.679,11.034,8.19,13.193,8.19,13.193z M18.34,19.705c-0.791,0.148-1.56-0.184-2.007-0.789c-0.175-0.239-0.301-0.521-0.359-0.83
			c-0.088-0.47-0.006-0.932,0.202-1.322c0.28-0.525,0.787-0.927,1.418-1.043c1.101-0.207,2.16,0.521,2.366,1.619
			C20.167,18.439,19.441,19.499,18.34,19.705z"/>
	</g>
</g>
<g>
	<g>
		<path fill="#A0A2A8" d="M42.015,71.227c-3.209,0-5.723-3.271-5.723-7.443s2.514-7.439,5.723-7.439s5.723,3.268,5.723,7.439
			S45.224,71.227,42.015,71.227z M42.015,59.842c-1.049,0-2.223,1.686-2.223,3.941s1.174,3.941,2.223,3.941
			c1.049,0,2.223-1.686,2.223-3.941S43.064,59.842,42.015,59.842z"/>
	</g>
	<g>
		<path fill="#A2A2A2" d="M47.958,54.568c0,0.881-0.713,1.595-1.594,1.595h-8.557c-0.88,0-1.594-0.714-1.594-1.595l0,0
			c0-0.879,0.714-1.594,1.594-1.594h8.557C47.244,52.975,47.958,53.689,47.958,54.568L47.958,54.568z"/>
	</g>
	<g>
		<path fill="#A2A2A2" d="M56.012,61.336c0,0.881-0.435,1.594-0.971,1.594h-5.215c-0.537,0-0.972-0.713-0.972-1.594l0,0
			c0-0.88,0.435-1.594,0.972-1.594h5.215C55.576,59.743,56.012,60.456,56.012,61.336L56.012,61.336z"/>
	</g>
	<g>
		<path fill="#A0A2A8" d="M113.881,54.146c0,0.849-0.826,1.535-1.848,1.535l0,0c-1.021,0-1.848-0.688-1.848-1.535l-0.031-0.674
			c0.455-0.666,0.959-1.875,1.879-1.91l0,0c1.076,0,2.082,0.801,1.979,1.9C113.949,54.12,113.881,54.146,113.881,54.146z"/>
		<path fill="#A0A2A8" d="M112.033,55.922c-1.15,0-2.088-0.797-2.088-1.775l-0.031-0.662c-0.002-0.051,0.013-0.104,0.041-0.146
			c0.089-0.127,0.178-0.277,0.271-0.434c0.414-0.689,0.93-1.547,1.799-1.581l0,0c0.672,0,1.321,0.276,1.743,0.741
			c0.36,0.396,0.531,0.9,0.481,1.42c-0.037,0.4-0.08,0.613-0.131,0.73C114.076,55.162,113.158,55.922,112.033,55.922z
			 M110.398,53.54l0.027,0.595c0.001,0.727,0.723,1.307,1.607,1.307c0.887,0,1.606-0.58,1.606-1.295c0-0.051,0.017-0.1,0.045-0.141
			c0.013-0.037,0.05-0.175,0.087-0.566c0.047-0.492-0.169-0.844-0.357-1.051c-0.334-0.367-0.85-0.586-1.381-0.586
			c-0.601,0.023-1.021,0.727-1.396,1.348C110.556,53.289,110.476,53.422,110.398,53.54z"/>
	</g>
	<g>
		<path fill="#A2A2A2" d="M52.096,71.713c0,0.928-0.751,1.678-1.678,1.678l0,0c-0.927,0-1.678-0.75-1.678-1.678V52.416
			c0-0.928,0.751-1.678,1.678-1.678l0,0c0.927,0,1.678,0.75,1.678,1.678V71.713z"/>
	</g>
	<g>
		<path fill="#A2A2A2" d="M42.142,50.752c-0.927,0-1.678,0.752-1.678,1.678v2.01h3.355v-2.01
			C43.82,51.504,43.069,50.752,42.142,50.752z"/>
	</g>
	<g>
		<path fill="#A2A2A2" d="M78.496,71.727c0,0.928-0.75,1.678-1.678,1.678l0,0c-0.928,0-1.679-0.75-1.679-1.678V52.43
			c0-0.926,0.751-1.678,1.679-1.678l0,0c0.928,0,1.678,0.752,1.678,1.678V71.727z"/>
	</g>
	<g>
		<path fill="#A2A2A2" d="M103.514,71.172c-0.828,0-1.501-0.75-1.501-1.678l0,0c0-0.93,0.673-1.682,1.501-1.682h17.262
			c0.828,0,1.502,0.752,1.502,1.682l0,0c0,0.928-0.674,1.678-1.502,1.678H103.514z"/>
	</g>
	<g>
		<path fill="#A2A2A2" d="M60.183,70.816c-0.609,0-1.102-0.75-1.102-1.678l0,0c0-0.928,0.493-1.678,1.102-1.678
			c0,0,4.748,0.447,6.329,0.447c3.987,0,8.479-1.01,8.479-1.01c0.607,0,1.104,0.752,1.104,1.682l0,0
			c0,0.926-0.494,1.678-1.104,1.678c0,0-4.492,0.895-8.479,0.895C62.867,71.152,60.183,70.816,60.183,70.816z"/>
	</g>
	<g>
		<path fill="#A2A2A2" d="M60.246,52.416c-0.609,0-1.103,0.752-1.103,1.678l0,0c0,0.928,0.494,1.678,1.103,1.678
			c0,0,4.746-0.447,6.329-0.447c1.588,0,6.354,0.447,6.354,0.447c0.608,0,1.103-0.75,1.103-1.678l0,0
			c0-0.926-0.494-1.678-1.103-1.678c0,0-3.124-0.335-6.354-0.335C62.929,52.08,60.246,52.416,60.246,52.416z"/>
	</g>
	<g>
		<path fill="#A2A2A2" d="M56.684,71.713c0,0.928-0.751,1.678-1.678,1.678l0,0c-0.926,0-1.678-0.75-1.678-1.678V52.416
			c0-0.928,0.752-1.678,1.678-1.678l0,0c0.927,0,1.678,0.75,1.678,1.678V71.713z"/>
	</g>
	<g>
		<path fill="#A2A2A2" d="M65.914,68.379c0,0.615-0.752,1.115-1.679,1.115l0,0c-0.926,0-1.678-0.5-1.678-1.115V55.555
			c0-0.617,0.752-1.117,1.678-1.117l0,0c0.927,0,1.679,0.5,1.679,1.117V68.379z"/>
	</g>
	<g>
		<path fill="#A2A2A2" d="M70.499,68.492c0,0.615-0.751,1.115-1.678,1.115l0,0c-0.927,0-1.678-0.5-1.678-1.115V55.665
			c0-0.616,0.751-1.114,1.678-1.114l0,0c0.927,0,1.678,0.5,1.678,1.114V68.492z"/>
	</g>
	<g>
		<path fill="#A2A2A2" d="M100.084,71.734c0,0.926-0.748,1.678-1.678,1.678l0,0c-0.929,0-1.677-0.752-1.677-1.678V52.438
			c0-0.928,0.748-1.678,1.677-1.678l0,0c0.93,0,1.678,0.75,1.678,1.678V71.734z"/>
	</g>
	<g>
		<rect x="92.088" y="59.954" fill="#A2A2A2" width="6.318" height="3.356"/>
	</g>
	<g>
		<path fill="#A2A2A2" d="M92.088,52.174c-0.928,0-1.68,0.627-1.68,1.4v5.49h-5.703v-5.49c0-0.773-0.752-1.4-1.68-1.4
			s-1.68,0.627-1.68,1.4v14.162v1.955c0,0.773,0.752,1.4,1.68,1.4h9.063c0.926,0,1.679-0.627,1.679-1.4v-1.955V53.574
			C93.764,52.801,93.012,52.174,92.088,52.174z M84.705,67.736v-5.313h5.703v5.313H84.705z"/>
	</g>
	<g>
		<g>
			<path fill="#A2A2A2" d="M143.937,52.543c0-0.927-0.752-1.677-1.679-1.677c-0.926,0-1.676,0.749-1.678,1.675v9.652
				c0,0.93,0.752,1.68,1.678,1.68c0.927,0,1.679-0.75,1.679-1.68v-9.407v-0.001V52.543z"/>
		</g>
	</g>
	<g>
		<path fill="#A2A2A2" d="M135.541,51.211h-1.953h-7.227c-0.115,0-0.229,0.02-0.336,0.051c-0.611,0.182-1.063,0.84-1.063,1.625
			c0,0.821,0.49,1.504,1.146,1.648l0.02,0.029h0.236h2.188h3.906c0.33,0,0.484,0.469,0.484,1.045v0.15
			c-0.002-0.252,0.004-0.031,0.004,0.223h-6.309c-0.928,0-1.68,0.752-1.68,1.679s0.752,1.679,1.68,1.679h5.82
			c-0.48,0.793-1.102,1.104-2.021,1.27c-0.279,0.021-0.563,0.039-0.851,0.061c-1.173,0.075-2.315,0.023-2.968,0.023
			c-0.403,0-0.771,0.084-1.061,0.255c-0.347,0.206-0.57,0.542-0.602,1.013c-0.002-0.043-0.006-0.084-0.006-0.125v0.225l0.013,0.004
			c0.043,1.117,0.812,1.785,1.668,1.785h2.582l0.022,0.012c0.277,0,0.547-0.006,0.808-0.012h0.276l0.021-0.008
			c0.313-0.014,0.609-0.029,0.896-0.061c1.487-0.15,2.691-0.584,3.856-1.768c1.146-1.16,1.541-2.088,1.726-3.955
			c0.035-0.383,0.109-1.541,0.109-1.541v-3.629C136.943,51.961,136.316,51.211,135.541,51.211z"/>
	</g>
	<g>
		<path fill="#A0A2A8" d="M104.953,62.461c-0.353,0.307-1.07,0.057-1.609-0.559l0,0c-0.536-0.614-0.689-1.359-0.342-1.668
			c0,0,2.984-2.092,3.894-2.889c2.289-2.008,4.28-4.938,4.28-4.938c0.352-0.307,1.068-0.057,1.607,0.557l0,0
			c0.539,0.614,0.69,1.361,0.344,1.668c0,0-2.061,2.854-4.348,4.862C106.689,61.332,104.953,62.461,104.953,62.461z"/>
		<path fill="#A0A2A8" d="M104.568,63.043c-0.517,0-1.101-0.316-1.563-0.844c-0.721-0.826-0.852-1.814-0.301-2.301
			c0.068-0.053,3.015-2.121,3.895-2.891c2.221-1.947,4.186-4.824,4.205-4.854c0.021-0.031,0.047-0.061,0.076-0.086
			c0.535-0.469,1.543-0.197,2.24,0.6c0.726,0.825,0.855,1.814,0.305,2.303c-0.02,0.043-2.051,2.844-4.35,4.862
			c-2.09,1.837-3.806,2.956-3.877,3.005C105.068,62.957,104.832,63.043,104.568,63.043z M111.561,52.729
			c-0.096,0.056-2.063,2.934-4.367,4.957c-0.918,0.803-3.811,2.832-3.933,2.92c-0.036,0.035-0.021,0.494,0.422,1.002
			c0.39,0.443,0.89,0.592,0.976,0.516c0.066-0.051,1.787-1.174,3.824-2.964c2.225-1.952,4.26-4.759,4.279-4.787
			c0.145-0.142,0.129-0.601-0.316-1.108C112.121,52.895,111.761,52.729,111.561,52.729z"/>
	</g>
	<g>
		<path fill="#A0A2A8" d="M119.105,62.461c0.35,0.307,1.07,0.057,1.607-0.559l0,0c0.539-0.614,0.689-1.359,0.342-1.668
			c0,0-2.982-2.092-3.893-2.889c-2.287-2.008-4.281-4.938-4.281-4.938c-0.35-0.307-1.068-0.057-1.605,0.557l0,0
			c-0.539,0.614-0.693,1.361-0.344,1.668c0,0,2.059,2.854,4.346,4.862C117.371,61.332,119.105,62.461,119.105,62.461z"/>
		<path fill="#A0A2A8" d="M119.49,63.043L119.49,63.043c-0.265,0-0.5-0.086-0.682-0.244c-0.021-0.008-1.734-1.129-3.828-2.965
			c-2.188-1.92-4.132-4.55-4.388-4.9c-0.505-0.5-0.362-1.459,0.345-2.264c0.696-0.797,1.707-1.068,2.24-0.6
			c0.027,0.025,0.055,0.054,0.075,0.084c0.021,0.029,1.989,2.908,4.206,4.854c0.881,0.771,3.824,2.838,3.854,2.859
			c0.592,0.52,0.461,1.508-0.263,2.332C120.591,62.727,120.007,63.043,119.49,63.043z M112.539,52.745
			c-0.279,0-0.621,0.168-0.926,0.517c-0.445,0.508-0.461,0.967-0.386,1.035c0.025,0.021,0.048,0.047,0.068,0.074
			s2.057,2.838,4.276,4.787c2.043,1.791,3.76,2.914,3.777,2.928l0.139,0.057c0.201,0,0.563-0.166,0.885-0.535
			c0.445-0.506,0.457-0.967,0.383-1.033c-0.083-0.055-2.975-2.084-3.893-2.889c-2.113-1.855-3.947-4.432-4.299-4.938
			C112.558,52.746,112.548,52.745,112.539,52.745z"/>
	</g>
	<g>
		<g>
			<path fill="#A2A2A2" d="M140.033,64.826h-10.674c-2.336,0-4.229,1.871-4.229,4.182c0,2.309,1.893,4.18,4.229,4.18h10.674
				c2.334,0,4.229-1.871,4.229-4.18C144.262,66.697,142.367,64.826,140.033,64.826z M134.75,69.916c-3.223,0-5.848,0.141-5.83-0.967
				c0.013-0.967,2.607-0.967,5.83-0.967c3.221,0,5.842,0,5.83,0.967C140.566,70.057,137.969,69.916,134.75,69.916z"/>
		</g>
	</g>
</g>
<g>
	
		<linearGradient id="SVGID_8_" gradientUnits="userSpaceOnUse" x1="-667.1401" y1="-1949.9756" x2="-639.0474" y2="-1949.9756" gradientTransform="matrix(1 0 0 -1 670.5449 -1888.0449)">
		<stop  offset="0" style="stop-color:#8354C8"/>
		<stop  offset="1" style="stop-color:#C750BF"/>
	</linearGradient>
	<path fill="url(#SVGID_8_)" d="M27.001,48.914c-1.213-0.656-2.602-1.029-4.078-1.029H11.979c-4.735,0-8.574,3.84-8.574,8.574v2.709
		v8.238c0,1.789,0.549,3.449,1.488,4.824c1.543,2.264,4.142,3.746,7.086,3.746h10.945c2.023,0,3.881-0.701,5.347-1.873
		c1.966-1.57,3.227-3.984,3.227-6.697V56.458C31.499,53.199,29.68,50.365,27.001,48.914z"/>
	<g>
		<path opacity="0.02" fill="#FFFFFF" enable-background="new    " d="M7.022,61.869c0,0,0.568-0.6,1.236-1
			c1.181-0.71,1.908-0.75,1.908-0.75l1.364,7.279c0.002,0.014,0.005,0.025,0.008,0.037c0.004,0.023,0.008,0.047,0.012,0.07
			c0.564,3.014,3.464,4.996,6.477,4.432c3.012-0.564,4.997-3.463,4.432-6.477c-0.565-3.012-3.465-4.996-6.477-4.434
			c-0.554,0.105-1.072,0.287-1.546,0.537l-0.952-5.078c-0.211-1.127-1.197-1.607-2.263-1.409c-0.247,0.047-0.498,0.091-0.916,0.233
			c-0.97,0.33-2.385,1.287-3.112,2.857C6.5,59.663,7.022,61.869,7.022,61.869z M17.386,68.52c-0.808,0.148-1.593-0.189-2.049-0.809
			c-0.179-0.242-0.308-0.529-0.367-0.846c-0.089-0.479-0.006-0.953,0.206-1.354c0.286-0.539,0.804-0.945,1.448-1.066
			c1.124-0.211,2.206,0.529,2.417,1.654C19.25,67.227,18.51,68.309,17.386,68.52z"/>
		<path opacity="0.1" fill="#FFFFFF" enable-background="new    " d="M8.199,61.262c0,0,0.568-0.599,1.236-1
			c1.182-0.709,1.908-0.75,1.908-0.75l1.365,7.279c0.003,0.014,0.006,0.023,0.009,0.037c0.003,0.021,0.007,0.047,0.012,0.068
			c0.564,3.014,3.464,4.996,6.476,4.434c3.012-0.564,4.996-3.465,4.432-6.479c-0.564-3.012-3.464-4.996-6.477-4.432
			c-0.553,0.104-1.072,0.286-1.546,0.533l-0.952-5.074c-0.211-1.129-1.197-1.611-2.264-1.41c-0.247,0.047-0.498,0.09-0.915,0.233
			c-0.971,0.332-2.386,1.288-3.113,2.856C7.677,59.057,8.199,61.262,8.199,61.262z M18.564,67.91
			c-0.808,0.152-1.593-0.188-2.05-0.807c-0.178-0.242-0.307-0.529-0.366-0.846c-0.09-0.48-0.006-0.951,0.206-1.355
			c0.285-0.535,0.803-0.941,1.447-1.063c1.124-0.209,2.206,0.531,2.417,1.656C20.428,66.617,19.687,67.699,18.564,67.91z"/>
		<path opacity="0.15" fill="#FFFFFF" enable-background="new    " d="M9.382,60.488c0,0,0.568-0.6,1.236-1.002
			c1.182-0.707,1.908-0.75,1.908-0.75l1.364,7.281c0.002,0.012,0.005,0.023,0.008,0.035c0.004,0.023,0.007,0.047,0.012,0.07
			c0.565,3.014,3.464,4.998,6.477,4.434c3.012-0.564,4.997-3.463,4.432-6.477c-0.565-3.016-3.464-4.999-6.477-4.434
			c-0.553,0.104-1.071,0.287-1.546,0.533l-0.951-5.076c-0.212-1.127-1.198-1.61-2.264-1.41c-0.248,0.045-0.498,0.089-0.916,0.232
			c-0.97,0.332-2.385,1.287-3.113,2.857C8.86,58.283,9.382,60.488,9.382,60.488z M19.746,67.139
			c-0.807,0.148-1.593-0.189-2.049-0.811c-0.179-0.242-0.308-0.527-0.367-0.846c-0.09-0.479-0.006-0.951,0.206-1.354
			c0.285-0.537,0.803-0.943,1.447-1.064c1.124-0.211,2.206,0.529,2.417,1.654C21.61,65.846,20.87,66.928,19.746,67.139z"/>
		<path fill="#FFFFFF" d="M10.452,59.75c0,0,0.556-0.586,1.21-0.98c1.157-0.693,1.869-0.733,1.869-0.733l1.336,7.13
			c0.002,0.012,0.005,0.021,0.008,0.035c0.003,0.021,0.008,0.047,0.012,0.068c0.553,2.949,3.393,4.895,6.343,4.34
			c2.95-0.553,4.893-3.391,4.34-6.342c-0.553-2.951-3.393-4.895-6.343-4.342c-0.542,0.102-1.049,0.281-1.515,0.523l-0.932-4.973
			c-0.207-1.104-1.172-1.576-2.217-1.379c-0.242,0.043-0.488,0.086-0.896,0.227c-0.95,0.326-2.336,1.262-3.048,2.799
			C9.941,57.592,10.452,59.75,10.452,59.75z M20.602,66.262c-0.791,0.148-1.56-0.184-2.007-0.789
			c-0.175-0.238-0.301-0.521-0.359-0.83c-0.088-0.469-0.006-0.932,0.202-1.322c0.28-0.525,0.787-0.926,1.418-1.043
			c1.101-0.207,2.16,0.521,2.366,1.619C22.429,64.996,21.703,66.057,20.602,66.262z"/>
	</g>
</g>
<g>
	<path fill="#A7A9AD" d="M39.551,10.259c-3.134,0-5.596,3.194-5.596,7.273c0,4.077,2.462,7.273,5.596,7.273
		c3.131,0,5.594-3.196,5.594-7.273C45.145,13.453,42.682,10.259,39.551,10.259z M39.551,21.384c-1.026,0-2.172-1.64-2.172-3.852
		c0-2.203,1.146-3.851,2.172-3.851c1.023,0,2.174,1.647,2.174,3.851C41.725,19.744,40.574,21.384,39.551,21.384z"/>
	<path fill="#A7A9AD" d="M43.802,6.97H41.31V6.433c0.001-0.906-0.731-1.635-1.642-1.635c-0.9,0-1.634,0.729-1.634,1.635V6.97h-2.598
		c-0.856,0-1.559,0.691-1.559,1.556c0,0.86,0.703,1.561,1.559,1.561h8.366c0.862,0,1.556-0.701,1.556-1.561
		C45.357,7.661,44.664,6.97,43.802,6.97z"/>
	<path fill="#A7A9AD" d="M74.761,4.799c-0.909,0-1.644,0.729-1.644,1.638v14.372c-0.153-0.135-0.325-0.232-0.516-0.232
		c0,0-1.948,0.433-4.39,0.727V9.602c0-0.039-0.026-0.071-0.036-0.105c1.309,0.107,2.413,0.208,2.413,0.208
		c0.587,0,1.073-0.737,1.073-1.638c0-0.909-0.485-1.643-1.073-1.643c0,0-3.057-0.322-6.215-0.322c-3.559,0-6.181,0.322-6.181,0.322
		c-0.603,0-1.082,0.734-1.082,1.643c0,0.901,0.479,1.638,1.082,1.638c0,0,1.023-0.097,2.254-0.195v11.826
		c-1.266-0.106-2.319-0.208-2.319-0.208c-0.594,0-1.074,0.737-1.074,1.645c0,0.902,0.48,1.635,1.074,1.635
		c0,0,2.623,0.331,6.188,0.331c3.896,0,8.286-0.872,8.286-0.872c0.19,0,0.362-0.097,0.516-0.229V25.3
		c0,0.903,0.734,1.632,1.644,1.632c0.905,0,1.64-0.729,1.64-1.632V6.437C76.4,5.527,75.666,4.799,74.761,4.799z M63.729,21.548
		V9.494c0-0.073-0.039-0.135-0.061-0.207c0.274-0.011,0.512-0.016,0.706-0.016c0.182,0,0.406,0.005,0.655,0.013
		c-0.045,0.102-0.097,0.204-0.097,0.317v11.944c-0.203,0.009-0.414,0.022-0.616,0.022C64.157,21.568,63.948,21.563,63.729,21.548z"
		/>
	<path fill="#A7A9AD" d="M118.931,21.474h-16.869c-0.813,0-1.471,0.734-1.471,1.644c0,0.91,0.658,1.641,1.471,1.641h16.869
		c0.806,0,1.474-0.73,1.474-1.641C120.404,22.208,119.736,21.474,118.931,21.474z"/>
	<path fill="#A7A9AD" d="M52.246,4.782c-0.901,0-1.638,0.733-1.638,1.642v7.161h-1.206V6.423c0-0.909-0.736-1.642-1.642-1.642
		c-0.901,0-1.636,0.733-1.636,1.642v18.862c0,0.904,0.735,1.634,1.636,1.634c0.905,0,1.642-0.729,1.642-1.634v-8.586h1.206v8.586
		c0,0.904,0.737,1.634,1.638,1.634c0.911,0,1.643-0.729,1.643-1.634V6.423C53.889,5.515,53.157,4.782,52.246,4.782z"/>
	<path fill="#A7A9AD" d="M96.243,4.807c-0.905,0-1.635,0.734-1.635,1.635v7.347h-2.896V7.556c-0.002-0.76-0.739-1.374-1.645-1.374
		c-0.912,0-1.641,0.614-1.641,1.374v5.366h-5.572V7.556c0-0.76-0.742-1.374-1.643-1.374c-0.908,0-1.64,0.614-1.64,1.374v13.839
		v1.909c0,0.757,0.731,1.376,1.64,1.376h8.855c0.905,0,1.645-0.619,1.645-1.376v-1.909v-4.326h2.896v8.238
		c0,0.904,0.729,1.64,1.635,1.64c0.908,0,1.642-0.735,1.642-1.64V6.442C97.885,5.541,97.151,4.807,96.243,4.807z M88.428,21.396
		h-5.572v-5.187h5.572V21.396z"/>
	<path fill="#A7A9AD" d="M139.699,17.638c0.887,0,1.603-0.716,1.603-1.604V7.074V6.842c0-0.888-0.716-1.602-1.603-1.602
		c-0.883,0-1.594,0.714-1.598,1.599v9.194C138.102,16.922,138.816,17.638,139.699,17.638z"/>
	<path fill="#A7A9AD" d="M130.822,9.901V9.806C130.822,9.808,130.822,9.83,130.822,9.901z"/>
	<path fill="#A7A9AD" d="M124.808,17.611h2.462l0.022,0.01c0.262,0,0.517-0.003,0.769-0.01h0.263l0.023-0.008
		c0.3-0.013,0.578-0.021,0.854-0.055c1.421-0.146,2.56-0.554,3.677-1.689c1.09-1.104,1.465-1.988,1.639-3.769
		c0.032-0.358,0.109-1.461,0.109-1.461V7.164c0.011-0.878-0.592-1.593-1.324-1.593h-1.861h-6.89c-0.106,0-0.219,0.017-0.319,0.048
		c-0.586,0.173-1.012,0.802-1.012,1.545c0,0.79,0.468,1.436,1.092,1.574l0.016,0.026h0.228h2.087h3.722
		c0.309,0,0.46,0.453,0.46,0.998v0.045c0.004-0.009,0.008,0.139,0.008,0.307h-6.019c-0.876,0-1.597,0.719-1.597,1.605
		c0,0.886,0.721,1.599,1.597,1.599h5.551c-0.455,0.756-1.051,1.049-1.924,1.211c-0.271,0.02-0.538,0.038-0.814,0.054
		c-1.115,0.069-2.207,0.027-2.82,0.027c-0.388,0-0.74,0.074-1.019,0.238c-0.331,0.2-0.539,0.52-0.57,0.963
		c-0.005-0.038-0.008-0.078-0.008-0.116v0.215l0.012,0.003C123.26,16.979,123.992,17.611,124.808,17.611z"/>
	<path fill="#A7A9AD" d="M137.553,18.645h-10.052c-2.194,0-3.975,1.758-3.975,3.933c0,2.171,1.78,3.934,3.975,3.934h10.052
		c2.199,0,3.981-1.763,3.981-3.934C141.534,20.402,139.752,18.645,137.553,18.645z M132.574,23.437
		c-3.026,0-5.501,0.128-5.478-0.917c0.008-0.904,2.451-0.904,5.478-0.904c3.041,0,5.507,0,5.494,0.904
		C138.06,23.564,135.61,23.437,132.574,23.437z"/>
	<path fill="#A7A9AD" d="M119.415,14.622c-0.874-0.269-1.745-0.626-2.588-1.073c-0.858-0.453-1.642-0.949-2.323-1.472
		c-0.693-0.526-1.287-1.076-1.779-1.627c-0.289-0.33-0.459-0.548-0.555-0.671c0.344-0.879,0.527-1.768,0.551-2.669
		c0-0.703-0.513-1.192-1.206-1.192c-0.002,0-0.002,0-0.004,0L110,5.846c-0.279,0-0.549,0.089-0.76,0.242
		c-0.334,0.222-0.524,0.585-0.524,1.016c0.017,0.596-0.126,1.233-0.417,1.901c-0.319,0.706-0.787,1.422-1.4,2.116
		c-0.622,0.718-1.389,1.406-2.279,2.052c-0.886,0.646-1.893,1.213-3.081,1.742c-0.482,0.28-0.633,0.643-0.678,0.892
		c-0.058,0.342,0.048,0.687,0.306,0.986l0.825,0.908c0.266,0.222,0.559,0.333,0.865,0.333h0.088
		c0.225-0.018,0.449-0.089,0.687-0.207c1.369-0.63,2.621-1.358,3.712-2.167c1.087-0.803,2.042-1.675,2.853-2.609
		c0.001-0.004,0.005-0.007,0.007-0.013c0.126,0.124,0.253,0.247,0.387,0.372c0.596,0.569,1.294,1.13,2.07,1.675
		c0.761,0.534,1.593,1.034,2.476,1.486c0.886,0.453,1.764,0.82,2.688,1.112c0.174,0.037,0.34,0.058,0.63,0.051
		c0.403-0.019,0.756-0.226,0.942-0.516l0.642-0.872c0.13-0.207,0.2-0.447,0.2-0.7C120.237,15.159,119.902,14.752,119.415,14.622z"/>
</g>
</svg>
