<?xml version="1.0" encoding="utf-8"?>
<!-- Generator: Adobe Illustrator 16.0.0, SVG Export Plug-In . SVG Version: 6.00 Build 0)  -->
<!DOCTYPE svg PUBLIC "-//W3C//DTD SVG 1.1//EN" "http://www.w3.org/Graphics/SVG/1.1/DTD/svg11.dtd">
<svg version="1.1" id="레이어_1" xmlns:sketch="http://www.bohemiancoding.com/sketch/ns"
	 xmlns="http://www.w3.org/2000/svg" xmlns:xlink="http://www.w3.org/1999/xlink" x="0px" y="0px" width="60px" height="60px"
	 viewBox="0 0 60 60" enable-background="new 0 0 60 60" xml:space="preserve">
<title></title>
<desc></desc>
<polyline fill="#3C3C3C" points="36.501,34.822 33.251,39.07 30,34.82 "/>
<g>
	<circle fill="#FFFFFF" cx="30.001" cy="30" r="24.413"/>
</g>
<g>
	<path fill="none" stroke="#3C3C3C" stroke-miterlimit="10" d="M34.023,109.085"/>
</g>
<path fill="#494949" d="M39.043,24.521h-5.328l-0.179-1.23c0-0.367-0.296-0.664-0.661-0.664h-4.893
	c-0.365,0-0.662,0.297-0.662,0.664l-0.177,1.23h-5.386c-0.366,0-0.662,0.285-0.662,0.636v11.298c0,0.354,0.296,0.637,0.662,0.637
	h17.284c0.366,0,0.664-0.281,0.664-0.637V25.157C39.707,24.807,39.408,24.521,39.043,24.521z M30.428,34.779
	c-2.194,0-3.973-1.777-3.973-3.973c0-2.195,1.779-3.974,3.973-3.974c2.193,0,3.974,1.778,3.974,3.974
	C34.402,33,32.623,34.779,30.428,34.779z M36.941,28.488c-0.527,0-0.957-0.429-0.957-0.958c0-0.528,0.43-0.958,0.957-0.958
	c0.531,0,0.959,0.43,0.959,0.958C37.9,28.061,37.473,28.488,36.941,28.488z"/>
</svg>
