<?xml version="1.0" encoding="utf-8"?>
<!-- Generator: Adobe Illustrator 16.0.0, SVG Export Plug-In . SVG Version: 6.00 Build 0)  -->
<!DOCTYPE svg PUBLIC "-//W3C//DTD SVG 1.1//EN" "http://www.w3.org/Graphics/SVG/1.1/DTD/svg11.dtd">
<svg version="1.1" id="레이어_1" xmlns:sketch="http://www.bohemiancoding.com/sketch/ns"
	 xmlns="http://www.w3.org/2000/svg" xmlns:xlink="http://www.w3.org/1999/xlink" x="0px" y="0px" width="60px" height="60px"
	 viewBox="0 0 60 60" enable-background="new 0 0 60 60" xml:space="preserve">
<title></title>
<desc></desc>
<rect x="30.001" y="21.839" fill="#3C3C3C" width="6.5" height="11.499"/>
<polyline fill="#3C3C3C" points="36.501,34.822 33.251,39.07 30,34.82 "/>
<path fill="#3C3C3C" d="M33.748,16.79h-0.994c-1.521,0-2.753,1.232-2.753,2.752v0.907h6.5v-0.907
	C36.501,18.022,35.27,16.79,33.748,16.79z"/>
<g>
	<circle fill="#FFFFFF" cx="30.001" cy="30" r="24.413"/>
</g>
<g>
	<rect x="21.732" y="19.492" fill="#3C3C3C" width="1.118" height="1.118"/>
	<rect x="20.613" y="20.599" fill="#3C3C3C" width="1.119" height="1.119"/>
	<rect x="22.851" y="20.599" fill="#3C3C3C" width="1.119" height="1.119"/>
	<rect x="21.732" y="21.718" fill="#3C3C3C" width="1.118" height="1.118"/>
</g>
<rect x="40.333" y="30.418" fill="#3C3C3C" width="1.117" height="1.118"/>
<rect x="39.215" y="31.525" fill="#3C3C3C" width="1.118" height="1.117"/>
<rect x="41.45" y="31.525" fill="#3C3C3C" width="1.12" height="1.117"/>
<rect x="40.333" y="32.643" fill="#3C3C3C" width="1.117" height="1.118"/>
<polyline fill="#494949" stroke="#494949" stroke-miterlimit="10" points="29.653,33.354 24.881,42.973 22.851,41.965 
	27.614,32.363 "/>
<polygon fill="#494949" stroke="#494949" stroke-miterlimit="10" points="35.115,19.895 35.107,24.134 38.594,26.546 34.561,27.847 
	33.346,31.908 30.859,28.474 26.622,28.573 29.12,25.148 27.716,21.148 31.747,22.467 "/>
<path fill="#494949" stroke="#494949" stroke-miterlimit="10" d="M31.966,29.712l-1.595,3.208c-0.193,0.393-0.987,0.396-1.771,0.006
	l0,0c-0.783-0.389-1.261-1.02-1.067-1.412l1.603-3.229"/>
<polyline fill="none" stroke="#FFFFFF" stroke-width="0.5" stroke-miterlimit="10" points="25.645,29.199 30.562,28.97 
	33.812,33.338 "/>
<path fill="none" stroke="#FFFFFF" stroke-width="0.5" stroke-miterlimit="10" d="M26.252,31.536c0,0,1.623,2.797,5.248,2.225"/>
</svg>
