<?xml version="1.0" encoding="utf-8"?>
<!-- Generator: Adobe Illustrator 16.0.0, SVG Export Plug-In . SVG Version: 6.00 Build 0)  -->
<!DOCTYPE svg PUBLIC "-//W3C//DTD SVG 1.1//EN" "http://www.w3.org/Graphics/SVG/1.1/DTD/svg11.dtd">
<svg version="1.1" id="레이어_1" xmlns:sketch="http://www.bohemiancoding.com/sketch/ns"
	 xmlns="http://www.w3.org/2000/svg" xmlns:xlink="http://www.w3.org/1999/xlink" x="0px" y="0px" width="60px" height="60px"
	 viewBox="0 0 60 60" enable-background="new 0 0 60 60" xml:space="preserve">
<g opacity="0.8">
	<circle fill="#FFFFFF" cx="30" cy="30" r="24.414"/>
</g>
<title></title>
<desc></desc>
<g>
	<g>
		<path fill="#DCDCDC" d="M30,5.586c13.482,0,24.414,10.931,24.414,24.414c0,13.482-10.932,24.414-24.414,24.414
			C16.517,54.414,5.586,43.482,5.586,30C5.586,16.517,16.517,5.586,30,5.586 M30,4.586C15.987,4.586,4.586,15.987,4.586,30
			c0,14.014,11.401,25.414,25.414,25.414c14.014,0,25.414-11.4,25.414-25.414C55.414,15.987,44.014,4.586,30,4.586L30,4.586z"/>
	</g>
</g>
<path fill="none" stroke="#687173" stroke-linejoin="bevel" stroke-miterlimit="10" d="M40.086,26.601v-8.672l-4.482,2.508v-1.94
	c0-0.943-0.763-1.706-1.705-1.706H22.619c-0.941,0-1.705,0.763-1.705,1.706v7.537c0,0.941,0.764,1.705,1.705,1.705h11.279
	c0.942,0,1.707-0.764,1.707-1.705h-0.002v-1.941L40.086,26.601z"/>
<g>
	<path fill="#687173" d="M22.642,32.521v1.008h-5.916v1.765h5.988v1.009h-2.988v1.139h4.476v1.011H14.05v-1.011h4.476v-1.139H15.55
		v-3.781H22.642L22.642,32.521z M19.126,43.49c-0.528,0-1.006-0.051-1.434-0.15c-0.428-0.1-0.792-0.24-1.092-0.42
		c-0.3-0.18-0.53-0.393-0.69-0.636c-0.16-0.244-0.24-0.507-0.24-0.786V41.09c0-0.287,0.08-0.554,0.24-0.798
		c0.16-0.243,0.39-0.454,0.69-0.63c0.3-0.176,0.664-0.314,1.092-0.414c0.428-0.1,0.906-0.15,1.434-0.15s1.004,0.051,1.428,0.15
		c0.424,0.1,0.786,0.24,1.086,0.42c0.3,0.18,0.532,0.391,0.696,0.63c0.164,0.24,0.246,0.505,0.246,0.792v0.408
		c0,0.279-0.08,0.54-0.24,0.779c-0.16,0.24-0.39,0.451-0.69,0.631c-0.3,0.18-0.664,0.322-1.092,0.426
		C20.132,43.438,19.654,43.49,19.126,43.49z M19.126,40.07c-0.336,0-0.644,0.029-0.924,0.09c-0.28,0.061-0.52,0.141-0.72,0.24
		c-0.2,0.099-0.356,0.216-0.468,0.348c-0.112,0.132-0.168,0.27-0.168,0.414v0.264c0,0.145,0.056,0.282,0.168,0.414
		c0.112,0.133,0.268,0.248,0.468,0.348c0.2,0.103,0.44,0.183,0.72,0.24c0.28,0.063,0.588,0.09,0.924,0.09s0.644-0.027,0.924-0.09
		c0.28-0.06,0.52-0.14,0.72-0.24c0.2-0.1,0.356-0.215,0.468-0.348c0.112-0.132,0.168-0.27,0.168-0.414v-0.264
		c0-0.145-0.056-0.282-0.168-0.414C21.126,40.616,20.97,40.5,20.77,40.4c-0.2-0.102-0.44-0.182-0.72-0.24
		C19.77,40.1,19.462,40.07,19.126,40.07z"/>
	<path fill="#687173" d="M30.814,35.57c0,0.264-0.057,0.539-0.162,0.828c-0.108,0.287-0.276,0.55-0.504,0.785
		c-0.228,0.234-0.514,0.431-0.858,0.582c-0.344,0.15-0.752,0.229-1.224,0.229s-0.88-0.076-1.224-0.229
		c-0.344-0.151-0.63-0.348-0.858-0.582c-0.228-0.235-0.396-0.498-0.504-0.785c-0.108-0.289-0.162-0.564-0.162-0.828v-0.612
		c0-0.265,0.054-0.54,0.162-0.828s0.276-0.55,0.504-0.786c0.228-0.234,0.514-0.43,0.858-0.582c0.344-0.15,0.752-0.228,1.224-0.228
		s0.88,0.075,1.224,0.228c0.344,0.152,0.63,0.348,0.858,0.582c0.228,0.236,0.396,0.498,0.504,0.786
		c0.105,0.288,0.162,0.563,0.162,0.828V35.57z M29.674,35.018c0-0.176-0.032-0.35-0.096-0.521c-0.064-0.172-0.162-0.328-0.294-0.47
		c-0.132-0.139-0.3-0.252-0.504-0.336c-0.204-0.084-0.442-0.125-0.714-0.125c-0.28,0-0.52,0.041-0.72,0.125
		c-0.2,0.084-0.366,0.197-0.498,0.336c-0.132,0.142-0.23,0.298-0.294,0.47s-0.096,0.346-0.096,0.521v0.492
		c0,0.176,0.032,0.352,0.096,0.522c0.064,0.17,0.162,0.327,0.294,0.468c0.132,0.141,0.298,0.252,0.498,0.336
		c0.2,0.084,0.44,0.126,0.72,0.126c0.272,0,0.51-0.042,0.714-0.126c0.204-0.084,0.372-0.195,0.504-0.336
		c0.132-0.141,0.229-0.296,0.294-0.468c0.064-0.173,0.096-0.347,0.096-0.522V35.018z M27.466,40.898
		c0-0.289,0.078-0.563,0.234-0.816c0.156-0.256,0.38-0.48,0.672-0.672c0.292-0.192,0.648-0.344,1.068-0.456s0.894-0.168,1.421-0.168
		c0.529,0,1.002,0.056,1.423,0.168c0.42,0.112,0.774,0.265,1.067,0.456s0.517,0.416,0.672,0.672
		c0.156,0.256,0.232,0.527,0.232,0.816v0.479c0,0.288-0.076,0.561-0.232,0.814c-0.155,0.258-0.379,0.479-0.672,0.674
		c-0.293,0.191-0.647,0.344-1.067,0.455c-0.421,0.111-0.894,0.169-1.423,0.169c-0.527,0-1.001-0.058-1.421-0.169
		s-0.776-0.264-1.068-0.455c-0.292-0.192-0.516-0.416-0.672-0.674c-0.156-0.256-0.234-0.526-0.234-0.814V40.898z M33.094,40.971
		c0-0.145-0.052-0.291-0.156-0.438c-0.104-0.147-0.252-0.278-0.441-0.391c-0.191-0.111-0.428-0.205-0.702-0.275
		c-0.274-0.072-0.586-0.108-0.933-0.108c-0.344,0-0.651,0.036-0.927,0.108c-0.276,0.07-0.51,0.164-0.702,0.275
		c-0.192,0.11-0.34,0.241-0.444,0.391c-0.104,0.146-0.156,0.294-0.156,0.438v0.336c0,0.146,0.052,0.289,0.156,0.438
		c0.104,0.147,0.252,0.276,0.444,0.391c0.192,0.111,0.426,0.203,0.702,0.275c0.276,0.071,0.583,0.106,0.927,0.106
		c0.347,0,0.654-0.035,0.933-0.106c0.276-0.072,0.511-0.164,0.702-0.275c0.189-0.112,0.34-0.241,0.441-0.391
		c0.104-0.147,0.156-0.294,0.156-0.438V40.971z M33.046,38.643V37.01h-1.739v-1.02h1.739v-1.477h-1.739v-1.021h1.739v-1.381h1.164
		v6.527h-1.164V38.643z"/>
	<path fill="#687173" d="M39.105,35.93c-0.031,0.104-0.127,0.248-0.287,0.432c-0.16,0.188-0.332,0.361-0.519,0.529
		c-0.248,0.231-0.534,0.485-0.862,0.762c-0.328,0.275-0.652,0.543-0.974,0.8l-0.708-0.843c0.387-0.295,0.75-0.592,1.1-0.887
		c0.349-0.297,0.627-0.549,0.834-0.757c0.15-0.151,0.276-0.298,0.379-0.438c0.1-0.139,0.18-0.281,0.238-0.432
		c0.061-0.146,0.104-0.306,0.127-0.474c0.022-0.168,0.034-0.356,0.034-0.563v-1.453h1.2v1.404c0,0.186,0.006,0.352,0.02,0.498
		c0.012,0.148,0.037,0.286,0.078,0.414c0.039,0.129,0.102,0.254,0.186,0.378s0.199,0.251,0.343,0.378
		c0.28,0.256,0.586,0.521,0.918,0.793c0.332,0.272,0.679,0.535,1.038,0.791l-0.695,0.828c-0.313-0.232-0.611-0.466-0.895-0.701
		c-0.284-0.236-0.57-0.475-0.858-0.715c-0.185-0.152-0.334-0.291-0.45-0.42c-0.115-0.128-0.191-0.236-0.232-0.324H39.105z
		 M37.966,40.898c0-0.289,0.076-0.563,0.228-0.816c0.152-0.256,0.373-0.48,0.66-0.672c0.289-0.191,0.641-0.344,1.051-0.456
		c0.412-0.112,0.879-0.168,1.397-0.168c0.521,0,0.985,0.056,1.397,0.168s0.762,0.265,1.051,0.456
		c0.287,0.191,0.508,0.416,0.66,0.672c0.15,0.256,0.227,0.527,0.227,0.816v0.479c0,0.288-0.076,0.561-0.227,0.814
		c-0.152,0.258-0.373,0.479-0.66,0.674c-0.289,0.191-0.639,0.344-1.051,0.455s-0.877,0.169-1.397,0.169
		c-0.52,0-0.985-0.058-1.397-0.169c-0.41-0.111-0.762-0.264-1.051-0.455c-0.287-0.192-0.508-0.416-0.66-0.674
		c-0.149-0.256-0.228-0.526-0.228-0.814V40.898z M43.473,40.971c0-0.145-0.049-0.291-0.146-0.438
		c-0.102-0.147-0.244-0.278-0.434-0.391c-0.188-0.111-0.416-0.205-0.685-0.275c-0.269-0.072-0.569-0.108-0.906-0.108
		c-0.336,0-0.638,0.036-0.905,0.108c-0.269,0.07-0.496,0.164-0.685,0.275c-0.188,0.11-0.332,0.241-0.433,0.391
		c-0.1,0.146-0.149,0.294-0.149,0.438v0.336c0,0.146,0.05,0.289,0.149,0.438c0.101,0.147,0.244,0.276,0.433,0.391
		c0.188,0.111,0.416,0.203,0.685,0.275c0.27,0.071,0.569,0.106,0.905,0.106c0.337,0,0.638-0.035,0.906-0.106
		c0.269-0.072,0.495-0.164,0.685-0.275c0.188-0.112,0.332-0.241,0.434-0.391c0.1-0.147,0.146-0.294,0.146-0.438V40.971z
		 M46.162,35.822H44.59v2.82h-1.176v-6.528h1.176v2.676h1.572V35.822z"/>
</g>
<line fill="none" stroke="#687173" stroke-linejoin="bevel" stroke-miterlimit="10" x1="35.604" y1="19.156" x2="35.604" y2="25.344"/>
</svg>
