<?xml version="1.0" encoding="utf-8"?>
<!-- Generator: Adobe Illustrator 16.0.0, SVG Export Plug-In . SVG Version: 6.00 Build 0)  -->
<!DOCTYPE svg PUBLIC "-//W3C//DTD SVG 1.1//EN" "http://www.w3.org/Graphics/SVG/1.1/DTD/svg11.dtd">
<svg version="1.1" id="레이어_1" xmlns:sketch="http://www.bohemiancoding.com/sketch/ns"
	 xmlns="http://www.w3.org/2000/svg" xmlns:xlink="http://www.w3.org/1999/xlink" x="0px" y="0px" width="60px" height="60px"
	 viewBox="0 0 60 60" enable-background="new 0 0 60 60" xml:space="preserve">
<title></title>
<desc></desc>
<polyline fill="#3C3C3C" points="36.61,34.987 33.486,39.07 30.362,34.985 "/>
<g>
	<circle fill="#FFFFFF" cx="30.001" cy="30" r="24.413"/>
</g>
<path fill="#494949" stroke="#494949" stroke-miterlimit="10" d="M38.184,25.728h-7.438v2.795c0,0.315-0.34,0.572-0.76,0.572h-4.244
	l-0.781,0.515v6.077c0,0.464,0.501,0.843,1.122,0.843h6.243l3.465,2.285V36.53h2.393c0.621,0,1.121-0.379,1.121-0.843v-9.115
	C39.305,26.106,38.805,25.728,38.184,25.728z"/>
<circle fill="#FFFFFF" stroke="#FFFFFF" stroke-width="0.4" stroke-miterlimit="10" cx="28.643" cy="31.208" r="0.791"/>
<circle fill="#FFFFFF" stroke="#FFFFFF" stroke-width="0.4" stroke-miterlimit="10" cx="32.107" cy="31.209" r="0.79"/>
<circle fill="#FFFFFF" stroke="#FFFFFF" stroke-width="0.4" stroke-miterlimit="10" cx="35.624" cy="31.209" r="0.79"/>
<path fill="#494949" stroke="#494949" stroke-miterlimit="10" d="M30.746,25.728v-3.4c0-0.316-0.34-0.572-0.76-0.572H21.76
	c-0.42,0-0.76,0.256-0.76,0.572v6.195c0,0.315,0.34,0.572,0.76,0.572h1.628v1.551l1.572-1.036"/>
<rect x="25.873" y="25.728" fill="#494949" width="6.259" height="3.183"/>
<path fill="none" stroke="#FFFFFF" stroke-miterlimit="10" d="M31.317,24.313"/>
</svg>
