<?xml version="1.0" encoding="utf-8"?>
<!-- Generator: Adobe Illustrator 16.0.0, SVG Export Plug-In . SVG Version: 6.00 Build 0)  -->
<!DOCTYPE svg PUBLIC "-//W3C//DTD SVG 1.1//EN" "http://www.w3.org/Graphics/SVG/1.1/DTD/svg11.dtd">
<svg version="1.1" id="레이어_1" xmlns:sketch="http://www.bohemiancoding.com/sketch/ns"
	 xmlns="http://www.w3.org/2000/svg" xmlns:xlink="http://www.w3.org/1999/xlink" x="0px" y="0px" width="60px" height="60px"
	 viewBox="-22 -22 60 60" enable-background="new -22 -22 60 60" xml:space="preserve">
<g>
	
		<image overflow="visible" opacity="0.75" width="62" height="62" xlink:href="F886093F.png"  transform="matrix(1 0 0 1 -22.5 -22.3486)">
	</image>
	<g>
		<circle fill="#FFFFFF" cx="8.333" cy="7.063" r="24.413"/>
	</g>
</g>
<title></title>
<desc></desc>
<g>
	<linearGradient id="SVGID_1_" gradientUnits="userSpaceOnUse" x1="6.1533" y1="14.6807" x2="6.1533" y2="-5.5652">
		<stop  offset="0" style="stop-color:#8354C8"/>
		<stop  offset="0.5969" style="stop-color:#AE51C2"/>
		<stop  offset="1" style="stop-color:#C750BF"/>
	</linearGradient>
	<path fill="url(#SVGID_1_)" d="M9.03,1.065c0.897-1.055,2.167-1.603,3.451-1.62c-0.02,0-0.04-0.001-0.061-0.001
		c-1.813,0-3.386,1.021-4.178,2.519C7.406,0.639,5.93-0.242,4.247-0.242c-2.609,0-4.725,2.115-4.725,4.724
		c0,1.357,0.573,2.58,1.489,3.441l0.001,0.002c0.023,0.021,0.044,0.042,0.068,0.063l7.123,6.692l4.581-4.369L9.552,7.56
		C7.614,5.911,7.38,3.003,9.03,1.065z"/>
	<g>
		
			<image overflow="visible" opacity="0.22" width="40" height="43" xlink:href="F886093D.png"  transform="matrix(1 0 0 1 -13.8105 -12.0527)">
		</image>
		<g>
			<linearGradient id="SVGID_2_" gradientUnits="userSpaceOnUse" x1="12.5371" y1="11.1875" x2="12.5371" y2="-0.5537">
				<stop  offset="0" style="stop-color:#8354C8"/>
				<stop  offset="0.5969" style="stop-color:#AE51C2"/>
				<stop  offset="1" style="stop-color:#C750BF"/>
			</linearGradient>
			<path fill="url(#SVGID_2_)" d="M12.481-0.554c-1.284,0.017-2.554,0.565-3.451,1.62C7.38,3.003,7.614,5.911,9.552,7.56
				l3.232,2.751l1.03,0.876l1.439-1.624l-0.901-0.748l-0.437-0.372c0.802-0.25,1.546-0.719,2.131-1.405
				c0.048-0.056,0.093-0.113,0.138-0.17c0.279-0.387,0.517-0.803,0.687-1.249c0.174-0.481,0.265-0.984,0.273-1.485
				C17.125,1.561,15.051-0.521,12.481-0.554z M14.409,5.644c-0.856,1.007-2.351,1.148-3.383,0.341l-0.077-0.066l-0.004,0.004
				c-1.032-0.879-1.157-2.431-0.278-3.463c0.88-1.033,2.432-1.158,3.464-0.278C15.164,3.06,15.288,4.61,14.409,5.644z"/>
		</g>
	</g>
</g>
</svg>
