<?xml version="1.0" encoding="utf-8"?>
<!-- Generator: Adobe Illustrator 16.0.0, SVG Export Plug-In . SVG Version: 6.00 Build 0)  -->
<!DOCTYPE svg PUBLIC "-//W3C//DTD SVG 1.1//EN" "http://www.w3.org/Graphics/SVG/1.1/DTD/svg11.dtd">
<svg version="1.1" id="레이어_1" xmlns:sketch="http://www.bohemiancoding.com/sketch/ns"
	 xmlns="http://www.w3.org/2000/svg" xmlns:xlink="http://www.w3.org/1999/xlink" x="0px" y="0px" width="60px" height="60px"
	 viewBox="0 0 60 60" enable-background="new 0 0 60 60" xml:space="preserve">
<g>
	<circle fill="#FFFFFF" cx="30.001" cy="30" r="24.413"/>
</g>
<g>
	<polyline fill="#3C3C3C" points="35.926,34.8 32.816,38.863 29.707,34.798 	"/>
	<g>
		<polyline fill="#494949" points="29.707,32.957 29.707,42.768 19.674,37.963 19.674,27.943 		"/>
		<polyline fill="#494949" points="29.707,32.957 29.707,42.768 39.74,37.963 39.74,28.008 		"/>
		<polyline fill="#494949" points="33.584,24.819 39.74,27.943 29.707,32.986 19.674,27.943 27.44,23.943 		"/>
		<g>
			<path fill="#FFFFFF" d="M23.11,37.622l-0.459-0.235l0.037-2.992l-0.903-0.464l0.005-0.472l2.27,1.169l-0.005,0.47l-0.907-0.467
				L23.11,37.622z"/>
			<path fill="#FFFFFF" d="M25.047,35.137l-0.043,3.461l-0.462-0.238l0.043-3.462L25.047,35.137z"/>
			<path fill="#FFFFFF" d="M27.597,37.504c-0.002,0.176-0.028,0.322-0.078,0.439c-0.049,0.117-0.118,0.203-0.205,0.261
				c-0.086,0.056-0.192,0.079-0.316,0.07c-0.124-0.008-0.262-0.051-0.411-0.128l-0.356-0.183l-0.016,1.258l-0.462-0.238l0.043-3.462
				l0.804,0.414c0.162,0.083,0.305,0.185,0.431,0.301c0.125,0.117,0.23,0.244,0.315,0.384c0.085,0.137,0.148,0.282,0.19,0.434
				C27.579,37.204,27.599,37.354,27.597,37.504z M27.138,37.289c0.002-0.181-0.044-0.353-0.138-0.514
				c-0.095-0.162-0.251-0.299-0.472-0.413l-0.279-0.142L26.234,37.5l0.242,0.125c0.208,0.107,0.371,0.131,0.486,0.069
				S27.135,37.498,27.138,37.289z"/>
		</g>
		<g>
			<path fill="#FFFFFF" d="M33.132,37.065c0.062-0.011,0.12-0.001,0.176,0.026c0.054,0.028,0.103,0.076,0.144,0.142
				c0.04,0.065,0.073,0.146,0.097,0.242c0.024,0.098,0.036,0.21,0.036,0.338c-0.001,0.15-0.018,0.307-0.051,0.468
				c-0.031,0.16-0.08,0.313-0.145,0.458s-0.144,0.276-0.24,0.395c-0.097,0.117-0.207,0.208-0.334,0.272l-0.757,0.384l0.024-3.986
				l0.741-0.375c0.115-0.06,0.215-0.082,0.299-0.072c0.084,0.011,0.153,0.045,0.209,0.104c0.058,0.061,0.098,0.139,0.125,0.239
				c0.025,0.101,0.038,0.208,0.038,0.325c-0.002,0.205-0.032,0.397-0.094,0.573c-0.062,0.178-0.151,0.331-0.269,0.463V37.065
				L33.132,37.065z M32.763,35.993l-0.328,0.166l-0.007,1.052l0.303-0.153c0.119-0.06,0.213-0.147,0.282-0.264
				c0.07-0.115,0.105-0.28,0.106-0.493c0.001-0.145-0.026-0.248-0.085-0.31C32.978,35.929,32.888,35.929,32.763,35.993z
				 M32.751,37.547l-0.325,0.164l-0.009,1.36l0.369-0.185c0.13-0.066,0.232-0.183,0.308-0.347c0.074-0.164,0.112-0.345,0.113-0.541
				s-0.036-0.34-0.111-0.432C33.021,37.475,32.905,37.468,32.751,37.547z"/>
			<path fill="#FFFFFF" d="M34.932,38.379c-0.154,0.078-0.291,0.095-0.41,0.052c-0.12-0.045-0.223-0.137-0.305-0.274
				c-0.082-0.142-0.144-0.323-0.186-0.55c-0.042-0.225-0.062-0.479-0.061-0.766c0.002-0.285,0.025-0.564,0.069-0.835
				c0.045-0.271,0.109-0.52,0.193-0.745c0.085-0.227,0.189-0.423,0.31-0.592c0.121-0.167,0.259-0.29,0.412-0.367
				c0.155-0.079,0.293-0.095,0.415-0.05c0.118,0.045,0.22,0.138,0.302,0.28c0.083,0.142,0.146,0.324,0.188,0.553
				c0.042,0.226,0.063,0.482,0.061,0.768c-0.001,0.286-0.024,0.563-0.071,0.832c-0.045,0.271-0.11,0.518-0.195,0.742
				c-0.083,0.225-0.187,0.419-0.308,0.585C35.224,38.179,35.086,38.3,34.932,38.379z M34.935,37.833
				c0.1-0.052,0.187-0.131,0.262-0.241s0.14-0.244,0.19-0.401c0.052-0.158,0.091-0.335,0.117-0.531
				c0.028-0.194,0.041-0.403,0.043-0.623c0.001-0.219-0.01-0.415-0.035-0.585c-0.025-0.171-0.062-0.309-0.112-0.414
				s-0.112-0.176-0.187-0.21c-0.074-0.037-0.162-0.03-0.26,0.021c-0.099,0.049-0.185,0.131-0.261,0.243
				c-0.075,0.11-0.139,0.245-0.191,0.401c-0.051,0.156-0.09,0.332-0.116,0.528c-0.025,0.197-0.039,0.404-0.04,0.625
				c-0.001,0.22,0.009,0.416,0.034,0.585c0.023,0.169,0.061,0.308,0.11,0.414c0.05,0.108,0.112,0.177,0.188,0.211
				C34.75,37.891,34.837,37.882,34.935,37.833z"/>
			<path fill="#FFFFFF" d="M37.262,35.143l0.689,1.66l-0.396,0.2l-0.48-1.246l-0.006,0.002l-0.498,1.743l-0.397,0.202l0.717-2.349
				v-0.01l-0.679-1.635l0.395-0.2l0.472,1.216l0.007-0.003l0.478-1.697l0.396-0.2l-0.696,2.306V35.143L37.262,35.143z"/>
		</g>
		<path fill="none" stroke="#FFFFFF" stroke-width="10" stroke-linejoin="bevel" stroke-miterlimit="10" d="M28.82,26.76"/>
		<polygon fill="#FFFFFF" points="26.675,28.218 29.188,17.757 34.945,19.072 32.458,29.144 26.602,29.054 		"/>
		<path fill="#494949" d="M31.087,22.609c1.232,0.296,1.986,1.535,1.693,2.765c-0.297,1.229-1.534,1.99-2.767,1.691
			c-1.23-0.295-1.989-1.533-1.692-2.765C28.619,23.071,29.855,22.312,31.087,22.609z"/>
		<g>
			<path fill="#FFFFFF" d="M31.566,25.109c-0.021,0.064-0.045,0.129-0.075,0.19c-0.03,0.063-0.064,0.124-0.101,0.181
				c-0.037,0.057-0.075,0.109-0.116,0.157c-0.041,0.048-0.082,0.086-0.124,0.118l-0.24-0.256c0.077-0.065,0.141-0.135,0.192-0.208
				c0.053-0.073,0.1-0.16,0.141-0.261L30.6,24.875c-0.037,0.069-0.076,0.139-0.121,0.209c-0.043,0.069-0.095,0.13-0.156,0.181
				s-0.133,0.088-0.216,0.11c-0.082,0.022-0.179,0.021-0.289-0.006l-0.055-0.013c-0.059-0.015-0.117-0.041-0.174-0.077
				c-0.056-0.036-0.104-0.085-0.145-0.147c-0.04-0.062-0.069-0.139-0.085-0.23c-0.017-0.092-0.016-0.2,0.004-0.325l-0.175-0.041
				l0.055-0.228l0.172,0.041c0.033-0.108,0.079-0.213,0.139-0.313c0.06-0.101,0.13-0.18,0.211-0.235l0.218,0.245
				c-0.066,0.06-0.119,0.121-0.159,0.185c-0.039,0.064-0.068,0.129-0.089,0.196l0.623,0.15c0.069-0.126,0.134-0.228,0.195-0.305
				c0.062-0.077,0.122-0.135,0.185-0.174c0.062-0.038,0.127-0.058,0.193-0.063c0.067-0.004,0.141,0.003,0.218,0.022l0.024,0.005
				c0.113,0.027,0.203,0.067,0.27,0.12c0.065,0.052,0.115,0.116,0.147,0.187c0.032,0.071,0.05,0.151,0.054,0.238
				c0.002,0.087-0.006,0.179-0.021,0.275l0.212,0.05l-0.055,0.227L31.566,25.109z M29.894,24.989C29.938,25,29.978,25.004,30.009,25
				c0.032-0.003,0.062-0.013,0.089-0.029c0.027-0.016,0.051-0.041,0.075-0.069c0.022-0.031,0.048-0.067,0.072-0.111l-0.561-0.134
				c-0.008,0.062-0.008,0.114,0.002,0.154c0.009,0.04,0.023,0.072,0.042,0.096c0.018,0.024,0.038,0.04,0.06,0.05
				c0.021,0.009,0.038,0.015,0.054,0.019L29.894,24.989z M31.082,24.447c-0.035-0.009-0.067-0.014-0.099-0.016
				c-0.03-0.003-0.06,0.004-0.091,0.019c-0.029,0.014-0.058,0.039-0.088,0.071c-0.029,0.032-0.061,0.08-0.095,0.141l0.591,0.143
				c0.015-0.111,0.001-0.194-0.039-0.249c-0.039-0.054-0.09-0.089-0.147-0.102L31.082,24.447z"/>
		</g>
		<g>
			<path fill="#494949" d="M33.05,29.329l2.568-10.675l-6.736-1.622l-2.955,12.289 M26.928,29.069
				c-0.109-0.028-0.219-0.028-0.326-0.015l2.385-9.912c0.09,0.06,0.188,0.108,0.298,0.134c0.566,0.136,1.147-0.265,1.297-0.895
				c0.021-0.087,0.031-0.174,0.033-0.261l3.017,0.728c-0.035,0.077-0.064,0.158-0.088,0.246c-0.152,0.633,0.184,1.252,0.75,1.389
				c0.08,0.02,0.161,0.025,0.241,0.023l-2.077,8.638"/>
		</g>
		
			<line fill="none" stroke="#FFFFFF" stroke-width="0.5" stroke-linejoin="round" stroke-miterlimit="10" x1="25.026" y1="29.166" x2="34.404" y2="29.166"/>
	</g>
</g>
</svg>
