<?xml version="1.0" encoding="utf-8"?>
<!-- Generator: Adobe Illustrator 16.0.0, SVG Export Plug-In . SVG Version: 6.00 Build 0)  -->
<!DOCTYPE svg PUBLIC "-//W3C//DTD SVG 1.1//EN" "http://www.w3.org/Graphics/SVG/1.1/DTD/svg11.dtd">
<svg version="1.1" id="레이어_1" xmlns="http://www.w3.org/2000/svg" xmlns:xlink="http://www.w3.org/1999/xlink" x="0px"
	 y="0px" width="190px" height="100px" viewBox="0 0 190 100" enable-background="new 0 0 190 100" xml:space="preserve">
<g>
	<g>
		<path fill="#00498E" d="M18.271,78.246c-0.4,0.402-0.89,0.602-1.464,0.602c-0.577,0-1.064-0.199-1.466-0.602
			c-0.401-0.4-0.601-0.889-0.601-1.465c0-0.574,0.2-1.063,0.601-1.464c0.402-0.402,0.889-0.603,1.466-0.603
			c0.574,0,1.063,0.2,1.464,0.603c0.402,0.401,0.603,0.89,0.603,1.464C18.873,77.357,18.673,77.846,18.271,78.246z M19.294,74.373
			c-0.99-0.307-1.485-0.468-1.485-0.481c0.014-0.146,0.058-0.251,0.131-0.311c0.073-0.061,0.03-0.171-0.131-0.331
			c-0.133-0.146-0.518-0.248-1.154-0.301c-0.635-0.053-0.952,0.066-0.952,0.361c0,0.094,0.073,0.17,0.221,0.23
			c0.146,0.06,0.153,0.17,0.02,0.33c-0.014,0.015-0.536,0.182-1.565,0.502c-1.031,0.322-1.545,1.15-1.545,2.489
			c0,1.017,0.427,1.8,1.283,2.347c0.857,0.549,1.754,0.824,2.691,0.824c0.937,0,1.832-0.275,2.688-0.824
			c0.856-0.547,1.285-1.33,1.285-2.347C20.78,75.512,20.284,74.682,19.294,74.373z M24.823,84.187
			c-0.475,0.028-0.806,0.106-0.992,0.241c-0.202,0.133-0.432,0.218-0.693,0.251s-0.506,0.05-0.733,0.05l-3.211,0.041
			c-0.16,0-0.307-0.047-0.44-0.142c-0.135-0.093-0.202-0.234-0.202-0.421V82.34c0-0.36,0.027-0.661,0.08-0.902
			c0.054-0.24-0.173-0.395-0.682-0.461c-0.281-0.039-0.652-0.071-1.114-0.091c-0.46-0.021-0.846-0.017-1.153,0.009
			c-0.856,0.096-1.195,0.249-1.014,0.463c0.18,0.214,0.418,0.354,0.713,0.421c0.428,0.081,0.729,0.185,0.903,0.312
			c0.174,0.127,0.262,0.365,0.262,0.713v1.424c0,0.643,0.209,1.054,0.632,1.234c0.42,0.181,0.899,0.271,1.435,0.271l7.223-0.08
			c0.669,0,1.05-0.198,1.144-0.592c0.093-0.396-0.228-0.674-0.963-0.834C25.695,84.174,25.298,84.16,24.823,84.187z M28.285,76.561
			c0.669,0,1.044-0.199,1.124-0.602c0.08-0.401-0.233-0.668-0.943-0.803c-0.293-0.039-0.639-0.057-1.034-0.051
			c-0.395,0.008-0.646,0.064-0.751,0.172c-0.135,0.133-0.332,0.23-0.594,0.291c-0.26,0.059-0.518,0.104-0.772,0.129l-0.039-5.458
			c0-0.495,0.046-0.89,0.14-1.184s-0.054-0.509-0.44-0.643c-0.269-0.106-0.693-0.206-1.275-0.3s-0.946-0.147-1.093-0.162
			c-0.656-0.039-1.007,0.051-1.054,0.272c-0.047,0.22,0.123,0.417,0.512,0.591c0.495,0.201,0.846,0.382,1.053,0.542
			c0.207,0.161,0.311,0.455,0.311,0.883l0.08,9.573c0.013,0.723,0.055,1.358,0.122,1.906c0.067,0.549,0.246,0.816,0.541,0.803
			c0.308-0.014,0.579-0.357,0.813-1.033c0.233-0.676,0.351-1.549,0.351-2.619l-0.021-2.309H28.285z M20.608,71.484
			c-0.608-0.041-1.16,0.033-1.655,0.221c-0.388,0.147-1.09,0.233-2.107,0.261c-1.017,0.026-1.78,0.032-2.287,0.02
			c-0.577-0.013-1.057-0.033-1.446-0.06c-0.387-0.027-0.755-0.061-1.104-0.102c-0.414-0.053-0.775-0.012-1.084,0.121
			c-0.307,0.135-0.1,0.389,0.624,0.763c1.136,0.575,1.872,0.77,2.207,0.582c0.334-0.187,0.79-0.308,1.364-0.361
			c0.71-0.066,1.833-0.101,3.372-0.101c1.539,0,2.602,0.014,3.19,0.041c0.429,0,0.696-0.141,0.803-0.422
			c0.106-0.281-0.1-0.529-0.621-0.742C21.636,71.598,21.218,71.524,20.608,71.484z M19.555,69.979
			c0.053-0.374-0.395-0.575-1.345-0.602c-0.708-0.027-1.26-0.064-1.655-0.109c-0.396-0.048-0.845-0.111-1.355-0.191
			c-0.48-0.08-0.815-0.047-1.003,0.1c-0.188,0.147-0.114,0.342,0.221,0.582c0.388,0.255,0.729,0.459,1.023,0.612
			s0.568,0.244,0.823,0.271c0.334,0.014,0.672,0.02,1.013,0.02c0.34,0,0.745-0.02,1.214-0.059
			C19.147,70.561,19.502,70.354,19.555,69.979z"/>
		<path fill="#00498E" d="M43.095,75.452c0.027-0.214,0.078-0.484,0.151-0.813c0.074-0.326,0.15-0.705,0.23-1.133
			c0.094-0.508,0.175-1.054,0.242-1.635c0.067-0.582,0.107-1.088,0.12-1.516c-0.442,0.014-1.473,0.043-3.091,0.09
			c-1.62,0.047-2.434,0.07-2.449,0.07c-0.602,0.054-1.083,0.154-1.444,0.301c-0.36,0.147-1.197-0.087-2.508-0.702
			c-0.228-0.106-0.396-0.274-0.502-0.501c-0.107-0.228,0.322-0.309,1.285-0.241c0.696,0.093,2.187,0.13,4.476,0.11
			c2.287-0.021,3.591-0.077,3.912-0.171c0.295-0.106,0.639-0.181,1.033-0.221c0.396-0.04,0.746-0.026,1.054,0.04
			c0.615,0.135,0.833,0.342,0.652,0.622c-0.181,0.281-0.305,0.583-0.372,0.903c-0.013,0.053-0.094,0.425-0.241,1.113
			c-0.146,0.689-0.315,1.308-0.501,1.856c-0.107,0.335-0.214,0.649-0.321,0.942c-0.107,0.295-0.228,0.557-0.362,0.783
			c0.067-0.014,0.127-0.023,0.181-0.029c0.053-0.008,0.094-0.018,0.121-0.031c0.803-0.293,1.739-0.41,2.81-0.35
			c1.07,0.059,1.591,0.324,1.565,0.791c-0.014,0.336-0.261,0.533-0.744,0.594c-0.48,0.06-1.003,0.076-1.564,0.049
			c-0.656-0.04-1.439-0.06-2.348-0.06c-0.91,0-2.06,0.007-3.452,0.02v3.431c0.469-0.025,0.863-0.049,1.184-0.068
			c0.321-0.02,0.529-0.043,0.622-0.07c0.347-0.094,0.687-0.161,1.014-0.201c0.328-0.039,0.646-0.033,0.954,0.02
			c0.547,0.107,0.758,0.299,0.632,0.572c-0.127,0.274-0.199,0.565-0.211,0.873l0.02,2.588c0.014,0.83-0.114,1.539-0.38,2.129
			c-0.268,0.588-0.522,0.889-0.763,0.902c-0.214,0.014-0.385-0.225-0.511-0.713c-0.127-0.487-0.197-1.02-0.21-1.596l-0.061-3.512
			c-0.374,0.014-1.285,0.044-2.729,0.092c-1.446,0.046-2.174,0.07-2.188,0.07c-0.643,0.025-1.157,0.152-1.545,0.381
			c-0.387,0.228-1.277-0.027-2.668-0.764c-0.216-0.119-0.366-0.304-0.453-0.551c-0.087-0.248,0.304-0.324,1.173-0.232
			c0.39,0.055,0.977,0.092,1.767,0.111c0.79,0.021,1.598,0.023,2.428,0.01v-3.451c-0.978,0.027-1.705,0.064-2.188,0.111
			c-0.48,0.046-0.735,0.069-0.762,0.069c-0.628,0.054-1.139,0.177-1.535,0.372c-0.395,0.193-1.38-0.058-2.96-0.753
			c-0.615-0.268-0.83-0.489-0.642-0.663s0.562-0.246,1.125-0.221c0.588,0.027,1.105,0.064,1.554,0.111s1.174,0.069,2.177,0.069
			h4.213c0.269,0,0.697,0.003,1.286,0.011C41.957,75.469,42.534,75.465,43.095,75.452z"/>
		<path fill="#00498E" d="M63.364,75.452c0.027-0.214,0.076-0.484,0.149-0.813c0.073-0.326,0.151-0.705,0.231-1.133
			c0.093-0.508,0.173-1.054,0.24-1.635c0.067-0.582,0.108-1.088,0.122-1.516c-0.442,0.014-1.472,0.043-3.091,0.09
			c-1.618,0.047-2.434,0.07-2.448,0.07c-0.602,0.054-1.083,0.154-1.444,0.301c-0.363,0.147-1.199-0.087-2.51-0.702
			c-0.227-0.106-0.395-0.274-0.5-0.501c-0.107-0.228,0.32-0.309,1.284-0.241c0.695,0.093,2.187,0.13,4.474,0.11
			c2.289-0.021,3.593-0.077,3.914-0.171c0.293-0.106,0.638-0.181,1.033-0.221c0.395-0.04,0.746-0.026,1.054,0.04
			c0.615,0.135,0.831,0.342,0.651,0.622c-0.181,0.281-0.304,0.583-0.371,0.903c-0.014,0.053-0.094,0.425-0.241,1.113
			c-0.147,0.689-0.313,1.308-0.5,1.856c-0.108,0.335-0.216,0.649-0.323,0.942c-0.107,0.295-0.227,0.557-0.36,0.783
			c0.066-0.014,0.127-0.023,0.18-0.029c0.054-0.008,0.094-0.018,0.12-0.031c0.803-0.293,1.74-0.41,2.81-0.35
			c1.071,0.059,1.593,0.324,1.566,0.791c-0.013,0.336-0.261,0.533-0.742,0.594c-0.483,0.06-1.004,0.076-1.567,0.049
			c-0.655-0.04-1.437-0.06-2.347-0.06s-2.061,0.007-3.451,0.02v3.431c0.467-0.025,0.862-0.049,1.184-0.068
			c0.321-0.02,0.527-0.043,0.623-0.07c0.348-0.094,0.685-0.161,1.013-0.201c0.327-0.039,0.645-0.033,0.952,0.02
			c0.549,0.107,0.759,0.299,0.632,0.572c-0.127,0.274-0.196,0.565-0.209,0.873l0.02,2.588c0.014,0.83-0.115,1.539-0.383,2.129
			c-0.267,0.588-0.521,0.889-0.761,0.902c-0.215,0.014-0.386-0.225-0.513-0.713c-0.126-0.487-0.196-1.02-0.21-1.596l-0.06-3.512
			c-0.375,0.014-1.284,0.044-2.73,0.092c-1.443,0.046-2.173,0.07-2.187,0.07c-0.642,0.025-1.157,0.152-1.544,0.381
			c-0.389,0.228-1.278-0.027-2.67-0.764c-0.213-0.119-0.364-0.304-0.452-0.551c-0.086-0.248,0.305-0.324,1.175-0.232
			c0.387,0.055,0.977,0.092,1.766,0.111c0.789,0.021,1.599,0.023,2.429,0.01v-3.451c-0.976,0.027-1.706,0.064-2.187,0.111
			c-0.483,0.046-0.736,0.069-0.763,0.069c-0.63,0.054-1.142,0.177-1.536,0.372c-0.394,0.193-1.381-0.058-2.958-0.753
			c-0.617-0.268-0.83-0.489-0.643-0.663c0.187-0.174,0.562-0.246,1.124-0.221c0.59,0.027,1.106,0.064,1.555,0.111
			c0.449,0.047,1.175,0.069,2.179,0.069h4.214c0.267,0,0.695,0.003,1.284,0.011C62.226,75.469,62.801,75.465,63.364,75.452z"/>
		<path fill="#00498E" d="M82.136,75.578l-0.041-4.455c0-0.428-0.104-0.723-0.311-0.884c-0.207-0.159-0.545-0.341-1.013-0.542
			c-0.375-0.173-0.539-0.371-0.492-0.591c0.047-0.222,0.385-0.312,1.013-0.271c0.147,0.013,0.502,0.066,1.063,0.16
			c0.563,0.093,0.97,0.193,1.225,0.301c0.375,0.133,0.518,0.348,0.432,0.641c-0.087,0.296-0.131,0.69-0.131,1.186l0.082,10.234
			c0.027,1.404-0.065,2.527-0.271,3.371c-0.208,0.844-0.486,1.271-0.834,1.285c-0.308,0.012-0.498-0.346-0.572-1.074
			c-0.073-0.729-0.109-1.543-0.109-2.438l-0.04-5.899c-0.174,0.039-0.321,0.084-0.442,0.131c-0.121,0.046-0.188,0.069-0.201,0.069
			c-0.146,0.054-0.36,0.124-0.642,0.212c-0.281,0.086-0.875-0.138-1.786-0.674c-0.214-0.133-0.355-0.314-0.422-0.541
			c-0.066-0.229,0.248-0.308,0.943-0.241c0.309,0.04,0.692,0.058,1.154,0.05C81.203,75.602,81.667,75.592,82.136,75.578z
			 M85.447,70.239c0-0.428-0.105-0.722-0.312-0.883c-0.207-0.16-0.545-0.341-1.012-0.542c-0.376-0.174-0.539-0.371-0.492-0.591
			c0.047-0.222,0.385-0.312,1.012-0.272c0.147,0.015,0.503,0.068,1.063,0.162c0.563,0.094,0.971,0.193,1.225,0.3
			c0.375,0.134,0.517,0.349,0.43,0.643c-0.086,0.294-0.129,0.688-0.129,1.184l0.081,11.8c0.026,1.405-0.065,2.529-0.272,3.373
			c-0.207,0.842-0.485,1.27-0.832,1.283c-0.309,0.014-0.498-0.344-0.572-1.074c-0.073-0.729-0.111-1.541-0.111-2.438L85.447,70.239z
			 M77.119,77.184c-0.736,0.963-1.465,1.779-2.187,2.448c-0.723,0.669-1.357,1.149-1.908,1.444c-0.654,0.348-1.06,0.432-1.213,0.251
			c-0.155-0.181-0.124-0.337,0.09-0.472c1.03-0.723,2.1-1.855,3.21-3.4c1.11-1.547,2.027-3.229,2.75-5.047
			c-0.349,0.025-0.636,0.057-0.863,0.09c-0.229,0.033-0.456,0.057-0.683,0.068c-0.227,0.014-0.428,0.041-0.601,0.082
			c-0.174,0.04-0.268,0.06-0.281,0.06c-0.295,0.135-0.588,0.228-0.884,0.28c-0.295,0.055-0.862-0.167-1.705-0.662
			c-0.415-0.254-0.576-0.471-0.481-0.652c0.093-0.18,0.422-0.236,0.983-0.17c0.146,0.014,0.39,0.035,0.733,0.061
			c0.341,0.026,0.725,0.041,1.152,0.041c0.589,0,1.111-0.015,1.566-0.041c0.454-0.025,0.816-0.102,1.083-0.221
			c0.201-0.107,0.579-0.15,1.133-0.131c0.556,0.02,0.875,0.051,0.955,0.09c0.347,0.135,0.457,0.383,0.33,0.743
			c-0.127,0.362-0.323,0.729-0.591,1.103c-0.335,0.604-0.66,1.158-0.974,1.667c-0.313,0.509-0.646,1.011-0.993,1.505
			c0.214,0.268,0.464,0.545,0.753,0.832c0.287,0.289,0.471,0.466,0.552,0.531c0.199,0.135,0.371,0.215,0.511,0.242
			c0.14,0.027,0.311,0.127,0.513,0.301c0.213,0.174,0.414,0.502,0.601,0.982c0.187,0.482,0.308,0.804,0.362,0.964
			c0.147,0.536,0.029,0.833-0.352,0.894c-0.382,0.061-0.779-0.205-1.195-0.793c-0.134-0.188-0.45-0.608-0.953-1.264
			C78.032,78.354,77.561,77.744,77.119,77.184z"/>
		<path fill="#00498E" d="M99.91,84.508l-0.021-1.927l5.098-0.04v1.926L99.91,84.508z M106.834,80.775
			c0-0.334,0.042-0.608,0.128-0.822c0.087-0.215-0.103-0.396-0.571-0.542c-0.293-0.107-0.618-0.188-0.973-0.241
			c-0.355-0.054-0.646-0.08-0.873-0.08c-0.655,0.039-0.96,0.15-0.913,0.33c0.047,0.182,0.185,0.318,0.411,0.412
			c0.348,0.121,0.593,0.238,0.732,0.352c0.141,0.113,0.211,0.298,0.211,0.552v0.763l-5.098,0.039l-0.02-0.301
			c0-0.268,0.014-0.504,0.041-0.711c0.025-0.207-0.154-0.379-0.542-0.513c-0.295-0.08-0.603-0.147-0.924-0.2
			c-0.321-0.055-0.622-0.08-0.903-0.08c-0.682,0.053-0.986,0.18-0.914,0.381c0.074,0.201,0.186,0.32,0.332,0.361
			c0.389,0.093,0.663,0.211,0.823,0.352c0.161,0.141,0.24,0.352,0.24,0.631l0.04,3.191c0.014,0.655,0.1,1.116,0.262,1.385
			c0.16,0.268,0.355,0.402,0.582,0.402c0.254,0,0.475-0.118,0.662-0.352c0.188-0.234,0.287-0.413,0.301-0.533l5.138-0.039
			c0.013,0.105,0.083,0.246,0.21,0.422c0.127,0.172,0.311,0.26,0.553,0.26c0.281,0,0.527-0.184,0.741-0.551
			c0.214-0.369,0.323-0.854,0.323-1.456V80.775z M99.438,77.504c-0.381,0.375-0.846,0.563-1.395,0.563
			c-0.533,0-0.997-0.188-1.385-0.563c-0.389-0.375-0.582-0.829-0.582-1.364c0-0.548,0.193-1.007,0.582-1.374
			c0.388-0.368,0.852-0.553,1.385-0.553c0.549,0,1.014,0.185,1.395,0.553c0.381,0.367,0.572,0.826,0.572,1.374
			C100.01,76.675,99.818,77.129,99.438,77.504z M97.051,72.588c-0.074,0.053-0.111,0.127-0.111,0.221s0.072,0.171,0.22,0.23
			c0.146,0.061,0.153,0.171,0.021,0.331c-0.014,0.013-0.519,0.178-1.516,0.491c-0.996,0.316-1.494,1.102-1.494,2.357
			c0,0.938,0.408,1.677,1.225,2.219c0.814,0.541,1.698,0.813,2.648,0.813c0.709,0,1.395-0.156,2.057-0.473
			c0.662-0.313,1.154-0.744,1.476-1.293c0.95,0.521,1.567,0.738,1.856,0.652c0.287-0.086,0.512-0.158,0.672-0.211
			c0.014-0.014,0.119-0.054,0.32-0.119c0.201-0.068,0.416-0.115,0.643-0.142c0.067-0.013,0.128-0.021,0.181-0.021
			c0.027,0.43,0.087,0.766,0.181,1.014c0.093,0.248,0.234,0.364,0.422,0.352c0.268-0.014,0.527-0.285,0.781-0.813
			c0.255-0.529,0.383-1.309,0.383-2.338l-0.061-5.62c0-0.495,0.047-0.89,0.141-1.184s-0.053-0.509-0.441-0.643
			c-0.269-0.106-0.693-0.206-1.273-0.3c-0.584-0.094-0.947-0.147-1.096-0.162c-0.655-0.039-1.007,0.051-1.053,0.272
			c-0.047,0.22,0.123,0.417,0.512,0.591c0.494,0.201,0.846,0.382,1.053,0.542c0.207,0.161,0.313,0.455,0.313,0.883l0.039,3.212
			c-0.535,0.026-1.09,0.046-1.666,0.06c-0.574,0.013-1.043-0.007-1.404-0.06c-0.736-0.067-1.066,0.013-0.992,0.24
			c0.072,0.228,0.223,0.408,0.451,0.542c0.977,0.534,1.607,0.759,1.896,0.673c0.287-0.088,0.512-0.158,0.672-0.213
			c0.014-0.012,0.119-0.053,0.32-0.119s0.416-0.113,0.643-0.141c0.041-0.014,0.074-0.021,0.102-0.021l0.039,2.249v0.02
			c-0.549,0.026-1.114,0.047-1.695,0.061c-0.583,0.013-1.062-0.008-1.436-0.061c-0.039,0-0.076-0.004-0.11-0.01
			c-0.032-0.007-0.063-0.01-0.09-0.01c0.014-0.067,0.023-0.137,0.03-0.211c0.008-0.074,0.01-0.145,0.01-0.211
			c0-1.244-0.479-2.027-1.435-2.349c-0.957-0.321-1.436-0.487-1.436-0.502c0.013-0.146,0.058-0.25,0.132-0.31
			c0.072-0.061,0.029-0.171-0.132-0.332c-0.053-0.066-0.178-0.127-0.372-0.18c-0.193-0.055-0.404-0.088-0.631-0.101
			c0.843-0.026,1.734-0.037,2.679-0.03c0.943,0.006,1.622,0.023,2.038,0.05c0.427,0,0.693-0.14,0.803-0.421
			c0.105-0.281-0.1-0.527-0.623-0.743c-0.228-0.106-0.646-0.181-1.254-0.22c-0.609-0.041-1.161,0.033-1.656,0.22
			c-0.387,0.147-1.057,0.235-2.007,0.261c-0.95,0.027-1.679,0.033-2.188,0.021c-0.575-0.015-1.056-0.035-1.444-0.063
			c-0.389-0.025-0.756-0.059-1.103-0.1c-0.417-0.053-0.777-0.014-1.085,0.121c-0.309,0.135-0.1,0.388,0.621,0.762
			c1.138,0.576,1.875,0.77,2.207,0.583c0.336-0.188,0.791-0.308,1.366-0.361c0.12-0.014,0.261-0.023,0.421-0.03
			s0.328-0.018,0.502-0.03C97.213,72.5,97.124,72.535,97.051,72.588z M100.833,69.778c0.054-0.375-0.396-0.575-1.345-0.603
			c-0.709-0.027-1.261-0.063-1.656-0.11c-0.395-0.046-0.847-0.11-1.354-0.19c-0.482-0.08-0.816-0.047-1.004,0.1
			c-0.188,0.148-0.114,0.342,0.221,0.583c0.387,0.254,0.729,0.458,1.023,0.612c0.293,0.153,0.568,0.244,0.822,0.271
			c0.336,0.013,0.672,0.021,1.014,0.021c0.341,0,0.745-0.021,1.215-0.061C100.424,70.361,100.779,70.152,100.833,69.778z"/>
		<path fill="#00498E" d="M125.104,71.885l-0.02-1.646c0-0.428-0.104-0.722-0.312-0.883c-0.207-0.16-0.558-0.341-1.053-0.542
			c-0.389-0.174-0.559-0.371-0.513-0.591c0.047-0.222,0.397-0.312,1.054-0.272c0.146,0.015,0.512,0.068,1.094,0.162
			s1.007,0.193,1.273,0.3c0.39,0.134,0.537,0.349,0.443,0.643c-0.095,0.294-0.141,0.688-0.141,1.184l0.061,5.96
			c0,1.03-0.129,1.863-0.383,2.499s-0.515,0.96-0.782,0.974c-0.255,0.014-0.421-0.225-0.501-0.713s-0.127-1.094-0.141-1.816
			l-0.021-0.822c-0.054,0-0.127,0.007-0.22,0.02c-0.243,0.027-0.467,0.074-0.674,0.141c-0.208,0.067-0.316,0.107-0.33,0.121
			c-0.175,0.053-0.412,0.123-0.713,0.211c-0.301,0.087-0.967-0.138-1.996-0.673c-0.242-0.134-0.399-0.313-0.473-0.542
			c-0.073-0.227,0.278-0.307,1.055-0.24c0.348,0.04,0.838,0.057,1.475,0.05c0.635-0.007,1.254-0.017,1.856-0.03l-0.021-2.529h-0.04
			c-0.241,0.027-0.466,0.074-0.672,0.141c-0.208,0.068-0.317,0.107-0.331,0.121c-0.175,0.055-0.412,0.125-0.713,0.211
			c-0.303,0.087-0.967-0.137-1.998-0.672c-0.053-0.027-0.1-0.059-0.139-0.092c-0.041-0.032-0.081-0.063-0.121-0.089l-0.281,1.484
			c0.014,0,0.109,0.021,0.291,0.062c0.181,0.039,0.271,0.14,0.271,0.3c0,0.174-0.05,0.312-0.149,0.411
			c-0.1,0.101-0.364,0.15-0.793,0.15h-4.495v2.469c0,0.201,0.063,0.342,0.191,0.422c0.126,0.08,0.296,0.121,0.512,0.121
			c0.573,0,1.444-0.094,2.607-0.281s2.16-0.402,2.99-0.643c0.415-0.121,0.599-0.044,0.552,0.23c-0.047,0.275-0.205,0.465-0.472,0.57
			c-0.856,0.336-1.929,0.67-3.221,1.004c-1.291,0.336-2.403,0.516-3.341,0.543c-0.643,0.014-1.094-0.09-1.355-0.311
			c-0.26-0.222-0.391-0.639-0.391-1.256v-2.287c0-0.388-0.09-0.625-0.271-0.713c-0.182-0.086-0.452-0.163-0.813-0.23
			c-0.414-0.08-0.563-0.23-0.44-0.451c0.12-0.221,0.44-0.357,0.964-0.412c0.373-0.026,0.809-0.006,1.303,0.061
			c0.496,0.067,0.91,0.121,1.244,0.16c0.106,0.015,0.59,0.021,1.445,0.021s1.438,0,1.746,0l0.04-2.728
			c-0.228,0-0.622,0.005-1.185,0.019c-0.562,0.014-0.955,0.034-1.184,0.062c-0.228,0.012-0.442,0.035-0.643,0.07
			c-0.201,0.033-0.307,0.049-0.32,0.049c-0.201,0.053-0.475,0.125-0.823,0.211c-0.348,0.088-1.004-0.15-1.967-0.713
			c-0.255-0.146-0.348-0.311-0.281-0.491c0.067-0.181,0.389-0.251,0.964-0.211c0.387,0.026,0.762,0.054,1.124,0.08
			c0.36,0.026,0.749,0.054,1.163,0.081c0.483,0.014,1.07,0.01,1.768-0.011c0.693-0.021,1.123-0.07,1.283-0.15
			c0.267-0.12,0.608-0.197,1.023-0.23c0.415-0.034,0.79-0.004,1.123,0.09c0.455,0.134,0.586,0.339,0.392,0.612
			c-0.192,0.275-0.317,0.533-0.371,0.773l-0.079,0.48c0.079-0.026,0.18-0.043,0.299-0.05c0.121-0.007,0.262,0.003,0.424,0.03
			c0.32,0.041,0.778,0.057,1.373,0.051C123.924,71.91,124.516,71.898,125.104,71.885z M126.791,83.484
			c0.014,0.829-0.115,1.539-0.382,2.127c-0.267,0.589-0.522,0.891-0.762,0.904c-0.216,0.012-0.388-0.225-0.514-0.713
			c-0.126-0.489-0.196-1.021-0.209-1.596l-0.06-2.91c-0.377,0.014-1.287,0.044-2.73,0.091c-1.445,0.046-2.174,0.069-2.188,0.069
			c-0.643,0.027-1.156,0.154-1.547,0.382c-0.387,0.228-1.276-0.026-2.667-0.763c-0.214-0.119-0.364-0.304-0.451-0.551
			c-0.087-0.248,0.304-0.325,1.173-0.231c0.803,0.12,2.244,0.164,4.324,0.13c2.081-0.033,3.282-0.098,3.602-0.19
			c0.35-0.095,0.688-0.161,1.014-0.2c0.33-0.041,0.646-0.033,0.955,0.02c0.548,0.107,0.758,0.299,0.631,0.572
			s-0.197,0.564-0.21,0.873L126.791,83.484z"/>
		<path fill="#00498E" d="M146.643,84.227c0.737,0.16,1.058,0.438,0.964,0.834c-0.093,0.394-0.474,0.592-1.144,0.592l-7.265,0.08
			c-0.534,0-1.012-0.091-1.435-0.271c-0.421-0.181-0.633-0.592-0.633-1.234V82.16c0-0.348-0.086-0.586-0.26-0.712
			c-0.174-0.128-0.475-0.231-0.903-0.312c-0.294-0.066-0.532-0.207-0.712-0.422c-0.181-0.215,0.155-0.367,1.012-0.461
			c0.31-0.027,0.694-0.03,1.154-0.01c0.463,0.02,0.833,0.05,1.115,0.09c0.508,0.066,0.734,0.221,0.682,0.461
			c-0.053,0.241-0.08,0.542-0.08,0.902v2.51c0,0.187,0.066,0.328,0.199,0.421c0.134,0.095,0.283,0.142,0.443,0.142l3.25-0.041
			c0.228,0,0.472-0.017,0.732-0.05s0.492-0.118,0.692-0.251c0.187-0.135,0.519-0.213,0.995-0.241
			C145.925,84.16,146.322,84.174,146.643,84.227z M145.941,75.217c0.254-0.027,0.514-0.07,0.773-0.131s0.457-0.156,0.592-0.291
			c0.105-0.106,0.357-0.164,0.752-0.17c0.396-0.008,0.738,0.01,1.034,0.049c0.708,0.135,1.023,0.402,0.943,0.804
			s-0.456,0.603-1.124,0.603h-2.971l0.021,2.789c0,1.07-0.119,1.943-0.352,2.619c-0.234,0.676-0.506,1.02-0.813,1.033
			c-0.297,0.014-0.477-0.254-0.543-0.803c-0.067-0.548-0.107-1.184-0.121-1.906l-0.02-3.191c-0.963,0.402-2.426,0.873-4.385,1.414
			c-1.961,0.542-3.463,0.813-4.507,0.813c-0.56,0-0.969-0.093-1.224-0.279c-0.253-0.188-0.381-0.59-0.381-1.205v-4.535
			c0-0.374-0.1-0.609-0.299-0.701c-0.203-0.094-0.523-0.188-0.964-0.281c-0.257-0.067-0.444-0.208-0.571-0.422
			c-0.13-0.214,0.176-0.375,0.912-0.482c0.293-0.039,0.719-0.035,1.274,0.01c0.555,0.048,1.087,0.105,1.596,0.172
			c0.187,0.014,0.653,0.029,1.403,0.05s1.23-0.05,1.446-0.21c0.308-0.201,0.688-0.315,1.144-0.342
			c0.455-0.027,0.881-0.014,1.283,0.039c0.615,0.08,0.906,0.313,0.873,0.693c-0.033,0.382-0.392,0.612-1.072,0.692
			c-0.416,0.04-1.288,0.063-2.618,0.071c-1.333,0.006-2.152,0.01-2.459,0.01v4.695c0,0.215,0.06,0.354,0.181,0.422
			c0.119,0.066,0.266,0.1,0.439,0.1c0.79,0,2.072-0.184,3.846-0.553c1.771-0.367,3.125-0.705,4.063-1.012l-0.041-5.54
			c0-0.428-0.104-0.722-0.311-0.883c-0.207-0.16-0.559-0.341-1.053-0.542c-0.39-0.174-0.559-0.371-0.512-0.591
			c0.047-0.222,0.396-0.312,1.053-0.272c0.146,0.015,0.512,0.068,1.095,0.162c0.581,0.094,1.005,0.193,1.272,0.3
			c0.389,0.134,0.536,0.349,0.443,0.643c-0.094,0.294-0.141,0.688-0.141,1.184L145.941,75.217z"/>
	</g>
	<g>
		<rect x="77.02" y="14.367" fill="#00498E" width="7.425" height="42.657"/>
		<polygon fill="#00498E" points="37.747,57.028 24.162,34.894 35.783,14.368 28.38,14.368 19.412,30.362 19.412,14.367 
			12.118,14.367 12.118,57.028 19.412,57.028 19.412,40.413 29.822,57.028 		"/>
		<g>
			<path fill="#00498E" d="M63.578,15.822c-2.217-1.707-4.851-2.074-9.147-2.074s-6.926,0.368-9.14,2.074
				c-2.225,1.713-2.459,3.563-2.459,6.039v27.675c0,2.479,0.234,4.327,2.459,6.037c2.214,1.712,4.844,2.078,9.14,2.078
				s6.93-0.366,9.147-2.078c2.219-1.71,2.456-3.559,2.456-6.037V21.861C66.034,19.385,65.797,17.535,63.578,15.822z M58.839,50.284
				c0,2.889-1.351,4.046-4.408,4.046c-3.053,0-4.406-1.157-4.406-4.046V21.112c0-2.885,1.353-4.044,4.406-4.044
				c3.056,0,4.408,1.159,4.408,4.044V50.284z"/>
			<g>
				<path fill="#00498E" d="M109.842,51.15c0,1.738-0.91,3.188-3.454,3.188c-2.425,0-3.741-1.123-3.741-3.205V20.262
					c0-2.039,1.051-3.187,3.74-3.187c2.387,0,3.455,1.148,3.455,3.167v4.921h7.631V22.05c0-2.478-0.229-4.521-2.455-6.228
					c-2.059-1.578-4.375-2.074-8.34-2.074c-4.129,0-6.555,0.368-8.771,2.074c-2.223,1.713-2.455,3.563-2.455,6.039v27.675
					c0,2.479,0.232,4.327,2.455,6.037c2.217,1.712,4.643,2.078,8.771,2.078c3.965,0,6.121-0.366,8.34-2.078
					c2.223-1.71,2.455-3.747,2.455-6.223v-3.959h-7.631V51.15z"/>
			</g>
		</g>
		<g>
			<path fill="#00498E" d="M161.174,37.429c0,0,2.332-0.142,4.5,0.911c2.172,1.052,3.361,2.907,3.361,2.907
				s-2.334,0.145-4.502-0.908C162.363,39.286,161.174,37.429,161.174,37.429z"/>
			<path fill="#00498E" d="M146.957,35.507c0,0,2.383,0.118,4.652-0.934c2.271-1.05,3.57-2.873,3.57-2.873s-2.385-0.118-4.657,0.934
				C148.252,33.687,146.957,35.507,146.957,35.507z"/>
			<path fill="#00498E" d="M147.375,36.151c0,0,2.266-0.325,4.424,0.47c2.152,0.797,3.391,2.412,3.391,2.412
				s-2.258,0.326-4.416-0.469C148.612,37.767,147.375,36.151,147.375,36.151z"/>
			<path fill="#00498E" d="M154.51,35.157c0,0,2.229,0.58,4.658,0.011c2.428-0.568,4.137-2.069,4.137-2.069
				s-2.229-0.582-4.656-0.015C156.219,33.652,154.51,35.157,154.51,35.157z"/>
			<path fill="#00498E" d="M154.592,35.761c0,0,0.678,1.955,2.432,3.323c1.75,1.363,3.922,1.628,3.922,1.628
				s-0.676-1.955-2.432-3.32C156.762,36.027,154.592,35.761,154.592,35.761z"/>
			<path fill="#00498E" d="M161.219,36.798c0,0,2.434,0.437,4.922-0.298c2.486-0.729,4.094-2.345,4.094-2.345
				s-2.432-0.43-4.922,0.298C162.826,35.186,161.219,36.798,161.219,36.798z"/>
			<path fill="#00498E" d="M170,37.184c0,0,2.09-0.423,3.783-1.8c1.689-1.378,2.338-3.188,2.338-3.188s-2.088,0.423-3.777,1.804
				C170.65,35.376,170,37.184,170,37.184z"/>
			<path fill="#00498E" d="M175.768,36.075c0,0,2.48-0.087,4.666-1.472c2.184-1.382,3.252-3.544,3.252-3.544
				s-2.473,0.253-4.654,1.641C176.84,34.081,175.768,36.075,175.768,36.075z"/>
			<path fill="#00498E" d="M169.232,38.193c0,0,1.768,1.197,4.02,1.394c2.262,0.193,4.146-0.69,4.146-0.69s-1.775-1.203-4.027-1.396
				C171.111,37.308,169.232,38.193,169.232,38.193z"/>
		</g>
		<path fill="#00498E" d="M146.5,36.427c-2.676,0.627-4.867,1.59-6.661,2.697l-0.293-1.521c-0.001,0.001-0.003,0.003-0.004,0.004
			v-0.002c-1.837,0.831-3.86,2-5.833,3.637l0,0l3.171-16.412h0.236l-0.026,0.074l2.452,12.701c3.592-1.623,6.459-1.957,6.8-1.993
			l-4.098-21.169h-10.531L123.465,57h7.2l1.769-9.166l0.094-0.296c0.379-1.004,2.223-5.276,7.31-8.41l3.466,17.948h7.199
			L146.5,36.427z"/>
	</g>
</g>
</svg>
