<?xml version="1.0" encoding="utf-8"?>
<!-- Generator: Adobe Illustrator 16.0.0, SVG Export Plug-In . SVG Version: 6.00 Build 0)  -->
<!DOCTYPE svg PUBLIC "-//W3C//DTD SVG 1.1//EN" "http://www.w3.org/Graphics/SVG/1.1/DTD/svg11.dtd">
<svg version="1.1" id="레이어_1" xmlns="http://www.w3.org/2000/svg" xmlns:xlink="http://www.w3.org/1999/xlink" x="0px"
	 y="0px" width="154px" height="50px" viewBox="0 0 154 50" enable-background="new 0 0 154 50" xml:space="preserve">
<rect x="-3.333" y="-8.667" fill="#F1F2F6" width="162.167" height="67.833"/>
<g opacity="0.2">
	<g>
		<path fill="none" stroke="#4B4C4B" stroke-width="3" stroke-linecap="round" d="M25.834,21.201c0,0-12.866-9.846-7.886-19.516
			c0,0,5.407,1.292,2.607,9.561"/>
		<path fill="none" stroke="#4B4C4B" stroke-width="3" stroke-linecap="round" d="M20.82,16.171
			c-3.457-2.282-7.968-3.622-12.953-0.947c0,0,0.624,5.958,9.894,2.496"/>
	</g>
	<g>
		<path fill="#4B4C4B" d="M22.7,12.517c1.129-0.242,3.581-0.454,5.867-0.454c2.644,0,4.242,0.212,5.674,0.999
			c1.46,0.757,2.507,2.21,2.507,4.208c0,1.695-0.854,3.36-3.03,4.269v0.06c2.258,0.696,3.636,2.543,3.636,4.963
			c0,1.938-0.854,3.451-2.094,4.48c-1.377,1.15-3.691,1.816-7.658,1.816c-2.259,0-3.912-0.15-4.903-0.363V12.517z M27.63,20.055
			h0.992c2.121,0,3.14-0.817,3.14-2.119c0-1.181-0.826-1.938-2.506-1.938c-0.826,0-1.294,0.061-1.625,0.121V20.055z M27.63,28.802
			c0.358,0.061,0.799,0.061,1.433,0.061c1.652,0,3.057-0.727,3.057-2.543c0-1.725-1.432-2.391-3.305-2.391H27.63V28.802z"/>
		<path fill="#4B4C4B" d="M45.066,12.215v20.401h-4.985V12.215H45.066z"/>
		<path fill="#4B4C4B" d="M47.353,29.71l8.208-12.864v-0.121h-7.438v-4.51h13.883v3.118l-7.96,12.653v0.121h8.099v4.51H47.353V29.71
			z"/>
	</g>
	<rect x="11.001" y="39.296" fill="#4B4C4B" width="57.539" height="2.219"/>
	<rect x="68.54" y="39.296" fill="#4B4C4B" width="80.269" height="2.219"/>
	<g>
		<path fill="none" stroke="#4B4C4B" stroke-width="3" stroke-linecap="round" d="M108.594,18.96
			c2.914,2.965,2.875,7.73-0.088,10.648c-2.965,2.916-7.732,2.875-10.648-0.088c-2.916-2.965-2.875-7.732,0.088-10.647"/>
		<path fill="none" stroke="#4B4C4B" stroke-width="2" stroke-linecap="round" d="M103.756,23.349c0,0.264-0.213,0.479-0.477,0.479
			s-0.479-0.215-0.479-0.479v-8.417c0-0.264,0.215-0.478,0.479-0.478s0.477,0.214,0.477,0.478V23.349z"/>
	</g>
	<g>
		<path fill="#4B4C4B" d="M80.65,17.844c-0.158,1.19-0.256,2.955-0.297,5.294c-0.039,2.34,0.061,4.105,0.297,5.295
			c0,0.475,0.158,0.951,0.477,1.428c0.316,0.477,0.674,0.436,1.07-0.119c0.238-0.316,0.477-0.734,0.715-1.25
			c0.238-0.514,0.475-1.051,0.713-1.605c0.16-0.555,0.338-1.092,0.535-1.605c0.199-0.516,0.418-0.973,0.654-1.369l0.477,0.238
			c-0.158,0.477-0.316,0.992-0.477,1.547c-0.158,0.555-0.316,1.111-0.475,1.666c-0.158,0.635-0.338,1.229-0.535,1.783
			c-0.199,0.557-0.418,1.031-0.654,1.428c-0.477,0.795-1.15,1.289-2.023,1.488c-0.873,0.197-1.586-0.813-2.143-3.033
			c-0.475-1.428-0.713-3.213-0.713-5.355c0-2.14,0.119-4.203,0.357-6.186c0.158-1.19,0.574-1.666,1.248-1.428
			C80.553,16.297,80.809,16.892,80.65,17.844z M86.719,18.795c-0.238,1.349-0.338,3.153-0.297,5.413
			c0.039,2.262,0.178,3.947,0.416,5.057c0.158,0.873,0.357,1.369,0.596,1.488c0.236,0.119,0.514,0.02,0.832-0.297
			c0.477-0.557,0.951-1.428,1.428-2.619c0.477-1.189,0.912-2.498,1.309-3.926c0.396-1.427,0.734-2.855,1.012-4.283
			s0.535-2.736,0.773-3.926l0.594,0.357c-0.158,1.189-0.336,2.499-0.535,3.926c-0.197,1.428-0.455,2.855-0.773,4.283
			c-0.316,1.506-0.693,2.895-1.129,4.164c-0.438,1.27-0.934,2.26-1.488,2.975c-0.713,0.871-1.525,1.289-2.439,1.248
			c-0.912-0.039-1.605-1.09-2.082-3.152c-0.316-1.348-0.494-3.014-0.535-4.996c-0.039-1.983,0.061-3.927,0.297-5.83
			c0.16-1.27,0.576-1.805,1.25-1.606C86.619,17.269,86.877,17.844,86.719,18.795z"/>
		<path fill="#4B4C4B" d="M123.125,30.845l-0.475,0.475c-0.793-0.713-2.201-1.863-4.225-3.449c-2.021-1.588-3.787-2.816-5.293-3.689
			c0-0.238,0.139-0.555,0.416-0.951s0.574-0.596,0.893-0.596c1.664,1.189,3.35,2.617,5.055,4.283
			C121.203,28.583,122.412,29.892,123.125,30.845z M115.869,25.608l-1.428,6.545c-0.16,0.633-0.377,0.932-0.654,0.893
			c-0.279-0.041-0.338-0.457-0.18-1.25l1.547-15.11c0.08-0.793,0.496-1.11,1.25-0.952s1.051,0.516,0.893,1.071l-0.119,0.714
			c0.475-0.476,1.01-0.853,1.605-1.13c0.596-0.277,1.289-0.417,2.082-0.417c1.031,0,1.865,0.377,2.498,1.13
			c0.635,0.754,0.834,1.686,0.596,2.796c-0.318,1.507-1.229,2.777-2.736,3.808S117.93,25.37,115.869,25.608z M116.105,24.538
			c1.746-0.238,3.094-0.832,4.047-1.785c0.951-0.951,1.545-1.903,1.783-2.855c0.16-0.793,0.061-1.428-0.297-1.903
			c-0.357-0.476-0.773-0.714-1.25-0.714c-0.635,0-1.268,0.178-1.902,0.535c-0.635,0.357-1.15,0.813-1.547,1.368L116.105,24.538z"/>
		<path fill="#4B4C4B" d="M130.502,17.162c-0.236,1.031-0.475,2.002-0.713,2.915c-0.238,0.912-0.477,1.884-0.715,2.915
			c-0.238,1.111-0.516,2.359-0.832,3.748c-0.318,1.389-0.715,3.033-1.189,4.938c-0.238,0.793-0.457,1.15-0.654,1.07
			c-0.199-0.078-0.219-0.477-0.061-1.189c0.158-1.27,0.318-2.559,0.477-3.867s0.316-2.598,0.475-3.867
			c0.16-1.268,0.318-2.498,0.477-3.687c0.158-1.19,0.318-2.34,0.477-3.451c0.158-0.714,0.615-1.011,1.367-0.892
			C130.363,15.913,130.66,16.368,130.502,17.162z M138.236,18.352c-0.555,0.793-1.289,1.686-2.201,2.677
			c-0.912,0.992-1.844,2.002-2.797,3.033c-1.031,0.953-2.041,1.885-3.033,2.797s-1.844,1.645-2.559,2.201
			c-0.475,0.475-0.773,0.635-0.893,0.475c-0.119-0.158,0.061-0.475,0.535-0.951c0.557-0.635,1.211-1.348,1.965-2.141
			c0.754-0.795,1.525-1.666,2.318-2.619c0.795-0.951,1.607-1.982,2.439-3.092c0.834-1.111,1.646-2.34,2.439-3.688
			c0.318-0.555,0.793-0.654,1.428-0.297C138.514,17.102,138.633,17.638,138.236,18.352z M130.502,23.11
			c-0.236-0.396-0.277-0.634-0.119-0.714c0.16-0.078,0.396,0.04,0.715,0.357c0.713,0.873,1.725,2.143,3.033,3.809
			c1.309,1.664,2.24,2.895,2.797,3.688c0.316,0.555,0.219,1.09-0.299,1.605c-0.514,0.516-1.01,0.416-1.486-0.297
			c-0.555-1.031-1.348-2.459-2.379-4.283S130.979,24.062,130.502,23.11z"/>
		<path fill="#4B4C4B" d="M142.281,17.519c1.031-1.031,2.379-1.547,4.045-1.547c0.715,0,1.309,0.06,1.785,0.178
			c0.475,0.12,0.713,0.417,0.713,0.893c0,0.476-0.217,0.734-0.654,0.773c-0.436,0.04-1.01,0.06-1.725,0.06
			c-1.111,0-1.963,0.317-2.559,0.952c-0.594,0.635-0.893,1.428-0.893,2.38c0,0.634,0.318,1.15,0.953,1.546
			c0.635,0.396,1.348,0.834,2.141,1.309c0.715,0.477,1.408,1.012,2.082,1.607c0.676,0.594,1.012,1.289,1.012,2.082
			c0,1.428-0.436,2.598-1.309,3.51s-1.982,1.367-3.332,1.367c-0.475,0-1.148-0.139-2.021-0.416s-1.904-1.17-3.094-2.678l0.357-0.475
			c1.189,1.189,2.201,1.863,3.033,2.021c0.834,0.16,1.408,0.238,1.725,0.238c0.715,0,1.35-0.316,1.904-0.951
			s0.832-1.428,0.832-2.379c0-0.635-0.355-1.17-1.07-1.607c-0.713-0.436-1.467-0.893-2.26-1.367
			c-0.793-0.398-1.527-0.893-2.201-1.488c-0.674-0.594-1.012-1.368-1.012-2.319C140.734,19.779,141.25,18.549,142.281,17.519z"/>
	</g>
</g>
</svg>
