<?xml version="1.0" encoding="utf-8"?>
<!-- Generator: Adobe Illustrator 16.0.0, SVG Export Plug-In . SVG Version: 6.00 Build 0)  -->
<!DOCTYPE svg PUBLIC "-//W3C//DTD SVG 1.1//EN" "http://www.w3.org/Graphics/SVG/1.1/DTD/svg11.dtd">
<svg version="1.1" id="레이어_1" xmlns="http://www.w3.org/2000/svg" xmlns:xlink="http://www.w3.org/1999/xlink" x="0px"
	 y="0px" width="100px" height="100px" viewBox="0 0 100 100" enable-background="new 0 0 100 100" xml:space="preserve">
<linearGradient id="SVGID_1_" gradientUnits="userSpaceOnUse" x1="257.1221" y1="-319.0439" x2="341.3252" y2="-319.0439" gradientTransform="matrix(1 0 0 -1 -247.6602 -268.96)">
	<stop  offset="0" style="stop-color:#E91E63"/>
	<stop  offset="1" style="stop-color:#F56388"/>
</linearGradient>
<path fill="url(#SVGID_1_)" d="M93.665,35.541c0-12.555-9.546-21.507-22.115-21.507c-8.716,0-16.292,3.679-20.112,10.881
	c-4.026-6.374-11.129-10.608-19.231-10.608c-12.557,0-22.744,10.177-22.744,22.742c0,6.535,2.762,12.416,7.173,16.563l0,0
	l0.012,0.013c0.109,0.102,0.218,0.205,0.325,0.31l34.6,32.201l32.906-31.679l0.878-0.853C90.047,48.757,93.665,42.899,93.665,35.541
	z"/>
</svg>
