<svg xmlns="http://www.w3.org/2000/svg" width="117.676" height="25.09" viewBox="0 0 117.676 25.09">
  <path id="logo" d="M5.486-22.88H9.048v3.2h3.38v3.094H1.976v-3.094h3.51ZM2.444-7.41c0-3.328.572-5.824,2.028-7.072a4.346,4.346,0,0,1,2.86-.936,4.346,4.346,0,0,1,2.86.936c1.456,1.248,2.028,3.744,2.028,7.072s-.572,5.824-2.028,7.072A4.346,4.346,0,0,1,7.332.6a4.346,4.346,0,0,1-2.86-.936C3.016-1.586,2.444-4.082,2.444-7.41Zm3.406,0c0,2.574.234,4.056.754,4.68a1.011,1.011,0,0,0,.728.338A1.011,1.011,0,0,0,8.06-2.73c.52-.624.754-2.106.754-4.68,0-2.548-.234-4.056-.754-4.68a1.011,1.011,0,0,0-.728-.338,1.011,1.011,0,0,0-.728.338C6.084-11.466,5.85-9.958,5.85-7.41ZM18.8,1.69v-11.6h-1.56V1.4H13.91V-22.048h3.328v9.022H18.8v-9.152h3.38V1.69ZM34.684-18.668H32.162V-2.99h2.21a31.794,31.794,0,0,0,.312-5.174ZM28.678-2.99V-18.668h-2v-3.094H40.248v3.094H38.194V-8.346A25.217,25.217,0,0,1,37.7-2.99h.78c1.924,0,3.354-.312,4.108-.962V-22.178H46.15V1.69H42.588V-1.066C41.808-.286,40.04.1,37.8.1H26.39V-2.99ZM59.462-13.65v-8.112H63V-13h3.9v-9.178H70.46V1.69H66.9v-11.6H63V.1H51.246V-21.762h3.536v8.112Zm0,3.094h-4.68V-2.99h4.68Zm25.922-2.7c-1.716,2.5-5.174,4.94-10.218,5.824v-3.12c5.46-1.274,8.424-4.5,8.424-9.7v-1.638h3.562v1.638c0,5.2,2.99,8.424,8.45,9.7v3.12C90.558-8.32,87.1-10.764,85.384-13.26ZM74.8-2.444H96.018V.65H74.8ZM107.77-18.876H99.736v-3.016h11.6v2.184c0,7.1-4.056,10.556-12.168,11.44V-11.31c3.328-.442,5.642-1.274,7.02-2.756a20.559,20.559,0,0,1-3.458.234h-2.99v-3.016h3.146a18.458,18.458,0,0,0,4.758-.39A10.728,10.728,0,0,0,107.77-18.876Zm7.774,10.322V-22.178h3.562V-8.554Zm-14.69,5.538a4.226,4.226,0,0,1,2.21-3.744c1.872-1.144,4.628-1.482,7.176-1.482,2.574,0,5.33.338,7.176,1.482a4.2,4.2,0,0,1,2.236,3.744,4.24,4.24,0,0,1-2.236,3.77c-1.846,1.118-4.6,1.456-7.176,1.456-2.548,0-5.3-.338-7.176-1.456A4.268,4.268,0,0,1,100.854-3.016Zm3.562,0a1.515,1.515,0,0,0,.884,1.352,11.406,11.406,0,0,0,4.94.832,11.458,11.458,0,0,0,4.966-.832,1.562,1.562,0,0,0,.884-1.352,1.556,1.556,0,0,0-.884-1.326,11.085,11.085,0,0,0-4.966-.832,11.033,11.033,0,0,0-4.94.832A1.507,1.507,0,0,0,104.416-3.016Z" transform="translate(-1.976 22.88)" fill="#fff"/>
</svg>
