<?xml version="1.0" encoding="utf-8"?>
<!-- Generator: Adobe Illustrator 23.0.1, SVG Export Plug-In . SVG Version: 6.00 Build 0)  -->
<svg version="1.1" id="레이어_1" xmlns="http://www.w3.org/2000/svg" xmlns:xlink="http://www.w3.org/1999/xlink" x="0px"
	 y="0px" viewBox="0 0 57 56" style="enable-background:new 0 0 57 56;" xml:space="preserve">
<style type="text/css">
	.st0{fill:none;}
	.st1{fill:none;stroke:#FFFFFF;stroke-width:2;stroke-linecap:round;stroke-miterlimit:10;}
	.st2{enable-background:new    ;}
	.st3{fill:#FFFFFF;}
</style>
<g id="mypage2" transform="translate(-578 -32)">
	<g id="그룹_1745" transform="translate(-20348 904)">
		<rect id="사각형_1636" x="20926" y="-872" class="st0" width="56" height="56"/>
		<g id="그룹_1732" transform="translate(20290 -1680)">
			<circle id="타원_229" class="st1" cx="664" cy="826" r="10"/>
			<path id="패스_1102" class="st1" d="M644,856c0-8.8,9-16,20-16"/>
		</g>
	</g>
	<g class="st2">
		<path class="st3" d="M611.9,67.6c0.8,0,1.5,0.2,2,0.5c0.6,0.4,0.9,0.8,1.1,1.4c0.4-0.6,0.8-1.1,1.4-1.4c0.6-0.3,1.3-0.5,2.2-0.5
			c1.2,0,2.1,0.4,2.8,1.1c0.7,0.7,1,1.8,1,3v6.4c0,0.3-0.1,0.5-0.3,0.7c-0.2,0.1-0.4,0.2-0.7,0.2s-0.5-0.1-0.7-0.2
			c-0.2-0.1-0.3-0.4-0.3-0.7v-5.9c0-1-0.2-1.7-0.6-2.1s-1-0.6-1.7-0.6c-0.7,0-1.3,0.2-1.8,0.7c-0.5,0.5-0.7,1.1-0.7,1.9v6
			c0,0.3-0.1,0.5-0.3,0.7c-0.2,0.1-0.4,0.2-0.7,0.2c-0.3,0-0.5-0.1-0.7-0.2c-0.2-0.1-0.3-0.4-0.3-0.7v-5.9c0-1-0.2-1.7-0.6-2.1
			c-0.4-0.4-1-0.6-1.7-0.6c-0.4,0-0.8,0.1-1.1,0.2c-0.3,0.1-0.6,0.3-0.8,0.6c-0.2,0.2-0.4,0.5-0.5,0.8c-0.1,0.3-0.2,0.6-0.2,1v6.1
			c0,0.3-0.1,0.5-0.3,0.7c-0.2,0.1-0.5,0.2-0.7,0.2c-0.3,0-0.5-0.1-0.7-0.2c-0.2-0.1-0.3-0.4-0.3-0.7v-9.5c0-0.3,0.1-0.5,0.3-0.6
			c0.2-0.1,0.4-0.2,0.7-0.2s0.5,0.1,0.7,0.2c0.2,0.1,0.3,0.3,0.3,0.6v0.9c0.3-0.5,0.7-1,1.2-1.3S611.1,67.6,611.9,67.6z"/>
		<path class="st3" d="M633.6,67.8c0.3,0.1,0.5,0.2,0.6,0.5s0.1,0.5,0,0.7l-5.4,13.6c-0.1,0.3-0.3,0.5-0.5,0.5
			c-0.2,0.1-0.5,0-0.8-0.1c-0.3-0.1-0.5-0.3-0.6-0.5s-0.1-0.4,0-0.7l1.3-3.1l-3.9-9.8c-0.1-0.3-0.1-0.5,0-0.8s0.3-0.4,0.6-0.5
			c0.3-0.1,0.5-0.1,0.8-0.1s0.4,0.2,0.6,0.6l3,8.1h0l2.9-8.1c0.1-0.3,0.3-0.5,0.6-0.6C633.1,67.8,633.3,67.8,633.6,67.8z"/>
	</g>
</g>
</svg>
