<?xml version="1.0" encoding="utf-8"?>
<!-- Generator: Adobe Illustrator 23.0.1, SVG Export Plug-In . SVG Version: 6.00 Build 0)  -->
<svg version="1.1" id="레이어_1" xmlns="http://www.w3.org/2000/svg" xmlns:xlink="http://www.w3.org/1999/xlink" x="0px"
	 y="0px" viewBox="0 0 283.5 283.5" style="enable-background:new 0 0 283.5 283.5;" xml:space="preserve">
<style type="text/css">
	.st0{fill:#EF893C;}
	.st1{fill:#FFFFFF;}
</style>
<path class="st0" d="M257.3,208.1c0,1.8-2.5,3.2-5.7,3.2H37.9c-3.1,0-5.7-1.4-5.7-3.2V87.3c0-1.8,2.5-3.2,5.7-3.2h213.8
	c3.1,0,5.7,1.4,5.7,3.2L257.3,208.1L257.3,208.1z"/>
<g>
	<path class="st1" d="M124.8,116.7v60.2h-13.9v-24.7H83.5v24.7H69.6v-60.2h13.9v23.7h27.3v-23.7H124.8z"/>
	<path class="st1" d="M146.1,174.5c-3.9-2-6.9-4.9-9.1-8.5c-2.2-3.6-3.3-7.7-3.3-12.3c0-4.6,1.1-8.7,3.3-12.3
		c2.2-3.6,5.2-6.4,9.1-8.5c3.9-2,8.2-3.1,13.1-3.1c4.9,0,9.2,1,13.1,3.1c3.8,2,6.8,4.9,9,8.5c2.2,3.6,3.3,7.7,3.3,12.3
		c0,4.6-1.1,8.7-3.3,12.3c-2.2,3.6-5.2,6.4-9,8.5c-3.8,2-8.2,3.1-13.1,3.1C154.4,177.5,150,176.5,146.1,174.5z M167.7,163.1
		c2.2-2.3,3.3-5.4,3.3-9.3c0-3.9-1.1-7-3.3-9.3c-2.2-2.3-5-3.5-8.5-3.5s-6.3,1.2-8.5,3.5s-3.4,5.4-3.4,9.3c0,3.9,1.1,7,3.4,9.3
		s5.1,3.5,8.5,3.5S165.5,165.4,167.7,163.1z"/>
	<path class="st1" d="M222.5,174.6c-1.3,1-2.9,1.7-4.9,2.2c-1.9,0.5-3.9,0.7-6.1,0.7c-5.5,0-9.8-1.4-12.8-4.2
		c-3-2.8-4.5-6.9-4.5-12.4v-19h-7.1v-10.3h7.1v-11.3h13.4v11.3h11.5V142h-11.5v18.8c0,1.9,0.5,3.5,1.5,4.5c1,1.1,2.4,1.6,4.3,1.6
		c2.1,0,3.9-0.6,5.4-1.7L222.5,174.6z"/>
</g>
</svg>
