<?xml version="1.0" encoding="utf-8"?>
<!-- Generator: Adobe Illustrator 16.0.0, SVG Export Plug-In . SVG Version: 6.00 Build 0)  -->
<!DOCTYPE svg PUBLIC "-//W3C//DTD SVG 1.1//EN" "http://www.w3.org/Graphics/SVG/1.1/DTD/svg11.dtd">
<svg version="1.1" id="레이어_1" xmlns="http://www.w3.org/2000/svg" xmlns:xlink="http://www.w3.org/1999/xlink" x="0px"
	 y="0px" width="283.46px" height="283.46px" viewBox="0 0 283.46 283.46" enable-background="new 0 0 283.46 283.46"
	 xml:space="preserve">
<path fill="#EF893C" d="M257.33,208.134c0,1.771-2.538,3.204-5.669,3.204H37.899c-3.131,0-5.669-1.434-5.669-3.204V87.325
	c0-1.77,2.538-3.204,5.669-3.204h213.761c3.131,0,5.669,1.434,5.669,3.204V208.134z"/>
<g>
	<path fill="#FFFFFF" d="M96.999,134.31c3.435,3.351,5.152,8.322,5.152,14.912v25.804h-13.07v-23.793
		c0-3.574-0.783-6.241-2.346-8.001c-1.564-1.76-3.826-2.639-6.786-2.639c-3.296,0-5.92,1.02-7.875,3.058
		c-1.956,2.039-2.932,5.068-2.932,9.09v22.285H56.073v-45.072h12.483v5.277c1.73-1.897,3.881-3.364,6.451-4.398
		c2.568-1.033,5.39-1.55,8.462-1.55C89.052,129.283,93.563,130.958,96.999,134.31z"/>
	<path fill="#FFFFFF" d="M158.365,156.175h-34.098c0.614,2.794,2.066,5,4.356,6.619c2.29,1.62,5.138,2.43,8.545,2.43
		c2.346,0,4.426-0.349,6.242-1.048c1.814-0.697,3.505-1.801,5.068-3.309l6.954,7.54c-4.245,4.858-10.445,7.288-18.599,7.288
		c-5.083,0-9.58-0.99-13.488-2.974c-3.91-1.982-6.926-4.733-9.048-8.252c-2.123-3.52-3.184-7.512-3.184-11.98
		c0-4.412,1.047-8.392,3.142-11.938c2.094-3.546,4.97-6.312,8.629-8.294c3.658-1.982,7.75-2.975,12.273-2.975
		c4.412,0,8.406,0.95,11.98,2.849c3.574,1.899,6.381,4.622,8.42,8.168c2.038,3.548,3.059,7.666,3.059,12.357
		C158.617,152.825,158.533,153.998,158.365,156.175z M127.786,141.682c-2.011,1.676-3.24,3.967-3.687,6.87H146.3
		c-0.447-2.849-1.675-5.124-3.686-6.828c-2.011-1.703-4.469-2.556-7.373-2.556C132.281,139.168,129.796,140.006,127.786,141.682z"/>
	<path fill="#FFFFFF" d="M238.876,129.954l-16.337,45.072h-12.567l-10.137-27.982l-10.473,27.982h-12.566l-16.253-45.072h12.315
		l10.64,30.495l11.059-30.495h11.059l10.724,30.495l10.976-30.495H238.876z"/>
</g>
</svg>
