<?xml version="1.0" encoding="utf-8"?>
<!-- Generator: Adobe Illustrator 16.0.0, SVG Export Plug-In . SVG Version: 6.00 Build 0)  -->
<!DOCTYPE svg PUBLIC "-//W3C//DTD SVG 1.1//EN" "http://www.w3.org/Graphics/SVG/1.1/DTD/svg11.dtd">
<svg version="1.1" id="레이어_1" xmlns="http://www.w3.org/2000/svg" xmlns:xlink="http://www.w3.org/1999/xlink" x="0px"
	 y="0px" width="120px" height="120px" viewBox="0 0 120 120" enable-background="new 0 0 120 120" xml:space="preserve">
<g enable-background="new    ">
	<path fill="#EEEEEE" d="M24.105,78.064h-5.724v1.5h5.808V80.8h-2.892v0.925h4.356v1.235H15.429v-1.235h4.356V80.8h-2.904v-3.972
		h7.224V78.064z M20.541,87.953c-0.488,0-0.95-0.042-1.386-0.126c-0.437-0.085-0.818-0.211-1.146-0.379
		c-0.328-0.168-0.588-0.38-0.78-0.636c-0.192-0.257-0.288-0.561-0.288-0.912v-0.359c0-0.344,0.096-0.646,0.288-0.906
		s0.452-0.474,0.78-0.643c0.328-0.168,0.709-0.294,1.146-0.378c0.436-0.084,0.898-0.126,1.386-0.126s0.95,0.042,1.386,0.126
		c0.436,0.084,0.818,0.21,1.146,0.378c0.328,0.169,0.588,0.383,0.78,0.643s0.288,0.563,0.288,0.906V85.9
		c0,0.353-0.096,0.655-0.288,0.912c-0.192,0.256-0.452,0.468-0.78,0.636c-0.328,0.168-0.71,0.294-1.146,0.379
		C21.491,87.911,21.029,87.953,20.541,87.953z M20.541,84.713c-0.264,0-0.522,0.021-0.774,0.065s-0.476,0.105-0.672,0.187
		c-0.196,0.08-0.354,0.176-0.474,0.288s-0.18,0.239-0.18,0.384v0.168c0,0.145,0.06,0.271,0.18,0.385
		c0.12,0.112,0.278,0.207,0.474,0.287c0.196,0.08,0.42,0.143,0.672,0.188c0.252,0.044,0.51,0.064,0.774,0.064
		s0.522-0.021,0.774-0.064c0.252-0.045,0.476-0.105,0.672-0.188c0.196-0.08,0.354-0.176,0.474-0.287
		c0.12-0.112,0.18-0.24,0.18-0.385v-0.168c0-0.145-0.06-0.271-0.18-0.384s-0.278-0.208-0.474-0.288
		c-0.196-0.08-0.42-0.143-0.672-0.187S20.805,84.713,20.541,84.713z"/>
	<path fill="#EEEEEE" d="M29.397,82.444c-0.448,0-0.848-0.071-1.2-0.216c-0.352-0.145-0.65-0.332-0.894-0.563
		c-0.244-0.231-0.43-0.5-0.558-0.805s-0.192-0.619-0.192-0.947v-0.528c0-0.32,0.064-0.634,0.192-0.941
		c0.128-0.309,0.314-0.577,0.558-0.811c0.244-0.232,0.542-0.42,0.894-0.563c0.352-0.145,0.752-0.216,1.2-0.216
		s0.848,0.071,1.2,0.216c0.352,0.145,0.65,0.331,0.894,0.563c0.244,0.232,0.43,0.502,0.558,0.811
		c0.128,0.309,0.192,0.621,0.192,0.941v0.528c0,0.328-0.064,0.644-0.192,0.947c-0.128,0.305-0.314,0.571-0.558,0.805
		c-0.244,0.231-0.542,0.42-0.894,0.563C30.245,82.373,29.845,82.444,29.397,82.444z M29.397,78.148c-0.224,0-0.424,0.037-0.6,0.113
		c-0.176,0.076-0.324,0.174-0.444,0.294s-0.21,0.257-0.27,0.408c-0.06,0.152-0.09,0.304-0.09,0.456v0.456
		c0,0.151,0.03,0.304,0.09,0.456c0.06,0.15,0.15,0.288,0.27,0.407c0.12,0.12,0.268,0.219,0.444,0.295
		c0.176,0.075,0.376,0.112,0.6,0.112s0.424-0.037,0.6-0.112c0.176-0.076,0.324-0.175,0.444-0.295c0.12-0.119,0.21-0.257,0.27-0.407
		c0.06-0.152,0.09-0.305,0.09-0.456V79.42c0-0.152-0.03-0.304-0.09-0.456c-0.06-0.151-0.15-0.288-0.27-0.408
		s-0.268-0.218-0.444-0.294C29.821,78.188,29.621,78.148,29.397,78.148z M32.169,87.953c-0.496,0-0.956-0.051-1.38-0.15
		c-0.424-0.101-0.792-0.242-1.104-0.426c-0.312-0.186-0.558-0.412-0.738-0.686c-0.18-0.271-0.27-0.575-0.27-0.911v-0.527
		c0-0.336,0.09-0.641,0.27-0.912c0.18-0.271,0.426-0.5,0.738-0.685s0.68-0.325,1.104-0.426c0.424-0.101,0.884-0.149,1.38-0.149
		s0.956,0.05,1.38,0.149c0.424,0.101,0.792,0.241,1.104,0.426s0.558,0.412,0.738,0.685c0.18,0.271,0.27,0.576,0.27,0.912v0.527
		c0,0.336-0.09,0.641-0.27,0.911c-0.18,0.272-0.426,0.5-0.738,0.686c-0.312,0.184-0.68,0.325-1.104,0.426
		C33.125,87.902,32.665,87.953,32.169,87.953z M32.169,84.316c-0.264,0-0.516,0.027-0.756,0.084
		c-0.24,0.057-0.452,0.132-0.636,0.229c-0.184,0.096-0.332,0.21-0.444,0.342c-0.112,0.133-0.168,0.271-0.168,0.414v0.264
		c0,0.146,0.056,0.282,0.168,0.414c0.112,0.133,0.26,0.246,0.444,0.343c0.184,0.097,0.396,0.172,0.636,0.229
		c0.24,0.056,0.492,0.084,0.756,0.084s0.516-0.028,0.756-0.084c0.24-0.057,0.452-0.132,0.636-0.229s0.332-0.21,0.444-0.343
		c0.112-0.132,0.168-0.27,0.168-0.414v-0.264c0-0.145-0.056-0.281-0.168-0.414c-0.112-0.132-0.26-0.246-0.444-0.342
		c-0.184-0.097-0.396-0.172-0.636-0.229C32.685,84.345,32.433,84.316,32.169,84.316z M34.125,77.729v-1.271h1.5v6.575h-1.5v-1.5
		h-1.512v-1.271h1.512v-1.26h-1.512V77.73h1.512V77.729z"/>
	<path fill="#EEEEEE" d="M40.569,80.621c-0.04,0.096-0.112,0.203-0.216,0.323s-0.28,0.288-0.528,0.504
		c-0.28,0.239-0.57,0.481-0.87,0.727c-0.3,0.244-0.618,0.494-0.954,0.75l-0.9-1.116c0.352-0.256,0.672-0.5,0.96-0.73
		c0.288-0.232,0.576-0.48,0.864-0.744c0.248-0.225,0.446-0.484,0.594-0.78s0.222-0.64,0.222-1.032v-1.606h1.536v1.56
		c0,0.2,0.01,0.379,0.03,0.534c0.02,0.156,0.06,0.302,0.12,0.438c0.06,0.137,0.142,0.267,0.246,0.391s0.236,0.25,0.396,0.378
		c0.232,0.191,0.502,0.4,0.81,0.624c0.308,0.225,0.614,0.439,0.918,0.647l-0.84,1.057c-0.28-0.192-0.548-0.382-0.804-0.57
		c-0.256-0.188-0.496-0.37-0.72-0.546c-0.208-0.16-0.395-0.311-0.558-0.449c-0.164-0.141-0.262-0.259-0.294-0.354h-0.012V80.621z
		 M42.741,87.953c-0.512,0-0.978-0.053-1.398-0.156c-0.42-0.104-0.78-0.252-1.08-0.443c-0.3-0.191-0.532-0.423-0.696-0.689
		c-0.164-0.27-0.246-0.563-0.246-0.883v-0.504c0-0.319,0.082-0.613,0.246-0.883c0.164-0.268,0.396-0.498,0.696-0.688
		c0.3-0.192,0.66-0.341,1.08-0.444c0.42-0.103,0.886-0.156,1.398-0.156c0.512,0,0.978,0.054,1.398,0.156
		c0.42,0.104,0.78,0.252,1.08,0.444c0.3,0.19,0.532,0.422,0.696,0.688c0.164,0.27,0.246,0.563,0.246,0.883v0.504
		c0,0.32-0.083,0.613-0.246,0.883c-0.164,0.268-0.396,0.498-0.696,0.689c-0.3,0.191-0.66,0.34-1.08,0.443
		S43.253,87.953,42.741,87.953z M42.741,84.341c-0.304,0-0.576,0.032-0.816,0.097c-0.24,0.063-0.442,0.146-0.606,0.246
		s-0.29,0.209-0.378,0.329s-0.132,0.24-0.132,0.36v0.313c0,0.119,0.043,0.239,0.132,0.359c0.088,0.12,0.214,0.229,0.378,0.33
		c0.164,0.1,0.366,0.182,0.606,0.246c0.24,0.063,0.512,0.096,0.816,0.096c0.304,0,0.576-0.031,0.816-0.096
		c0.24-0.064,0.442-0.146,0.606-0.246c0.164-0.102,0.29-0.21,0.378-0.33s0.132-0.24,0.132-0.359v-0.313
		c0-0.12-0.044-0.24-0.132-0.36s-0.214-0.229-0.378-0.329s-0.366-0.183-0.606-0.246C43.317,84.373,43.045,84.341,42.741,84.341z
		 M46.125,79.001h1.464v1.319h-1.464v2.735h-1.512v-6.6h1.512V79.001z"/>
	<path fill="#EEEEEE" d="M51.633,84.988c-0.512,0-0.95-0.079-1.314-0.239c-0.364-0.16-0.662-0.385-0.894-0.672
		c-0.232-0.288-0.402-0.628-0.51-1.021c-0.108-0.392-0.162-0.823-0.162-1.296v-1.332c0-0.464,0.054-0.894,0.162-1.29
		c0.108-0.396,0.278-0.737,0.51-1.025s0.53-0.513,0.894-0.673c0.364-0.159,0.802-0.239,1.314-0.239c0.512,0,0.95,0.08,1.314,0.239
		c0.364,0.16,0.662,0.385,0.894,0.673s0.402,0.63,0.51,1.025c0.108,0.396,0.162,0.826,0.162,1.29v1.332
		c0,0.473-0.054,0.904-0.162,1.296c-0.108,0.394-0.278,0.732-0.51,1.021c-0.232,0.287-0.53,0.512-0.894,0.672
		C52.583,84.909,52.145,84.988,51.633,84.988z M51.633,78.532c-0.512,0-0.878,0.177-1.098,0.528c-0.22,0.353-0.33,0.867-0.33,1.547
		v0.974c0,0.68,0.11,1.194,0.33,1.548c0.22,0.352,0.586,0.527,1.098,0.527c0.512,0,0.878-0.176,1.098-0.527
		c0.22-0.354,0.33-0.868,0.33-1.548v-0.974c0-0.68-0.11-1.194-0.33-1.547C52.511,78.709,52.145,78.532,51.633,78.532z
		 M57.585,87.616h-1.524V76.457h1.524V87.616z"/>
	<path fill="#EEEEEE" d="M69.861,80.045h-1.85c-0.048,0.28-0.146,0.544-0.3,0.792s-0.349,0.466-0.588,0.653
		s-0.522,0.337-0.847,0.443c-0.323,0.108-0.687,0.162-1.086,0.162c-0.448,0-0.848-0.067-1.2-0.203
		c-0.353-0.137-0.651-0.318-0.899-0.547c-0.248-0.228-0.438-0.488-0.563-0.779c-0.129-0.293-0.192-0.599-0.192-0.918v-0.433
		c0-0.319,0.063-0.626,0.192-0.918c0.127-0.292,0.314-0.552,0.563-0.78c0.248-0.228,0.549-0.41,0.899-0.546
		c0.353-0.136,0.752-0.204,1.2-0.204c0.392,0,0.748,0.055,1.068,0.162c0.318,0.108,0.6,0.252,0.84,0.433
		c0.239,0.181,0.437,0.391,0.588,0.63c0.151,0.24,0.256,0.497,0.313,0.769h1.859v-2.304h1.513v5.903h-1.513v-2.315H69.861z
		 M69.837,86.009c-0.024,0.088-0.089,0.193-0.192,0.318c-0.104,0.123-0.235,0.276-0.396,0.462c-0.127,0.145-0.272,0.3-0.438,0.468
		c-0.164,0.168-0.35,0.355-0.558,0.563l-0.78-0.779v0.611h-3.863v-4.775h1.355v1.2h1.129v-1.2h1.379v3.73
		c0.209-0.199,0.404-0.396,0.588-0.588c0.185-0.19,0.355-0.384,0.517-0.575c0.104-0.12,0.187-0.229,0.245-0.33
		c0.062-0.101,0.109-0.199,0.146-0.3c0.035-0.101,0.061-0.213,0.071-0.336c0.011-0.125,0.019-0.271,0.019-0.438v-1.177h1.512v1.177
		c0,0.168,0.006,0.31,0.019,0.426s0.034,0.226,0.065,0.33s0.078,0.204,0.139,0.3s0.143,0.208,0.246,0.336
		c0.184,0.232,0.389,0.461,0.611,0.685c0.225,0.225,0.465,0.46,0.721,0.708l-0.948,0.947c-0.208-0.207-0.396-0.396-0.563-0.568
		c-0.168-0.173-0.315-0.326-0.444-0.463c-0.16-0.176-0.289-0.319-0.39-0.432C69.923,86.196,69.861,86.097,69.837,86.009z
		 M65.193,78.053c-0.225,0-0.426,0.036-0.602,0.108c-0.177,0.071-0.324,0.164-0.443,0.274c-0.119,0.112-0.213,0.24-0.275,0.385
		c-0.064,0.145-0.096,0.287-0.096,0.433v0.359c0,0.145,0.031,0.288,0.096,0.433c0.063,0.145,0.156,0.271,0.275,0.384
		s0.268,0.204,0.443,0.276c0.176,0.071,0.377,0.107,0.602,0.107c0.223,0,0.424-0.036,0.6-0.107c0.176-0.072,0.324-0.164,0.443-0.276
		c0.121-0.112,0.213-0.239,0.275-0.384c0.063-0.145,0.098-0.288,0.098-0.433v-0.359c0-0.146-0.033-0.288-0.098-0.433
		c-0.063-0.145-0.154-0.271-0.275-0.385c-0.119-0.11-0.268-0.203-0.443-0.274C65.617,78.089,65.416,78.053,65.193,78.053z
		 M66.094,86.465v-1.2h-1.129v1.2H66.094z"/>
	<path fill="#EEEEEE" d="M83.252,81.448v1.235H73.027v-1.235H83.252z M78.152,79.107c-0.057,0.098-0.19,0.217-0.402,0.36
		c-0.212,0.145-0.546,0.32-1.002,0.528c-0.359,0.168-0.736,0.336-1.128,0.504s-0.815,0.344-1.272,0.527l-0.576-1.213
		c0.408-0.159,0.83-0.334,1.268-0.521c0.438-0.188,0.848-0.374,1.229-0.559c0.369-0.185,0.646-0.38,0.828-0.589
		c0.186-0.207,0.276-0.5,0.276-0.875v-0.757h1.536v0.757c0,0.367,0.09,0.657,0.27,0.869c0.182,0.213,0.455,0.41,0.822,0.595
		c0.385,0.185,0.794,0.37,1.23,0.559c0.436,0.188,0.856,0.361,1.266,0.521l-0.564,1.188c-0.455-0.185-0.881-0.362-1.277-0.534
		c-0.396-0.172-0.77-0.338-1.121-0.498c-0.448-0.208-0.776-0.38-0.983-0.516c-0.209-0.137-0.336-0.252-0.385-0.35h-0.013V79.107z
		 M81.824,83.249v4.38h-7.368v-4.38h1.5v0.937h4.368v-0.937H81.824z M80.324,86.404V85.36h-4.368v1.044H80.324z"/>
	<path fill="#EEEEEE" d="M86.348,83.369h0.793c0.576,0,1.191-0.021,1.848-0.061c0.658-0.041,1.269-0.101,1.837-0.181l0.168,1.308
		c-0.28,0.049-0.589,0.088-0.925,0.12s-0.688,0.06-1.057,0.078c-0.367,0.021-0.74,0.034-1.115,0.042
		c-0.377,0.008-0.748,0.012-1.115,0.012h-1.969v-7.344h1.535V83.369z M93.344,87.616H91.82V76.457h1.523V87.616L93.344,87.616z"/>
	<path fill="#EEEEEE" d="M95.432,77.417h5.16v1.308h-3.636v4.692h0.756c0.576,0,1.192-0.021,1.849-0.062
		c0.655-0.039,1.269-0.1,1.836-0.18l0.168,1.296c-0.28,0.048-0.588,0.089-0.924,0.12c-0.336,0.032-0.688,0.059-1.057,0.078
		s-0.74,0.034-1.115,0.042c-0.377,0.008-0.748,0.013-1.117,0.013h-1.92V77.417z M103.725,80.369h1.535v1.318h-1.535v5.929H102.2
		V76.457h1.524V80.369L103.725,80.369z"/>
</g>
<circle fill="none" stroke="#EEEEEE" stroke-width="2" stroke-miterlimit="10" cx="59" cy="53" r="17.519"/>
<polyline fill="#EEEEEE" points="56.14,44.75 67.488,52.924 56,61.277 "/>
</svg>
