<?xml version="1.0" encoding="utf-8"?>
<!-- Generator: Adobe Illustrator 16.0.0, SVG Export Plug-In . SVG Version: 6.00 Build 0)  -->
<!DOCTYPE svg PUBLIC "-//W3C//DTD SVG 1.1//EN" "http://www.w3.org/Graphics/SVG/1.1/DTD/svg11.dtd">
<svg version="1.1" id="Layer_1" xmlns="http://www.w3.org/2000/svg" xmlns:xlink="http://www.w3.org/1999/xlink" x="0px" y="0px"
	 width="24px" height="24px" viewBox="0 0 24 24" enable-background="new 0 0 24 24" xml:space="preserve">
<polygon points="23.375,22.834 8,22.834 10.334,20.542 23.375,20.542 "/>
<g>
	<path d="M1.064,17.777c-0.197,0.163-0.399,0.334-0.534,0.495l-0.155,0.145v4.417h4.417l0.855-0.88l-4.373-4.372L1.064,17.777z"/>
	<polygon points="17.076,10.534 12.738,6.196 2.324,16.566 6.665,20.908 6.892,20.674 	"/>
	<path d="M21.155,5.104l-2.962-2.975c-0.377-0.379-1.015-0.355-1.426,0.055l-2.404,2.395L18.7,8.917l2.396-2.385
		C21.507,6.122,21.532,5.483,21.155,5.104z"/>
</g>
<polygon points="62.813,44.974 47.438,44.974 49.771,42.682 62.813,42.682 "/>
<polygon points="47.131,46.14 36.26,35.269 38.941,35.887 48.163,45.108 "/>
<g>
	<path d="M41.145,39.321l-0.643,0.596c-0.197,0.163-0.399,0.334-0.534,0.495l-0.155,0.145v4.417h4.418l2.1-2.16l10.184-10.14
		l-4.338-4.338L41.145,39.321z"/>
	<path d="M60.533,28.671c0.411-0.409,0.437-1.048,0.06-1.427l-2.962-2.975c-0.377-0.38-1.015-0.355-1.426,0.055l-2.404,2.395
		l4.337,4.338L60.533,28.671z"/>
</g>
</svg>
