<?xml version="1.0" encoding="utf-8"?>
<!-- Generator: Adobe Illustrator 16.0.0, SVG Export Plug-In . SVG Version: 6.00 Build 0)  -->
<!DOCTYPE svg PUBLIC "-//W3C//DTD SVG 1.1//EN" "http://www.w3.org/Graphics/SVG/1.1/DTD/svg11.dtd">
<svg version="1.1" id="레이어_1" xmlns:sketch="http://www.bohemiancoding.com/sketch/ns"
	 xmlns="http://www.w3.org/2000/svg" xmlns:xlink="http://www.w3.org/1999/xlink" x="0px" y="0px" width="103px" height="105px"
	 viewBox="0 0 103 105" enable-background="new 0 0 103 105" xml:space="preserve">
<title></title>
<desc></desc>
<g enable-background="new    ">
	<path fill="#9E9E9E" d="M11.222,42.134c0.077-0.084,0.146-0.167,0.207-0.247c0.061-0.08,0.119-0.155,0.172-0.225
		c0.092-0.122,0.167-0.237,0.224-0.345c0.058-0.107,0.102-0.22,0.132-0.339s0.052-0.245,0.063-0.38
		c0.011-0.134,0.017-0.293,0.017-0.478v-1.587h1.369v1.599c0,0.177,0.007,0.336,0.023,0.478c0.015,0.142,0.044,0.276,0.086,0.402
		c0.042,0.127,0.099,0.257,0.172,0.391c0.073,0.135,0.167,0.282,0.282,0.443c0.176,0.253,0.353,0.49,0.529,0.713
		s0.341,0.422,0.495,0.598l-0.943,0.816c-0.154-0.184-0.316-0.381-0.489-0.592c-0.173-0.211-0.313-0.393-0.42-0.546
		c-0.146-0.192-0.249-0.344-0.311-0.455c-0.062-0.11-0.1-0.189-0.115-0.235h-0.012c-0.016,0.046-0.058,0.119-0.126,0.219
		s-0.18,0.237-0.333,0.414c-0.146,0.168-0.305,0.347-0.477,0.534c-0.173,0.188-0.351,0.374-0.535,0.558H11.21
		c-0.184-0.184-0.362-0.369-0.535-0.558c-0.172-0.188-0.332-0.366-0.477-0.534c-0.154-0.177-0.263-0.314-0.328-0.414
		c-0.065-0.1-0.105-0.173-0.121-0.219H9.738c-0.016,0.046-0.056,0.125-0.121,0.235c-0.065,0.111-0.17,0.263-0.316,0.455
		c-0.107,0.153-0.25,0.339-0.426,0.558c-0.176,0.218-0.372,0.45-0.586,0.695l-0.943-0.816c0.207-0.237,0.402-0.472,0.586-0.701
		c0.184-0.23,0.364-0.472,0.541-0.725c0.115-0.161,0.209-0.309,0.282-0.443c0.073-0.134,0.13-0.264,0.172-0.391
		c0.042-0.126,0.071-0.261,0.086-0.402c0.015-0.142,0.023-0.301,0.023-0.478v-1.599h1.369v1.587c0,0.185,0.005,0.344,0.017,0.478
		c0.012,0.135,0.033,0.261,0.063,0.38c0.03,0.119,0.075,0.231,0.132,0.339c0.058,0.107,0.132,0.223,0.225,0.345
		c0.053,0.069,0.111,0.145,0.172,0.225C11.076,41.967,11.145,42.05,11.222,42.134z M9.83,44.549h6.98v4.232H9.83V44.549z
		 M11.256,47.573h4.128v-1.816h-4.128V47.573z M16.811,44.066h-1.392v-2.737h-1.15v-1.23h1.15v-2.013h1.392V44.066z"/>
	<path fill="#9E9E9E" d="M19.916,39.087v5.531h0.379c0.46,0,0.918-0.016,1.375-0.046c0.456-0.031,0.879-0.077,1.271-0.139
		l0.149,1.23c-0.437,0.085-0.936,0.141-1.495,0.167c-0.56,0.027-1.138,0.04-1.736,0.04h-1.392v-6.784H19.916z M23.642,42.594h-2.059
		v-1.253h2.059v-3.036h1.403v9.959h-1.403V42.594z M27.368,48.781h-1.403V38.086h1.403V48.781z"/>
	<path fill="#9E9E9E" d="M31.611,43.227c-0.43,0-0.813-0.065-1.15-0.195c-0.337-0.131-0.625-0.303-0.863-0.518
		s-0.418-0.46-0.541-0.736c-0.123-0.275-0.184-0.56-0.184-0.851v-0.368c0-0.291,0.061-0.575,0.184-0.852
		c0.123-0.275,0.303-0.521,0.541-0.735s0.525-0.388,0.863-0.518c0.337-0.131,0.72-0.195,1.15-0.195c0.429,0,0.813,0.064,1.15,0.195
		c0.337,0.13,0.625,0.303,0.863,0.518c0.237,0.215,0.417,0.46,0.54,0.735c0.123,0.276,0.184,0.561,0.184,0.852v0.368
		c0,0.291-0.062,0.575-0.184,0.851c-0.123,0.276-0.303,0.521-0.54,0.736c-0.238,0.215-0.525,0.387-0.863,0.518
		C32.423,43.161,32.04,43.227,31.611,43.227z M31.611,39.478c-0.215,0-0.406,0.032-0.575,0.098
		c-0.168,0.065-0.313,0.149-0.431,0.253s-0.209,0.221-0.27,0.351c-0.062,0.131-0.092,0.265-0.092,0.402v0.322
		c0,0.138,0.031,0.272,0.092,0.402c0.061,0.131,0.151,0.248,0.27,0.352c0.119,0.103,0.263,0.188,0.431,0.253
		c0.169,0.064,0.36,0.098,0.575,0.098c0.214,0,0.406-0.033,0.575-0.098c0.168-0.065,0.312-0.15,0.431-0.253
		c0.119-0.104,0.208-0.221,0.27-0.352c0.062-0.13,0.092-0.265,0.092-0.402v-0.322c0-0.138-0.031-0.271-0.092-0.402
		c-0.062-0.13-0.151-0.247-0.27-0.351c-0.119-0.104-0.263-0.188-0.431-0.253C32.017,39.51,31.825,39.478,31.611,39.478z
		 M37.418,43.882v3.048h-5.301v0.805h5.624v1.15h-7.026v-3.048h5.302v-0.805h-5.359v-1.15H37.418z M37.418,43.399h-1.449v-5.313
		h1.449V43.399z"/>
	<path fill="#9E9E9E" d="M45.169,46.263c-0.49,0-0.91-0.077-1.259-0.23c-0.35-0.153-0.635-0.368-0.857-0.644
		c-0.222-0.276-0.385-0.602-0.488-0.978s-0.155-0.79-0.155-1.242v-1.276c0-0.444,0.052-0.856,0.155-1.236s0.267-0.707,0.488-0.983
		c0.223-0.275,0.508-0.49,0.857-0.644c0.349-0.153,0.769-0.23,1.259-0.23c0.491,0,0.91,0.077,1.26,0.23
		c0.349,0.153,0.634,0.368,0.856,0.644c0.223,0.276,0.385,0.604,0.488,0.983s0.155,0.792,0.155,1.236v1.276
		c0,0.452-0.052,0.866-0.155,1.242s-0.266,0.701-0.488,0.978c-0.223,0.275-0.508,0.49-0.856,0.644
		C46.079,46.186,45.66,46.263,45.169,46.263z M45.169,40.075c-0.49,0-0.841,0.169-1.052,0.506c-0.211,0.338-0.316,0.832-0.316,1.484
		v0.931c0,0.652,0.105,1.146,0.316,1.484c0.211,0.337,0.562,0.506,1.052,0.506c0.491,0,0.842-0.169,1.053-0.506
		c0.211-0.338,0.316-0.832,0.316-1.484v-0.931c0-0.652-0.105-1.146-0.316-1.484C46.011,40.244,45.66,40.075,45.169,40.075z
		 M50.873,48.781h-1.46V38.086h1.46V48.781z"/>
	<path fill="#9E9E9E" d="M58.233,39.018v6.98h-5.187v-6.98H58.233z M56.784,40.248h-2.289v4.52h2.289V40.248z M61.338,48.781h-1.46
		V38.086h1.46V48.781z"/>
	<path fill="#9E9E9E" d="M63.315,39.006h5.704v1.242H66.95v1.219c0,0.223,0.011,0.424,0.034,0.604
		c0.023,0.181,0.063,0.352,0.121,0.512c0.057,0.161,0.14,0.322,0.247,0.483s0.249,0.334,0.426,0.518
		c0.245,0.269,0.512,0.545,0.799,0.828s0.577,0.556,0.868,0.816l-0.932,0.966c-0.245-0.229-0.49-0.466-0.735-0.707
		c-0.246-0.241-0.476-0.474-0.69-0.696c-0.223-0.222-0.41-0.423-0.563-0.604c-0.153-0.18-0.249-0.316-0.287-0.408h-0.023
		c-0.054,0.107-0.165,0.261-0.334,0.46c-0.168,0.199-0.349,0.399-0.54,0.599c-0.215,0.222-0.437,0.45-0.667,0.684
		c-0.23,0.234-0.506,0.497-0.828,0.788l-0.954-0.978c0.628-0.56,1.195-1.115,1.702-1.668c0.168-0.191,0.311-0.367,0.425-0.528
		c0.115-0.161,0.207-0.326,0.276-0.495c0.069-0.168,0.116-0.347,0.144-0.534c0.027-0.188,0.04-0.4,0.04-0.639v-1.219h-2.162V39.006z
		 M71.803,48.781h-1.46V38.086h1.46V48.781z"/>
	<path fill="#9E9E9E" d="M85.937,43.065v1.185h-9.798v-1.185H85.937z M84.453,39.65h-5.486v1.448h5.566v1.185h-7.004v-3.817h6.924
		V39.65z M81.037,49.103c-0.468,0-0.91-0.04-1.328-0.12c-0.418-0.081-0.784-0.201-1.099-0.362s-0.563-0.364-0.747-0.609
		c-0.185-0.246-0.276-0.537-0.276-0.874v-0.346c0-0.329,0.092-0.618,0.276-0.868c0.184-0.249,0.433-0.454,0.747-0.615
		c0.314-0.16,0.681-0.281,1.099-0.362c0.418-0.08,0.86-0.12,1.328-0.12s0.91,0.04,1.328,0.12c0.418,0.081,0.784,0.202,1.099,0.362
		c0.314,0.161,0.563,0.366,0.747,0.615c0.185,0.25,0.276,0.539,0.276,0.868v0.346c0,0.337-0.092,0.628-0.276,0.874
		c-0.184,0.245-0.433,0.448-0.747,0.609s-0.681,0.281-1.099,0.362C81.947,49.063,81.505,49.103,81.037,49.103z M81.037,45.998
		c-0.253,0-0.5,0.021-0.741,0.063c-0.242,0.042-0.457,0.102-0.645,0.178c-0.188,0.077-0.339,0.169-0.454,0.276
		s-0.173,0.229-0.173,0.368v0.161c0,0.138,0.058,0.26,0.173,0.367s0.267,0.199,0.454,0.276c0.188,0.076,0.402,0.136,0.645,0.179
		c0.241,0.042,0.488,0.063,0.741,0.063s0.5-0.021,0.742-0.063c0.241-0.043,0.456-0.103,0.644-0.179
		c0.188-0.077,0.339-0.169,0.454-0.276s0.173-0.229,0.173-0.367v-0.161c0-0.139-0.058-0.261-0.173-0.368s-0.267-0.199-0.454-0.276
		c-0.188-0.076-0.402-0.136-0.644-0.178C81.537,46.02,81.29,45.998,81.037,45.998z"/>
	<path fill="#9E9E9E" d="M92.227,42.962v0.725h4.175v1.161h-9.798v-1.161h4.174v-0.725h-2.806v-2.841h5.577v-0.586h-5.611v-1.15
		h7.037v2.841h-5.577v0.586h5.762v1.15H92.227z M87.88,45.492h7.198v3.427H93.63v-2.254h-5.75V45.492z"/>
</g>
<title></title>
<desc></desc>
<g enable-background="new    ">
	<path fill="#9E9E9E" d="M7.276,67.252v-8.366l-2.378,1.362L3.999,58.74l3.495-1.942h1.638v10.454H7.276z"/>
	<path fill="#9E9E9E" d="M19.702,62.829c0,1.489-0.314,2.625-0.942,3.408c-0.628,0.782-1.576,1.174-2.842,1.174
		c-1.247,0-2.209-0.396-2.886-1.188c-0.677-0.793-1.015-1.924-1.015-3.394v-1.624c0-1.469,0.336-2.598,1.008-3.386
		c0.672-0.787,1.622-1.182,2.849-1.182c1.237,0,2.185,0.395,2.842,1.182c0.657,0.788,0.986,1.917,0.986,3.386V62.829z
		 M17.832,61.191c0-0.6-0.056-1.083-0.167-1.45c-0.111-0.367-0.256-0.65-0.435-0.849c-0.179-0.198-0.387-0.331-0.624-0.398
		s-0.481-0.102-0.732-0.102c-0.242,0-0.481,0.034-0.717,0.102c-0.237,0.067-0.45,0.203-0.638,0.406
		c-0.188,0.202-0.341,0.488-0.457,0.855c-0.116,0.367-0.174,0.846-0.174,1.436v1.652c0,0.6,0.061,1.083,0.181,1.45
		c0.121,0.367,0.278,0.652,0.471,0.855s0.411,0.339,0.653,0.406c0.241,0.067,0.483,0.102,0.725,0.102
		c0.251,0,0.493-0.034,0.725-0.102s0.435-0.2,0.609-0.398c0.174-0.198,0.314-0.481,0.42-0.849c0.106-0.367,0.159-0.855,0.159-1.465
		V61.191z"/>
	<path fill="#9E9E9E" d="M21.312,58.146c0.348-0.455,0.764-0.819,1.247-1.096c0.483-0.275,1.102-0.413,1.856-0.413
		c0.493,0,0.938,0.063,1.334,0.188c0.396,0.126,0.734,0.303,1.015,0.529c0.28,0.228,0.498,0.503,0.652,0.827
		c0.154,0.323,0.232,0.679,0.232,1.065v0.145c0,0.203-0.021,0.424-0.065,0.66c-0.043,0.237-0.123,0.464-0.239,0.682
		c-0.116,0.218-0.271,0.418-0.464,0.602s-0.44,0.334-0.739,0.449c0.696,0.126,1.208,0.401,1.537,0.827
		c0.329,0.425,0.493,0.938,0.493,1.537v0.217c0,0.396-0.078,0.778-0.232,1.146c-0.155,0.368-0.389,0.691-0.703,0.972
		c-0.314,0.28-0.71,0.505-1.189,0.675c-0.479,0.169-1.037,0.253-1.675,0.253c-0.609,0-1.196-0.094-1.762-0.282
		s-1.095-0.48-1.588-0.877l0.914-1.45c0.251,0.184,0.48,0.338,0.688,0.464s0.409,0.225,0.602,0.297s0.382,0.123,0.565,0.152
		s0.382,0.044,0.594,0.044c0.658,0,1.141-0.131,1.45-0.392c0.309-0.261,0.464-0.624,0.464-1.088v-0.188
		c0-0.512-0.15-0.887-0.449-1.124c-0.3-0.236-0.783-0.354-1.45-0.354h-1.406v-1.596h1.247c0.328,0,0.597-0.036,0.805-0.108
		c0.208-0.072,0.37-0.174,0.485-0.305c0.116-0.13,0.196-0.29,0.239-0.479c0.044-0.188,0.065-0.394,0.065-0.616v-0.116
		c0-0.396-0.128-0.684-0.384-0.862c-0.256-0.179-0.602-0.269-1.037-0.269c-0.445,0-0.805,0.083-1.08,0.247
		c-0.276,0.164-0.529,0.372-0.762,0.623L21.312,58.146z"/>
	<path fill="#9E9E9E" d="M39.045,61.887l3.248,5.365h-2.146l-2.393-4.22l-2.32,4.22h-2.088l3.233-5.467l-2.973-4.987h2.233
		l2.088,3.856l2.16-3.856h2.074L39.045,61.887z"/>
	<path fill="#9E9E9E" d="M51.196,67.252v-8.366l-2.378,1.362l-0.899-1.508l3.494-1.942h1.639v10.454H51.196z"/>
	<path fill="#9E9E9E" d="M63.623,62.829c0,1.489-0.314,2.625-0.943,3.408c-0.628,0.782-1.575,1.174-2.842,1.174
		c-1.247,0-2.209-0.396-2.885-1.188c-0.677-0.793-1.016-1.924-1.016-3.394v-1.624c0-1.469,0.336-2.598,1.008-3.386
		c0.672-0.787,1.622-1.182,2.85-1.182c1.237,0,2.185,0.395,2.842,1.182c0.657,0.788,0.986,1.917,0.986,3.386V62.829z M61.752,61.191
		c0-0.6-0.056-1.083-0.167-1.45c-0.11-0.367-0.256-0.65-0.435-0.849s-0.387-0.331-0.623-0.398c-0.237-0.067-0.481-0.102-0.732-0.102
		c-0.242,0-0.481,0.034-0.718,0.102c-0.237,0.067-0.45,0.203-0.639,0.406c-0.188,0.202-0.34,0.488-0.456,0.855
		s-0.174,0.846-0.174,1.436v1.652c0,0.6,0.06,1.083,0.181,1.45s0.278,0.652,0.472,0.855s0.41,0.339,0.652,0.406
		c0.241,0.067,0.483,0.102,0.725,0.102c0.252,0,0.493-0.034,0.726-0.102c0.231-0.067,0.435-0.2,0.608-0.398s0.314-0.481,0.421-0.849
		s0.159-0.855,0.159-1.465V61.191z"/>
	<path fill="#9E9E9E" d="M70.699,63.758c0-0.561-0.162-0.991-0.486-1.291c-0.324-0.299-0.775-0.449-1.355-0.449
		c-0.444,0-0.829,0.082-1.152,0.246c-0.324,0.165-0.603,0.358-0.834,0.58h-1.247l0.333-6.046h5.931v1.537h-4.263l-0.116,2.726
		c0.241-0.146,0.518-0.271,0.826-0.377c0.31-0.106,0.682-0.159,1.117-0.159c0.502,0,0.947,0.087,1.334,0.261
		s0.713,0.408,0.979,0.703s0.466,0.636,0.602,1.022s0.203,0.788,0.203,1.203v0.218c0,0.416-0.07,0.831-0.21,1.247
		c-0.141,0.416-0.362,0.788-0.667,1.116c-0.305,0.329-0.691,0.597-1.16,0.805s-1.032,0.312-1.689,0.312
		c-0.754,0-1.431-0.084-2.03-0.253c-0.599-0.17-1.159-0.472-1.682-0.906l0.899-1.465c0.241,0.193,0.479,0.353,0.71,0.479
		c0.232,0.126,0.462,0.223,0.688,0.29c0.228,0.067,0.457,0.113,0.689,0.138c0.231,0.024,0.469,0.036,0.71,0.036
		c0.639,0,1.109-0.172,1.414-0.515s0.457-0.775,0.457-1.298V63.758z"/>
	<path fill="#9E9E9E" d="M76.02,62.902c0,1.102,0.146,2.194,0.436,3.276c0.29,1.083,0.807,2.137,1.551,3.161h-1.739
		c-0.726-0.86-1.262-1.842-1.61-2.943c-0.348-1.102-0.521-2.291-0.521-3.567v-0.58c0-1.275,0.174-2.46,0.521-3.552
		c0.349-1.093,0.885-2.068,1.61-2.93h1.739c-0.715,0.967-1.225,1.984-1.529,3.053s-0.457,2.188-0.457,3.356V62.902z"/>
	<path fill="#9E9E9E" d="M83.502,67.368c-0.484,0-0.899-0.085-1.247-0.254c-0.349-0.169-0.629-0.394-0.842-0.674v3.915h-1.826
		V59.263h1.754v0.87c0.136-0.203,0.295-0.372,0.479-0.508s0.375-0.241,0.573-0.319c0.197-0.077,0.4-0.133,0.608-0.166
		c0.208-0.034,0.403-0.051,0.588-0.051c0.521,0,0.979,0.082,1.37,0.246s0.718,0.394,0.979,0.688s0.457,0.652,0.587,1.073
		c0.131,0.421,0.196,0.887,0.196,1.399v1.406c0,0.542-0.075,1.024-0.225,1.45c-0.15,0.426-0.365,0.788-0.646,1.088
		c-0.28,0.299-0.619,0.529-1.015,0.688C84.439,67.288,83.994,67.368,83.502,67.368z M84.908,62.786c0-0.677-0.131-1.201-0.392-1.573
		s-0.687-0.559-1.276-0.559c-0.608,0-1.07,0.177-1.385,0.529c-0.313,0.354-0.471,0.805-0.471,1.355v1.697
		c0,0.184,0.048,0.369,0.145,0.558s0.228,0.358,0.392,0.508c0.164,0.15,0.362,0.273,0.595,0.37c0.231,0.097,0.488,0.145,0.769,0.145
		c0.531,0,0.936-0.186,1.211-0.559c0.275-0.371,0.413-0.892,0.413-1.559V62.786z"/>
	<path fill="#9E9E9E" d="M92.317,63.105l2.523,4.146h-2.176l-1.58-2.914l-1.595,2.914h-2.06l2.581-4.146l-2.479-3.843h2.189
		l1.494,2.668l1.536-2.668h2.016L92.317,63.105z"/>
	<path fill="#9E9E9E" d="M97.581,62.177c0-1.169-0.152-2.288-0.457-3.356s-0.814-2.086-1.529-3.053h1.74
		c0.725,0.861,1.261,1.837,1.609,2.93c0.348,1.092,0.521,2.276,0.521,3.552v0.58c0,1.276-0.174,2.466-0.521,3.567
		c-0.349,1.102-0.885,2.083-1.609,2.943h-1.74c0.744-1.024,1.262-2.078,1.552-3.161c0.29-1.082,0.435-2.175,0.435-3.276V62.177z"/>
</g>
</svg>
