<?xml version="1.0" encoding="utf-8"?>
<!-- Generator: Adobe Illustrator 16.0.0, SVG Export Plug-In . SVG Version: 6.00 Build 0)  -->
<!DOCTYPE svg PUBLIC "-//W3C//DTD SVG 1.1//EN" "http://www.w3.org/Graphics/SVG/1.1/DTD/svg11.dtd">
<svg version="1.1" id="레이어_1" xmlns="http://www.w3.org/2000/svg" xmlns:xlink="http://www.w3.org/1999/xlink" x="0px"
	 y="0px" width="100px" height="100px" viewBox="0 0 100 100" enable-background="new 0 0 100 100" xml:space="preserve">
<g>
	<polyline fill="none" stroke="#FFFFFF" stroke-width="2" stroke-linejoin="round" stroke-miterlimit="10" points="531.676,103.996 
		531.676,132.416 507.111,118.498 507.111,105.08 	"/>
	<polyline fill="none" stroke="#FFFFFF" stroke-width="2" stroke-linejoin="round" stroke-miterlimit="10" points="531.676,103.996 
		531.676,132.416 556.24,118.498 556.24,105.66 	"/>
	<polygon fill="none" stroke="#FFFFFF" stroke-width="2" stroke-linejoin="round" stroke-miterlimit="10" points="531.676,104.08 
		507.111,89.469 531.676,75.912 556.24,89.469 	"/>
	<polygon fill="none" stroke="#FFFFFF" stroke-width="2" stroke-linejoin="round" stroke-miterlimit="10" points="531.676,103.996 
		523.771,116.104 499.291,100.895 506.879,89.623 	"/>
	<polygon fill="none" stroke="#FFFFFF" stroke-width="2" stroke-linejoin="round" stroke-miterlimit="10" points="531.688,103.996 
		539.592,116.104 564.072,100.896 556.484,89.623 	"/>
	<path fill="none" stroke="#FFFFFF" stroke-width="10" stroke-linejoin="bevel" stroke-miterlimit="10" d="M531.682,85.874"/>
	
		<linearGradient id="SVGID_1_" gradientUnits="userSpaceOnUse" x1="713.1309" y1="-299.2822" x2="745.5391" y2="-299.2822" gradientTransform="matrix(1 0 0 -1 -197.6602 -219.96)">
		<stop  offset="0" style="stop-color:#E91E63"/>
		<stop  offset="1" style="stop-color:#F56388"/>
	</linearGradient>
	<path fill="url(#SVGID_1_)" d="M547.879,73.725c0-4.832-3.674-8.277-8.512-8.277c-3.354,0-6.271,1.416-7.74,4.188
		c-1.551-2.453-4.284-4.082-7.402-4.082c-4.833,0-8.754,3.916-8.754,8.752c0,2.516,1.063,4.779,2.761,6.375l0,0l0.005,0.006
		c0.041,0.039,0.084,0.078,0.125,0.119l13.316,12.393l12.664-12.191l0.338-0.328C546.486,78.813,547.879,76.557,547.879,73.725z"/>
</g>
<polyline fill="none" stroke="#FFFFFF" stroke-width="2" stroke-linejoin="round" stroke-miterlimit="10" points="-47.006,57.564 
	-47.006,85.984 -71.57,72.066 -71.57,43.648 "/>
<polyline fill="none" stroke="#FFFFFF" stroke-width="2" stroke-linejoin="round" stroke-miterlimit="10" points="-47.006,57.564 
	-47.006,85.984 -22.441,72.066 -22.441,43.229 "/>
<polygon fill="none" stroke="#FFFFFF" stroke-width="2" stroke-linejoin="round" stroke-miterlimit="10" points="-47.006,57.648 
	-71.57,43.037 -47.006,29.48 -22.441,43.037 "/>
<line fill="none" stroke="#FFFFFF" stroke-width="2" stroke-linejoin="round" stroke-miterlimit="10" x1="194.717" y1="100.001" x2="185.504" y2="94.277"/>
<polygon fill="none" stroke="#FFFFFF" stroke-width="2" stroke-linejoin="round" stroke-miterlimit="10" points="-72.986,140.78 
	-65.083,152.888 -40.602,137.68 -48.189,126.406 "/>
<path fill="none" stroke="#FFFFFF" stroke-width="10" stroke-linejoin="bevel" stroke-miterlimit="10" d="M-47,39.442"/>
<linearGradient id="SVGID_2_" gradientUnits="userSpaceOnUse" x1="299.7832" y1="-333.0596" x2="332.1914" y2="-333.0596" gradientTransform="matrix(1 0 0 -1 -197.6602 -219.96)">
	<stop  offset="0" style="stop-color:#E91E63"/>
	<stop  offset="1" style="stop-color:#F56388"/>
</linearGradient>
<path fill="url(#SVGID_2_)" d="M134.531,107.503c0-4.832-3.674-8.278-8.512-8.278c-3.354,0-6.271,1.416-7.74,4.188
	c-1.551-2.453-4.284-4.083-7.402-4.083c-4.833,0-8.754,3.917-8.754,8.753c0,2.515,1.063,4.778,2.761,6.375l0,0l0.005,0.005
	c0.041,0.039,0.084,0.079,0.125,0.119l13.316,12.393l12.665-12.191l0.338-0.328C133.139,112.59,134.531,110.335,134.531,107.503z"/>
<polyline fill="none" stroke="#FFFFFF" stroke-width="2" stroke-linejoin="round" stroke-miterlimit="10" points="190.11,112.933 
	190.11,141.353 165.547,127.435 165.547,99.017 "/>
<polyline fill="none" stroke="#FFFFFF" stroke-width="2" stroke-linejoin="round" stroke-miterlimit="10" points="190.11,112.933 
	190.11,141.353 214.675,127.435 214.675,98.597 "/>
<polygon fill="none" stroke="#FFFFFF" stroke-width="2" stroke-linejoin="round" stroke-miterlimit="10" points="190.11,113.017 
	165.547,98.405 190.11,84.848 214.675,98.405 "/>
<path fill="none" stroke="#FFFFFF" stroke-width="10" stroke-linejoin="bevel" stroke-miterlimit="10" d="M190.116,94.811"/>
<rect x="3.833" y="122.834" fill="none" stroke="#FFFFFF" stroke-width="2" stroke-linejoin="round" stroke-miterlimit="10" width="33.878" height="23"/>
<rect x="143.464" y="50" fill="none" stroke="#FFFFFF" stroke-miterlimit="10" width="42.034" height="20.328"/>
<circle fill="none" stroke="#FFFFFF" stroke-miterlimit="10" cx="164.332" cy="60.23" r="6.167"/>
<text transform="matrix(1 0 0 1 160.165 63.79)" fill="#FFFFFF" font-family="'NanumSquareEB'" font-size="8.8815">\</text>
<g>
	<path fill="none" stroke="#FFFFFF" stroke-linejoin="bevel" stroke-miterlimit="10" d="M182.533,64.669
		c0.261,0,0.512,0.032,0.755,0.082v-8.94c-0.243,0.05-0.494,0.082-0.755,0.082c-1.868,0-3.383-1.36-3.383-3.038
		c0-0.325,0.07-0.633,0.178-0.925h-29.381c0.106,0.292,0.178,0.6,0.178,0.925c0,1.678-1.514,3.038-3.383,3.038
		c-0.487,0-0.948-0.098-1.367-0.264v9.305c0.419-0.168,0.881-0.265,1.368-0.265c1.869,0,3.383,1.359,3.383,3.037
		c0,0.239-0.037,0.47-0.096,0.692h29.216c-0.058-0.223-0.096-0.453-0.096-0.692C179.15,66.028,180.665,64.669,182.533,64.669z"/>
</g>
<g>
	
		<rect x="184.35" y="83.519" transform="matrix(0.5179 -0.8554 0.8554 0.5179 18.1479 209.4701)" fill="none" stroke="#FFFFFF" stroke-miterlimit="10" width="21.153" height="10.229"/>
	<circle fill="none" stroke="#FFFFFF" stroke-miterlimit="10" cx="194.916" cy="88.715" r="3.103"/>
	
		<text transform="matrix(0.5179 -0.8554 0.8554 0.5179 195.3633 91.4365)" fill="#FFFFFF" font-family="'NanumSquareEB'" font-size="4.4698">\</text>
	<g>
		<path fill="none" stroke="#FFFFFF" stroke-linejoin="bevel" stroke-miterlimit="10" d="M201.571,82.035
			c0.069-0.112,0.147-0.212,0.231-0.303l-3.849-2.332c-0.042,0.118-0.094,0.234-0.162,0.347c-0.486,0.805-1.465,1.103-2.188,0.665
			c-0.14-0.084-0.255-0.195-0.353-0.317l-7.657,12.648c0.154,0.03,0.305,0.08,0.445,0.165c0.723,0.438,0.912,1.442,0.425,2.248
			c-0.127,0.209-0.289,0.382-0.469,0.52l4.006,2.425c0.038-0.223,0.114-0.448,0.242-0.656c0.486-0.805,1.466-1.103,2.188-0.665
			c0.103,0.062,0.192,0.138,0.274,0.222l7.615-12.579c-0.111-0.032-0.222-0.076-0.324-0.139
			C201.274,83.846,201.084,82.841,201.571,82.035z"/>
	</g>
</g>
<polyline fill="none" stroke="#FFFFFF" stroke-width="2" stroke-linejoin="round" stroke-miterlimit="10" points="258.907,115.499 
	258.907,137.529 234.344,126.74 234.344,104.712 "/>
<polyline fill="none" stroke="#FFFFFF" stroke-width="2" stroke-linejoin="round" stroke-miterlimit="10" points="258.907,115.499 
	258.907,137.529 283.472,126.74 283.472,104.387 "/>
<polyline fill="none" stroke="#FFFFFF" stroke-width="2" stroke-linejoin="round" stroke-miterlimit="10" points="268.875,97.563 
	283.472,104.238 258.907,115.564 234.344,104.238 250.694,97.139 "/>
<path fill="none" stroke="#FFFFFF" stroke-width="10" stroke-linejoin="bevel" stroke-miterlimit="10" d="M257.055,100.873"/>
<rect x="248.815" y="85.28" transform="matrix(0.4163 -0.9092 0.9092 0.4163 69.7016 292.5352)" fill="none" stroke="#FFFFFF" stroke-miterlimit="10" width="27.726" height="13.408"/>
<circle fill="none" stroke="#FFFFFF" stroke-width="0.5" stroke-miterlimit="10" cx="262.646" cy="91.948" r="3.765"/>
<text transform="matrix(0.4162 -0.9093 0.9093 0.4162 263.5645 95.166)" fill="#FFFFFF" font-family="'NanumSquareEB'" font-size="5.4239">\</text>
<g>
	<path fill="none" stroke="#FFFFFF" stroke-width="0.5" stroke-linejoin="bevel" stroke-miterlimit="10" d="M269.738,82.968
		c0.068-0.144,0.148-0.275,0.236-0.396l-4.965-2.276c-0.034,0.149-0.079,0.298-0.147,0.441c-0.473,1.037-1.611,1.532-2.543,1.107
		c-0.183-0.083-0.336-0.199-0.471-0.333l-7.468,16.314c0.189,0.014,0.379,0.053,0.56,0.137c0.933,0.426,1.301,1.61,0.827,2.65
		c-0.125,0.271-0.296,0.501-0.494,0.691l5.167,2.364c0.014-0.273,0.074-0.556,0.201-0.825c0.475-1.036,1.613-1.534,2.545-1.105
		c0.132,0.059,0.251,0.139,0.362,0.229l7.426-16.227c-0.14-0.023-0.278-0.061-0.411-0.121
		C269.632,85.192,269.262,84.009,269.738,82.968z"/>
</g>
<text transform="matrix(1.4549 0.6583 -0.0702 0.9975 237.2715 124.4746)" fill="#FFFFFF" font-family="'NanumBarunGothicBold'" font-size="8.3864">TIP</text>
<text transform="matrix(0.8874 -0.3769 0.2667 0.9638 263.4512 131.8174)" fill="#FFFFFF" font-family="'NanumBarunGothicBold'" font-size="10.0773">BOX</text>
<polyline fill="none" stroke="#FFFFFF" stroke-width="2" stroke-linejoin="round" stroke-miterlimit="10" points="226.956,46.933 
	226.956,71.428 202.393,59.432 202.393,34.939 "/>
<polyline fill="none" stroke="#FFFFFF" stroke-width="2" stroke-linejoin="round" stroke-miterlimit="10" points="226.956,46.933 
	226.956,71.428 251.521,59.432 251.521,34.578 "/>
<polyline fill="none" stroke="#FFFFFF" stroke-width="2" stroke-linejoin="round" stroke-miterlimit="10" points="238.164,28.059 
	251.521,34.413 226.956,47.005 202.393,34.413 224.286,23.997 "/>
<path fill="none" stroke="#FFFFFF" stroke-width="10" stroke-linejoin="bevel" stroke-miterlimit="10" d="M225.962,31.788"/>
<rect x="220.094" y="18.131" transform="matrix(0.5179 -0.8554 0.8554 0.5179 91.4176 210.1473)" fill="none" stroke="#FFFFFF" stroke-miterlimit="10" width="24.129" height="11.669"/>
<circle fill="none" stroke="#FFFFFF" stroke-width="0.5" stroke-miterlimit="10" cx="232.147" cy="24.058" r="3.54"/>
<text transform="matrix(0.5179 -0.8554 0.8554 0.5179 232.6563 27.1616)" fill="#FFFFFF" font-family="'NanumSquareEB'" font-size="5.0987">\</text>
<g>
	<path fill="none" stroke="#FFFFFF" stroke-width="0.5" stroke-linejoin="bevel" stroke-miterlimit="10" d="M239.738,16.438
		c0.08-0.128,0.168-0.242,0.264-0.345l-4.39-2.661c-0.048,0.135-0.106,0.269-0.186,0.396c-0.554,0.917-1.67,1.257-2.495,0.759
		c-0.16-0.097-0.291-0.224-0.403-0.362l-8.734,14.428c0.176,0.035,0.348,0.091,0.508,0.188c0.824,0.499,1.041,1.645,0.485,2.564
		c-0.146,0.238-0.33,0.436-0.535,0.592l4.569,2.767c0.043-0.254,0.13-0.512,0.276-0.749c0.555-0.917,1.672-1.258,2.496-0.759
		c0.117,0.071,0.22,0.158,0.313,0.254l8.687-14.35c-0.127-0.037-0.252-0.087-0.37-0.158C239.4,18.503,239.183,17.358,239.738,16.438
		z"/>
</g>
<text transform="matrix(0.9896 0.409 -0.209 0.9779 206.1523 57.2627)" fill="#FFFFFF" font-family="'NanumSquareEB'" font-size="10">TIP</text>
<text transform="matrix(0.8096 -0.3831 0.3507 0.9365 231.7129 63.4395)" fill="#FFFFFF" font-family="'NanumSquareEB'" font-size="10.4281">BOX</text>
<text transform="matrix(1.045 0.4485 -0.2533 0.9674 95.5332 305.3145)" fill="#FFFFFF" font-family="'NanumSquareEB'" font-size="12.7146">TIP</text>
<text transform="matrix(0.7996 -0.348 0.3464 0.9381 134.5313 315.7646)" fill="#FFFFFF" font-family="'NanumSquareEB'" font-size="13.8712">BOX</text>
<polyline fill="none" stroke="#FFFFFF" stroke-width="2" stroke-linejoin="round" stroke-miterlimit="10" points="125.525,293.484 
	125.525,325.997 89.273,310.074 89.273,277.563 "/>
<polyline fill="none" stroke="#FFFFFF" stroke-width="2" stroke-linejoin="round" stroke-miterlimit="10" points="125.525,293.484 
	125.525,325.997 161.778,310.074 161.778,277.084 "/>
<polyline fill="none" stroke="#FFFFFF" stroke-width="2" stroke-linejoin="round" stroke-miterlimit="10" points="140.236,267.012 
	161.778,276.865 125.525,293.58 89.273,276.865 113.404,266.387 "/>
<path fill="none" stroke="#FFFFFF" stroke-width="10" stroke-linejoin="bevel" stroke-miterlimit="10" d="M122.791,271.898"/>
<polygon fill="none" stroke="#FFFFFF" stroke-miterlimit="10" points="148.603,244.294 131.57,281.5 113.577,273.265 
	130.605,236.053 "/>
<path fill="none" stroke="#FFFFFF" stroke-width="0.5" stroke-miterlimit="10" d="M133.357,253.674
	c2.793,1.276,4.015,4.576,2.741,7.367c-1.278,2.787-4.578,4.02-7.368,2.737c-2.79-1.277-4.021-4.575-2.741-7.368
	C127.27,253.623,130.565,252.395,133.357,253.674z"/>
<text transform="matrix(0.4162 -0.9093 0.9093 0.4162 132.3975 263.4746)" fill="#FFFFFF" font-family="'NanumSquareEB'" font-size="8.0049">\</text>
<g>
	<path fill="none" stroke="#FFFFFF" stroke-linejoin="bevel" stroke-miterlimit="10" d="M141.51,245.473
		c0.102-0.212,0.22-0.406,0.35-0.584l-7.328-3.359c-0.05,0.221-0.116,0.439-0.217,0.652c-0.698,1.529-2.379,2.261-3.753,1.634
		c-0.27-0.122-0.496-0.294-0.695-0.491l-11.021,24.077c0.28,0.021,0.56,0.078,0.826,0.202c1.376,0.628,1.92,2.377,1.221,3.911
		c-0.185,0.399-0.437,0.739-0.729,1.021l7.626,3.489c0.021-0.403,0.109-0.819,0.297-1.218c0.7-1.529,2.381-2.264,3.756-1.631
		c0.194,0.086,0.37,0.204,0.535,0.338l10.959-23.947c-0.206-0.035-0.411-0.09-0.606-0.18
		C141.354,248.756,140.807,247.01,141.51,245.473z"/>
</g>
<text transform="matrix(1.045 0.4485 -0.2533 0.9674 211.04 308.5322)" fill="#FFFFFF" font-family="'NanumSquareEB'" font-size="12.7146">TIP</text>
<text transform="matrix(0.7996 -0.348 0.3464 0.9381 250.0381 318.9824)" fill="#FFFFFF" font-family="'NanumSquareEB'" font-size="13.8712">BOX</text>
<polyline fill="none" stroke="#FFFFFF" stroke-width="2" stroke-linejoin="round" stroke-miterlimit="10" points="241.032,296.702 
	241.032,329.215 204.78,313.292 204.78,280.781 "/>
<polyline fill="none" stroke="#FFFFFF" stroke-width="2" stroke-linejoin="round" stroke-miterlimit="10" points="241.032,296.702 
	241.032,329.215 277.285,313.292 277.285,280.302 "/>
<polyline fill="none" stroke="#FFFFFF" stroke-width="2" stroke-linejoin="round" stroke-miterlimit="10" points="254.625,269.604 
	277.285,280.083 241.032,296.798 204.78,280.083 229.5,269.604 "/>
<path fill="none" stroke="#FFFFFF" stroke-width="10" stroke-linejoin="bevel" stroke-miterlimit="10" d="M238.298,275.116"/>
<path fill="none" stroke="#FFFFFF" stroke-width="1.5" stroke-miterlimit="10" d="M249.717,251.897
	c3.743,1.711,5.379,6.133,3.674,9.874c-1.714,3.734-6.136,5.386-9.876,3.668c-3.738-1.712-5.388-6.132-3.673-9.875
	C241.557,251.83,245.975,250.184,249.717,251.897z"/>
<text transform="matrix(0.4162 -0.9093 0.9093 0.4162 248.416 264.7881)" fill="#FFFFFF" font-family="'NanumSquareEB'" font-size="9.7895">\</text>
<g>
	<path fill="#FFFFFF" d="M246.226,230.753L225.4,276.261l22.005,10.071l20.829-45.501L246.226,230.753z M247.823,278.21
		c-1.852-0.851-4.111,0.136-5.053,2.192c-0.253,0.536-0.372,1.096-0.398,1.639l-10.258-4.694c0.393-0.378,0.732-0.834,0.98-1.372
		c0.94-2.063,0.208-4.417-1.642-5.261c-0.359-0.167-0.734-0.245-1.111-0.271l14.825-32.386c0.269,0.266,0.571,0.496,0.934,0.661
		c1.85,0.843,4.111-0.141,5.049-2.198c0.134-0.286,0.225-0.58,0.292-0.877l9.856,4.519c-0.175,0.239-0.333,0.5-0.471,0.785
		c-0.946,2.068-0.21,4.416,1.64,5.265c0.263,0.121,0.538,0.195,0.815,0.241l-14.74,32.212
		C248.32,278.484,248.083,278.324,247.823,278.21z"/>
</g>
<g>
	<path fill="#FFFFFF" stroke="#FFFFFF" stroke-miterlimit="10" d="M343.853,312.723l-1.662-0.713l2.152-8.217l-3.269-1.403
		l0.338-1.291l8.211,3.523l-0.338,1.292l-3.281-1.408L343.853,312.723z"/>
	<path fill="#FFFFFF" stroke="#FFFFFF" stroke-miterlimit="10" d="M353.197,306.156l-2.489,9.509l-1.674-0.719l2.489-9.508
		L353.197,306.156z"/>
	<path fill="#FFFFFF" stroke="#FFFFFF" stroke-miterlimit="10" d="M361.718,313.015c-0.127,0.484-0.327,0.884-0.603,1.199
		c-0.274,0.315-0.603,0.543-0.984,0.686c-0.382,0.142-0.816,0.192-1.305,0.151c-0.485-0.04-1.001-0.177-1.541-0.408l-1.289-0.553
		l-0.905,3.456l-1.672-0.718l2.489-9.509l2.909,1.249c0.585,0.251,1.086,0.546,1.505,0.886c0.419,0.339,0.749,0.705,0.992,1.096
		c0.241,0.392,0.396,0.798,0.463,1.219C361.845,312.189,361.825,312.605,361.718,313.015z M360.041,312.363
		c0.131-0.5,0.063-0.978-0.2-1.434c-0.266-0.456-0.798-0.854-1.595-1.196l-1.01-0.434l-0.921,3.518l0.877,0.377
		c0.753,0.322,1.379,0.408,1.877,0.258C359.566,313.3,359.891,312.938,360.041,312.363z"/>
</g>
<g>
	<path fill="#FFFFFF" stroke="#FFFFFF" stroke-miterlimit="10" d="M382.188,313.408c0.256-0.052,0.518-0.052,0.785-0.002
		c0.267,0.049,0.52,0.148,0.76,0.297c0.238,0.147,0.457,0.339,0.656,0.575c0.198,0.236,0.356,0.514,0.475,0.834
		c0.142,0.382,0.219,0.782,0.23,1.199c0.013,0.418-0.05,0.823-0.188,1.215c-0.138,0.393-0.36,0.756-0.666,1.091
		c-0.306,0.334-0.702,0.607-1.19,0.819l-2.918,1.27l-3.714-10.059l2.862-1.245c0.443-0.193,0.854-0.293,1.229-0.3
		c0.375-0.008,0.712,0.052,1.012,0.178c0.3,0.127,0.555,0.311,0.764,0.553c0.209,0.24,0.369,0.509,0.478,0.804
		c0.192,0.521,0.239,1.016,0.144,1.485c-0.098,0.471-0.338,0.895-0.722,1.272L382.188,313.408z M379.559,310.853l-1.265,0.551
		l0.979,2.654l1.165-0.508c0.459-0.199,0.783-0.458,0.975-0.778c0.19-0.32,0.187-0.749-0.012-1.286
		c-0.135-0.365-0.355-0.614-0.662-0.747S380.039,310.644,379.559,310.853z M380.993,314.774l-1.254,0.545l1.269,3.436l1.42-0.617
		c0.503-0.219,0.838-0.552,1.004-0.997c0.167-0.444,0.158-0.914-0.024-1.408c-0.183-0.495-0.48-0.843-0.895-1.046
		C382.099,314.485,381.593,314.514,380.993,314.774z"/>
	<path fill="#FFFFFF" stroke="#FFFFFF" stroke-miterlimit="10" d="M391.257,316.001c-0.592,0.258-1.17,0.356-1.732,0.294
		c-0.564-0.062-1.092-0.253-1.583-0.572c-0.491-0.32-0.936-0.756-1.333-1.309c-0.396-0.552-0.728-1.188-0.994-1.907
		c-0.266-0.721-0.432-1.431-0.497-2.133c-0.066-0.701-0.023-1.354,0.126-1.958c0.15-0.604,0.409-1.142,0.776-1.614
		c0.365-0.471,0.845-0.835,1.437-1.093c0.599-0.261,1.181-0.358,1.746-0.292s1.095,0.261,1.587,0.585
		c0.493,0.325,0.941,0.764,1.344,1.318c0.402,0.557,0.736,1.193,1.002,1.914c0.266,0.72,0.429,1.429,0.489,2.126
		c0.061,0.699,0.016,1.349-0.137,1.948c-0.151,0.6-0.412,1.134-0.78,1.601C392.339,315.377,391.855,315.74,391.257,316.001z
		 M390.747,314.621c0.385-0.167,0.688-0.403,0.908-0.712c0.222-0.308,0.369-0.67,0.44-1.09c0.073-0.419,0.074-0.88,0.005-1.384
		c-0.07-0.503-0.207-1.032-0.413-1.589c-0.205-0.555-0.442-1.042-0.714-1.463c-0.271-0.42-0.565-0.753-0.884-0.997
		c-0.317-0.244-0.654-0.397-1.012-0.458c-0.356-0.062-0.729-0.009-1.112,0.158c-0.378,0.164-0.676,0.403-0.895,0.716
		c-0.221,0.312-0.367,0.676-0.441,1.09c-0.074,0.415-0.074,0.875,0.001,1.381c0.076,0.506,0.216,1.036,0.421,1.591
		c0.205,0.557,0.44,1.043,0.706,1.461s0.559,0.752,0.878,1c0.319,0.25,0.656,0.401,1.013,0.458
		C390.004,314.841,390.37,314.785,390.747,314.621z"/>
	<path fill="#FFFFFF" stroke="#FFFFFF" stroke-miterlimit="10" d="M398.275,306.905l4.585,3.91l-1.531,0.666l-3.279-2.953
		l-0.021,0.01l-0.492,4.595l-1.531,0.666l0.863-6.206l-0.01-0.025l-4.512-3.852l1.52-0.661l3.212,2.876l0.022-0.01l0.459-4.474
		l1.52-0.661l-0.813,6.094L398.275,306.905z"/>
</g>
<polyline fill="none" stroke="#FFFFFF" stroke-width="2" stroke-linejoin="round" stroke-miterlimit="10" points="371.046,298.218 
	371.046,330.73 334.794,314.808 334.794,282.297 "/>
<polyline fill="none" stroke="#FFFFFF" stroke-width="2" stroke-linejoin="round" stroke-miterlimit="10" points="371.046,298.218 
	371.046,330.73 407.299,314.808 407.299,281.817 "/>
<polyline fill="none" stroke="#FFFFFF" stroke-width="2" stroke-linejoin="round" stroke-miterlimit="10" points="383.5,270.625 
	407.299,281.599 371.046,298.313 334.794,281.599 361.625,269.375 "/>
<path fill="none" stroke="#FFFFFF" stroke-width="10" stroke-linejoin="bevel" stroke-miterlimit="10" d="M368.107,277.68"/>
<path fill="none" stroke="#FFFFFF" stroke-width="1.5" stroke-miterlimit="10" d="M378.757,256.135
	c3.651,1.668,5.245,5.979,3.582,9.626c-1.67,3.641-5.98,5.251-9.627,3.574c-3.646-1.667-5.252-5.978-3.582-9.626
	C370.804,256.068,375.109,254.464,378.757,256.135z"/>
<text transform="matrix(0.4162 -0.9093 0.9093 0.4162 377.2813 268.7793)" fill="#FFFFFF" font-family="'NanumSquareEB'" font-size="10">\</text>
<g>
	<path fill="#FFFFFF" d="M375.295,237.459l-18.881,41.258l19.95,9.131l18.884-41.252L375.295,237.459z M376.743,280.484
		c-1.679-0.771-3.728,0.123-4.581,1.987c-0.229,0.486-0.337,0.993-0.361,1.485l-9.3-4.256c0.355-0.343,0.664-0.756,0.889-1.244
		c0.853-1.869,0.188-4.004-1.488-4.77c-0.325-0.151-0.666-0.222-1.008-0.246l13.441-29.361c0.243,0.241,0.518,0.45,0.847,0.6
		c1.677,0.765,3.727-0.127,4.577-1.993c0.121-0.259,0.203-0.525,0.265-0.795l8.936,4.097c-0.158,0.217-0.302,0.453-0.427,0.712
		c-0.857,1.875-0.19,4.004,1.487,4.773c0.237,0.109,0.487,0.177,0.739,0.219l-13.364,29.203
		C377.193,280.732,376.979,280.588,376.743,280.484z"/>
</g>
<g>
	<path fill="#FFFFFF" stroke="#FFFFFF" stroke-miterlimit="10" d="M466.198,317.329l-1.559-0.637l0.076-9.722l-3.063-1.255
		l0.011-1.527l7.696,3.151l-0.011,1.527l-3.076-1.259L466.198,317.329z"/>
	<path fill="#FFFFFF" stroke="#FFFFFF" stroke-miterlimit="10" d="M472.71,308.712l-0.087,11.248l-1.568-0.643l0.087-11.248
		L472.71,308.712z"/>
	<path fill="#FFFFFF" stroke="#FFFFFF" stroke-miterlimit="10" d="M481.376,315.675c-0.004,0.573-0.089,1.057-0.255,1.451
		c-0.165,0.396-0.395,0.693-0.688,0.901c-0.293,0.205-0.649,0.313-1.071,0.319c-0.419,0.008-0.885-0.092-1.391-0.3l-1.208-0.494
		l-0.032,4.09L475.164,321l0.087-11.249l2.727,1.117c0.549,0.225,1.035,0.509,1.462,0.854c0.427,0.344,0.784,0.729,1.072,1.154
		c0.287,0.424,0.505,0.875,0.65,1.354C481.309,314.709,481.38,315.19,481.376,315.675z M479.819,315.11
		c0.005-0.591-0.154-1.135-0.475-1.632c-0.321-0.496-0.855-0.896-1.603-1.202l-0.946-0.388l-0.032,4.161l0.821,0.337
		c0.706,0.288,1.254,0.318,1.644,0.089C479.616,316.244,479.814,315.79,479.819,315.11z"/>
</g>
<g>
	<path fill="#FFFFFF" stroke="#FFFFFF" stroke-miterlimit="10" d="M502.852,315.57c0.203-0.036,0.396-0.004,0.58,0.092
		c0.183,0.097,0.342,0.257,0.477,0.48s0.242,0.5,0.323,0.834c0.079,0.333,0.119,0.715,0.117,1.149
		c-0.003,0.517-0.059,1.051-0.166,1.599c-0.108,0.549-0.269,1.072-0.479,1.568c-0.213,0.497-0.479,0.945-0.797,1.349
		c-0.319,0.399-0.688,0.709-1.107,0.929l-2.508,1.311l0.078-13.623l2.459-1.286c0.381-0.2,0.712-0.28,0.99-0.243
		c0.279,0.035,0.511,0.153,0.696,0.354c0.187,0.203,0.322,0.473,0.41,0.816c0.086,0.341,0.128,0.711,0.126,1.11
		c-0.004,0.704-0.107,1.358-0.31,1.962c-0.205,0.605-0.501,1.132-0.89,1.58V315.57z M501.627,311.905l-1.086,0.569l-0.022,3.595
		l1.003-0.525c0.394-0.205,0.706-0.505,0.937-0.901s0.348-0.958,0.353-1.686c0.002-0.494-0.091-0.848-0.28-1.059
		C502.341,311.687,502.041,311.689,501.627,311.905z M501.587,317.216l-1.078,0.563l-0.025,4.652l1.22-0.636
		c0.433-0.227,0.773-0.623,1.02-1.185c0.249-0.563,0.373-1.179,0.377-1.85c0.004-0.669-0.118-1.16-0.366-1.477
		C502.482,316.971,502.103,316.946,501.587,317.216z"/>
	<path fill="#FFFFFF" stroke="#FFFFFF" stroke-miterlimit="10" d="M508.815,320.062c-0.51,0.267-0.964,0.325-1.361,0.175
		c-0.399-0.148-0.734-0.462-1.008-0.939c-0.272-0.479-0.478-1.103-0.616-1.875c-0.138-0.771-0.204-1.644-0.199-2.617
		c0.006-0.977,0.082-1.927,0.231-2.854c0.147-0.926,0.361-1.775,0.64-2.55c0.281-0.772,0.623-1.445,1.025-2.021
		c0.402-0.572,0.858-0.991,1.367-1.258c0.514-0.269,0.971-0.325,1.369-0.171c0.397,0.155,0.734,0.474,1.007,0.957
		c0.272,0.486,0.481,1.115,0.622,1.89c0.141,0.777,0.209,1.652,0.202,2.627c-0.005,0.977-0.083,1.925-0.234,2.845
		c-0.15,0.924-0.366,1.769-0.646,2.535c-0.278,0.768-0.621,1.435-1.023,2.002C509.788,319.375,509.329,319.793,508.815,320.062z
		 M508.825,318.192c0.331-0.173,0.621-0.445,0.869-0.822c0.25-0.376,0.46-0.833,0.63-1.374c0.173-0.539,0.302-1.144,0.392-1.813
		c0.089-0.667,0.137-1.377,0.14-2.131c0.004-0.751-0.033-1.419-0.115-2.002c-0.083-0.582-0.207-1.054-0.373-1.413
		c-0.166-0.357-0.373-0.6-0.619-0.722c-0.244-0.124-0.535-0.1-0.863,0.073c-0.325,0.168-0.611,0.447-0.861,0.829
		c-0.249,0.382-0.459,0.842-0.632,1.374c-0.169,0.535-0.299,1.137-0.386,1.809c-0.085,0.672-0.13,1.383-0.134,2.136
		c-0.005,0.753,0.031,1.419,0.111,1.998c0.077,0.579,0.2,1.052,0.367,1.416c0.166,0.367,0.371,0.604,0.619,0.723
		C508.215,318.391,508.501,318.362,508.825,318.192z"/>
	<path fill="#FFFFFF" stroke="#FFFFFF" stroke-miterlimit="10" d="M516.54,308.996l2.286,5.676l-1.316,0.687l-1.59-4.263l-0.02,0.01
		l-1.65,5.958l-1.316,0.688l2.376-8.026l-0.001-0.034l-2.249-5.588l1.306-0.684l1.564,4.155l0.02-0.011l1.591-5.803l1.307-0.684
		l-2.307,7.883V308.996z"/>
</g>
<polyline fill="none" stroke="#FFFFFF" stroke-width="2" stroke-linejoin="round" stroke-miterlimit="10" points="490.5,300.455 
	490.5,332.968 454.248,317.045 454.248,284.534 "/>
<polyline fill="none" stroke="#FFFFFF" stroke-width="2" stroke-linejoin="round" stroke-miterlimit="10" points="490.5,300.455 
	490.5,332.968 526.753,317.045 526.753,284.055 "/>
<polyline fill="none" stroke="#FFFFFF" stroke-width="2" stroke-linejoin="round" stroke-miterlimit="10" points="502.954,272.862 
	526.753,283.836 490.5,300.551 454.248,283.836 481.079,271.612 "/>
<path fill="none" stroke="#FFFFFF" stroke-width="10" stroke-linejoin="bevel" stroke-miterlimit="10" d="M487.562,279.917"/>
<path fill="none" stroke="#FFFFFF" stroke-width="1.5" stroke-miterlimit="10" d="M498.211,258.372
	c3.651,1.668,5.245,5.979,3.582,9.626c-1.67,3.641-5.98,5.251-9.627,3.574c-3.646-1.667-5.252-5.978-3.582-9.626
	C490.258,258.306,494.563,256.701,498.211,258.372z"/>
<text transform="matrix(0.4162 -0.9093 0.9093 0.4162 496.7354 271.0166)" fill="#FFFFFF" font-family="'NanumSquareEB'" font-size="10">\</text>
<g>
	<path fill="#FFFFFF" d="M494.749,239.696l-18.881,41.258l19.95,9.131l18.884-41.252L494.749,239.696z M496.197,282.722
		c-1.679-0.771-3.728,0.123-4.581,1.987c-0.229,0.486-0.337,0.993-0.361,1.485l-9.3-4.256c0.355-0.343,0.664-0.756,0.889-1.244
		c0.853-1.869,0.188-4.004-1.488-4.77c-0.325-0.151-0.666-0.222-1.008-0.246l13.441-29.361c0.243,0.241,0.518,0.45,0.847,0.6
		c1.677,0.765,3.727-0.127,4.577-1.993c0.121-0.259,0.203-0.525,0.265-0.795l8.936,4.097c-0.158,0.217-0.302,0.453-0.427,0.712
		c-0.857,1.875-0.19,4.004,1.487,4.773c0.237,0.109,0.487,0.177,0.739,0.219l-13.364,29.203
		C496.647,282.97,496.433,282.825,496.197,282.722z"/>
</g>
<g>
	<path fill="#FFFFFF" stroke="#FFFFFF" stroke-miterlimit="10" d="M538.691,460.817l-1.559-0.637l0.076-9.722l-3.063-1.255
		l0.011-1.527l7.696,3.151l-0.011,1.527l-3.076-1.259L538.691,460.817z"/>
	<path fill="#FFFFFF" stroke="#FFFFFF" stroke-miterlimit="10" d="M545.203,452.2l-0.087,11.248l-1.568-0.643l0.087-11.248
		L545.203,452.2z"/>
	<path fill="#FFFFFF" stroke="#FFFFFF" stroke-miterlimit="10" d="M553.869,459.163c-0.004,0.573-0.089,1.057-0.255,1.451
		c-0.165,0.396-0.395,0.693-0.688,0.901c-0.293,0.205-0.649,0.313-1.071,0.319c-0.419,0.008-0.885-0.092-1.391-0.3l-1.208-0.494
		l-0.032,4.09l-1.567-0.643l0.087-11.249l2.727,1.117c0.549,0.225,1.035,0.509,1.462,0.854c0.427,0.344,0.784,0.729,1.072,1.154
		c0.287,0.424,0.505,0.875,0.65,1.354C553.802,458.197,553.873,458.679,553.869,459.163z M552.313,458.599
		c0.005-0.591-0.154-1.135-0.475-1.632c-0.321-0.496-0.855-0.896-1.603-1.202l-0.946-0.388l-0.032,4.161l0.821,0.337
		c0.706,0.288,1.254,0.318,1.644,0.089C552.109,459.732,552.308,459.278,552.313,458.599z"/>
</g>
<g>
	<path fill="#FFFFFF" stroke="#FFFFFF" stroke-miterlimit="10" d="M573.345,459.059c0.203-0.036,0.396-0.004,0.58,0.092
		c0.183,0.097,0.342,0.257,0.477,0.48s0.242,0.5,0.323,0.834c0.079,0.333,0.119,0.715,0.117,1.149
		c-0.003,0.517-0.059,1.051-0.166,1.599c-0.108,0.549-0.269,1.072-0.479,1.568c-0.213,0.497-0.479,0.945-0.797,1.349
		c-0.319,0.399-0.688,0.709-1.107,0.929l-2.508,1.311l0.078-13.623l2.459-1.286c0.381-0.2,0.712-0.28,0.99-0.243
		c0.279,0.035,0.511,0.153,0.696,0.354c0.187,0.203,0.322,0.473,0.41,0.816c0.086,0.341,0.128,0.711,0.126,1.11
		c-0.004,0.704-0.107,1.358-0.31,1.962c-0.205,0.605-0.501,1.132-0.89,1.58V459.059z M572.12,455.394l-1.086,0.569l-0.022,3.595
		l1.003-0.525c0.394-0.205,0.706-0.505,0.937-0.901s0.348-0.958,0.353-1.686c0.002-0.494-0.091-0.848-0.28-1.059
		C572.834,455.175,572.534,455.178,572.12,455.394z M572.08,460.704l-1.078,0.563l-0.025,4.652l1.22-0.636
		c0.433-0.227,0.773-0.623,1.02-1.185c0.249-0.563,0.373-1.179,0.377-1.85c0.004-0.669-0.118-1.16-0.366-1.477
		C572.976,460.459,572.596,460.435,572.08,460.704z"/>
	<path fill="#FFFFFF" stroke="#FFFFFF" stroke-miterlimit="10" d="M579.309,463.55c-0.51,0.267-0.964,0.325-1.361,0.175
		c-0.399-0.148-0.734-0.462-1.008-0.939c-0.272-0.479-0.478-1.103-0.616-1.875c-0.138-0.771-0.204-1.644-0.199-2.617
		c0.006-0.977,0.082-1.927,0.231-2.854c0.147-0.926,0.361-1.775,0.64-2.55c0.281-0.772,0.623-1.445,1.025-2.021
		c0.402-0.572,0.858-0.991,1.367-1.258c0.514-0.269,0.971-0.325,1.369-0.171c0.397,0.155,0.734,0.474,1.007,0.957
		c0.272,0.486,0.481,1.115,0.622,1.89c0.141,0.777,0.209,1.652,0.202,2.627c-0.005,0.977-0.083,1.925-0.234,2.845
		c-0.15,0.924-0.366,1.769-0.646,2.535c-0.278,0.768-0.621,1.435-1.023,2.002C580.281,462.863,579.822,463.281,579.309,463.55z
		 M579.318,461.681c0.331-0.173,0.621-0.445,0.869-0.822c0.25-0.376,0.46-0.833,0.63-1.374c0.173-0.539,0.302-1.144,0.392-1.813
		c0.089-0.667,0.137-1.377,0.14-2.131c0.004-0.751-0.033-1.419-0.115-2.002c-0.083-0.582-0.207-1.054-0.373-1.413
		c-0.166-0.357-0.373-0.6-0.619-0.722c-0.244-0.124-0.535-0.1-0.863,0.073c-0.325,0.168-0.611,0.447-0.861,0.829
		c-0.249,0.382-0.459,0.842-0.632,1.374c-0.169,0.535-0.299,1.137-0.386,1.809c-0.085,0.672-0.13,1.383-0.134,2.136
		c-0.005,0.753,0.031,1.419,0.111,1.998c0.077,0.579,0.2,1.052,0.367,1.416c0.166,0.367,0.371,0.604,0.619,0.723
		C578.708,461.879,578.994,461.851,579.318,461.681z"/>
	<path fill="#FFFFFF" stroke="#FFFFFF" stroke-miterlimit="10" d="M587.033,452.484l2.286,5.676l-1.316,0.687l-1.59-4.263
		l-0.02,0.01l-1.65,5.958l-1.316,0.688l2.376-8.026l-0.001-0.034l-2.249-5.588l1.306-0.684l1.564,4.155l0.02-0.011l1.591-5.803
		l1.307-0.684l-2.307,7.883V452.484z"/>
</g>
<polyline fill="none" stroke="#FFFFFF" stroke-width="2" stroke-linejoin="round" stroke-miterlimit="10" points="561.993,443.943 
	561.993,476.456 527.741,460.533 527.741,428.022 "/>
<polyline fill="none" stroke="#FFFFFF" stroke-width="2" stroke-linejoin="round" stroke-miterlimit="10" points="561.993,443.943 
	561.993,476.456 596.246,460.533 596.246,427.543 "/>
<polyline fill="none" stroke="#FFFFFF" stroke-width="2" stroke-linejoin="round" stroke-miterlimit="10" points="574.447,416.351 
	596.246,427.324 561.993,444.039 527.741,427.324 552.572,415.101 "/>
<path fill="none" stroke="#FFFFFF" stroke-width="10" stroke-linejoin="bevel" stroke-miterlimit="10" d="M559.055,423.405"/>
<path fill="none" stroke="#FFFFFF" stroke-width="1.5" stroke-miterlimit="10" d="M569.704,401.86
	c3.651,1.668,5.245,5.979,3.582,9.626c-1.67,3.641-5.98,5.251-9.627,3.574c-3.646-1.667-5.252-5.978-3.582-9.626
	C561.751,401.794,566.057,400.189,569.704,401.86z"/>
<text transform="matrix(0.4162 -0.9093 0.9093 0.4162 568.2285 414.5049)" fill="#FFFFFF" font-family="'NanumSquareEB'" font-size="10">\</text>
<g>
	<path fill="#FFFFFF" d="M566.242,383.185l-18.881,41.258l19.95,9.131l18.884-41.252L566.242,383.185z M567.69,426.21
		c-1.679-0.771-3.728,0.123-4.581,1.987c-0.229,0.486-0.337,0.993-0.361,1.485l-9.3-4.256c0.355-0.343,0.664-0.756,0.889-1.244
		c0.853-1.869,0.188-4.004-1.488-4.77c-0.325-0.151-0.666-0.222-1.008-0.246l13.441-29.361c0.243,0.241,0.518,0.45,0.847,0.6
		c1.677,0.765,3.727-0.127,4.577-1.993c0.121-0.259,0.203-0.525,0.265-0.795l8.936,4.097c-0.158,0.217-0.302,0.453-0.427,0.712
		c-0.857,1.875-0.19,4.004,1.487,4.773c0.237,0.109,0.487,0.177,0.739,0.219l-13.364,29.203
		C568.141,426.458,567.926,426.313,567.69,426.21z"/>
</g>
<g>
	<path fill="#FFFFFF" stroke="#FFFFFF" stroke-miterlimit="10" d="M735.632,419.102l-1.559-0.637l0.076-9.722l-3.063-1.255
		l0.011-1.527l7.696,3.151l-0.011,1.527l-3.076-1.259L735.632,419.102z"/>
	<path fill="#FFFFFF" stroke="#FFFFFF" stroke-miterlimit="10" d="M742.144,410.484l-0.087,11.248l-1.568-0.643l0.087-11.248
		L742.144,410.484z"/>
	<path fill="#FFFFFF" stroke="#FFFFFF" stroke-miterlimit="10" d="M750.81,417.447c-0.004,0.573-0.089,1.057-0.255,1.451
		c-0.165,0.396-0.395,0.693-0.688,0.901c-0.293,0.205-0.649,0.313-1.071,0.319c-0.419,0.008-0.885-0.092-1.391-0.3l-1.208-0.494
		l-0.032,4.09l-1.567-0.643l0.087-11.249l2.727,1.117c0.549,0.225,1.035,0.509,1.462,0.854c0.427,0.344,0.784,0.729,1.072,1.154
		c0.287,0.424,0.505,0.875,0.65,1.354C750.742,416.481,750.813,416.963,750.81,417.447z M749.253,416.883
		c0.005-0.591-0.154-1.135-0.475-1.632c-0.321-0.496-0.855-0.896-1.603-1.202l-0.946-0.388l-0.032,4.161l0.821,0.337
		c0.706,0.288,1.254,0.318,1.644,0.089C749.05,418.017,749.248,417.563,749.253,416.883z"/>
</g>
<g>
	<path fill="#FFFFFF" stroke="#FFFFFF" stroke-miterlimit="10" d="M770.285,417.343c0.203-0.036,0.396-0.004,0.58,0.092
		c0.183,0.097,0.342,0.257,0.477,0.48s0.242,0.5,0.323,0.834c0.079,0.333,0.119,0.715,0.117,1.149
		c-0.003,0.517-0.059,1.051-0.166,1.599c-0.108,0.549-0.269,1.072-0.479,1.568c-0.213,0.497-0.479,0.945-0.797,1.349
		c-0.319,0.399-0.688,0.709-1.107,0.929l-2.508,1.311l0.078-13.623l2.459-1.286c0.381-0.2,0.712-0.28,0.99-0.243
		c0.279,0.035,0.511,0.153,0.696,0.354c0.187,0.203,0.322,0.473,0.41,0.816c0.086,0.341,0.128,0.711,0.126,1.11
		c-0.004,0.704-0.107,1.358-0.31,1.962c-0.205,0.605-0.501,1.132-0.89,1.58V417.343z M769.061,413.678l-1.086,0.569l-0.022,3.595
		l1.003-0.525c0.394-0.205,0.706-0.505,0.937-0.901s0.348-0.958,0.353-1.686c0.002-0.494-0.091-0.848-0.28-1.059
		C769.774,413.459,769.475,413.462,769.061,413.678z M769.021,418.988l-1.078,0.563l-0.025,4.652l1.22-0.636
		c0.433-0.227,0.773-0.623,1.02-1.185c0.249-0.563,0.373-1.179,0.377-1.85c0.004-0.669-0.118-1.16-0.366-1.477
		C769.916,418.743,769.536,418.719,769.021,418.988z"/>
	<path fill="#FFFFFF" stroke="#FFFFFF" stroke-miterlimit="10" d="M776.249,421.834c-0.51,0.267-0.964,0.325-1.361,0.175
		c-0.399-0.148-0.734-0.462-1.008-0.939c-0.272-0.479-0.478-1.103-0.616-1.875c-0.138-0.771-0.204-1.644-0.199-2.617
		c0.006-0.977,0.082-1.927,0.231-2.854c0.147-0.926,0.361-1.775,0.64-2.55c0.281-0.772,0.623-1.445,1.025-2.021
		c0.402-0.572,0.858-0.991,1.367-1.258c0.514-0.269,0.971-0.325,1.369-0.171c0.397,0.155,0.734,0.474,1.007,0.957
		c0.272,0.486,0.481,1.115,0.622,1.89c0.141,0.777,0.209,1.652,0.202,2.627c-0.005,0.977-0.083,1.925-0.234,2.845
		c-0.15,0.924-0.366,1.769-0.646,2.535c-0.278,0.768-0.621,1.435-1.023,2.002C777.222,421.147,776.763,421.565,776.249,421.834z
		 M776.259,419.965c0.331-0.173,0.621-0.445,0.869-0.822c0.25-0.376,0.46-0.833,0.63-1.374c0.173-0.539,0.302-1.144,0.392-1.813
		c0.089-0.667,0.137-1.377,0.14-2.131c0.004-0.751-0.033-1.419-0.115-2.002c-0.083-0.582-0.207-1.054-0.373-1.413
		c-0.166-0.357-0.373-0.6-0.619-0.722c-0.244-0.124-0.535-0.1-0.863,0.073c-0.325,0.168-0.611,0.447-0.861,0.829
		c-0.249,0.382-0.459,0.842-0.632,1.374c-0.169,0.535-0.299,1.137-0.386,1.809c-0.085,0.672-0.13,1.383-0.134,2.136
		c-0.005,0.753,0.031,1.419,0.111,1.998c0.077,0.579,0.2,1.052,0.367,1.416c0.166,0.367,0.371,0.604,0.619,0.723
		C775.648,420.163,775.935,420.135,776.259,419.965z"/>
	<path fill="#FFFFFF" stroke="#FFFFFF" stroke-miterlimit="10" d="M783.974,410.769l2.286,5.676l-1.316,0.687l-1.59-4.263
		l-0.02,0.01l-1.65,5.958l-1.316,0.688l2.376-8.026l-0.001-0.034l-2.249-5.588l1.306-0.684l1.564,4.155l0.02-0.011l1.591-5.803
		l1.307-0.684l-2.307,7.883V410.769z"/>
</g>
<polyline fill="none" stroke="#FFFFFF" stroke-width="2" stroke-linejoin="round" stroke-miterlimit="10" points="758.934,402.228 
	758.934,434.74 724.682,418.817 724.682,386.307 "/>
<polyline fill="none" stroke="#FFFFFF" stroke-width="2" stroke-linejoin="round" stroke-miterlimit="10" points="758.934,402.228 
	758.934,434.74 793.187,418.817 793.187,385.827 "/>
<polyline fill="none" stroke="#FFFFFF" stroke-width="2" stroke-linejoin="round" stroke-miterlimit="10" points="774.014,375.957 
	793.187,385.608 758.934,402.323 724.682,385.608 751.955,372.651 "/>
<path fill="none" stroke="#FFFFFF" stroke-width="10" stroke-linejoin="bevel" stroke-miterlimit="10" d="M755.995,381.689"/>
<g>
	<path fill="none" stroke="#FFFFFF" stroke-width="1.5" stroke-miterlimit="10" d="M754.693,176.766
		c3.651,1.668,5.245,5.979,3.582,9.626c-1.67,3.641-5.98,5.251-9.627,3.574c-3.646-1.667-5.252-5.978-3.582-9.626
		C746.74,176.699,751.046,175.095,754.693,176.766z"/>
	
		<text transform="matrix(0.4162 -0.9093 0.9093 0.4162 753.2178 187.4102)" fill="#FFFFFF" font-family="'NanumSquareEB'" font-size="10">$</text>
	<g>
		<path fill="#FFFFFF" d="M751.231,158.09l-18.881,41.258l19.95,9.131l18.884-41.252L751.231,158.09z M752.68,201.115
			c-1.679-0.771-3.728,0.123-4.581,1.987c-0.229,0.486-0.337,0.993-0.361,1.485l-9.3-4.256c0.355-0.343,0.664-0.756,0.889-1.244
			c0.853-1.869,0.188-4.004-1.488-4.77c-0.325-0.151-0.666-0.222-1.008-0.246l13.441-29.361c0.243,0.241,0.518,0.45,0.847,0.6
			c1.677,0.765,3.727-0.127,4.577-1.993c0.121-0.259,0.203-0.525,0.265-0.795l8.936,4.097c-0.158,0.217-0.302,0.453-0.427,0.712
			c-0.857,1.875-0.19,4.004,1.487,4.773c0.237,0.109,0.487,0.177,0.739,0.219l-13.364,29.203
			C753.13,201.363,752.915,201.219,752.68,201.115z"/>
	</g>
</g>
<g>
	<path fill="#FFFFFF" stroke="#FFFFFF" stroke-miterlimit="10" d="M446.058,460.395l-1.559-0.637l0.076-9.722l-3.063-1.255
		l0.011-1.527l7.696,3.151l-0.011,1.527l-3.076-1.259L446.058,460.395z"/>
	<path fill="#FFFFFF" stroke="#FFFFFF" stroke-miterlimit="10" d="M452.569,451.777l-0.087,11.248l-1.568-0.643l0.087-11.248
		L452.569,451.777z"/>
	<path fill="#FFFFFF" stroke="#FFFFFF" stroke-miterlimit="10" d="M461.235,458.74c-0.004,0.573-0.089,1.057-0.255,1.451
		c-0.165,0.396-0.395,0.693-0.688,0.901c-0.293,0.205-0.649,0.313-1.071,0.319c-0.419,0.008-0.885-0.092-1.391-0.3l-1.208-0.494
		l-0.032,4.09l-1.567-0.643l0.087-11.249l2.727,1.117c0.549,0.225,1.035,0.509,1.462,0.854c0.427,0.344,0.784,0.729,1.072,1.154
		c0.287,0.424,0.505,0.875,0.65,1.354C461.168,457.774,461.239,458.256,461.235,458.74z M459.679,458.176
		c0.005-0.591-0.154-1.135-0.475-1.632c-0.321-0.496-0.855-0.896-1.603-1.202l-0.946-0.388l-0.032,4.161l0.821,0.337
		c0.706,0.288,1.254,0.318,1.644,0.089C459.476,459.31,459.674,458.855,459.679,458.176z"/>
</g>
<g>
	<path fill="#FFFFFF" stroke="#FFFFFF" stroke-miterlimit="10" d="M480.711,458.636c0.203-0.036,0.396-0.004,0.58,0.092
		c0.183,0.097,0.342,0.257,0.477,0.48s0.242,0.5,0.323,0.834c0.079,0.333,0.119,0.715,0.117,1.149
		c-0.003,0.517-0.059,1.051-0.166,1.599c-0.108,0.549-0.269,1.072-0.479,1.568c-0.213,0.497-0.479,0.945-0.797,1.349
		c-0.319,0.399-0.688,0.709-1.107,0.929l-2.508,1.311l0.078-13.623l2.459-1.286c0.381-0.2,0.712-0.28,0.99-0.243
		c0.279,0.035,0.511,0.153,0.696,0.354c0.187,0.203,0.322,0.473,0.41,0.816c0.086,0.341,0.128,0.711,0.126,1.11
		c-0.004,0.704-0.107,1.358-0.31,1.962c-0.205,0.605-0.501,1.132-0.89,1.58V458.636z M479.486,454.971l-1.086,0.569l-0.022,3.595
		l1.003-0.525c0.394-0.205,0.706-0.505,0.937-0.901s0.348-0.958,0.353-1.686c0.002-0.494-0.091-0.848-0.28-1.059
		C480.2,454.752,479.9,454.755,479.486,454.971z M479.446,460.281l-1.078,0.563l-0.025,4.652l1.22-0.636
		c0.433-0.227,0.773-0.623,1.02-1.185c0.249-0.563,0.373-1.179,0.377-1.85c0.004-0.669-0.118-1.16-0.366-1.477
		C480.342,460.036,479.962,460.012,479.446,460.281z"/>
	<path fill="#FFFFFF" stroke="#FFFFFF" stroke-miterlimit="10" d="M486.675,463.127c-0.51,0.267-0.964,0.325-1.361,0.175
		c-0.399-0.148-0.734-0.462-1.008-0.939c-0.272-0.479-0.478-1.103-0.616-1.875c-0.138-0.771-0.204-1.644-0.199-2.617
		c0.006-0.977,0.082-1.927,0.231-2.854c0.147-0.926,0.361-1.775,0.64-2.55c0.281-0.772,0.623-1.445,1.025-2.021
		c0.402-0.572,0.858-0.991,1.367-1.258c0.514-0.269,0.971-0.325,1.369-0.171c0.397,0.155,0.734,0.474,1.007,0.957
		c0.272,0.486,0.481,1.115,0.622,1.89c0.141,0.777,0.209,1.652,0.202,2.627c-0.005,0.977-0.083,1.925-0.234,2.845
		c-0.15,0.924-0.366,1.769-0.646,2.535c-0.278,0.768-0.621,1.435-1.023,2.002C487.647,462.44,487.188,462.858,486.675,463.127z
		 M486.685,461.258c0.331-0.173,0.621-0.445,0.869-0.822c0.25-0.376,0.46-0.833,0.63-1.374c0.173-0.539,0.302-1.144,0.392-1.813
		c0.089-0.667,0.137-1.377,0.14-2.131c0.004-0.751-0.033-1.419-0.115-2.002c-0.083-0.582-0.207-1.054-0.373-1.413
		c-0.166-0.357-0.373-0.6-0.619-0.722c-0.244-0.124-0.535-0.1-0.863,0.073c-0.325,0.168-0.611,0.447-0.861,0.829
		c-0.249,0.382-0.459,0.842-0.632,1.374c-0.169,0.535-0.299,1.137-0.386,1.809c-0.085,0.672-0.13,1.383-0.134,2.136
		c-0.005,0.753,0.031,1.419,0.111,1.998c0.077,0.579,0.2,1.052,0.367,1.416c0.166,0.367,0.371,0.604,0.619,0.723
		C486.074,461.456,486.36,461.428,486.685,461.258z"/>
	<path fill="#FFFFFF" stroke="#FFFFFF" stroke-miterlimit="10" d="M494.399,452.062l2.286,5.676l-1.316,0.687l-1.59-4.263
		l-0.02,0.01l-1.65,5.958l-1.316,0.688l2.376-8.026l-0.001-0.034l-2.249-5.588l1.306-0.684l1.564,4.155l0.02-0.011l1.591-5.803
		l1.307-0.684l-2.307,7.883V452.062z"/>
</g>
<polyline fill="none" stroke="#FFFFFF" stroke-width="2" stroke-linejoin="round" stroke-miterlimit="10" points="469.359,443.521 
	469.359,476.033 435.107,460.11 435.107,427.6 "/>
<polyline fill="none" stroke="#FFFFFF" stroke-width="2" stroke-linejoin="round" stroke-miterlimit="10" points="469.359,443.521 
	469.359,476.033 503.612,460.11 503.612,427.12 "/>
<polyline fill="none" stroke="#FFFFFF" stroke-width="2" stroke-linejoin="round" stroke-miterlimit="10" points="481.813,415.928 
	503.612,426.901 469.359,443.616 435.107,426.901 459.938,414.678 "/>
<path fill="none" stroke="#FFFFFF" stroke-width="10" stroke-linejoin="bevel" stroke-miterlimit="10" d="M466.522,422.553"/>
<path fill="none" stroke="#FFFFFF" stroke-width="1.5" stroke-miterlimit="10" d="M476.192,402.068
	c3.237,1.626,4.619,5.76,3.107,9.229c-1.518,3.463-5.371,4.963-8.604,3.327c-3.233-1.625-4.626-5.76-3.108-9.229
	C469.108,401.934,472.956,400.438,476.192,402.068z"/>
<text transform="matrix(0.4192 -0.9581 0.8932 0.4496 474.7725 414.1338)" fill="#FFFFFF" font-family="'NanumSquareEB'" font-size="9.0268">\</text>
<g>
	<path fill="#FFFFFF" d="M473.266,384.195l-17.165,39.243l17.691,8.904l17.168-39.237L473.266,384.195z M474.192,425.312
		c-1.489-0.753-3.323,0.083-4.099,1.856c-0.208,0.463-0.309,0.946-0.334,1.417l-8.247-4.149c0.32-0.326,0.6-0.718,0.803-1.182
		c0.774-1.778,0.2-3.822-1.285-4.57c-0.288-0.148-0.591-0.219-0.896-0.244l12.221-27.928c0.215,0.232,0.456,0.435,0.748,0.58
		c1.488,0.746,3.32-0.086,4.094-1.861c0.111-0.246,0.187-0.501,0.242-0.758l7.925,3.995c-0.143,0.205-0.272,0.43-0.386,0.676
		c-0.781,1.783-0.204,3.822,1.285,4.573c0.209,0.106,0.431,0.174,0.655,0.216l-12.152,27.777
		C474.589,425.553,474.401,425.412,474.192,425.312z"/>
</g>
<g>
	<path fill="#FFFFFF" stroke="#FFFFFF" stroke-miterlimit="10" d="M181.85,429.397l-1.559-0.637l0.076-9.722l-3.063-1.255
		l0.011-1.527l7.696,3.151L185,420.936l-3.076-1.259L181.85,429.397z"/>
	<path fill="#FFFFFF" stroke="#FFFFFF" stroke-miterlimit="10" d="M188.361,420.78l-0.087,11.248l-1.568-0.643l0.087-11.248
		L188.361,420.78z"/>
	<path fill="#FFFFFF" stroke="#FFFFFF" stroke-miterlimit="10" d="M197.027,427.743c-0.004,0.573-0.089,1.057-0.255,1.451
		c-0.165,0.396-0.395,0.693-0.688,0.901c-0.293,0.205-0.649,0.313-1.071,0.319c-0.419,0.008-0.885-0.092-1.391-0.3l-1.208-0.494
		l-0.032,4.09l-1.567-0.643l0.087-11.249l2.727,1.117c0.549,0.225,1.035,0.509,1.462,0.854c0.427,0.344,0.784,0.729,1.072,1.154
		c0.287,0.424,0.505,0.875,0.65,1.354C196.96,426.777,197.031,427.259,197.027,427.743z M195.471,427.179
		c0.005-0.591-0.154-1.135-0.475-1.632c-0.321-0.496-0.855-0.896-1.603-1.202l-0.946-0.388l-0.032,4.161l0.821,0.337
		c0.706,0.288,1.254,0.318,1.644,0.089C195.268,428.313,195.466,427.858,195.471,427.179z"/>
</g>
<g>
	<path fill="#FFFFFF" stroke="#FFFFFF" stroke-miterlimit="10" d="M218.503,427.639c0.203-0.036,0.396-0.004,0.58,0.092
		c0.183,0.097,0.342,0.257,0.477,0.48s0.242,0.5,0.323,0.834c0.079,0.333,0.119,0.715,0.117,1.149
		c-0.003,0.517-0.059,1.051-0.166,1.599c-0.108,0.549-0.269,1.072-0.479,1.568c-0.213,0.497-0.479,0.945-0.797,1.349
		c-0.319,0.399-0.688,0.709-1.107,0.929l-2.508,1.311l0.078-13.623l2.459-1.286c0.381-0.2,0.712-0.28,0.99-0.243
		c0.279,0.035,0.511,0.153,0.696,0.354c0.187,0.203,0.322,0.473,0.41,0.816c0.086,0.341,0.128,0.711,0.126,1.11
		c-0.004,0.704-0.107,1.358-0.31,1.962c-0.205,0.605-0.501,1.132-0.89,1.58V427.639z M217.278,423.974l-1.086,0.569l-0.022,3.595
		l1.003-0.525c0.394-0.205,0.706-0.505,0.937-0.901s0.348-0.958,0.353-1.686c0.002-0.494-0.091-0.848-0.28-1.059
		C217.992,423.755,217.692,423.758,217.278,423.974z M217.238,429.284l-1.078,0.563l-0.025,4.652l1.22-0.636
		c0.433-0.227,0.773-0.623,1.02-1.185c0.249-0.563,0.373-1.179,0.377-1.85c0.004-0.669-0.118-1.16-0.366-1.477
		C218.134,429.039,217.754,429.015,217.238,429.284z"/>
	<path fill="#FFFFFF" stroke="#FFFFFF" stroke-miterlimit="10" d="M224.467,432.13c-0.51,0.267-0.964,0.325-1.361,0.175
		c-0.399-0.148-0.734-0.462-1.008-0.939c-0.272-0.479-0.478-1.103-0.616-1.875c-0.138-0.771-0.204-1.644-0.199-2.617
		c0.006-0.977,0.082-1.927,0.231-2.854c0.147-0.926,0.361-1.775,0.64-2.55c0.281-0.772,0.623-1.445,1.025-2.021
		c0.402-0.572,0.858-0.991,1.367-1.258c0.514-0.269,0.971-0.325,1.369-0.171c0.397,0.155,0.734,0.474,1.007,0.957
		c0.272,0.486,0.481,1.115,0.622,1.89c0.141,0.777,0.209,1.652,0.202,2.627c-0.005,0.977-0.083,1.925-0.234,2.845
		c-0.15,0.924-0.366,1.769-0.646,2.535c-0.278,0.768-0.621,1.435-1.023,2.002C225.439,431.443,224.98,431.861,224.467,432.13z
		 M224.477,430.261c0.331-0.173,0.621-0.445,0.869-0.822c0.25-0.376,0.46-0.833,0.63-1.374c0.173-0.539,0.302-1.144,0.392-1.813
		c0.089-0.667,0.137-1.377,0.14-2.131c0.004-0.751-0.033-1.419-0.115-2.002c-0.083-0.582-0.207-1.054-0.373-1.413
		c-0.166-0.357-0.373-0.6-0.619-0.722c-0.244-0.124-0.535-0.1-0.863,0.073c-0.325,0.168-0.611,0.447-0.861,0.829
		c-0.249,0.382-0.459,0.842-0.632,1.374c-0.169,0.535-0.299,1.137-0.386,1.809c-0.085,0.672-0.13,1.383-0.134,2.136
		c-0.005,0.753,0.031,1.419,0.111,1.998c0.077,0.579,0.2,1.052,0.367,1.416c0.166,0.367,0.371,0.604,0.619,0.723
		C223.866,430.459,224.152,430.431,224.477,430.261z"/>
	<path fill="#FFFFFF" stroke="#FFFFFF" stroke-miterlimit="10" d="M232.191,421.064l2.286,5.676l-1.316,0.687l-1.59-4.263
		l-0.02,0.01l-1.65,5.958l-1.316,0.688l2.376-8.026l-0.001-0.034l-2.249-5.588l1.306-0.684l1.564,4.155l0.02-0.011l1.591-5.803
		l1.307-0.684l-2.307,7.883V421.064z"/>
</g>
<polyline fill="none" stroke="#FFFFFF" stroke-width="2" stroke-linejoin="round" stroke-miterlimit="10" points="206.151,412.523 
	206.151,445.036 169.899,429.113 169.899,396.603 "/>
<polyline fill="none" stroke="#FFFFFF" stroke-width="2" stroke-linejoin="round" stroke-miterlimit="10" points="206.151,412.523 
	206.151,445.036 242.404,429.113 242.404,396.123 "/>
<polyline fill="none" stroke="#FFFFFF" stroke-width="2" stroke-linejoin="round" stroke-miterlimit="10" points="218.605,384.931 
	242.404,395.904 206.151,412.619 169.899,395.904 196.73,383.681 "/>
<path fill="none" stroke="#FFFFFF" stroke-width="10" stroke-linejoin="bevel" stroke-miterlimit="10" d="M205.427,391.094"/>
<path fill="none" stroke="#FFFFFF" stroke-width="1.5" stroke-miterlimit="10" d="M215.77,369.4c3.676,1.615,5.33,5.902,3.717,9.572
	c-1.617,3.664-5.904,5.336-9.574,3.712c-3.669-1.615-5.336-5.903-3.718-9.574C207.815,369.445,212.1,367.78,215.77,369.4z"/>
<text transform="matrix(0.4033 -0.9151 0.9151 0.4033 214.4736 382.0654)" fill="#FFFFFF" font-family="'NanumSquareEB'" font-size="10">\</text>
<g>
	<path fill="#FFFFFF" d="M212.043,350.774l-18.294,41.522l20.078,8.847l18.297-41.517L212.043,350.774z M214.101,393.774
		c-1.689-0.747-3.725,0.177-4.553,2.053c-0.222,0.491-0.322,0.998-0.339,1.49l-9.359-4.124c0.35-0.347,0.653-0.764,0.87-1.255
		c0.826-1.883,0.133-4.007-1.556-4.749c-0.326-0.146-0.668-0.212-1.011-0.231l13.023-29.549c0.247,0.237,0.524,0.442,0.855,0.587
		c1.688,0.74,3.724-0.181,4.548-2.058c0.117-0.26,0.195-0.528,0.254-0.798l8.992,3.968c-0.154,0.221-0.295,0.458-0.416,0.719
		c-0.831,1.887-0.134,4.007,1.555,4.753c0.239,0.104,0.488,0.169,0.742,0.207l-12.947,29.39
		C214.556,394.018,214.338,393.875,214.101,393.774z"/>
</g>
<line fill="none" stroke="#FFFFFF" stroke-width="2" stroke-linejoin="round" stroke-miterlimit="10" x1="741.144" y1="388.104" x2="775.011" y2="388.104"/>
<g>
	<path fill="none" stroke="#FFFFFF" stroke-width="1.5" stroke-miterlimit="10" d="M766.709,365.831
		c3.82,1.745,5.488,6.255,3.748,10.071c-1.748,3.81-6.258,5.494-10.073,3.74c-3.814-1.744-5.495-6.255-3.748-10.072
		C758.388,365.762,762.893,364.083,766.709,365.831z"/>
	
		<text transform="matrix(0.4162 -0.9093 0.9093 0.4162 765.1641 376.9688)" fill="#FFFFFF" font-family="'NanumSquareEB'" font-size="10.4632">$</text>
	<g>
		<path fill="#FFFFFF" d="M763.087,346.29l-19.756,43.169l20.874,9.554l19.759-43.163L763.087,346.29z M764.602,391.309
			c-1.756-0.808-3.9,0.129-4.793,2.079c-0.24,0.509-0.353,1.039-0.378,1.554l-9.73-4.452c0.372-0.359,0.694-0.791,0.93-1.302
			c0.892-1.956,0.197-4.189-1.558-4.991c-0.34-0.158-0.696-0.231-1.054-0.257l14.063-30.722c0.255,0.252,0.542,0.471,0.886,0.627
			c1.755,0.801,3.899-0.133,4.789-2.085c0.127-0.271,0.213-0.55,0.277-0.832l9.35,4.287c-0.166,0.227-0.316,0.474-0.447,0.744
			c-0.896,1.962-0.199,4.189,1.557,4.995c0.248,0.114,0.51,0.185,0.773,0.229l-13.983,30.556
			C765.073,391.568,764.848,391.417,764.602,391.309z"/>
	</g>
</g>
<polygon fill="#5D5D5D" points="741.857,389.104 760.586,400.158 776.011,391.908 775.773,389.104 "/>
<g>
	<path fill="#FFFFFF" stroke="#FFFFFF" stroke-miterlimit="10" d="M772.527,279.191l-1.559-0.637l0.076-9.722l-3.063-1.255
		l0.011-1.527l7.696,3.151l-0.011,1.527l-3.076-1.259L772.527,279.191z"/>
	<path fill="#FFFFFF" stroke="#FFFFFF" stroke-miterlimit="10" d="M779.039,270.574l-0.087,11.248l-1.568-0.643l0.087-11.248
		L779.039,270.574z"/>
	<path fill="#FFFFFF" stroke="#FFFFFF" stroke-miterlimit="10" d="M787.705,277.537c-0.004,0.573-0.089,1.057-0.255,1.451
		c-0.165,0.396-0.395,0.693-0.688,0.901c-0.293,0.205-0.649,0.313-1.071,0.319c-0.419,0.008-0.885-0.092-1.391-0.3l-1.208-0.494
		l-0.032,4.09l-1.567-0.643l0.087-11.249l2.727,1.117c0.549,0.225,1.035,0.509,1.462,0.854c0.427,0.344,0.784,0.729,1.072,1.154
		c0.287,0.424,0.505,0.875,0.65,1.354C787.638,276.571,787.709,277.053,787.705,277.537z M786.148,276.973
		c0.005-0.591-0.154-1.135-0.475-1.632c-0.321-0.496-0.855-0.896-1.603-1.202l-0.946-0.388l-0.032,4.161l0.821,0.337
		c0.706,0.288,1.254,0.318,1.644,0.089C785.945,278.106,786.144,277.652,786.148,276.973z"/>
</g>
<g>
	<path fill="#FFFFFF" stroke="#FFFFFF" stroke-miterlimit="10" d="M807.181,277.716c0.203-0.035,0.396-0.004,0.58,0.089
		c0.183,0.094,0.342,0.249,0.477,0.466s0.242,0.485,0.323,0.809c0.079,0.323,0.119,0.693,0.117,1.115
		c-0.003,0.5-0.059,1.019-0.166,1.55c-0.108,0.532-0.269,1.039-0.479,1.521c-0.213,0.481-0.479,0.916-0.797,1.308
		c-0.319,0.387-0.688,0.688-1.107,0.9l-2.508,1.271l0.078-13.208l2.459-1.247c0.381-0.194,0.712-0.272,0.99-0.236
		c0.279,0.034,0.511,0.149,0.696,0.344c0.187,0.197,0.322,0.459,0.41,0.792c0.086,0.33,0.128,0.689,0.126,1.076
		c-0.004,0.683-0.107,1.317-0.31,1.902c-0.205,0.587-0.501,1.098-0.89,1.532V277.716z M805.956,274.162l-1.086,0.553l-0.022,3.485
		l1.003-0.51c0.394-0.199,0.706-0.489,0.937-0.874c0.23-0.384,0.348-0.929,0.353-1.634c0.002-0.479-0.091-0.822-0.28-1.026
		C806.67,273.95,806.37,273.953,805.956,274.162z M805.916,279.312l-1.078,0.545l-0.025,4.511l1.22-0.616
		c0.433-0.22,0.773-0.604,1.02-1.148c0.249-0.545,0.373-1.143,0.377-1.793c0.004-0.648-0.118-1.125-0.366-1.432
		C806.812,279.074,806.432,279.05,805.916,279.312z"/>
	<path fill="#FFFFFF" stroke="#FFFFFF" stroke-miterlimit="10" d="M813.145,282.07c-0.51,0.259-0.964,0.315-1.361,0.17
		c-0.399-0.145-0.734-0.448-1.008-0.911c-0.272-0.465-0.478-1.069-0.616-1.817c-0.138-0.747-0.204-1.594-0.199-2.538
		c0.006-0.946,0.082-1.868,0.231-2.768c0.147-0.897,0.361-1.722,0.64-2.472c0.281-0.749,0.623-1.401,1.025-1.959
		c0.402-0.556,0.858-0.962,1.367-1.22c0.514-0.261,0.971-0.315,1.369-0.166c0.397,0.15,0.734,0.459,1.007,0.928
		c0.272,0.472,0.481,1.081,0.622,1.832c0.141,0.754,0.209,1.603,0.202,2.547c-0.005,0.947-0.083,1.866-0.234,2.759
		c-0.15,0.896-0.366,1.715-0.646,2.458c-0.278,0.744-0.621,1.391-1.023,1.94C814.117,281.405,813.658,281.811,813.145,282.07z
		 M813.154,280.258c0.331-0.167,0.621-0.432,0.869-0.797c0.25-0.364,0.46-0.808,0.63-1.332c0.173-0.522,0.302-1.108,0.392-1.758
		c0.089-0.646,0.137-1.335,0.14-2.065c0.004-0.729-0.033-1.376-0.115-1.941c-0.083-0.564-0.207-1.021-0.373-1.37
		c-0.166-0.347-0.373-0.581-0.619-0.699c-0.244-0.12-0.535-0.097-0.863,0.071c-0.325,0.162-0.611,0.434-0.861,0.804
		c-0.249,0.37-0.459,0.815-0.632,1.332c-0.169,0.519-0.299,1.102-0.386,1.754c-0.085,0.651-0.13,1.34-0.134,2.07
		c-0.005,0.729,0.031,1.376,0.111,1.938c0.077,0.562,0.2,1.02,0.367,1.373c0.166,0.355,0.371,0.586,0.619,0.7
		C812.544,280.45,812.83,280.423,813.154,280.258z"/>
	<path fill="#FFFFFF" stroke="#FFFFFF" stroke-miterlimit="10" d="M820.869,271.342l2.286,5.503l-1.316,0.666l-1.59-4.133
		l-0.02,0.009l-1.65,5.777l-1.316,0.667l2.376-7.782l-0.001-0.033l-2.249-5.417l1.306-0.663l1.564,4.028l0.02-0.01l1.591-5.626
		l1.307-0.663l-2.307,7.643V271.342z"/>
</g>
<polyline fill="none" stroke="#FFFFFF" stroke-width="2" stroke-linejoin="round" stroke-miterlimit="10" points="795.829,262.317 
	795.829,294.83 761.577,278.907 761.577,246.396 "/>
<polyline fill="none" stroke="#FFFFFF" stroke-width="2" stroke-linejoin="round" stroke-miterlimit="10" points="795.829,262.317 
	795.829,294.83 830.082,278.907 830.082,245.917 "/>
<polyline fill="none" stroke="#FFFFFF" stroke-width="2" stroke-linejoin="round" stroke-miterlimit="10" points="810.909,236.047 
	830.082,245.698 795.829,262.413 761.577,245.698 788.851,232.741 "/>
<path fill="none" stroke="#FFFFFF" stroke-width="10" stroke-linejoin="bevel" stroke-miterlimit="10" d="M792.891,241.779"/>
<g>
	<path fill="none" stroke="#FFFFFF" stroke-width="1.5" stroke-miterlimit="10" d="M803.604,225.921
		c3.82,1.745,5.488,6.255,3.748,10.071c-1.748,3.81-6.258,5.494-10.073,3.74c-3.814-1.744-5.495-6.255-3.748-10.072
		C795.283,225.852,799.788,224.173,803.604,225.921z"/>
	
		<text transform="matrix(0.4162 -0.9093 0.9093 0.4162 802.0596 237.0586)" fill="#FFFFFF" font-family="'NanumSquareEB'" font-size="10.4632">$</text>
	<g>
		<path fill="#FFFFFF" d="M799.982,206.38l-19.756,43.169l20.874,9.554l19.759-43.163L799.982,206.38z M801.497,251.398
			c-1.756-0.808-3.9,0.129-4.793,2.079c-0.24,0.509-0.353,1.039-0.378,1.554l-9.73-4.452c0.372-0.359,0.694-0.791,0.93-1.302
			c0.892-1.956,0.197-4.189-1.558-4.991c-0.34-0.158-0.696-0.231-1.054-0.257l14.063-30.722c0.255,0.252,0.542,0.471,0.886,0.627
			c1.755,0.801,3.899-0.133,4.789-2.085c0.127-0.271,0.213-0.55,0.277-0.832l9.35,4.287c-0.166,0.227-0.316,0.474-0.447,0.744
			c-0.896,1.962-0.199,4.189,1.557,4.995c0.248,0.114,0.51,0.185,0.773,0.229l-13.983,30.556
			C801.969,251.658,801.743,251.507,801.497,251.398z"/>
	</g>
</g>
<polygon fill="#5D5D5D" points="778.753,250.027 797.313,261.079 812.599,252.83 812.363,250.027 "/>
<line fill="none" stroke="#FFFFFF" stroke-width="1.5" stroke-linejoin="round" stroke-miterlimit="10" x1="778.039" y1="249.194" x2="811.906" y2="249.194"/>
<g>
	<path fill="#FFFFFF" stroke="#FFFFFF" stroke-miterlimit="10" d="M828.213,419.68l-1.559-0.637l0.076-9.722l-3.063-1.255
		l0.011-1.527l7.696,3.151l-0.011,1.527l-3.076-1.259L828.213,419.68z"/>
	<path fill="#FFFFFF" stroke="#FFFFFF" stroke-miterlimit="10" d="M834.725,411.063l-0.087,11.248l-1.568-0.643l0.087-11.248
		L834.725,411.063z"/>
	<path fill="#FFFFFF" stroke="#FFFFFF" stroke-miterlimit="10" d="M843.391,418.025c-0.004,0.573-0.089,1.057-0.255,1.451
		c-0.165,0.396-0.395,0.693-0.688,0.901c-0.293,0.205-0.649,0.313-1.071,0.319c-0.419,0.008-0.885-0.092-1.391-0.3l-1.208-0.494
		l-0.032,4.09l-1.567-0.643l0.087-11.249l2.727,1.117c0.549,0.225,1.035,0.509,1.462,0.854c0.427,0.344,0.784,0.729,1.072,1.154
		c0.287,0.424,0.505,0.875,0.65,1.354C843.323,417.06,843.395,417.541,843.391,418.025z M841.834,417.461
		c0.005-0.591-0.154-1.135-0.475-1.632c-0.321-0.496-0.855-0.896-1.603-1.202l-0.946-0.388l-0.032,4.161l0.821,0.337
		c0.706,0.288,1.254,0.318,1.644,0.089C841.631,418.595,841.829,418.141,841.834,417.461z"/>
</g>
<g>
	<path fill="#FFFFFF" stroke="#FFFFFF" stroke-miterlimit="10" d="M862.866,418.204c0.203-0.035,0.396-0.004,0.58,0.089
		c0.183,0.094,0.342,0.249,0.477,0.466s0.242,0.485,0.323,0.809c0.079,0.323,0.119,0.693,0.117,1.115
		c-0.003,0.5-0.059,1.019-0.166,1.55c-0.108,0.532-0.269,1.039-0.479,1.521c-0.213,0.481-0.479,0.916-0.797,1.308
		c-0.319,0.387-0.688,0.688-1.107,0.9l-2.508,1.271l0.078-13.208l2.459-1.247c0.381-0.194,0.712-0.272,0.99-0.236
		c0.279,0.034,0.511,0.149,0.696,0.344c0.187,0.197,0.322,0.459,0.41,0.792c0.086,0.33,0.128,0.689,0.126,1.076
		c-0.004,0.683-0.107,1.317-0.31,1.902c-0.205,0.587-0.501,1.098-0.89,1.532V418.204z M861.642,414.65l-1.086,0.553l-0.022,3.485
		l1.003-0.51c0.394-0.199,0.706-0.489,0.937-0.874c0.23-0.384,0.348-0.929,0.353-1.634c0.002-0.479-0.091-0.822-0.28-1.026
		C862.355,414.438,862.056,414.441,861.642,414.65z M861.602,419.8l-1.078,0.545l-0.025,4.511l1.22-0.616
		c0.433-0.22,0.773-0.604,1.02-1.148c0.249-0.545,0.373-1.143,0.377-1.793c0.004-0.648-0.118-1.125-0.366-1.432
		C862.497,419.563,862.117,419.538,861.602,419.8z"/>
	<path fill="#FFFFFF" stroke="#FFFFFF" stroke-miterlimit="10" d="M868.83,422.559c-0.51,0.259-0.964,0.315-1.361,0.17
		c-0.399-0.145-0.734-0.448-1.008-0.911c-0.272-0.465-0.478-1.069-0.616-1.817c-0.138-0.747-0.204-1.594-0.199-2.538
		c0.006-0.946,0.082-1.868,0.231-2.768c0.147-0.897,0.361-1.722,0.64-2.472c0.281-0.749,0.623-1.401,1.025-1.959
		c0.402-0.556,0.858-0.962,1.367-1.22c0.514-0.261,0.971-0.315,1.369-0.166c0.397,0.15,0.734,0.459,1.007,0.928
		c0.272,0.472,0.481,1.081,0.622,1.832c0.141,0.754,0.209,1.603,0.202,2.547c-0.005,0.947-0.083,1.866-0.234,2.759
		c-0.15,0.896-0.366,1.715-0.646,2.458c-0.278,0.744-0.621,1.391-1.023,1.94C869.803,421.894,869.344,422.299,868.83,422.559z
		 M868.84,420.746c0.331-0.167,0.621-0.432,0.869-0.797c0.25-0.364,0.46-0.808,0.63-1.332c0.173-0.522,0.302-1.108,0.392-1.758
		c0.089-0.646,0.137-1.335,0.14-2.065c0.004-0.729-0.033-1.376-0.115-1.941c-0.083-0.564-0.207-1.021-0.373-1.37
		c-0.166-0.347-0.373-0.581-0.619-0.699c-0.244-0.12-0.535-0.097-0.863,0.071c-0.325,0.162-0.611,0.434-0.861,0.804
		c-0.249,0.37-0.459,0.815-0.632,1.332c-0.169,0.519-0.299,1.102-0.386,1.754c-0.085,0.651-0.13,1.34-0.134,2.07
		c-0.005,0.729,0.031,1.376,0.111,1.938c0.077,0.562,0.2,1.02,0.367,1.373c0.166,0.355,0.371,0.586,0.619,0.7
		C868.229,420.938,868.516,420.911,868.84,420.746z"/>
	<path fill="#FFFFFF" stroke="#FFFFFF" stroke-miterlimit="10" d="M876.555,411.83l2.286,5.503l-1.316,0.666l-1.59-4.133
		l-0.02,0.009l-1.65,5.777l-1.316,0.667l2.376-7.782l-0.001-0.033l-2.249-5.417l1.306-0.663l1.564,4.028l0.02-0.01l1.591-5.626
		l1.307-0.663l-2.307,7.643V411.83z"/>
</g>
<polyline fill="none" stroke="#FFFFFF" stroke-width="2" stroke-linejoin="round" stroke-miterlimit="10" points="851.515,402.806 
	851.515,435.318 817.263,419.396 817.263,386.885 "/>
<polyline fill="none" stroke="#FFFFFF" stroke-width="2" stroke-linejoin="round" stroke-miterlimit="10" points="851.515,402.806 
	851.515,435.318 885.768,419.396 885.768,386.405 "/>
<polyline fill="none" stroke="#FFFFFF" stroke-width="2" stroke-linejoin="round" stroke-miterlimit="10" points="864.363,375.833 
	885.768,386.187 851.515,402.901 817.263,386.187 842.148,374.363 "/>
<path fill="none" stroke="#FFFFFF" stroke-width="10" stroke-linejoin="bevel" stroke-miterlimit="10" d="M848.576,382.268"/>
<g>
	<path fill="none" stroke="#FFFFFF" stroke-width="1.5" stroke-miterlimit="10" d="M855.924,365.948
		c4.084,0.979,6.587,5.085,5.611,9.164c-0.983,4.074-5.086,6.594-9.167,5.604c-4.079-0.979-6.594-5.083-5.612-9.165
		C847.744,367.478,851.843,364.966,855.924,365.948z"/>
	
		<text transform="matrix(0.2339 -0.9723 0.9723 0.2339 856.5449 377.1748)" fill="#FFFFFF" font-family="'NanumSquareEB'" font-size="10.4632">$</text>
	<g>
		<path fill="#FFFFFF" d="M848.617,347.466l-11.101,46.159l22.32,5.368l11.104-46.153L848.617,347.466z M858.747,391.356
			c-1.879-0.455-3.804,0.875-4.305,2.961c-0.139,0.545-0.146,1.087-0.073,1.597l-10.403-2.501c0.296-0.424,0.529-0.909,0.662-1.456
			c0.499-2.091-0.61-4.149-2.487-4.599c-0.363-0.091-0.728-0.094-1.083-0.05l7.903-32.851c0.299,0.198,0.623,0.357,0.99,0.445
			c1.876,0.449,3.801-0.879,4.299-2.966c0.073-0.29,0.104-0.58,0.113-0.87l9.998,2.413c-0.119,0.254-0.219,0.525-0.296,0.815
			c-0.503,2.098,0.609,4.15,2.487,4.604c0.265,0.064,0.535,0.083,0.803,0.076l-7.857,32.672
			C859.26,391.521,859.009,391.416,858.747,391.356z"/>
	</g>
</g>
<polygon fill="#5D5D5D" points="830.021,390.516 854.145,401.198 868.284,392.851 868.018,390.516 "/>
<line fill="none" stroke="#FFFFFF" stroke-width="1.5" stroke-linejoin="round" stroke-miterlimit="10" x1="834.725" y1="389.683" x2="867.592" y2="389.683"/>
<g>
	<path fill="#FFFFFF" stroke="#FFFFFF" stroke-miterlimit="10" d="M914.88,412.483l-1.559-0.637l0.076-9.722l-3.063-1.255
		l0.011-1.527l7.696,3.151l-0.011,1.527l-3.076-1.259L914.88,412.483z"/>
	<path fill="#FFFFFF" stroke="#FFFFFF" stroke-miterlimit="10" d="M921.392,403.866l-0.087,11.248l-1.568-0.643l0.087-11.248
		L921.392,403.866z"/>
	<path fill="#FFFFFF" stroke="#FFFFFF" stroke-miterlimit="10" d="M930.058,410.829c-0.004,0.573-0.089,1.057-0.255,1.451
		c-0.165,0.396-0.395,0.693-0.688,0.901c-0.293,0.205-0.649,0.313-1.071,0.319c-0.419,0.008-0.885-0.092-1.391-0.3l-1.208-0.494
		l-0.032,4.09l-1.567-0.643l0.087-11.249l2.727,1.117c0.549,0.225,1.035,0.509,1.462,0.854c0.427,0.344,0.784,0.729,1.072,1.154
		c0.287,0.424,0.505,0.875,0.65,1.354C929.99,409.863,930.062,410.345,930.058,410.829z M928.501,410.265
		c0.005-0.591-0.154-1.135-0.475-1.632c-0.321-0.496-0.855-0.896-1.603-1.202l-0.946-0.388l-0.032,4.161l0.821,0.337
		c0.706,0.288,1.254,0.318,1.644,0.089C928.298,411.398,928.496,410.944,928.501,410.265z"/>
</g>
<g>
	<path fill="#FFFFFF" stroke="#FFFFFF" stroke-miterlimit="10" d="M949.533,411.008c0.203-0.035,0.396-0.004,0.58,0.089
		c0.183,0.094,0.342,0.249,0.477,0.466s0.242,0.485,0.323,0.809c0.079,0.323,0.119,0.693,0.117,1.115
		c-0.003,0.5-0.059,1.019-0.166,1.55c-0.108,0.532-0.269,1.039-0.479,1.521c-0.213,0.481-0.479,0.916-0.797,1.308
		c-0.319,0.387-0.688,0.688-1.107,0.9l-2.508,1.271l0.078-13.208l2.459-1.247c0.381-0.194,0.712-0.272,0.99-0.236
		c0.279,0.034,0.511,0.149,0.696,0.344c0.187,0.197,0.322,0.459,0.41,0.792c0.086,0.33,0.128,0.689,0.126,1.076
		c-0.004,0.683-0.107,1.317-0.31,1.902c-0.205,0.587-0.501,1.098-0.89,1.532V411.008z M948.309,407.454l-1.086,0.553l-0.022,3.485
		l1.003-0.51c0.394-0.199,0.706-0.489,0.937-0.874c0.23-0.384,0.348-0.929,0.353-1.634c0.002-0.479-0.091-0.822-0.28-1.026
		C949.022,407.242,948.723,407.245,948.309,407.454z M948.269,412.604l-1.078,0.545l-0.025,4.511l1.22-0.616
		c0.433-0.22,0.773-0.604,1.02-1.148c0.249-0.545,0.373-1.143,0.377-1.793c0.004-0.648-0.118-1.125-0.366-1.432
		C949.164,412.366,948.784,412.342,948.269,412.604z"/>
	<path fill="#FFFFFF" stroke="#FFFFFF" stroke-miterlimit="10" d="M955.497,415.362c-0.51,0.259-0.964,0.315-1.361,0.17
		c-0.399-0.145-0.734-0.448-1.008-0.911c-0.272-0.465-0.478-1.069-0.616-1.817c-0.138-0.747-0.204-1.594-0.199-2.538
		c0.006-0.946,0.082-1.868,0.231-2.768c0.147-0.897,0.361-1.722,0.64-2.472c0.281-0.749,0.623-1.401,1.025-1.959
		c0.402-0.556,0.858-0.962,1.367-1.22c0.514-0.261,0.971-0.315,1.369-0.166c0.397,0.15,0.734,0.459,1.007,0.928
		c0.272,0.472,0.481,1.081,0.622,1.832c0.141,0.754,0.209,1.603,0.202,2.547c-0.005,0.947-0.083,1.866-0.234,2.759
		c-0.15,0.896-0.366,1.715-0.646,2.458c-0.278,0.744-0.621,1.391-1.023,1.94C956.47,414.697,956.011,415.103,955.497,415.362z
		 M955.507,413.55c0.331-0.167,0.621-0.432,0.869-0.797c0.25-0.364,0.46-0.808,0.63-1.332c0.173-0.522,0.302-1.108,0.392-1.758
		c0.089-0.646,0.137-1.335,0.14-2.065c0.004-0.729-0.033-1.376-0.115-1.941c-0.083-0.564-0.207-1.021-0.373-1.37
		c-0.166-0.347-0.373-0.581-0.619-0.699c-0.244-0.12-0.535-0.097-0.863,0.071c-0.325,0.162-0.611,0.434-0.861,0.804
		c-0.249,0.37-0.459,0.815-0.632,1.332c-0.169,0.519-0.299,1.102-0.386,1.754c-0.085,0.651-0.13,1.34-0.134,2.07
		c-0.005,0.729,0.031,1.376,0.111,1.938c0.077,0.562,0.2,1.02,0.367,1.373c0.166,0.355,0.371,0.586,0.619,0.7
		C954.896,413.742,955.183,413.715,955.507,413.55z"/>
	<path fill="#FFFFFF" stroke="#FFFFFF" stroke-miterlimit="10" d="M963.222,404.634l2.286,5.503l-1.316,0.666l-1.59-4.133
		l-0.02,0.009l-1.65,5.777l-1.316,0.667l2.376-7.782l-0.001-0.033l-2.249-5.417l1.306-0.663l1.564,4.028l0.02-0.01l1.591-5.626
		l1.307-0.663l-2.307,7.643V404.634z"/>
</g>
<polyline fill="none" stroke="#FFFFFF" stroke-width="2" stroke-linejoin="round" stroke-miterlimit="10" points="938.182,395.609 
	938.182,428.122 904.93,412.199 904.93,378.99 "/>
<polyline fill="none" stroke="#FFFFFF" stroke-width="2" stroke-linejoin="round" stroke-miterlimit="10" points="938.182,395.609 
	938.182,428.122 971.435,412.199 971.435,379.209 "/>
<polyline fill="none" stroke="#FFFFFF" stroke-width="2" stroke-linejoin="round" stroke-miterlimit="10" points="951.03,368.637 
	971.435,378.99 938.182,395.705 904.93,378.99 930.667,365.735 "/>
<path fill="none" stroke="#FFFFFF" stroke-width="10" stroke-linejoin="bevel" stroke-miterlimit="10" d="M935.243,375.071"/>
<g>
	<path fill="none" stroke="#FFFFFF" stroke-width="1.5" stroke-miterlimit="10" d="M942.755,361.313
		c4.084,0.979,6.587,5.085,5.611,9.164c-0.983,4.074-5.086,6.594-9.167,5.604c-4.079-0.979-6.594-5.083-5.612-9.165
		C934.575,362.843,938.674,360.331,942.755,361.313z"/>
	<g>
		<path fill="#FFFFFF" d="M944.343,369.598c-0.065,0.214-0.149,0.425-0.249,0.634c-0.101,0.209-0.212,0.408-0.333,0.598
			c-0.121,0.19-0.248,0.364-0.384,0.521c-0.134,0.158-0.271,0.288-0.411,0.391l-0.796-0.848c0.253-0.219,0.467-0.449,0.639-0.691
			c0.173-0.241,0.329-0.529,0.466-0.861l-2.136-0.515c-0.12,0.229-0.252,0.46-0.397,0.69c-0.145,0.23-0.319,0.431-0.521,0.602
			c-0.203,0.17-0.44,0.292-0.714,0.366c-0.271,0.074-0.592,0.067-0.959-0.021l-0.182-0.044c-0.197-0.048-0.389-0.132-0.575-0.252
			s-0.346-0.282-0.479-0.486s-0.229-0.459-0.284-0.763c-0.058-0.304-0.052-0.664,0.012-1.078l-0.58-0.14l0.181-0.753l0.57,0.137
			c0.107-0.361,0.262-0.708,0.459-1.041c0.199-0.332,0.432-0.592,0.699-0.778l0.721,0.808c-0.221,0.199-0.395,0.404-0.525,0.616
			c-0.13,0.213-0.229,0.43-0.296,0.65l2.065,0.497c0.229-0.419,0.444-0.756,0.646-1.013c0.202-0.256,0.405-0.447,0.611-0.574
			c0.207-0.126,0.421-0.196,0.643-0.211c0.223-0.015,0.463,0.009,0.721,0.071l0.081,0.02c0.373,0.09,0.67,0.222,0.889,0.396
			c0.221,0.175,0.385,0.382,0.492,0.619c0.108,0.237,0.166,0.501,0.176,0.79s-0.013,0.593-0.068,0.909l0.702,0.169l-0.181,0.753
			L944.343,369.598z M938.8,369.2c0.149,0.036,0.276,0.049,0.383,0.038c0.107-0.01,0.205-0.042,0.293-0.096
			c0.089-0.055,0.171-0.132,0.249-0.23c0.077-0.101,0.158-0.222,0.244-0.367l-1.862-0.447c-0.027,0.208-0.025,0.379,0.007,0.513
			c0.031,0.133,0.078,0.239,0.138,0.318c0.061,0.079,0.125,0.134,0.197,0.166c0.071,0.031,0.131,0.053,0.179,0.063L938.8,369.2z
			 M942.74,367.404c-0.116-0.028-0.225-0.045-0.328-0.052c-0.102-0.007-0.201,0.014-0.3,0.063c-0.097,0.048-0.194,0.127-0.292,0.235
			c-0.099,0.109-0.204,0.266-0.318,0.468l1.964,0.473c0.046-0.37,0.002-0.644-0.131-0.823c-0.132-0.179-0.297-0.292-0.493-0.339
			L942.74,367.404z"/>
	</g>
	<g>
		<path fill="#FFFFFF" d="M949.26,383.585l8.513-35.38l-22.324-5.374l-9.794,40.728 M941.273,389.683 M928.972,382.724
			c-0.363-0.091-0.728-0.094-1.083-0.05l7.903-32.851c0.299,0.198,0.623,0.357,0.99,0.445c1.876,0.449,3.801-0.879,4.299-2.966
			c0.073-0.29,0.104-0.58,0.113-0.87l9.998,2.413c-0.119,0.254-0.219,0.525-0.296,0.815c-0.503,2.098,0.609,4.15,2.487,4.604
			c0.265,0.064,0.535,0.083,0.803,0.076l-6.885,28.629"/>
	</g>
</g>
<polygon fill="#5D5D5D" points="1020.75,434.74 1042.182,444.773 1059.545,437.805 1057.574,434.74 "/>
<line fill="none" stroke="#FFFFFF" stroke-width="1.5" stroke-linejoin="round" stroke-miterlimit="10" x1="922.667" y1="383.042" x2="953.75" y2="383.042"/>
<g>
	<path fill="#FFFFFF" stroke="#FFFFFF" stroke-miterlimit="10" d="M26.521,77.835l-1.708-0.877l0.138-11.124l-3.358-1.729
		l0.02-1.748l8.437,4.344l-0.02,1.748l-3.373-1.736L26.521,77.835z"/>
	<path fill="#FFFFFF" stroke="#FFFFFF" stroke-miterlimit="10" d="M33.723,68.593l-0.159,12.869l-1.719-0.885l0.159-12.872
		L33.723,68.593z"/>
	<path fill="#FFFFFF" stroke="#FFFFFF" stroke-miterlimit="10" d="M43.204,77.392c-0.007,0.656-0.104,1.201-0.288,1.638
		c-0.183,0.437-0.437,0.756-0.761,0.966c-0.323,0.208-0.715,0.296-1.179,0.264c-0.46-0.031-0.971-0.19-1.526-0.477l-1.324-0.681
		l-0.059,4.68l-1.718-0.886l0.16-12.872l2.989,1.54c0.602,0.31,1.134,0.682,1.601,1.118c0.467,0.434,0.856,0.909,1.172,1.425
		c0.313,0.512,0.549,1.049,0.706,1.612C43.136,76.279,43.211,76.837,43.204,77.392z M41.498,76.598
		c0.008-0.677-0.163-1.314-0.512-1.914c-0.351-0.6-0.935-1.108-1.754-1.531l-1.038-0.532l-0.058,4.76l0.9,0.466
		c0.774,0.396,1.376,0.484,1.806,0.258C41.268,77.875,41.488,77.375,41.498,76.598z"/>
</g>
<g>
	<path fill="#FFFFFF" stroke="#FFFFFF" stroke-miterlimit="10" d="M63.783,75.764c0.229-0.039,0.445-0.005,0.651,0.1
		c0.203,0.104,0.383,0.279,0.534,0.522s0.272,0.544,0.361,0.906c0.09,0.363,0.134,0.778,0.132,1.252
		c-0.002,0.562-0.065,1.143-0.187,1.738c-0.12,0.598-0.3,1.166-0.537,1.706c-0.238,0.54-0.536,1.027-0.894,1.467
		c-0.359,0.434-0.773,0.771-1.242,1.01L59.79,85.89l0.087-14.816l2.758-1.398c0.428-0.218,0.799-0.306,1.111-0.266
		c0.313,0.039,0.571,0.168,0.78,0.386c0.21,0.222,0.361,0.516,0.46,0.889c0.097,0.371,0.145,0.773,0.142,1.207
		c-0.004,0.767-0.119,1.478-0.348,2.135c-0.23,0.658-0.561,1.231-0.997,1.719V75.764z M62.41,71.776l-1.219,0.621l-0.026,3.909
		l1.126-0.572c0.441-0.223,0.791-0.548,1.05-0.98c0.258-0.43,0.391-1.042,0.396-1.832c0.002-0.538-0.103-0.923-0.315-1.151
		C63.209,71.539,62.874,71.542,62.41,71.776z M62.363,77.554l-1.209,0.61l-0.029,5.061l1.37-0.691
		c0.483-0.246,0.867-0.677,1.144-1.288c0.278-0.611,0.419-1.281,0.423-2.011c0.004-0.729-0.134-1.263-0.412-1.606
		C63.369,77.287,62.942,77.26,62.363,77.554z"/>
	<path fill="#FFFFFF" stroke="#FFFFFF" stroke-miterlimit="10" d="M70.473,80.648c-0.572,0.29-1.081,0.354-1.526,0.19
		c-0.447-0.162-0.824-0.503-1.132-1.022c-0.305-0.521-0.534-1.199-0.689-2.038c-0.155-0.838-0.23-1.788-0.224-2.847
		c0.007-1.062,0.092-2.097,0.259-3.105c0.166-1.006,0.405-1.932,0.718-2.772c0.315-0.841,0.699-1.572,1.15-2.198
		c0.452-0.623,0.963-1.078,1.533-1.368c0.576-0.292,1.09-0.353,1.537-0.187c0.444,0.169,0.823,0.516,1.127,1.041
		c0.308,0.529,0.542,1.213,0.699,2.056c0.158,0.845,0.234,1.798,0.227,2.857c-0.004,1.063-0.092,2.093-0.263,3.094
		c-0.169,1.005-0.41,1.925-0.727,2.758c-0.311,0.835-0.695,1.561-1.146,2.177C71.563,79.902,71.049,80.356,70.473,80.648z
		 M70.483,78.615c0.372-0.188,0.696-0.484,0.975-0.894c0.281-0.409,0.518-0.906,0.708-1.495c0.193-0.586,0.338-1.243,0.438-1.972
		c0.101-0.725,0.152-1.497,0.158-2.316c0.004-0.817-0.038-1.544-0.13-2.178c-0.095-0.634-0.232-1.146-0.419-1.537
		c-0.186-0.39-0.418-0.652-0.694-0.784c-0.274-0.136-0.601-0.108-0.968,0.08c-0.366,0.181-0.686,0.485-0.966,0.901
		c-0.281,0.414-0.516,0.914-0.711,1.494c-0.188,0.581-0.335,1.235-0.432,1.967s-0.146,1.503-0.15,2.322
		c-0.005,0.819,0.034,1.544,0.125,2.175c0.087,0.629,0.225,1.143,0.411,1.54c0.187,0.398,0.417,0.657,0.695,0.785
		C69.8,78.831,70.12,78.8,70.483,78.615z"/>
	<path fill="#FFFFFF" stroke="#FFFFFF" stroke-miterlimit="10" d="M79.138,68.613l2.565,6.173l-1.477,0.747l-1.784-4.636
		l-0.021,0.01l-1.852,6.48l-1.477,0.749l2.664-8.73v-0.037l-2.523-6.077l1.466-0.743l1.755,4.519l0.022-0.011l1.783-6.311
		l1.465-0.744l-2.587,8.573V68.613z"/>
</g>
<polyline fill="none" stroke="#FFFFFF" stroke-width="2" stroke-linejoin="round" stroke-miterlimit="10" points="51.049,60.49 
	51.049,96.962 13.748,79.1 13.748,41.847 "/>
<polyline fill="none" stroke="#FFFFFF" stroke-width="2" stroke-linejoin="round" stroke-miterlimit="10" points="51.049,60.49 
	51.049,96.962 88.352,79.1 88.352,42.092 "/>
<polyline fill="none" stroke="#FFFFFF" stroke-width="2" stroke-linejoin="round" stroke-miterlimit="10" points="65.462,30.232 
	88.352,41.847 51.049,60.598 13.748,41.847 42.619,26.978 "/>
<path fill="none" stroke="#FFFFFF" stroke-width="10" stroke-linejoin="bevel" stroke-miterlimit="10" d="M47.753,37.451"/>
<g>
	<path fill="none" stroke="#FFFFFF" stroke-width="1.5" stroke-miterlimit="10" d="M56.179,22.018
		c4.581,1.099,7.39,5.704,6.295,10.28c-1.103,4.57-5.705,7.397-10.282,6.287c-4.576-1.098-7.398-5.702-6.296-10.281
		C47.003,23.733,51.601,20.915,56.179,22.018z"/>
	<g>
		<path fill="#FFFFFF" d="M57.96,31.31c-0.073,0.24-0.167,0.477-0.278,0.711c-0.114,0.234-0.239,0.458-0.375,0.67
			c-0.136,0.213-0.278,0.408-0.429,0.585c-0.151,0.178-0.305,0.323-0.463,0.438l-0.892-0.951c0.283-0.246,0.523-0.504,0.717-0.776
			c0.192-0.27,0.367-0.594,0.521-0.966l-2.395-0.577c-0.135,0.257-0.282,0.516-0.446,0.775c-0.163,0.258-0.357,0.483-0.583,0.674
			c-0.228,0.191-0.496,0.328-0.802,0.411c-0.305,0.083-0.664,0.076-1.075-0.023l-0.204-0.049c-0.221-0.054-0.436-0.148-0.645-0.283
			c-0.21-0.134-0.389-0.316-0.539-0.545c-0.149-0.229-0.257-0.515-0.318-0.855c-0.064-0.341-0.058-0.745,0.014-1.21l-0.651-0.156
			l0.203-0.845l0.64,0.153c0.121-0.405,0.294-0.794,0.515-1.168c0.224-0.373,0.484-0.664,0.784-0.873l0.809,0.906
			c-0.248,0.223-0.443,0.454-0.59,0.691c-0.145,0.239-0.256,0.482-0.331,0.73l2.316,0.558c0.257-0.47,0.499-0.848,0.726-1.136
			c0.227-0.287,0.455-0.502,0.686-0.644c0.232-0.141,0.473-0.22,0.721-0.236c0.249-0.017,0.52,0.009,0.809,0.08l0.092,0.022
			c0.419,0.101,0.751,0.249,0.997,0.445c0.247,0.196,0.432,0.428,0.552,0.694s0.186,0.562,0.197,0.886
			c0.011,0.324-0.016,0.665-0.077,1.02l0.787,0.189L58.749,31.5L57.96,31.31z M51.742,30.865c0.169,0.04,0.311,0.055,0.429,0.043
			c0.121-0.011,0.23-0.048,0.328-0.108c0.102-0.061,0.193-0.147,0.282-0.258c0.085-0.113,0.177-0.249,0.272-0.412l-2.09-0.502
			c-0.03,0.233-0.027,0.425,0.009,0.575c0.034,0.149,0.088,0.269,0.154,0.357c0.067,0.088,0.141,0.15,0.221,0.186
			c0.08,0.035,0.146,0.059,0.201,0.071L51.742,30.865z M56.163,28.85c-0.132-0.032-0.251-0.05-0.368-0.058
			c-0.113-0.008-0.225,0.015-0.338,0.07c-0.106,0.054-0.216,0.142-0.326,0.264c-0.111,0.123-0.229,0.298-0.356,0.525l2.202,0.53
			c0.052-0.415,0.002-0.721-0.146-0.923c-0.147-0.201-0.334-0.328-0.553-0.38L56.163,28.85z"/>
	</g>
	<g>
		<path fill="#FFFFFF" d="M63.477,47.001l9.549-39.688L47.982,1.284L36.996,46.972 M54.518,53.842 M40.717,46.035
			c-0.408-0.102-0.816-0.105-1.215-0.056l8.866-36.852c0.335,0.223,0.699,0.401,1.111,0.5c2.104,0.504,4.263-0.986,4.821-3.327
			c0.084-0.326,0.116-0.65,0.127-0.976l11.217,2.708c-0.135,0.284-0.246,0.589-0.332,0.914c-0.565,2.353,0.684,4.656,2.789,5.164
			c0.299,0.073,0.601,0.093,0.9,0.085l-7.723,32.116"/>
	</g>
</g>
<line fill="none" stroke="#FFFFFF" stroke-width="1.5" stroke-linejoin="round" stroke-miterlimit="10" x1="33.645" y1="46.392" x2="68.514" y2="46.392"/>
</svg>
