<?xml version="1.0" encoding="utf-8"?>
<!-- Generator: Adobe Illustrator 16.0.0, SVG Export Plug-In . SVG Version: 6.00 Build 0)  -->
<!DOCTYPE svg PUBLIC "-//W3C//DTD SVG 1.1//EN" "http://www.w3.org/Graphics/SVG/1.1/DTD/svg11.dtd">
<svg version="1.1" id="레이어_1" xmlns="http://www.w3.org/2000/svg" xmlns:xlink="http://www.w3.org/1999/xlink" x="0px"
	 y="0px" width="158px" height="102px" viewBox="0 0 158 102" enable-background="new 0 0 158 102" xml:space="preserve">
<g>
	<path fill="#9D9D9D" d="M16.992,75.383c0-0.372,0.087-0.742,0.264-1.104c0.176-0.362,0.426-0.685,0.75-0.966
		c0.324-0.279,0.712-0.506,1.163-0.675c0.45-0.171,0.951-0.256,1.501-0.256c0.527,0,1.014,0.08,1.459,0.239
		c0.446,0.158,0.828,0.373,1.146,0.643c0.318,0.271,0.571,0.577,0.759,0.924c0.187,0.347,0.29,0.702,0.313,1.064h3.43v-3.433h1.155
		v7.703h-1.155v-3.248h-3.43c-0.023,0.372-0.125,0.734-0.305,1.081c-0.182,0.347-0.435,0.653-0.759,0.922
		c-0.324,0.27-0.707,0.487-1.146,0.652c-0.44,0.163-0.929,0.246-1.468,0.246c-0.55,0-1.051-0.085-1.501-0.255
		c-0.451-0.17-0.838-0.396-1.163-0.677c-0.325-0.279-0.575-0.598-0.75-0.957c-0.176-0.356-0.264-0.727-0.264-1.112V75.383z
		 M23.227,75.497c0-0.273-0.064-0.534-0.19-0.782c-0.126-0.247-0.304-0.468-0.536-0.66c-0.231-0.191-0.503-0.346-0.816-0.461
		c-0.313-0.114-0.651-0.173-1.014-0.173c-0.363,0-0.701,0.059-1.014,0.173c-0.313,0.115-0.585,0.27-0.816,0.461
		c-0.231,0.192-0.41,0.413-0.537,0.66c-0.126,0.248-0.188,0.509-0.188,0.782v0.563c0,0.275,0.063,0.536,0.188,0.783
		c0.127,0.247,0.306,0.469,0.537,0.659c0.231,0.194,0.503,0.348,0.816,0.463c0.313,0.115,0.651,0.173,1.014,0.173
		c0.363,0,0.701-0.058,1.014-0.173s0.585-0.269,0.816-0.463c0.231-0.19,0.41-0.412,0.536-0.659c0.126-0.247,0.19-0.508,0.19-0.783
		V75.497z M28.933,80.413v6.466h-9.204v-6.466h1.138v2.079h6.927v-2.079H28.933z M27.794,85.839v-2.324h-6.927v2.324H27.794z"/>
	<path fill="#9D9D9D" d="M43.232,73.009v4.469h-8.576v2.44h8.922v1.008h-4.601v2.836h6.35v1.006H31.473v-1.006h6.351v-2.836h-4.305
		v-4.438h8.576v-2.475h-8.625v-1.005H43.232z"/>
	<path fill="#9D9D9D" d="M60.335,83.762v1.006H46.481v-1.006H60.335z M58.471,80.084H48.444v-6.895h9.863v1.006h-8.692v4.883h8.856
		V80.084z"/>
	<path fill="#9D9D9D" d="M66.553,73.189h3.792v1.006h-8.691v-1.006h3.744v-1.683h1.154V73.189z M65.976,79.819
		c-0.583,0-1.088-0.062-1.518-0.189c-0.428-0.126-0.786-0.291-1.071-0.493c-0.287-0.205-0.5-0.443-0.644-0.72
		c-0.143-0.273-0.214-0.559-0.214-0.857v-0.395c0-0.298,0.072-0.584,0.214-0.859c0.144-0.273,0.357-0.512,0.644-0.718
		c0.286-0.202,0.643-0.367,1.071-0.493c0.43-0.127,0.935-0.189,1.518-0.189c0.583,0,1.089,0.063,1.518,0.189
		c0.428,0.126,0.786,0.293,1.072,0.503c0.285,0.21,0.5,0.448,0.643,0.716c0.142,0.27,0.214,0.554,0.214,0.852v0.395
		c0,0.299-0.072,0.584-0.214,0.857c-0.143,0.276-0.358,0.515-0.643,0.72c-0.287,0.202-0.644,0.367-1.072,0.493
		C67.065,79.758,66.559,79.819,65.976,79.819z M65.976,75.879c-0.385,0-0.724,0.039-1.014,0.115
		c-0.292,0.077-0.533,0.178-0.726,0.305c-0.193,0.126-0.338,0.266-0.437,0.419c-0.099,0.155-0.148,0.315-0.148,0.479v0.331
		c0,0.163,0.049,0.323,0.148,0.477c0.099,0.156,0.244,0.295,0.437,0.421c0.192,0.128,0.434,0.228,0.726,0.306
		c0.291,0.076,0.629,0.116,1.014,0.116c0.385,0,0.723-0.04,1.014-0.116c0.292-0.078,0.534-0.178,0.727-0.306
		c0.191-0.126,0.337-0.265,0.437-0.421c0.098-0.153,0.147-0.313,0.147-0.477v-0.331c0-0.164-0.049-0.324-0.147-0.479
		c-0.1-0.153-0.246-0.293-0.437-0.419c-0.193-0.127-0.435-0.228-0.727-0.305C66.699,75.918,66.361,75.879,65.976,75.879z
		 M73.348,80.86v3.527h-7.949v1.569h8.345v0.988h-9.483v-3.531h7.95v-1.55h-8.032V80.86H73.348z M73.348,75.398h2.309v1.024h-2.309
		v3.546h-1.155v-8.149h1.155V75.398z"/>
	<path fill="#9D9D9D" d="M89.478,74.278h-1.665v7.488c0.396-0.023,0.78-0.047,1.153-0.075c0.374-0.025,0.738-0.063,1.09-0.106
		l0.082,0.989c-0.857,0.099-1.772,0.169-2.747,0.205c-0.973,0.04-1.926,0.058-2.861,0.058h-3.858v-1.021h1.766v-7.537h-1.602v-1.007
		h8.643V74.278z M84.925,81.815c0.298,0,0.592,0,0.884,0c0.291,0,0.579-0.006,0.866-0.017v-7.521h-3.102v7.537H84.925z
		 M92.364,77.429h2.49v1.038h-2.49v8.429h-1.17V71.819h1.17V77.429z"/>
	<path fill="#9D9D9D" d="M100.017,78.863c-0.539,0-1.032-0.083-1.484-0.246c-0.449-0.165-0.838-0.385-1.162-0.661
		c-0.324-0.274-0.579-0.594-0.76-0.958c-0.181-0.361-0.273-0.741-0.273-1.138v-0.725c0-0.395,0.093-0.775,0.273-1.139
		c0.181-0.361,0.436-0.681,0.76-0.957c0.324-0.272,0.713-0.492,1.162-0.658c0.452-0.164,0.945-0.248,1.484-0.248
		c0.538,0,1.034,0.084,1.486,0.248c0.449,0.166,0.836,0.386,1.161,0.658c0.324,0.276,0.577,0.596,0.759,0.957
		c0.181,0.363,0.271,0.744,0.271,1.139v0.725c0,0.396-0.091,0.776-0.271,1.138c-0.182,0.364-0.435,0.684-0.759,0.958
		c-0.325,0.276-0.712,0.496-1.161,0.661C101.051,78.78,100.555,78.863,100.017,78.863z M100.017,73.176
		c-0.373,0-0.719,0.053-1.03,0.161c-0.313,0.111-0.585,0.259-0.808,0.446c-0.226,0.188-0.403,0.406-0.528,0.661
		c-0.127,0.251-0.189,0.516-0.189,0.79v0.528c0,0.287,0.063,0.551,0.189,0.8c0.125,0.248,0.303,0.465,0.528,0.651
		c0.223,0.188,0.494,0.336,0.808,0.445c0.312,0.111,0.657,0.165,1.03,0.165c0.374,0,0.717-0.054,1.032-0.165
		c0.312-0.109,0.581-0.257,0.808-0.445c0.226-0.187,0.4-0.403,0.527-0.651c0.126-0.249,0.189-0.513,0.189-0.8v-0.528
		c0-0.274-0.063-0.539-0.189-0.79c-0.127-0.255-0.302-0.474-0.527-0.661c-0.227-0.188-0.496-0.335-0.808-0.446
		C100.733,73.229,100.391,73.176,100.017,73.176z M108.084,80.134v3.892H100v1.932h8.478v0.988h-9.615v-3.894h8.082v-1.913H98.78
		v-1.005H108.084z M108.084,79.243h-1.156v-7.424h1.156V79.243z"/>
	<path fill="#9D9D9D" d="M119.363,77.23c-0.022,0.143-0.15,0.337-0.388,0.587c-0.237,0.246-0.536,0.546-0.898,0.897
		c-0.286,0.275-0.651,0.603-1.096,0.98c-0.446,0.381-0.9,0.752-1.361,1.114l-0.727-0.841c0.449-0.332,0.916-0.696,1.395-1.098
		c0.478-0.401,0.902-0.789,1.276-1.161c0.264-0.265,0.471-0.496,0.619-0.693c0.148-0.199,0.264-0.394,0.348-0.586
		c0.081-0.192,0.133-0.402,0.156-0.627c0.021-0.226,0.032-0.491,0.032-0.799v-2.476h1.188v2.442c0,0.306,0.011,0.567,0.035,0.783
		c0.02,0.214,0.071,0.415,0.154,0.602c0.083,0.188,0.205,0.377,0.363,0.568c0.159,0.192,0.377,0.411,0.651,0.651
		c0.407,0.354,0.818,0.697,1.237,1.031c0.417,0.336,0.808,0.636,1.17,0.898l-0.692,0.81c-0.439-0.332-0.84-0.642-1.195-0.932
		c-0.357-0.293-0.68-0.56-0.965-0.8c-0.781-0.661-1.21-1.112-1.286-1.354H119.363z M119.181,85.69h8.429v1.023h-9.599v-5.031h1.17
		V85.69z M127.23,82.574h-1.154V76.44h-3.398v-1.024h3.398v-3.597h1.154V82.574z"/>
	<path fill="#9D9D9D" d="M136.069,72.679v1.005h-4.485v2.112h4.388v1.006h-4.388v2.128c0.527,0,1.005-0.002,1.436-0.009
		c0.429-0.006,0.847-0.016,1.254-0.033c0.405-0.017,0.813-0.04,1.221-0.073c0.406-0.034,0.852-0.077,1.334-0.132l0.134,0.989
		c-0.485,0.054-0.949,0.103-1.396,0.139c-0.443,0.039-0.917,0.066-1.415,0.083c-0.502,0.016-1.049,0.027-1.643,0.034
		c-0.593,0.006-1.282,0.009-2.062,0.009v-7.258H136.069z M132.739,81.749h9.813v5.278h-1.155v-4.256h-8.657V81.749z M139.22,75.647
		h2.193v-3.828h1.139v9.041h-1.139v-4.174h-2.193v4.14h-1.138V72.02h1.138V75.647z"/>
</g>
<polygon fill="#6B30C1" stroke="#6B30C1" stroke-width="2" stroke-linecap="round" stroke-linejoin="round" stroke-miterlimit="10" points="
	67.672,25.629 67.672,33.976 57.936,26.971 57.936,49.278 67.672,42.273 67.672,50.484 100.229,50.484 100.229,25.629 "/>
<path fill="#FFFFFF" stroke="#6B30C1" stroke-width="2" stroke-miterlimit="10" d="M97.044,48.021c0,5.748-4.662,10.41-10.408,10.41
	c-5.747,0-10.409-4.662-10.409-10.41c0-5.75,4.662-10.407,10.409-10.407C92.382,37.612,97.044,42.271,97.044,48.021z"/>
<path fill="#6B30C1" stroke="#FFFFFF" stroke-miterlimit="10" d="M83.833,53.64c-1.449-0.714-1.246-10.712,0-11.444
	c1.315-0.764,8.592,4.076,8.592,5.723C92.425,49.757,85.388,54.403,83.833,53.64z"/>
<circle fill="#FFFFFF" cx="95.889" cy="34.126" r="1.467"/>
</svg>
