<svg xmlns="http://www.w3.org/2000/svg" width="590" height="100" viewBox="0 0 590 100"><defs><style>.a{fill:#1877f2;}.b{fill:#fff;}</style></defs><g transform="translate(-80 -971)"><rect class="a" width="590" height="100" transform="translate(80 971)"/><g transform="translate(9.947 29)"><path class="b" d="M14.736-8.716H6.3V0H1.9V-21.328H15.791v3.56H6.3v5.508h8.438ZM26.748,0a4.7,4.7,0,0,1-.425-1.421,5.122,5.122,0,0,1-4,1.714,5.627,5.627,0,0,1-3.86-1.348,4.334,4.334,0,0,1-1.531-3.4A4.479,4.479,0,0,1,18.8-8.32a9.216,9.216,0,0,1,5.4-1.362h1.948v-.908a2.612,2.612,0,0,0-.564-1.758,2.219,2.219,0,0,0-1.78-.659,2.522,2.522,0,0,0-1.677.513,1.742,1.742,0,0,0-.608,1.406H17.285a4.252,4.252,0,0,1,.85-2.549,5.616,5.616,0,0,1,2.4-1.838,8.755,8.755,0,0,1,3.486-.667,6.917,6.917,0,0,1,4.651,1.472A5.15,5.15,0,0,1,30.4-10.532v6.87a7.577,7.577,0,0,0,.63,3.413V0Zm-3.5-2.944a3.646,3.646,0,0,0,1.729-.417,2.742,2.742,0,0,0,1.172-1.121V-7.207H24.565q-3.179,0-3.384,2.2l-.015.249a1.7,1.7,0,0,0,.557,1.3A2.162,2.162,0,0,0,23.247-2.944ZM40.239-3.12a2.777,2.777,0,0,0,1.9-.645,2.258,2.258,0,0,0,.762-1.714h3.97A5.43,5.43,0,0,1,46-2.527,5.8,5.8,0,0,1,43.63-.447a7.4,7.4,0,0,1-3.318.74,6.881,6.881,0,0,1-5.361-2.161,8.55,8.55,0,0,1-1.963-5.969v-.278a8.452,8.452,0,0,1,1.948-5.845,6.8,6.8,0,0,1,5.347-2.183,6.666,6.666,0,0,1,4.768,1.692,5.99,5.99,0,0,1,1.824,4.5h-3.97a2.885,2.885,0,0,0-.762-2,2.547,2.547,0,0,0-1.934-.769,2.551,2.551,0,0,0-2.234,1.077,6.232,6.232,0,0,0-.754,3.494v.439a6.311,6.311,0,0,0,.747,3.516A2.583,2.583,0,0,0,40.239-3.12ZM56.587.293a7.781,7.781,0,0,1-5.676-2.139,7.6,7.6,0,0,1-2.19-5.7v-.41a9.575,9.575,0,0,1,.923-4.27,6.773,6.773,0,0,1,2.615-2.9,7.339,7.339,0,0,1,3.86-1.018,6.578,6.578,0,0,1,5.12,2.051,8.333,8.333,0,0,1,1.868,5.815v1.729H53.013a3.933,3.933,0,0,0,1.238,2.49,3.742,3.742,0,0,0,2.615.938,4.569,4.569,0,0,0,3.823-1.772l2.08,2.329a6.355,6.355,0,0,1-2.578,2.1A8.458,8.458,0,0,1,56.587.293ZM56.1-12.715a2.651,2.651,0,0,0-2.043.85,4.389,4.389,0,0,0-1,2.432h5.889v-.337a3.129,3.129,0,0,0-.762-2.175A2.736,2.736,0,0,0,56.1-12.715ZM79.79-7.778a9.6,9.6,0,0,1-1.626,5.94A5.386,5.386,0,0,1,73.623.293a4.948,4.948,0,0,1-4.116-1.978L69.316,0H65.508V-22.5h4.233v8.071a4.821,4.821,0,0,1,3.853-1.714,5.43,5.43,0,0,1,4.548,2.131,9.611,9.611,0,0,1,1.648,6Zm-4.233-.308a6.305,6.305,0,0,0-.762-3.508A2.576,2.576,0,0,0,72.524-12.7a2.793,2.793,0,0,0-2.783,1.655V-4.79a2.83,2.83,0,0,0,2.813,1.67,2.614,2.614,0,0,0,2.7-2.021A10.428,10.428,0,0,0,75.557-8.086Zm6.182.015a9.4,9.4,0,0,1,.908-4.2,6.649,6.649,0,0,1,2.615-2.856,7.628,7.628,0,0,1,3.962-1.011A7.217,7.217,0,0,1,94.46-14.18a7.878,7.878,0,0,1,2.263,5.332l.029,1.084a8.284,8.284,0,0,1-2.036,5.852,7.078,7.078,0,0,1-5.464,2.2,7.113,7.113,0,0,1-5.471-2.2,8.43,8.43,0,0,1-2.043-5.977Zm4.233.308a5.909,5.909,0,0,0,.85,3.45A2.8,2.8,0,0,0,89.253-3.12a2.811,2.811,0,0,0,2.4-1.179,6.465,6.465,0,0,0,.864-3.772,5.849,5.849,0,0,0-.864-3.428,2.811,2.811,0,0,0-2.432-1.216,2.765,2.765,0,0,0-2.4,1.208A6.574,6.574,0,0,0,85.972-7.764ZM98.7-8.071a9.4,9.4,0,0,1,.908-4.2,6.649,6.649,0,0,1,2.615-2.856,7.628,7.628,0,0,1,3.962-1.011,7.217,7.217,0,0,1,5.237,1.963,7.878,7.878,0,0,1,2.263,5.332l.029,1.084a8.284,8.284,0,0,1-2.036,5.852,7.078,7.078,0,0,1-5.464,2.2,7.113,7.113,0,0,1-5.471-2.2A8.43,8.43,0,0,1,98.7-7.881Zm4.233.308a5.909,5.909,0,0,0,.85,3.45,2.8,2.8,0,0,0,2.432,1.194,2.811,2.811,0,0,0,2.4-1.179,6.465,6.465,0,0,0,.864-3.772,5.849,5.849,0,0,0-.864-3.428,2.811,2.811,0,0,0-2.432-1.216,2.765,2.765,0,0,0-2.4,1.208A6.574,6.574,0,0,0,102.935-7.764ZM122.08-6.357l-1.523,1.523V0h-4.233V-22.5h4.233v12.466l.82-1.055,4.058-4.761h5.083L124.79-9.243,131.016,0h-4.863ZM144.493-23.67c-5.79,0-10.29,3.18-10.29,8.01,0,4.8,4.5,7.98,10.29,7.98,5.82,0,10.32-3.18,10.32-7.98C154.813-20.49,150.313-23.67,144.493-23.67Zm0,3.24c3.78,0,6.45,1.77,6.45,4.77,0,2.94-2.67,4.74-6.45,4.74-3.75,0-6.42-1.8-6.42-4.74C138.073-18.66,140.743-20.43,144.493-20.43ZM132.013-3.96V-.72h25.02V-3.96Zm41.31.27V-7.8h8.37v-3.18h-16.02v-3.09h15.39v-9.21h-19.35v3.15h15.45v2.97h-15.42V-7.8h7.62v4.11h-10.5V-.45h25.02V-3.69Zm32.91,0V-7.8h8.37v-3.18h-16.02v-3.09h15.39v-9.21h-19.35v3.15h15.45v2.97h-15.42V-7.8h7.62v4.11h-10.5V-.45h25.02V-3.69Zm30.36-15.54a64.3,64.3,0,0,1-.99,12.96l3.93.36a67.052,67.052,0,0,0,1.02-13.32V-22.5H221.2v3.15h15.39ZM218.623-4.26v3.24h24.99V-4.26Zm49.8-20.76h-3.99V-5.19h3.99Zm-18.69,8.76a3.447,3.447,0,0,1,3.66-3.6,3.408,3.408,0,0,1,3.63,3.6,3.416,3.416,0,0,1-3.63,3.57A3.456,3.456,0,0,1,249.733-16.26Zm11.16,0c0-4.08-3.27-7.02-7.5-7.02s-7.53,2.94-7.53,7.02c0,4.02,3.3,6.99,7.53,6.99S260.893-12.24,260.893-16.26Zm-6.9,15.21V-7.14h-3.96V2.1h19.08V-1.05Z" transform="translate(251 1005)"/><g transform="translate(207.052 975.921)"><path class="b" d="M33.624,16.812A16.812,16.812,0,1,0,14.185,33.42V21.672H9.916v-4.86h4.269v-3.7c0-4.214,2.51-6.541,6.35-6.541A25.853,25.853,0,0,1,24.3,6.9v4.137h-2.12a2.43,2.43,0,0,0-2.74,2.625v3.154H24.1l-.745,4.86H19.439V33.42A16.816,16.816,0,0,0,33.624,16.812Z"/><path class="a" d="M315.44,215.1l.745-4.86h-4.663v-3.154a2.43,2.43,0,0,1,2.74-2.625h2.12v-4.137a25.854,25.854,0,0,0-3.763-.328c-3.84,0-6.35,2.327-6.35,6.541v3.7H302v4.86h4.269v11.748a16.99,16.99,0,0,0,5.254,0V215.1Z" transform="translate(-292.084 -193.433)"/></g></g></g></svg>