<svg xmlns="http://www.w3.org/2000/svg" width="590" height="100" viewBox="0 0 590 100"><defs><style>.a{fill:#1ec800;}.b{fill:#fff;}</style></defs><g transform="translate(-80 -851)"><rect class="a" width="590" height="100" transform="translate(80 851)"/><g transform="translate(1 17)"><path class="b" d="M6.24-22.41H2.37V-4.02H4.29a45.824,45.824,0,0,0,9.78-.81l-.48-3.3a44.184,44.184,0,0,1-7.35.72Zm9.21,6.06H10.02v3.21h5.43V1.35h3.69V-24.6H15.45Zm5.85-8.73V2.55h3.75V-25.08Zm25.77,0V2.64h3.96V-25.08ZM36.18-23.13c-4.17,0-7.26,3.78-7.26,9.84,0,6.09,3.09,9.9,7.26,9.9s7.26-3.81,7.26-9.9C43.44-19.35,40.35-23.13,36.18-23.13Zm0,3.57c2.04,0,3.45,2.19,3.45,6.27,0,4.11-1.41,6.3-3.45,6.3s-3.45-2.19-3.45-6.3C32.73-17.37,34.14-19.56,36.18-19.56ZM65.37-7.02H59.94v-6.12h5.43Zm8.85-18.06v9.72H69.27v-7.53h-3.9v6.66H59.94v-6.66H56.01V-3.87H69.27v-8.31h4.95V2.64h3.96V-25.08ZM96.3-3.69V-7.8h8.37v-3.18H88.65v-3.09h15.39v-9.21H84.69v3.15h15.45v2.97H84.72V-7.8h7.62v4.11H81.84V-.45h25.02V-3.69Zm32.91,0V-7.8h8.37v-3.18H121.56v-3.09h15.39v-9.21H117.6v3.15h15.45v2.97H117.63V-7.8h7.62v4.11h-10.5V-.45h25.02V-3.69Zm30.36-15.54a64.3,64.3,0,0,1-.99,12.96l3.93.36a67.052,67.052,0,0,0,1.02-13.32V-22.5H144.18v3.15h15.39ZM141.6-4.26v3.24h24.99V-4.26Zm49.8-20.76h-3.99V-5.19h3.99Zm-18.69,8.76a3.447,3.447,0,0,1,3.66-3.6,3.408,3.408,0,0,1,3.63,3.6,3.416,3.416,0,0,1-3.63,3.57A3.456,3.456,0,0,1,172.71-16.26Zm11.16,0c0-4.08-3.27-7.02-7.5-7.02s-7.53,2.94-7.53,7.02c0,4.02,3.3,6.99,7.53,6.99S183.87-12.24,183.87-16.26Zm-6.9,15.21V-7.14h-3.96V2.1h19.08V-1.05Z" transform="translate(296 897)"/><path class="b" d="M261.113,322.811v11.668l-7.994-11.668h-8.639v23.127h8.61V334.27l7.994,11.668h8.639V322.811Z" transform="translate(13.52 551.189)"/></g></g></svg>