<?xml version="1.0" encoding="utf-8"?>
<!-- Generator: Adobe Illustrator 16.0.0, SVG Export Plug-In . SVG Version: 6.00 Build 0)  -->
<!DOCTYPE svg PUBLIC "-//W3C//DTD SVG 1.1//EN" "http://www.w3.org/Graphics/SVG/1.1/DTD/svg11.dtd">
<svg version="1.1" id="레이어_1" xmlns="http://www.w3.org/2000/svg" xmlns:xlink="http://www.w3.org/1999/xlink" x="0px"
	 y="0px" width="88px" height="88px" viewBox="0 0 88 88" enable-background="new 0 0 88 88" xml:space="preserve">
<g>
	<g>
		<polygon fill="#FFFFFF" points="35.043,57.25 29.366,57.25 27.268,53.473 34.288,45.682 27.999,26 22.207,26 22.207,22 30.92,22 
			38.798,46.652 32.853,53.25 35.043,53.25 		"/>
	</g>
	<g>
		<polygon fill="#FFFFFF" points="65.292,48.75 36.543,48.75 36.543,44.75 61.292,44.75 61.292,32.725 31.608,32.725 31.608,28.725 
			65.292,28.725 		"/>
	</g>
	<g>
		<path fill="#FFFFFF" d="M40.209,62.417c-3.446,0-6.25-2.804-6.25-6.25c0-3.444,2.804-6.249,6.25-6.249s6.25,2.805,6.25,6.249
			C46.459,59.613,43.655,62.417,40.209,62.417z M40.209,53.918c-1.24,0-2.25,1.009-2.25,2.249s1.01,2.25,2.25,2.25
			s2.25-1.01,2.25-2.25S41.449,53.918,40.209,53.918z"/>
	</g>
	<g>
		<path fill="#FFFFFF" d="M55.861,62.417c-3.446,0-6.25-2.804-6.25-6.25c0-3.444,2.804-6.249,6.25-6.249
			c3.445,0,6.25,2.805,6.25,6.249C62.111,59.613,59.309,62.417,55.861,62.417z M55.861,53.918c-1.24,0-2.25,1.009-2.25,2.249
			s1.01,2.25,2.25,2.25s2.25-1.01,2.25-2.25S57.102,53.918,55.861,53.918z"/>
	</g>
	<g>
		<rect x="45.875" y="53.668" fill="#FFFFFF" width="5" height="4"/>
	</g>
	<g>
		<rect x="60.792" y="53.25" fill="#FFFFFF" width="5" height="4"/>
	</g>
</g>
</svg>
