<?xml version="1.0" encoding="utf-8"?>
<!-- Generator: Adobe Illustrator 16.0.0, SVG Export Plug-In . SVG Version: 6.00 Build 0)  -->
<!DOCTYPE svg PUBLIC "-//W3C//DTD SVG 1.1//EN" "http://www.w3.org/Graphics/SVG/1.1/DTD/svg11.dtd">
<svg version="1.1" id="레이어_1" xmlns="http://www.w3.org/2000/svg" xmlns:xlink="http://www.w3.org/1999/xlink" x="0px"
	 y="0px" width="50px" height="50px" viewBox="0 0 50 50" enable-background="new 0 0 50 50" xml:space="preserve">
<path fill="none" stroke="#222222" stroke-width="2" stroke-linecap="round" stroke-linejoin="round" stroke-miterlimit="10" d="
	M22.219,5.104c-7.257,0-13.584,4.651-15.745,11.574c-0.495,1.589-0.747,3.243-0.747,4.917c0,9.092,7.398,16.49,16.491,16.49
	c9.093,0,16.49-7.397,16.49-16.49C38.71,12.501,31.312,5.104,22.219,5.104L22.219,5.104z"/>
<g>
	<path fill="none" stroke="#222222" stroke-width="2" stroke-linecap="round" stroke-linejoin="round" stroke-miterlimit="10" d="
		M13.278,11.779c2.359-2.15,5.496-3.462,8.939-3.462"/>
	<path fill="none" stroke="#222222" stroke-width="2" stroke-linecap="round" stroke-linejoin="round" stroke-miterlimit="10" d="
		M22.217,8.316c7.333,0,13.278,5.945,13.278,13.278S29.55,34.872,22.217,34.872c-7.333,0-13.277-5.944-13.277-13.278
		c0-1.378,0.211-2.709,0.6-3.959"/>
	
		<line fill="none" stroke="#222222" stroke-width="2" stroke-linecap="round" stroke-linejoin="round" stroke-miterlimit="10" x1="11.542" y1="22.723" x2="22.9" y2="11.365"/>
	
		<line fill="none" stroke="#222222" stroke-width="2" stroke-linecap="round" stroke-linejoin="round" stroke-miterlimit="10" x1="16.253" y1="22.22" x2="22.737" y2="15.74"/>
</g>
<path fill="#FFFFFF" stroke="#222222" stroke-width="2" stroke-linecap="round" stroke-linejoin="round" stroke-miterlimit="10" d="
	M7.77,38.064L7.77,38.064c0,3.705,2.752,6.707,6.146,6.707h18.25c3.395,0,6.146-3.002,6.146-6.707l0,0H7.77"/>
<path fill="#FFFFFF" stroke="#222222" stroke-width="2" stroke-linecap="round" stroke-linejoin="round" stroke-miterlimit="10" d="
	M35.686,32.854c-0.553,0-1-0.445-1-1v-6.75c0-0.552,0.447-1,1-1h5.82c0.553,0,1,0.448,1,1l0.001,6.75
	c0,0.268-0.104,0.521-0.293,0.707c-0.188,0.188-0.44,0.293-0.707,0.293H35.686z"/>
<path fill="#FFFFFF" stroke="#222222" stroke-width="2" stroke-linecap="round" stroke-linejoin="round" stroke-miterlimit="10" d="
	M36.859,24.199c-0.553,0-1-0.448-1-1v-7.873c0-0.217,0.07-0.428,0.201-0.602l1.733-2.308c0.163-0.218,0.408-0.359,0.681-0.392
	l1.735-0.212c0.04-0.005,0.08-0.007,0.12-0.007c0.243,0,0.479,0.088,0.663,0.251c0.214,0.19,0.337,0.462,0.337,0.749v10.393
	c0,0.552-0.447,1-1,1L36.859,24.199L36.859,24.199z"/>
<path fill="#FFFFFF" stroke="#222222" stroke-width="2" stroke-linecap="round" stroke-linejoin="round" stroke-miterlimit="10" d="
	M35.199,44.645c-0.553,0-1-0.445-1-1V32.482c0-0.553,0.447-1,1-1h6.793c0.553,0,1,0.447,1,1v11.162c0,0.553-0.447,1-1,1H35.199
	L35.199,44.645z"/>
<polyline fill="none" stroke="#222222" stroke-width="2" stroke-linecap="round" stroke-linejoin="round" stroke-miterlimit="10" points="
	18.423,38.086 18.423,41.418 28,41.418 28,38.064 "/>
</svg>
