<?xml version="1.0" encoding="utf-8"?>
<!-- Generator: Adobe Illustrator 16.0.0, SVG Export Plug-In . SVG Version: 6.00 Build 0)  -->
<!DOCTYPE svg PUBLIC "-//W3C//DTD SVG 1.1//EN" "http://www.w3.org/Graphics/SVG/1.1/DTD/svg11.dtd">
<svg version="1.1" id="레이어_1" xmlns="http://www.w3.org/2000/svg" xmlns:xlink="http://www.w3.org/1999/xlink" x="0px"
	 y="0px" width="50px" height="50px" viewBox="0 0 50 50" enable-background="new 0 0 50 50" xml:space="preserve">
<line fill="none" stroke="#222222" stroke-width="2" stroke-linecap="round" stroke-linejoin="round" stroke-miterlimit="10" x1="26.475" y1="7.283" x2="29.786" y2="11.537"/>
<line fill="none" stroke="#222222" stroke-width="2" stroke-linecap="round" stroke-linejoin="round" stroke-miterlimit="10" x1="23.316" y1="7.283" x2="20.004" y2="11.537"/>
<path fill="#FFFFFF" stroke="#222222" stroke-width="2" stroke-miterlimit="10" d="M24.895,3.851c-1.503,0-2.727,1.223-2.727,2.726
	c0,1.504,1.224,2.727,2.727,2.727c1.503,0,2.727-1.223,2.727-2.727C27.622,5.074,26.4,3.851,24.895,3.851L24.895,3.851z"/>
<polyline fill="#FFFFFF" stroke="#222222" stroke-width="2" stroke-linecap="round" stroke-linejoin="round" stroke-miterlimit="10" points="
	8.984,15.701 8.984,12.1 41.016,12.1 41.016,43.382 8.984,43.382 8.984,21.309 "/>
<polyline fill="none" stroke="#222222" stroke-width="2" stroke-linecap="round" stroke-linejoin="round" stroke-miterlimit="10" points="
	36.41,35.382 36.41,38.701 13.38,38.701 13.38,16.977 36.41,16.977 36.41,31.354 "/>
<polyline fill="none" stroke="#222222" stroke-width="2" stroke-linecap="round" stroke-linejoin="round" stroke-miterlimit="10" points="
	17.845,30.473 25.268,23.863 31.818,30.473 "/>
<polyline fill="none" stroke="#222222" stroke-width="2" stroke-linecap="round" stroke-linejoin="round" stroke-miterlimit="10" points="
	28.984,27.227 32.881,24.141 36.318,27.227 "/>
</svg>
