<?xml version="1.0" encoding="utf-8"?>
<!-- Generator: Adobe Illustrator 16.0.0, SVG Export Plug-In . SVG Version: 6.00 Build 0)  -->
<!DOCTYPE svg PUBLIC "-//W3C//DTD SVG 1.1//EN" "http://www.w3.org/Graphics/SVG/1.1/DTD/svg11.dtd">
<svg version="1.1" id="레이어_1" xmlns="http://www.w3.org/2000/svg" xmlns:xlink="http://www.w3.org/1999/xlink" x="0px"
	 y="0px" width="50px" height="50px" viewBox="0 0 50 50" enable-background="new 0 0 50 50" xml:space="preserve">
<polyline fill="none" stroke="#222222" stroke-width="2" stroke-linecap="round" stroke-linejoin="round" stroke-miterlimit="10" points="
	28.859,11.411 40.568,11.411 40.568,33.107 "/>
<polyline fill="none" stroke="#222222" stroke-width="2" stroke-linecap="round" stroke-linejoin="round" stroke-miterlimit="10" points="
	40.568,37.618 40.568,44.182 9.432,44.182 9.432,11.411 21.197,11.411 "/>
<polyline fill="none" stroke="#222222" stroke-width="2" stroke-linecap="round" stroke-linejoin="round" stroke-miterlimit="10" points="
	36.35,22.429 36.35,29.55 28.669,29.55 28.669,22.429 "/>
<line fill="none" stroke="#222222" stroke-width="2" stroke-linecap="round" stroke-linejoin="round" stroke-miterlimit="10" x1="19.676" y1="7.274" x2="30.541" y2="7.274"/>
<line fill="none" stroke="#222222" stroke-width="2" stroke-linecap="round" stroke-linejoin="round" stroke-miterlimit="10" x1="24.383" y1="22.429" x2="24.383" y2="40.111"/>
<line fill="none" stroke="#222222" stroke-width="2" stroke-linecap="round" stroke-linejoin="round" stroke-miterlimit="10" x1="24.234" y1="27.198" x2="22.551" y2="27.198"/>
<line fill="none" stroke="#222222" stroke-width="2" stroke-linecap="round" stroke-linejoin="round" stroke-miterlimit="10" x1="24.234" y1="33.2" x2="22.551" y2="33.2"/>
<line fill="none" stroke="#222222" stroke-width="2" stroke-linecap="round" stroke-linejoin="round" stroke-miterlimit="10" x1="28.67" y1="23.902" x2="35.968" y2="23.902"/>
<path fill="#FFFFFF" stroke="#222222" stroke-width="2" stroke-linecap="round" stroke-linejoin="round" stroke-miterlimit="10" d="
	M35.266,9.151c-0.076-0.27-0.263-0.492-0.513-0.619l-3.181-1.604C31.43,6.855,31.273,6.82,31.123,6.82
	c-0.325,0-0.643,0.158-0.832,0.444l-5.292,7.918l-5.291-7.918c-0.19-0.286-0.507-0.444-0.832-0.444c-0.151,0-0.306,0.034-0.45,0.107
	l-3.18,1.604c-0.249,0.127-0.434,0.35-0.512,0.619c-0.075,0.27-0.036,0.557,0.109,0.795l5.412,8.852
	c0.146,0.238,0.385,0.404,0.658,0.459c0.064,0.014,0.13,0.02,0.195,0.02c0.209,0,0.416-0.066,0.588-0.191l3.199-2.326
	c0.042-0.031,0.066-0.075,0.103-0.11c0.036,0.036,0.061,0.08,0.103,0.11l3.2,2.326c0.174,0.125,0.379,0.191,0.59,0.191
	c0.063,0,0.131-0.006,0.194-0.02c0.272-0.053,0.513-0.221,0.658-0.459l5.413-8.852C35.302,9.708,35.341,9.421,35.266,9.151z"/>
</svg>
