<?xml version="1.0" encoding="utf-8"?>
<!-- Generator: Adobe Illustrator 16.0.0, SVG Export Plug-In . SVG Version: 6.00 Build 0)  -->
<!DOCTYPE svg PUBLIC "-//W3C//DTD SVG 1.1//EN" "http://www.w3.org/Graphics/SVG/1.1/DTD/svg11.dtd">
<svg version="1.1" id="레이어_1" xmlns="http://www.w3.org/2000/svg" xmlns:xlink="http://www.w3.org/1999/xlink" x="0px"
	 y="0px" width="50px" height="50px" viewBox="0 0 50 50" enable-background="new 0 0 50 50" xml:space="preserve">
<polygon opacity="0.3" fill="#6AC3FA" enable-background="new    " points="-125.833,22.165 -125.833,30.193 -72,16.903 -72,8.135 
	"/>
<circle fill="#C39BEE" cx="221.738" cy="103.258" r="10.427"/>
<circle fill="#C39BEE" cx="178.225" cy="110.849" r="10.427"/>
<path fill="#FFFFFF" stroke="#222222" stroke-width="2" stroke-linecap="round" stroke-linejoin="round" stroke-miterlimit="10" d="
	M37.891,21.853v1.935c0,7.435-5.432,13.459-12.133,13.459h-1.517c-6.7,0-12.132-6.024-12.132-13.459v-1.935"/>
<line fill="none" stroke="#222222" stroke-width="2" stroke-linecap="round" stroke-linejoin="round" stroke-miterlimit="10" x1="8.66" y1="21.853" x2="12.109" y2="21.853"/>
<line fill="none" stroke="#222222" stroke-width="2" stroke-linecap="round" stroke-linejoin="round" stroke-miterlimit="10" x1="37.891" y1="21.853" x2="41.34" y2="21.853"/>
<path fill="#FFFFFF" stroke="#222222" stroke-width="2" stroke-linecap="round" stroke-linejoin="round" stroke-miterlimit="10" d="
	M25.293,37.34"/>
<g>
	
		<path fill="#FFFFFF" stroke="#222222" stroke-width="2" stroke-linecap="round" stroke-linejoin="round" stroke-miterlimit="10" d="
		M32.656,11.338c0.086,0.443,0.129,0.898,0.129,1.365v13.139c0,3.971-3.219,7.189-7.189,7.189h-0.896
		c-3.971,0-7.189-3.221-7.189-7.189V12.705c0-3.972,3.219-7.189,7.189-7.189h0.896c1.365,0,2.641,0.38,3.729,1.041
		c0.521,0.314,0.993,0.693,1.416,1.127"/>
	<g>
		
			<line fill="none" stroke="#222222" stroke-width="2" stroke-linecap="round" stroke-linejoin="round" stroke-miterlimit="10" x1="21.402" y1="19.373" x2="17.507" y2="19.373"/>
		
			<line fill="none" stroke="#222222" stroke-width="2" stroke-linecap="round" stroke-linejoin="round" stroke-miterlimit="10" x1="21.402" y1="23.639" x2="17.507" y2="23.639"/>
		
			<line fill="none" stroke="#222222" stroke-width="2" stroke-linecap="round" stroke-linejoin="round" stroke-miterlimit="10" x1="21.402" y1="14.83" x2="17.507" y2="14.83"/>
	</g>
	<g>
		
			<line fill="none" stroke="#222222" stroke-width="2" stroke-linecap="round" stroke-linejoin="round" stroke-miterlimit="10" x1="32.785" y1="19.512" x2="28.891" y2="19.512"/>
		
			<line fill="none" stroke="#222222" stroke-width="2" stroke-linecap="round" stroke-linejoin="round" stroke-miterlimit="10" x1="32.785" y1="23.776" x2="28.891" y2="23.776"/>
		
			<line fill="none" stroke="#222222" stroke-width="2" stroke-linecap="round" stroke-linejoin="round" stroke-miterlimit="10" x1="32.785" y1="14.969" x2="28.891" y2="14.969"/>
	</g>
</g>
<g>
	
		<path fill="#FFFFFF" stroke="#000000" stroke-width="2" stroke-linecap="round" stroke-linejoin="round" stroke-miterlimit="10" d="
		M-38.109,161.831v1.935c0,7.436-5.432,13.459-12.133,13.459h-1.517c-6.7,0-12.132-6.023-12.132-13.459v-1.935"/>
	
		<line fill="none" stroke="#000000" stroke-width="2" stroke-linecap="round" stroke-linejoin="round" stroke-miterlimit="10" x1="-67.34" y1="161.831" x2="-63.891" y2="161.831"/>
	
		<line fill="none" stroke="#000000" stroke-width="2" stroke-linecap="round" stroke-linejoin="round" stroke-miterlimit="10" x1="-38.109" y1="161.831" x2="-34.66" y2="161.831"/>
	
		<path fill="#FFFFFF" stroke="#000000" stroke-width="2" stroke-linecap="round" stroke-linejoin="round" stroke-miterlimit="10" d="
		M-50.707,177.318"/>
	<g>
		
			<path fill="#FFFFFF" stroke="#000000" stroke-width="2" stroke-linecap="round" stroke-linejoin="round" stroke-miterlimit="10" d="
			M-43.196,151.316c0.085,0.441,0.129,0.896,0.129,1.365v13.139c0,3.971-3.219,7.188-7.19,7.188h-0.898
			c-3.971,0-7.189-3.22-7.189-7.188v-13.139c0-3.973,3.219-7.188,7.189-7.188h0.898c1.365,0,2.642,0.38,3.729,1.041
			c0.52,0.315,0.995,0.694,1.416,1.127"/>
		<g>
			
				<line fill="none" stroke="#000000" stroke-width="2" stroke-linecap="round" stroke-linejoin="round" stroke-miterlimit="10" x1="-54.451" y1="159.352" x2="-58.346" y2="159.352"/>
			
				<line fill="none" stroke="#000000" stroke-width="2" stroke-linecap="round" stroke-linejoin="round" stroke-miterlimit="10" x1="-54.451" y1="163.617" x2="-58.346" y2="163.617"/>
			
				<line fill="none" stroke="#000000" stroke-width="2" stroke-linecap="round" stroke-linejoin="round" stroke-miterlimit="10" x1="-54.451" y1="154.809" x2="-58.346" y2="154.809"/>
		</g>
		<g>
			
				<line fill="none" stroke="#000000" stroke-width="2" stroke-linecap="round" stroke-linejoin="round" stroke-miterlimit="10" x1="-43.067" y1="159.49" x2="-46.962" y2="159.49"/>
			
				<line fill="none" stroke="#000000" stroke-width="2" stroke-linecap="round" stroke-linejoin="round" stroke-miterlimit="10" x1="-43.067" y1="163.755" x2="-46.962" y2="163.755"/>
			
				<line fill="none" stroke="#000000" stroke-width="2" stroke-linecap="round" stroke-linejoin="round" stroke-miterlimit="10" x1="-43.067" y1="154.947" x2="-46.962" y2="154.947"/>
		</g>
	</g>
	
		<polyline fill="none" stroke="#000000" stroke-width="2" stroke-linecap="round" stroke-linejoin="round" stroke-miterlimit="10" points="
		-51.74,177.555 -51.74,181.918 -57.306,181.918 -59.818,184.507 -41.596,184.507 -43.779,181.918 -49.518,181.918 -49.518,177.555 
			"/>
</g>
<g>
	
		<path fill="#FFFFFF" stroke="#222222" stroke-width="2" stroke-linecap="round" stroke-linejoin="round" stroke-miterlimit="10" d="
		M16.326,44.482L16.326,44.482c0-2.141,1.59-3.873,3.55-3.873h10.542c1.961,0,3.549,1.732,3.549,3.873l0,0H16.326"/>
	
		<line fill="none" stroke="#222222" stroke-width="2" stroke-linecap="round" stroke-linejoin="round" stroke-miterlimit="10" x1="25.146" y1="37.34" x2="25.146" y2="40.609"/>
</g>
</svg>
