<svg xmlns="http://www.w3.org/2000/svg" width="359.24" height="130.6" viewBox="0 0 359.24 130.6"><defs><style>.a{fill:#fff;}</style></defs><path class="a" d="M-142.555-42.63v4.69h12.39l.7-14.49h-47.6v9.8Zm-6.44,8.05v-4.76h-13.09v4.76h-16.38v9.73h50.4v-9.73Zm19.53,23.8a10.356,10.356,0,0,0-3.115-7.735,10.8,10.8,0,0,0-7.875-3.045h-25.62a10.8,10.8,0,0,0-7.875,3.045,10.356,10.356,0,0,0-3.115,7.735,10.356,10.356,0,0,0,3.115,7.735A10.8,10.8,0,0,0-166.075,0h25.62a10.8,10.8,0,0,0,7.875-3.045A10.356,10.356,0,0,0-129.465-10.78Zm-14.49-1.33a1.285,1.285,0,0,1,.945.385,1.285,1.285,0,0,1,.385.945,1.285,1.285,0,0,1-.385.945,1.285,1.285,0,0,1-.945.385h-18.62a1.285,1.285,0,0,1-.945-.385,1.285,1.285,0,0,1-.385-.945,1.285,1.285,0,0,1,.385-.945,1.285,1.285,0,0,1,.945-.385Zm69.93-41.09v36.68h-13.16v-7.42h-5.95V-27.3q-3.36,7.7-14.28,7.7-7.77,0-11.76-3.99t-3.99-11.76v-2.1q0-7.77,3.99-11.76t11.76-3.99q10.92,0,14.28,7.7v-2.45h5.95V-53.2Zm-30.94,12.95a2.166,2.166,0,0,0-2.45-2.45,2.166,2.166,0,0,0-2.45,2.45v7.7a2.166,2.166,0,0,0,2.45,2.45,2.166,2.166,0,0,0,2.45-2.45Zm17.78,6.3v-3.99h-4.48v3.99ZM-108.6-17.92v7.35h34.58V-.07l-47.74.07V-17.92Zm92.82-35.28h13.16v34.65h-13.16Zm-20.51,24.29A19.732,19.732,0,0,1-42.7-24.6a19.343,19.343,0,0,1-7.525,1.5l-2.8-10.5a9.53,9.53,0,0,0,7.21-3.115q2.94-3.115,2.94-9.275V-52.5h13.09v6.51q0,6.16,2.94,9.275a9.53,9.53,0,0,0,7.21,3.115l-2.8,10.5a19.343,19.343,0,0,1-7.525-1.5A18.964,18.964,0,0,1-36.295-28.91Zm-.77,8.96v9.45h34.44V0h-47.6V-19.95Zm54.67-9.73A19.222,19.222,0,0,1,11.2-25.305a19.343,19.343,0,0,1-7.525,1.5l-2.1-9.8A8.677,8.677,0,0,0,7.49-35.525a10.5,10.5,0,0,0,3.045-5.985H2.555V-51.1h8.47v-3.5h13.16v3.5h8.47v9.59h-8.05a10.5,10.5,0,0,0,3.045,5.985A8.677,8.677,0,0,0,33.565-33.6l-2.1,9.8a18.963,18.963,0,0,1-7.525-1.54A19.412,19.412,0,0,1,17.605-29.68ZM38.4-23.8V-33.95h-4.34v-9.8H38.4V-53.2h13.16v29.4Zm2.24,2.24a10.8,10.8,0,0,1,7.875,3.045,10.356,10.356,0,0,1,3.115,7.735A10.356,10.356,0,0,1,48.51-3.045,10.8,10.8,0,0,1,40.635,0H15.015A10.8,10.8,0,0,1,7.14-3.045,10.356,10.356,0,0,1,4.025-10.78,10.356,10.356,0,0,1,7.14-18.515a10.8,10.8,0,0,1,7.875-3.045Zm-3.5,12.11a1.285,1.285,0,0,0,.945-.385,1.285,1.285,0,0,0,.385-.945,1.285,1.285,0,0,0-.385-.945,1.285,1.285,0,0,0-.945-.385H18.515a1.285,1.285,0,0,0-.945.385,1.285,1.285,0,0,0-.385.945,1.285,1.285,0,0,0,.385.945,1.285,1.285,0,0,0,.945.385Zm86.03-13.02V-52.64h-13.16v4.62H88.585v-4.62H75.425v30.17Zm-13.16-10.5H88.585v-4.55h21.42Zm14.56,14.7H74.025V-7.7h18.69V0h13.09V-7.7h18.76ZM165.3-53.2v20.23h-5.25v10.5h5.25V0h13.16V-53.2Zm-22.68,20.23v-9.17h15.33v-10.5h-28.49V-2.1h29.89V-12.6h-16.73v-9.87h13.93v-10.5ZM-143.43,57.45V44.36h-4.62V33.86h4.62V22.8h13.09V57.45Zm-20.86-10.36a19.732,19.732,0,0,1-6.4,4.305A19.343,19.343,0,0,1-178.22,52.9l-2.1-10.5a9.085,9.085,0,0,0,5.985-1.995q2.415-2,3.185-6.545h-8.12V23.36h29.82v10.5h-8.05q.77,4.55,3.185,6.545A9.085,9.085,0,0,0-148.33,42.4l-2.1,10.5a19.343,19.343,0,0,1-7.525-1.505A18.963,18.963,0,0,1-164.29,47.09Zm-.42,18.41h34.44V76h-47.6V56.05h13.16Zm88.34-22.47h5.25v10.5h-5.25V76H-89.53V22.8h13.16Zm-27.16-7a63.621,63.621,0,0,0,1.4,14.315,24.075,24.075,0,0,0,3.85,9.17,8.225,8.225,0,0,0,5.6,3.535l-2.8,10.85a16.05,16.05,0,0,1-7.56-2.73,21.738,21.738,0,0,1-6.65-7.21,22.388,22.388,0,0,1-6.72,7.21,16.05,16.05,0,0,1-7.56,2.73l-2.8-10.85q5.6-.49,8.225-7.21t2.625-19.81V34h-9.45V23.5h31.22V34h-9.38ZM-28.98,22.8h12.46V75.3H-28.98V64.8h-5.53V57.31q-4.48,14-16.31,16.59l-2.8-10.5q4.83-2.17,7.14-8.61t2.31-18.76V34h-8.05V23.5h20.44v9.8h2.8Zm14.7,0H-1.82V76H-14.28Zm-14.7,21h-3.08a60.6,60.6,0,0,1-1.61,10.5h4.69ZM3.08,40.65q0,7.77,3.99,11.76T18.83,56.4q7.77,0,11.76-3.99t3.99-11.76v-2.1q0-7.77-3.99-11.76T18.83,22.8q-7.77,0-11.76,3.99T3.08,38.55Zm49.14-3.29h5.25V27.35H52.22V22.8H39.06V55.77H52.22V51.36h5.25V41.35H52.22ZM16.38,35.75a2.166,2.166,0,0,1,2.45-2.45,2.166,2.166,0,0,1,2.45,2.45v7.7a2.166,2.166,0,0,1-2.45,2.45,2.166,2.166,0,0,1-2.45-2.45ZM52.22,76V58.08l-47.74.07v10.5H39.06V76Zm71.75-32.97h5.25v10.5h-5.25V76H110.81V22.8h13.16Zm-15.96-7q0,12.95-2.275,20.685T99.645,68.16A26.2,26.2,0,0,1,90.37,73.9l-2.8-9.1a14,14,0,0,0,4.865-5.6,29.515,29.515,0,0,0,2.45-8.995A110.8,110.8,0,0,0,95.62,36.03V34H92.61v2.03q0,11.41-1.96,18.2T85.19,64.38a25.03,25.03,0,0,1-8.82,5.32l-2.8-9.8a14.146,14.146,0,0,0,4.655-5.075A21.473,21.473,0,0,0,80.36,47.51a93.648,93.648,0,0,0,.56-11.48V34H75.67V23.5h32.34Zm57.75-13.37h13.16V76H165.76Zm-14,13.37a63.621,63.621,0,0,0,1.4,14.315,24.075,24.075,0,0,0,3.85,9.17,8.225,8.225,0,0,0,5.6,3.535l-2.8,10.85a16.05,16.05,0,0,1-7.56-2.73,21.738,21.738,0,0,1-6.65-7.21,22.388,22.388,0,0,1-6.72,7.21,16.05,16.05,0,0,1-7.56,2.73l-2.8-10.85q5.6-.49,8.225-7.21t2.625-19.81V34h-9.45V23.5h31.22V34h-9.38Z" transform="translate(180.32 54.6)"/></svg>