<svg xmlns="http://www.w3.org/2000/svg" width="128.109" height="50" viewBox="0 0 128.109 50"><defs><style>.a,.b{fill:#333;}.a{font-size:43px;font-family:NEXONLv1GothicLowOTFRegular, NEXON Lv1 Gothic Low OTF;letter-spacing:-0.025em;}</style></defs><g transform="translate(-360.083 -105)"><text class="a" transform="translate(405.191 144)"><tspan x="0" y="0">pick</tspan></text><path class="b" d="M49.847,62.167a16.587,16.587,0,0,1,2.962-2.393,11.325,11.325,0,0,1,4.577-1.8l3.265,17.457.019.08a1.379,1.379,0,0,1,.027.167A13.306,13.306,0,1,0,71.32,60.153a13.845,13.845,0,0,0-3.709,1.278L65.335,49.265c-.512-2.7-2.867-3.861-5.423-3.375a13.172,13.172,0,0,0-2.192.557,13.53,13.53,0,0,0-7.464,6.845C48.6,56.884,49.847,62.167,49.847,62.167Zm24.841,15.94a4.976,4.976,0,0,1-4.911-1.93,5.046,5.046,0,0,1-.884-2.029,4.964,4.964,0,1,1,5.795,3.959Z" transform="translate(310.687 64.743)"/></g></svg>