<svg xmlns="http://www.w3.org/2000/svg" width="135" height="56" viewBox="0 0 135 56"><defs><style>.a{fill:none;}.b{fill:#333;}</style></defs><g transform="translate(-40 -102)"><rect class="a" width="135" height="56" transform="translate(40 102)"/><g transform="translate(-320.083)"><path class="b" d="M6.364-12.04c0-6.106,4-9.8,8.944-9.8s8.944,4.085,8.944,9.8-4,9.8-8.944,9.8S6.364-6.321,6.364-12.04ZM3.225-23.865V8.385h3.1V-4.429A10.488,10.488,0,0,0,15.308.43c6.837,0,12.04-5.16,12.04-12.47s-5.2-12.47-12.04-12.47a10.71,10.71,0,0,0-8.987,4.472v-3.827Zm32.207.086h-3.1V-.215h3.1ZM31.82-28.423h4.128v-4.128H31.82ZM61.963-19.35a11.3,11.3,0,0,0-9.718-5.117c-6.622,0-11.825,5.117-11.825,12.427S45.623.43,52.245.43a11.483,11.483,0,0,0,10.32-6.106L60.157-7.353a8.731,8.731,0,0,1-7.912,5.117c-4.73,0-8.729-4.085-8.729-9.8,0-5.676,4-9.761,8.729-9.761a8.413,8.413,0,0,1,7.224,4.042ZM81.657-.215h3.784L72.756-12.556,84.28-23.865H80.5L69.316-12.857V-33.325h-3.1V-.215h3.1V-12.083Z" transform="translate(405.191 144)"/><path class="b" d="M49.847,62.167a16.587,16.587,0,0,1,2.962-2.393,11.325,11.325,0,0,1,4.577-1.8l3.265,17.457.019.08a1.379,1.379,0,0,1,.027.167A13.306,13.306,0,1,0,71.32,60.153a13.845,13.845,0,0,0-3.709,1.278L65.335,49.265c-.512-2.7-2.867-3.861-5.423-3.375a13.172,13.172,0,0,0-2.192.557,13.53,13.53,0,0,0-7.464,6.845C48.6,56.884,49.847,62.167,49.847,62.167Zm24.841,15.94a4.976,4.976,0,0,1-4.911-1.93,5.046,5.046,0,0,1-.884-2.029,4.964,4.964,0,1,1,5.795,3.959Z" transform="translate(310.687 64.743)"/></g></g></svg>