<svg xmlns="http://www.w3.org/2000/svg" width="66" height="66" viewBox="0 0 66 66"><defs><style>.a,.c{fill:none;}.b{fill:#9f5df8;}.b,.c,.d{stroke:#2b3146;stroke-linecap:round;stroke-miterlimit:10;stroke-width:2.2px;}.d{fill:#fff;stroke-linejoin:round;}</style></defs><g transform="translate(-340 -1043)"><rect class="a" width="66" height="66" transform="translate(340 1043)"/><g transform="translate(4486.662 2152.761)"><path class="b" d="M-4110.058-1096.662h-17.559a2.046,2.046,0,0,0-2.045,2.045v36.811a2.045,2.045,0,0,0,2.045,2.045h28.63a2.044,2.044,0,0,0,2.045-2.045v-25.738a2.045,2.045,0,0,0-.6-1.447l-11.072-11.072A2.045,2.045,0,0,0-4110.058-1096.662Z"/><line class="c" x2="17" transform="translate(-4121.662 -1066.761)"/><line class="c" x2="8" transform="translate(-4121.662 -1073.761)"/><path class="d" d="M-4109.662-1096.662v10.225a2.045,2.045,0,0,0,2.045,2.045h10.225Z" transform="translate(0.45)"/></g></g></svg>