<svg xmlns="http://www.w3.org/2000/svg" width="66" height="66" viewBox="0 0 66 66"><defs><style>.a,.d{fill:none;}.b,.e{fill:#fff;}.b,.c,.d,.e{stroke:#2b3146;stroke-linecap:round;stroke-width:2.2px;}.b,.c{stroke-linejoin:round;}.c{fill:#9f5efd;}</style></defs><g transform="translate(-200 -1043)"><rect class="a" width="66" height="66" transform="translate(200 1043)"/><g transform="translate(-4.412 -1)"><path class="b" d="M0-2.062,9.432.35h0V9.107c0,1.812-2.111,3.281-4.716,3.281S0,10.919,0,9.107Z" transform="translate(211.412 1083.057)"/><path class="c" d="M0,7.11,29.588-1V27.975L0,19.865Z" transform="translate(211.412 1061.444)"/><path class="b" d="M0,7c0,3.865,3.583,7,8,7V0C3.583,0,0,3.135,0,7Z" transform="translate(255.512 1081.425) rotate(180)"/><line class="d" x2="5.923" transform="translate(259.488 1074.683)"/><line class="d" x2="5.924" transform="translate(265.015 1065.946) rotate(150)"/><line class="d" x2="5.924" transform="translate(265.015 1083.39) rotate(-150)"/><rect class="e" width="8" height="34" rx="4" transform="translate(241 1058)"/></g></g></svg>