<svg xmlns="http://www.w3.org/2000/svg" width="66" height="66" viewBox="0 0 66 66"><defs><style>.a,.c{fill:none;}.b{fill:#9f5df8;}.b,.c,.d{stroke:#2b3146;stroke-linecap:round;stroke-width:2.2px;}.b,.d{stroke-linejoin:round;}.d{fill:#fff;}</style></defs><g transform="translate(-60 -1043)"><rect class="a" width="66" height="66" transform="translate(60 1043)"/><g transform="translate(70 1057)"><g transform="translate(0)"><path class="b" d="M5.878,27.461A15.371,15.371,0,0,1,15.371,0H27.316a15.371,15.371,0,1,1,0,30.741H15.268L3.23,38Z"/></g><line class="c" x2="19.359" transform="translate(10.221 10.563)"/><path class="c" d="M0,0H10.095" transform="translate(10.222 17.472)"/></g><g transform="translate(95 1076)"><g transform="translate(0)"><path class="d" d="M7.685,19A7.686,7.686,0,0,1,2.939,5.269L1.616,0,7.631,3.629h6.026a7.686,7.686,0,1,1,0,15.371Z" transform="translate(21.343 19) rotate(180)"/></g></g></g></svg>