<svg xmlns="http://www.w3.org/2000/svg" width="132" height="84" viewBox="0 0 132 84"><defs><style>.a{fill:#7061e5;stroke:#fff;stroke-width:4px;}.b{fill:#fff;font-size:24px;font-family:Jalnan;letter-spacing:-0.025em;}.c{fill:#f8bd33;}.d{fill:#f6a592;}.e{fill:#f6b9a4;}.f{fill:#f0baa4;}.g{fill:none;stroke:#464d66;stroke-linecap:round;stroke-linejoin:round;stroke-width:0.475px;}</style></defs><g transform="translate(-1116 -3488)"><rect class="a" width="128" height="54" rx="27" transform="translate(1118 3516)"/><text class="b" transform="translate(1182 3552)"><tspan x="-35.4" y="0">예술인</tspan></text><g transform="translate(-0.052 -0.024)"><path class="c" d="M129.48,130.683c-9.862,0-13.14,4.986-14.03,12.691s3.223,10.65,3.223,10.65h22.084C147.729,138.5,139.34,130.683,129.48,130.683Z" transform="translate(1052.728 3357.341)"/><g transform="translate(1168.131 3488.95)"><g transform="translate(0 17.578)"><path class="d" d="M120.5,154.633a3.775,3.775,0,0,0-3.353-4.892h-.072c-2.388,0-2.364,6.782,1.035,6.782A2.32,2.32,0,0,0,120.5,154.633Z" transform="translate(-115.405 -149.74)"/><path class="d" d="M138.588,154.633a3.775,3.775,0,0,1,3.353-4.892h.071c2.388,0,2.365,6.782-1.034,6.782A2.32,2.32,0,0,1,138.588,154.633Z" transform="translate(-116.016 -149.74)"/></g><g transform="translate(5.967 26.275)"><path class="d" d="M136.442,167.15c-1.534-2.908-.924-7.347-.924-7.347l-5.983-.921-5.983.921a17.764,17.764,0,0,1-.041,4.467C125.694,166.49,129.888,169.167,136.442,167.15Z" transform="translate(-121.668 -158.883)"/><path class="e" d="M136.437,167.164c-6.554,2.017-10.748-.66-12.931-2.879a7.752,7.752,0,0,1-1.493,3.817c-1.151,1.381.728,2.34,2.9,2.953a16.978,16.978,0,0,0,9.243,0c2.167-.613,4.046-1.572,2.9-2.953A5.35,5.35,0,0,1,136.437,167.164Z" transform="translate(-121.663 -158.897)"/></g><g transform="translate(1.683)"><path class="f" d="M134.09,156.306a4.306,4.306,0,0,1,4.257-4.353,4.17,4.17,0,0,1,2.432.787,22.606,22.606,0,0,0,.614-5.434c0-8.964-4.148-12.9-7.6-14.623a10.205,10.205,0,0,0-9.109,0c-3.449,1.724-7.6,5.659-7.6,14.623a22.607,22.607,0,0,0,.614,5.434,4.17,4.17,0,0,1,2.432-.787,4.305,4.305,0,0,1,4.256,4.353,4.349,4.349,0,0,1-2.24,3.812,12.359,12.359,0,0,0,1.48,1.058,10.888,10.888,0,0,0,11.216,0,12.55,12.55,0,0,0,1.48-1.058A4.349,4.349,0,0,1,134.09,156.306Z" transform="translate(-117.092 -131.611)"/><path class="d" d="M124.562,156.359a4.346,4.346,0,0,0-6.84-3.566,13.25,13.25,0,0,0,4.549,7.378A4.335,4.335,0,0,0,124.562,156.359Z" transform="translate(-117.094 -131.664)"/><path class="d" d="M141.362,152.793a4.342,4.342,0,1,0-4.549,7.378A13.25,13.25,0,0,0,141.362,152.793Z" transform="translate(-117.688 -131.664)"/></g><path class="g" d="M132.464,156.54a4.178,4.178,0,0,1-2.917,1.052h-.006a4.178,4.178,0,0,1-2.917-1.052" transform="translate(-115.71 -132.267)"/><g transform="translate(8.019 14.857)"><path class="d" d="M129.633,155.413V150.12S125.9,155.413,129.633,155.413Z" transform="translate(-123.732 -146.965)"/><path class="g" d="M123.721,148.076a2.609,2.609,0,0,1,2.246-1.119" transform="translate(-123.721 -146.957)"/><path class="g" d="M135.374,148.076a2.607,2.607,0,0,0-2.245-1.119" transform="translate(-123.745 -146.957)"/><path class="g" d="M124.067,150.6s.116-.96.951-.96.951.96.951.96" transform="translate(-123.722 -146.964)"/><path class="g" d="M133.3,150.6s.116-.96.951-.96.95.96.95.96" transform="translate(-123.746 -146.964)"/></g></g><path class="c" d="M116.13,141.358s15.2,3.985,25.51,0C139.422,131.5,124.448,123.328,116.13,141.358Z" transform="translate(1052.726 3357.341)"/></g></g></svg>