<svg xmlns="http://www.w3.org/2000/svg" width="132" height="91" viewBox="0 0 132 91"><defs><style>.a{fill:#f87733;stroke:#fff;stroke-width:4px;}.b{fill:#fff;font-size:24px;font-family:Jalnan;letter-spacing:-0.025em;}.c,.e{fill:none;stroke-linecap:round;stroke-linejoin:round;stroke-width:0.475px;}.c{stroke:#464d66;}.d{fill:#464d66;}.e{stroke:#f8bd33;}.f{fill:#f6a592;}.g{fill:#f6b9a4;}.h{fill:#f0baa4;}.i{fill:linen;}</style></defs><g transform="translate(-671 -3481)"><rect class="a" width="128" height="54" rx="27" transform="translate(673 3516)"/><text class="b" transform="translate(735 3552)"><tspan x="-35.4" y="0">사업주</tspan></text><g transform="translate(-0.44 -0.772)"><path class="c" d="M455.376,120.075s-3.974,6.173-8.14,7.268c-5.1,1.342-9.282,2.435-8.4,8.637s-9.838,9.2-3.84,17.192" transform="translate(275.07 3365.145)"/><path class="c" d="M464,127.479s2.461,11.443,13.56,9.24" transform="translate(276.401 3365.301)"/><path class="c" d="M434.185,153.921s-4.967-1.778-8.783,3.392-10.438.641-11.2,10.131,13.19,12.05,13.5,5.02" transform="translate(274.271 3365.792)"/><path class="d" d="M436.38,153.2s-6.356-1.921-10.2,5.173-10.05,2.365-11.824,10.051,11.818,13.007,15,9.46,15.153-14.337,14.266-19.067S436.38,153.2,436.38,153.2Z" transform="translate(274.273 3365.761)"/><path class="e" d="M435.6,153.908a20.624,20.624,0,0,0,5.593,5.01" transform="translate(275.2 3366.116)"/><path class="d" d="M463.69,117.07s-7.578-2.339-10.731,6.284-14.086,3.8-13,12.423-8.418,6.522-6.371,15.83c2.485,8.138,14.049,13.114,19.375,7.992s25.2,2.029,26.369-15.646S474.213,117.654,463.69,117.07Z" transform="translate(274.973 3364.992)"/><g transform="translate(723.794 3483.235)"><g transform="translate(0 18.974)"><path class="f" d="M453.476,141.442a3.961,3.961,0,0,0-3.519-5.133h-.074c-2.505,0-2.481,7.116,1.086,7.116A2.432,2.432,0,0,0,453.476,141.442Z" transform="translate(-448.13 -136.308)"/><path class="f" d="M471.32,141.442a3.961,3.961,0,0,1,3.518-5.133h.075c2.505,0,2.48,7.116-1.086,7.116A2.432,2.432,0,0,1,471.32,141.442Z" transform="translate(-447.057 -136.308)"/></g><g transform="translate(6.55 28.542)"><path class="f" d="M469.8,154.126c-1.609-3.052-.969-7.709-.969-7.709l-6.278-.966-6.277.966a18.629,18.629,0,0,1-.043,4.687C458.526,153.432,462.928,156.242,469.8,154.126Z" transform="translate(-454.302 -145.451)"/><path class="g" d="M469.89,153.874c-6.876,2.116-11.278-.694-13.568-3.022a8.145,8.145,0,0,1-1.568,4.006c-1.207,1.448.765,2.454,3.039,3.1a17.835,17.835,0,0,0,9.7,0c2.274-.645,4.246-1.65,3.038-3.1A5.673,5.673,0,0,1,469.89,153.874Z" transform="translate(-454.388 -145.2)"/></g><g transform="translate(1.765)"><path class="h" d="M468.058,144.091a4.559,4.559,0,0,1,7.177-3.741,23.226,23.226,0,0,0,.659-5.7c0-9.405-4.451-13.535-8.152-15.344a11.172,11.172,0,0,0-9.774,0c-3.7,1.808-8.153,5.938-8.153,15.344a23.173,23.173,0,0,0,.66,5.7,4.555,4.555,0,1,1,4.772,7.74,13.437,13.437,0,0,0,1.589,1.11,11.914,11.914,0,0,0,12.037,0,13.34,13.34,0,0,0,1.588-1.11A4.546,4.546,0,0,1,468.058,144.091Z" transform="translate(-449.816 -118.179)"/><path class="f" d="M457.624,143.141a4.559,4.559,0,0,0-7.177-3.741,13.9,13.9,0,0,0,4.772,7.74A4.547,4.547,0,0,0,457.624,143.141Z" transform="translate(-449.787 -117.229)"/><path class="f" d="M474.423,139.4a4.555,4.555,0,1,0-4.773,7.74A13.9,13.9,0,0,0,474.423,139.4Z" transform="translate(-449.004 -117.229)"/></g><g transform="translate(8.704 16.06)"><path class="d" d="M456.792,137.684a1,1,0,1,0,1-1A1,1,0,0,0,456.792,137.684Z" transform="translate(-456.43 -133.377)"/><path class="d" d="M466.026,137.684a1,1,0,1,0,1-1A1,1,0,0,0,466.026,137.684Z" transform="translate(-456 -133.377)"/><path class="f" d="M462.439,142.241v-5.554S458.522,142.241,462.439,142.241Z" transform="translate(-456.248 -133.377)"/><path class="c" d="M456.446,134.7a2.737,2.737,0,0,1,2.356-1.175" transform="translate(-456.446 -133.524)"/><path class="c" d="M468.21,134.7a2.737,2.737,0,0,0-2.357-1.175" transform="translate(-456.008 -133.524)"/></g><path class="i" d="M460.547,143.107h3.618s-.115,2.453-1.81,2.453S460.547,143.107,460.547,143.107Z" transform="translate(-447.551 -117.018)"/></g><path class="d" d="M447.208,140.151s4.975,2.322,7.13-3.647,8.777-2.385,10.613-7.627a16.932,16.932,0,0,0,13.432,8.725s-1.5-20.544-15.341-20.544S450.454,133.849,447.208,140.151Z" transform="translate(275.62 3365.004)"/></g></g></svg>