<svg xmlns="http://www.w3.org/2000/svg" width="60" height="60" viewBox="0 0 60 60"><defs><style>.a{fill:#e5e6eb;}.b{fill:#f4f4fc;}.c{fill:#d9d9ef;}.d{fill:#d9dae2;}.e,.h{fill:#fff;}.f{fill:#7061e5;}.g,.i{fill:none;}.g{stroke:#d9d9ef;stroke-linejoin:round;}.h{font-size:8px;font-family:NanumSquareRoundEB, NanumSquareRound;letter-spacing:-0.075em;}</style></defs><g transform="translate(-1191 -1523)"><g transform="translate(11233 -1129.364)"><g transform="translate(-10030.074 2659.364)"><path class="a" d="M24,47.5l3-3H37.5l8.25-11.25-3-2.25-6,6H22.5L18,41.5Z" transform="translate(-11.25 -9.25)"/><rect class="b" width="7.424" height="11.667" transform="translate(0.749 36) rotate(-45)"/><rect class="c" width="7.424" height="2.652" transform="translate(7.124 42.375) rotate(-45)"/><path class="d" d="M34.5,42V39H36v4.5H30V42Z" transform="translate(-14.25 -11.25)"/><path class="e" d="M16,52.25,18.25,50l2.25,2.25Z" transform="translate(-10.75 -14)"/><circle class="f" cx="6.261" cy="6.261" r="6.261" transform="translate(11.271 12.523)"/><circle class="f" cx="4.383" cy="4.383" r="4.383" transform="translate(26.298 6.261)"/><circle class="f" cx="3.131" cy="3.131" r="3.131" transform="translate(1.252 5.009)"/><line class="g" y2="5.009" transform="translate(17.532 5.009)"/><line class="g" y2="5.009" transform="translate(13.775 3.757)"/><line class="g" y2="5.009" transform="translate(20.037 3.757)"/><line class="g" y2="2.505" transform="translate(5.009)"/><line class="g" y2="5.009" transform="translate(7.514)"/><line class="g" y2="1.252" transform="translate(1.252)"/><line class="g" y2="3.757" transform="translate(27.551 1.252)"/><line class="g" y2="3.757" transform="translate(31.307 1.252)"/><line class="g" y2="2.505" transform="translate(33.812)"/><path d="M43.95,32.4l-3-2.25a.75.75,0,0,0-.98.07L34.19,36H20.25a.748.748,0,0,0-.53.22l-3.595,3.595-.595-.595a.751.751,0,0,0-1.061,0L9.22,44.47a.751.751,0,0,0,0,1.061l8.25,8.25a.751.751,0,0,0,1.061,0l5.25-5.25a.751.751,0,0,0,0-1.061l-.595-.595L25.061,45H35.25a.75.75,0,0,0,.605-.306l8.25-11.25A.75.75,0,0,0,43.95,32.4ZM18,52.19,10.811,45,15,40.811,22.19,48ZM34.87,43.5H24.75a.748.748,0,0,0-.53.22l-2.095,2.095-4.94-4.94L20.561,37.5H30v3H24.75V42h6a.75.75,0,0,0,.75-.75V37.5h3a.748.748,0,0,0,.53-.22l5.54-5.54,1.886,1.415Z" transform="translate(-9 -9)"/></g><text class="h" transform="translate(-10012.297 2681.3)"><tspan x="-3.64" y="0">￦</tspan></text></g><rect class="i" width="60" height="60" transform="translate(1191 1523)"/></g></svg>