<svg xmlns="http://www.w3.org/2000/svg" width="60" height="60" viewBox="0 0 60 60"><defs><style>.a{fill:#d9dae2;}.b{fill:#e5e6eb;}.c{fill:#7061e5;}.d{fill:#444;}.e{fill:#fff;}.f{fill:#cfcfd9;}.g{fill:#6251e5;}.h{fill:#f4f4fc;}.i{fill:none;}</style></defs><g transform="translate(-688 -1523)"><g transform="translate(696.5 1531.803)"><path class="a" d="M36.607,3H6.491A3.492,3.492,0,0,0,3,6.491V9.983H9.983V42.1H40.706V7.1a4.1,4.1,0,0,0-4.1-4.1Z" transform="translate(-0.302 -0.302)"/><path class="b" d="M36.607,3H6.491A3.492,3.492,0,0,0,3,6.491V9.983H9.983V42.1h0A30.723,30.723,0,0,0,40.706,11.379V7.1a4.1,4.1,0,0,0-4.1-4.1Z" transform="translate(-0.302 -0.302)"/><path class="c" d="M45.379,44,37,52.379h2.793V55.87l5.586-5.586,5.586,5.586v-4.19h2.793Z" transform="translate(-10.561 -12.673)"/><rect class="d" width="21.127" height="1.056" transform="translate(14.676 13.62)"/><rect class="d" width="21.127" height="1.056" transform="translate(14.676 23.127)"/><rect class="d" width="21.127" height="1.056" transform="translate(14.676 26.296)"/><ellipse class="e" cx="2.641" cy="2.113" rx="2.641" ry="2.113" transform="translate(22.071 7.282)"/><path class="f" d="M6.491,3h0A3.492,3.492,0,0,1,9.983,6.491V9.983H3V6.491A3.492,3.492,0,0,1,6.491,3Z" transform="translate(-0.302 -0.302)"/><circle class="g" cx="4.225" cy="4.225" r="4.225" transform="translate(30.522 30.521)"/><circle class="h" cx="3.169" cy="3.169" r="3.169" transform="translate(31.578 31.578)"/><path d="M43.4,58,42,59.4h9.776l-1.4-1.4Z" transform="translate(-12.069 -16.897)"/><path d="M36.3,2H6.19A4.194,4.194,0,0,0,2,6.19V9.681a.7.7,0,0,0,.7.7H8.983V41.8a.7.7,0,0,0,.7.7H29.232V41.1H10.379V6.19A4.167,4.167,0,0,0,9.3,3.4h27a3.4,3.4,0,0,1,3.4,3.4v29.01l1.4,1.28V6.8A4.8,4.8,0,0,0,36.3,2ZM8.983,8.983H3.4V6.19a2.793,2.793,0,0,1,5.586,0Z"/><rect width="21.127" height="1.056" transform="translate(14.676 13.62)"/><rect width="21.127" height="1.056" transform="translate(14.676 17.845)"/><rect width="21.127" height="1.056" transform="translate(14.676 23.127)"/><rect width="21.127" height="1.056" transform="translate(14.676 26.296)"/><path d="M36.586,10.793a2.793,2.793,0,1,0-2.793,2.793A2.793,2.793,0,0,0,36.586,10.793Zm-4.19,0a1.4,1.4,0,1,1,1.4,1.4A1.4,1.4,0,0,1,32.4,10.793Z" transform="translate(-8.75 -1.81)"/></g><rect class="i" width="60" height="60" transform="translate(688 1523)"/></g></svg>