<svg xmlns="http://www.w3.org/2000/svg" width="60" height="60" viewBox="0 0 60 60"><defs><style>.a{fill:#7061e5;}.b{fill:#6251e5;}.c{fill:#cfcfd9;}.d{fill:#d9dae2;}.e{fill:#e5e6eb;}.f{fill:#444;}.g{fill:#fff;font-size:8px;font-family:NanumSquareRoundEB, NanumSquareRound;letter-spacing:-0.075em;}.h{fill:none;}</style></defs><g transform="translate(-1026 -1523)"><g transform="translate(11195.382 -1129.385)"><g transform="translate(-10151.857 2661.087)"><path class="a" d="M16,28h5.9a4.372,4.372,0,0,1,4.372,4.372h0v1.5h-5.9A4.372,4.372,0,0,1,16,29.5h0V28Z" transform="translate(-15.266 -9.654)"/><path class="a" d="M39.9,33.871H34v-1.5A4.372,4.372,0,0,1,38.372,28h5.9v1.5A4.372,4.372,0,0,1,39.9,33.871Z" transform="translate(-20.057 -9.654)"/><path class="b" d="M38.016,25.871V25.9a4.374,4.374,0,0,1-4.372,4.372H29.209V21.468a1.468,1.468,0,0,0-2.935,0v8.806H21.84A4.374,4.374,0,0,1,17.468,25.9v-.031H16v1.5a4.374,4.374,0,0,0,4.372,4.372h5.9v5.137h2.935V31.742h5.9a4.374,4.374,0,0,0,4.372-4.372v-1.5Z" transform="translate(-15.266 -7.524)"/><circle class="a" cx="7" cy="7" r="7" transform="translate(5.544)"/><path class="c" d="M35.826,57.028H21.149L18.8,46.076H38.173Z" transform="translate(-16.012 -14.464)"/><path class="d" d="M24.625,57.028H21.148L18.8,46.076H38.174A13.854,13.854,0,0,1,24.625,57.028Z" transform="translate(-16.011 -14.464)"/><rect class="e" width="22.64" height="4.312" transform="translate(1.232 28.031)"/><rect class="c" width="2.156" height="4.312" transform="translate(21.716 28.031)"/><rect class="f" width="1.078" height="2.156" transform="translate(9.857 37.734)"/><rect class="f" width="1.078" height="2.156" transform="translate(14.169 37.734)"/><rect class="a" width="1.078" height="9.703" transform="translate(10.935 12.937)"/><path class="b" d="M33.767,5.008A6.885,6.885,0,0,1,32.391,14.7a7.01,7.01,0,0,1-8.383,0,7.006,7.006,0,0,0,9.759,1.4,6.889,6.889,0,0,0,1.411-9.688A6.961,6.961,0,0,0,33.767,5.008Z" transform="translate(-17.022 -3.474)"/><path d="M39.217,40H15.734a.734.734,0,0,0-.734.734v4.4a.734.734,0,0,0,.734.734h1.608l2.078,9.694a.734.734,0,0,0,.718.58H34.814a.734.734,0,0,0,.718-.58l2.078-9.694h1.608a.734.734,0,0,0,.734-.734v-4.4A.734.734,0,0,0,39.217,40Zm-5,14.677H20.731l-1.887-8.806H36.108ZM38.483,44.4H16.468V41.468H38.483Z" transform="translate(-15 -12.847)"/><rect width="1.078" height="2.156" transform="translate(9.857 37.734)"/><rect width="1.078" height="2.156" transform="translate(14.169 37.734)"/></g><text class="g" transform="translate(-10139.179 2671.322)"><tspan x="-3.64" y="0">￦</tspan></text></g><rect class="h" width="60" height="60" transform="translate(1026 1523)"/></g></svg>