<svg xmlns="http://www.w3.org/2000/svg" width="60" height="60" viewBox="0 0 60 60"><defs><style>.a{fill:#d9dae2;}.b{fill:#e5e6eb;}.c{fill:#6251e5;}.d{fill:#7061e5;}.e{fill:#444;}.f{fill:#d9d9ef;}.g{fill:#cfcfd9;}.h{fill:#f4f4fc;}.i{fill:#fff;}.j{fill:none;}</style></defs><g transform="translate(-863 -1523)"><g transform="translate(872.779 1530.401)"><path class="a" d="M34.922,42.442H5V7.76L9.76,3H34.922Z" transform="translate(-0.32 -0.32)"/><path class="b" d="M5,42.442H5V7.76L9.76,3H34.922v9.521A29.921,29.921,0,0,1,5,42.442Z" transform="translate(-0.32 -0.32)"/><rect class="c" width="21.158" height="3.847" transform="translate(25.761 28.522) rotate(-45)"/><path class="d" d="M51.6,19l2.04,2.04L42.08,32.6a2.885,2.885,0,0,1-4.08,0h0Z" transform="translate(-10.879 -5.439)"/><path class="e" d="M18.133,48.324A4.118,4.118,0,0,0,19.12,45.4c0-1.939-.877-3.4-2.04-3.4s-2.04,1.461-2.04,3.4a4.216,4.216,0,0,0,.926,2.873l-.065.065a3.879,3.879,0,0,1-2.76,1.142H13v1.36h.142A5.233,5.233,0,0,0,16.863,49.3l.157-.157a5.251,5.251,0,0,0,3.871,1.7h.949V49.48h-.949A3.882,3.882,0,0,1,18.133,48.324ZM17.08,43.36c.169,0,.68.724.68,2.04s-.511,2.04-.68,2.04-.68-.724-.68-2.04S16.911,43.36,17.08,43.36Z" transform="translate(-2.88 -12.798)"/><rect class="e" width="16.576" height="1.275" transform="translate(10.375 17.301)"/><rect class="e" width="16.576" height="1.275" transform="translate(10.375 19.851)"/><rect class="e" width="16.576" height="1.275" transform="translate(10.375 23.676)"/><path class="f" d="M27.08,12v6.12l-2.04-1.36L23,18.12V12Z" transform="translate(-6.079 -3.2)"/><path class="g" d="M5,7.76H9.76V3Z" transform="translate(-0.32 -0.32)"/><circle class="h" cx="2.55" cy="2.55" r="2.55" transform="translate(16.751 5.825)"/><path class="g" d="M36.991,42.72,34.271,40l-4.08.68-1.72,6.879.962.962,6.879-1.72Z" transform="translate(-7.83 -12.158)"/><path class="i" d="M32.912,44a1.344,1.344,0,0,0-1.36,1.327,1.36,1.36,0,0,0,.05.381l-3.128,3.128.962.962,3.128-3.128a1.36,1.36,0,1,0,.732-2.62A1.335,1.335,0,0,0,32.912,44Z" transform="translate(-7.831 -13.438)"/><path d="M13.142,49.48H13v1.36h.142A5.233,5.233,0,0,0,16.863,49.3l.157-.157a5.251,5.251,0,0,0,3.871,1.7h.949V49.48h-.949a3.882,3.882,0,0,1-2.759-1.156A4.118,4.118,0,0,0,19.12,45.4c0-1.939-.877-3.4-2.04-3.4s-2.04,1.461-2.04,3.4a4.216,4.216,0,0,0,.926,2.873l-.065.065A3.879,3.879,0,0,1,13.142,49.48Zm3.938-6.12c.169,0,.68.724.68,2.04s-.511,2.04-.68,2.04-.68-.724-.68-2.04S16.911,43.36,17.08,43.36Z" transform="translate(-2.88 -12.798)"/><path d="M24.4,6A3.4,3.4,0,0,0,21,9.4a3.366,3.366,0,0,0,.7,2.04H21.68V16.2a.68.68,0,0,0,1.057.566l1.663-1.11,1.663,1.108A.68.68,0,0,0,27.12,16.2V11.44H27.1a3.366,3.366,0,0,0,.7-2.04A3.4,3.4,0,0,0,24.4,6Zm0,1.36A2.04,2.04,0,1,1,22.36,9.4,2.04,2.04,0,0,1,24.4,7.36Zm.377,6.915a.681.681,0,0,0-.755,0l-.983.655V12.512a3.354,3.354,0,0,0,2.72,0V14.93Z" transform="translate(-5.439 -1.28)"/><rect width="16.576" height="1.275" transform="translate(10.375 17.301)"/><rect width="16.576" height="1.275" transform="translate(10.375 19.851)"/><rect width="16.576" height="1.275" transform="translate(10.375 23.676)"/><path d="M35.282,19V2.68A.68.68,0,0,0,34.6,2H9.44a.678.678,0,0,0-.481.2L4.2,6.96A.678.678,0,0,0,4,7.44V42.122a.68.68,0,0,0,.68.68H34.6a.68.68,0,0,0,.68-.68V24.441l-1.36,1.36V41.442H5.36V8.12H9.44a.68.68,0,0,0,.68-.68V3.36h23.8v17ZM8.76,6.76H6.322L8.76,4.322Z"/></g><rect class="j" width="60" height="60" transform="translate(863 1523)"/></g></svg>