<svg xmlns="http://www.w3.org/2000/svg" width="1100" height="963" viewBox="0 0 1100 963"><defs><style>.a{fill:#7061e5;}.b{fill:#5b4dc9;}.c{fill:#f6a592;}.d{fill:#f6b9a4;}.e{fill:#f0baa4;}.f,.h,.o{fill:none;stroke-linecap:round;stroke-linejoin:round;stroke-width:0.475px;}.f{stroke:#464d66;}.g{fill:#464d66;}.h{stroke:#62bdd3;}.i{fill:#f4864d;}.j{fill:#cad1e6;}.k{fill:#637abe;}.l{fill:#5044ad;}.m{fill:#65b1ee;}.n{fill:linen;}.o{stroke:#faa542;}.p{fill:#f8bd33;}.q{fill:#fff;}.r{fill:#483ca3;font-size:9px;font-family:NotoSansCJKkr-Regular, Noto Sans CJK KR;letter-spacing:-0.075em;opacity:0.863;}.s{fill:#4a3ea9;}</style></defs><g transform="translate(-410 -116)"><rect class="a" width="1100" height="957" transform="translate(410 116)"/><path class="b" d="M4543.5,3984.269s91.374-107.558,477.857,14.144,622.143-68.788,622.143-68.788v308h-1100Z" transform="translate(-4133.5 -3158.624)"/><g transform="translate(574.518 617.16)"><g transform="translate(551.131 100.89)"><g transform="translate(73.6 32.142)"><g transform="translate(0 18.704)"><path class="c" d="M612.165,154.25a3.9,3.9,0,0,0-3.469-5.061h-.073c-2.47,0-2.446,7.016,1.071,7.016A2.4,2.4,0,0,0,612.165,154.25Z" transform="translate(-606.895 -149.188)"/><path class="c" d="M630.083,154.25a3.9,3.9,0,0,1,3.468-5.061h.074c2.47,0,2.445,7.016-1.071,7.016A2.4,2.4,0,0,1,630.083,154.25Z" transform="translate(-606.164 -149.188)"/></g><g transform="translate(6.457 28.137)"><path class="c" d="M628.376,166.883c-1.586-3.008-.955-7.6-.955-7.6l-6.189-.952-6.188.952A18.363,18.363,0,0,1,615,163.9C617.258,166.2,621.6,168.969,628.376,166.883Z" transform="translate(-613.094 -158.331)"/><path class="d" d="M628.435,166.712c-6.778,2.086-11.118-.684-13.375-2.98a8.029,8.029,0,0,1-1.545,3.949c-1.19,1.428.754,2.42,3,3.055a17.582,17.582,0,0,0,9.561,0c2.242-.634,4.186-1.627,3-3.055A5.586,5.586,0,0,1,628.435,166.712Z" transform="translate(-613.153 -158.16)"/></g><g transform="translate(1.74)"><path class="e" d="M626.564,156.6a4.494,4.494,0,0,1,7.076-3.688,22.9,22.9,0,0,0,.65-5.621c0-9.272-4.388-13.343-8.036-15.126a11.013,11.013,0,0,0-9.635,0c-3.649,1.783-8.037,5.854-8.037,15.126a22.846,22.846,0,0,0,.651,5.621,4.491,4.491,0,1,1,4.7,7.632,13.36,13.36,0,0,0,1.566,1.094,11.74,11.74,0,0,0,11.866,0,13.259,13.259,0,0,0,1.565-1.094A4.484,4.484,0,0,1,626.564,156.6Z" transform="translate(-608.581 -131.059)"/><path class="c" d="M616.288,155.956a4.494,4.494,0,0,0-7.076-3.688,13.706,13.706,0,0,0,4.7,7.632A4.485,4.485,0,0,0,616.288,155.956Z" transform="translate(-608.561 -130.412)"/><path class="c" d="M633.087,152.268a4.491,4.491,0,1,0-4.706,7.632A13.7,13.7,0,0,0,633.087,152.268Z" transform="translate(-608.028 -130.412)"/></g><path class="f" d="M624.154,155.988a4.324,4.324,0,0,1-3.018,1.087h-.006a4.324,4.324,0,0,1-3.018-1.087" transform="translate(-606.539 -130.268)"/><g transform="translate(8.58 15.833)"><path class="g" d="M615.557,150.55a.983.983,0,1,0,.983-.983A.983.983,0,0,0,615.557,150.55Z" transform="translate(-615.2 -146.305)"/><path class="g" d="M624.791,150.55a.983.983,0,1,0,.983-.983A.984.984,0,0,0,624.791,150.55Z" transform="translate(-614.907 -146.305)"/><path class="c" d="M621.18,155.042v-5.475S617.318,155.042,621.18,155.042Z" transform="translate(-615.076 -146.305)"/><path class="f" d="M615.211,147.563a2.7,2.7,0,0,1,2.322-1.158" transform="translate(-615.211 -146.405)"/><path class="f" d="M626.941,147.563a2.7,2.7,0,0,0-2.323-1.158" transform="translate(-614.913 -146.405)"/></g><g transform="translate(1.834 17.032)"><path class="h" d="M613.556,150.614a3.047,3.047,0,1,0,3.048-3.047A3.048,3.048,0,0,0,613.556,150.614Z" transform="translate(-608.518 -147.567)"/><path class="h" d="M622.79,150.614a3.048,3.048,0,1,0,3.048-3.047A3.048,3.048,0,0,0,622.79,150.614Z" transform="translate(-608.225 -147.567)"/><path class="h" d="M619.463,150.535a3.3,3.3,0,0,1,3.432,0" transform="translate(-608.33 -147.488)"/><line class="h" x1="5.038" y1="1.607" transform="translate(0 1.44)"/><line class="h" y1="1.607" x2="5.038" transform="translate(20.661 1.44)"/></g></g><path class="i" d="M609.45,154.838a28.981,28.981,0,0,1-.975-20.076s-4.687-2.294-.806-7.85,20.527-9,20.8,2.734c11.48,9,5.25,23.224,5.25,23.224a25.03,25.03,0,0,0-1.974-10.61,63.622,63.622,0,0,1-20.2,1.059S608.674,145.717,609.45,154.838Z" transform="translate(-533.319 -99.211)"/><path class="e" d="M600.952,226.324c2.607-16.7-3.515-19.487-1.735-37.581,2.711-23.43,12.964-21.343,22.053-20.647,9.087-.7,19.341-2.784,22.052,20.647,1.78,18.094-4.343,20.878-1.735,37.581s4.14,35.636,4.14,35.636c-7.843,7.808-24.457,1.48-24.457,1.48s-15.946,6.042-23.788-1.765C597.481,261.676,598.344,243.027,600.952,226.324Z" transform="translate(-533.593 -97.787)"/><path class="e" d="M614.877,169.763l-67.021-58.724-5.407,4.836,63.495,67.848S612.956,182,614.877,169.763Z" transform="translate(-535.339 -99.552)"/><path class="e" d="M535.6,106.279c.739-.813,4.066,2.661,4.066,2.661s-4.05-4.8-3.6-5.515c.709-1.126,5.226,4.405,5.226,4.405s-4.763-6.146-3.507-6.886,5.28,5.88,5.28,5.88-3.4-6.46-2.217-6.9,5.248,8.058,5.248,8.058,1.141-4.627,2.1-4.456c1.616.29-.4,10.221-.4,10.221l-4.592,3.124S534.865,107.092,535.6,106.279Z" transform="translate(-535.557 -99.905)"/><path class="e" d="M628.425,169.763l67.021-58.724,5.407,4.836-63.495,67.848S630.345,182,628.425,169.763Z" transform="translate(-532.612 -99.552)"/><path class="e" d="M705.88,106.279c-.739-.813-4.065,2.661-4.065,2.661s4.048-4.8,3.6-5.515c-.709-1.126-5.226,4.405-5.226,4.405s4.764-6.146,3.507-6.886-5.28,5.88-5.28,5.88,3.4-6.46,2.217-6.9-5.248,8.058-5.248,8.058-1.141-4.627-2.1-4.456c-1.616.29.4,10.221.4,10.221l4.592,3.124S706.619,107.092,705.88,106.279Z" transform="translate(-530.575 -99.905)"/><path class="j" d="M646.3,259.389,622.49,248.817c-3.232,10.551-4.859,25.758-2.522,41.367,1.758,11.738,5.209,24.458,1.195,40.8-.494,2.014-1.045,4.029-1.634,6.038l-34.48-8.533-5.56,11.916,36.588,13.555c14.123,4.925,17.5-2.991,19.315-6.613,4.213-8.392,9.912-20.685,11.7-28.461C654.24,287.792,646.3,259.389,646.3,259.389Z" transform="translate(-534.164 -95.258)"/><path class="k" d="M583.912,336.983s-1.764,3.055-4.361,6.81c-1.358,1.962-2.164,3.651-3.408,4.663a3.082,3.082,0,0,1-4.891-3.154,42.315,42.315,0,0,1,4.527-10.92c2.154-3.838,2.085-8.35,4.371-9.359s6.1,1.286,6.1,1.286Z" transform="translate(-534.428 -92.849)"/><path class="j" d="M623.623,259.063l-24.463-8.949c-2.516,10.744-3.118,26.025.262,41.442,2.543,11.593,6.84,24.052,3.932,40.627-.358,2.043-.773,4.091-1.225,6.134l-34.976-6.2-4.747,10.3,37.415,11.067c14.784,4.874,17.256-2.2,18.827-5.933,3.64-8.656,8.5-21.3,9.763-29.182C633.455,286.869,623.623,259.063,623.623,259.063Z" transform="translate(-534.706 -95.217)"/><path class="k" d="M629.7,167.441c10.438-14.4,15.326-7.54,20.756-.952s4.732,9.458-3.778,15.818c2.857,12.3-2.367,36.035,3.778,49.259,5.964,12.836,21.845,52.946,10.614,70.065s-31.554-14.979-46.987,0-33.768,10.156-43.665-3.749,9.362-18.717,12.57-42.863,20.877-28.312,17.406-43.485a212.679,212.679,0,0,1-4.426-29.227l-4.139-4.594a5.578,5.578,0,0,1-.354-7.03l9.884-13.483s2.35-3.781,6.92.534,4.57,9.313,7.314,9.313C618.585,175.3,625.156,175.885,629.7,167.441Z" transform="translate(-534.541 -98.178)"/><path class="k" d="M568.027,341.518a24.621,24.621,0,0,0-5.183,6.173c-1.8,3.022-2.449,5.369-5.2,5.968a2.619,2.619,0,0,1-3.111-2.84c.391-4.268,2.378-9.044,3.911-12.264,1.891-3.974,1.52-8.471,3.733-9.631s7.585,1.124,7.585,1.124Z" transform="translate(-534.956 -92.728)"/><path class="f" d="M608.672,133.777s5.277-10.759,18.775-5.057" transform="translate(-533.238 -99.044)"/><path class="f" d="M610.333,125.1s-2.933,1.931-1.651,6.622" transform="translate(-533.248 -99.106)"/><path class="f" d="M611.842,124.389s-2.574,2.483-1.563,5.334" transform="translate(-533.195 -99.128)"/><path class="f" d="M618.918,122.785s3.485.368,3.995,3.678" transform="translate(-532.913 -99.179)"/><path class="f" d="M623.968,123.855a4.364,4.364,0,0,1,2.108,3.3" transform="translate(-532.753 -99.145)"/><path class="f" d="M614.808,123.855a3.154,3.154,0,0,0,.205,2.574" transform="translate(-533.05 -99.145)"/><path class="f" d="M616.3,128.757s-5.421,2.023-7.633,12.322" transform="translate(-533.238 -98.99)"/><path class="f" d="M623.968,128.757a21.539,21.539,0,0,1,4.124,9.337" transform="translate(-532.753 -98.99)"/><path class="f" d="M627.965,132.589a17.768,17.768,0,0,1,2.712,7.172" transform="translate(-532.627 -98.868)"/><path class="f" d="M615.587,136.778a26.413,26.413,0,0,0-.961,6.339" transform="translate(-533.05 -98.735)"/><path class="f" d="M617.156,134.728a13.907,13.907,0,0,0-.645,4.966" transform="translate(-532.991 -98.8)"/><path class="f" d="M612.873,167.335s-2.9,12.637-16.327,14.6" transform="translate(-533.623 -97.788)"/><path class="f" d="M628.425,167.958s3.433,9.579,15.2,13.258" transform="translate(-532.612 -97.768)"/><path class="f" d="M612.084,166.28s-2.114,5.426-9.655,6.989" transform="translate(-533.436 -97.82)"/><path class="f" d="M629.44,167.068s2.937,6.176,12.5,8.291" transform="translate(-532.58 -97.796)"/><path class="f" d="M599.863,216.664s15.413,6.269,46.675-.482" transform="translate(-533.518 -96.252)"/><path class="f" d="M620.3,173.054V191.2s1.666,34.868,1.276,52.964-3.146,32.414,2.4,41.069,0,11.848,0,11.848" transform="translate(-532.87 -97.627)"/><path class="g" d="M621.38,174.434a.715.715,0,1,0,.715-.715A.715.715,0,0,0,621.38,174.434Z" transform="translate(-532.835 -97.586)"/><path class="g" d="M621.38,188.647a.715.715,0,1,0,.715-.714A.715.715,0,0,0,621.38,188.647Z" transform="translate(-532.835 -97.14)"/><path class="g" d="M621.888,196.447a.714.714,0,1,0,.714-.715A.715.715,0,0,0,621.888,196.447Z" transform="translate(-532.819 -96.895)"/><path class="g" d="M621.38,181.541a.715.715,0,1,0,.715-.715A.715.715,0,0,0,621.38,181.541Z" transform="translate(-532.835 -97.363)"/><path class="g" d="M622.58,209.968a.714.714,0,1,0,.715-.714A.715.715,0,0,0,622.58,209.968Z" transform="translate(-532.797 -96.47)"/><path class="g" d="M622.073,203.208a.714.714,0,1,0,.715-.715A.714.714,0,0,0,622.073,203.208Z" transform="translate(-532.813 -96.682)"/><path class="g" d="M623.326,224.182a.714.714,0,1,0,.714-.714A.714.714,0,0,0,623.326,224.182Z" transform="translate(-532.774 -96.023)"/><path class="g" d="M623.326,238.4a.714.714,0,1,0,.714-.715A.715.715,0,0,0,623.326,238.4Z" transform="translate(-532.774 -95.577)"/><path class="g" d="M623.326,245.5a.714.714,0,1,0,.714-.715A.715.715,0,0,0,623.326,245.5Z" transform="translate(-532.774 -95.354)"/><path class="g" d="M622.476,273.931a.714.714,0,1,0,.714-.715A.714.714,0,0,0,622.476,273.931Z" transform="translate(-532.801 -94.461)"/><path class="g" d="M625.218,281.038a.714.714,0,1,0,.715-.715A.714.714,0,0,0,625.218,281.038Z" transform="translate(-532.714 -94.237)"/><circle class="g" cx="0.715" cy="0.715" r="0.715" transform="translate(94.43 193.416)"/><path class="g" d="M623.326,231.289a.714.714,0,1,0,.714-.715A.714.714,0,0,0,623.326,231.289Z" transform="translate(-532.774 -95.8)"/><path class="g" d="M622.476,259.717a.714.714,0,1,0,.714-.715A.714.714,0,0,0,622.476,259.717Z" transform="translate(-532.801 -94.907)"/><circle class="g" cx="0.715" cy="0.715" r="0.715" transform="translate(88.96 171.425)"/><path class="g" d="M622.58,252.61a.714.714,0,1,0,.715-.715A.714.714,0,0,0,622.58,252.61Z" transform="translate(-532.797 -95.13)"/><path class="f" d="M581.122,261.633a46.35,46.35,0,0,0,32.528,4.618c18.773-4.105,34.847-.856,46.817-4.618" transform="translate(-534.112 -94.825)"/><path class="f" d="M613.168,167.068s-3.177,8.554,6.51,6.862" transform="translate(-533.112 -97.795)"/><path class="f" d="M628.129,168.616s1.954,6.549-5.339,4.838" transform="translate(-532.791 -97.747)"/><path class="f" d="M629.934,188.341l11.017-.968s1.407,9.03-4.631,9.918S629.934,188.341,629.934,188.341Z" transform="translate(-532.564 -97.158)"/><path class="f" d="M569.3,280.323s3.068,12.195,13.884,18.077,17.74,3.6,24.476-1.708,11.385-12.333,25.141-4.934,22.993,9.592,29.521,3.562" transform="translate(-534.487 -94.242)"/><path class="f" d="M591.08,177.686a104.126,104.126,0,0,1,14.944-21.171" transform="translate(-533.796 -98.128)"/><path class="f" d="M635.793,159.64s10.641,6.27,14.675,17.08" transform="translate(-532.378 -98.029)"/><path class="f" d="M600.539,336.608a22.084,22.084,0,0,0,1.4,7.155" transform="translate(-533.496 -92.474)"/><path class="f" d="M601.584,336.608a14.479,14.479,0,0,0,3.882,7.155" transform="translate(-533.463 -92.474)"/><path class="f" d="M618.832,341.662s.755,3.127,3.02,4.422" transform="translate(-532.916 -92.314)"/><path class="f" d="M628.2,295.98s4.013,19.416-13.608,54.736" transform="translate(-533.051 -93.762)"/><path class="f" d="M577.736,331.522l23.907,4.237,1.021-5.009" transform="translate(-534.219 -92.66)"/><path class="f" d="M601,213.248s17.659,5.9,43.5-.711" transform="translate(-533.482 -96.367)"/><line class="f" y1="10.026" x2="2.416" transform="translate(34.811 238.62)"/><line class="f" x1="1.103" y2="5.252" transform="translate(52.416 235.187)"/><path class="f" d="M563.462,329.177a38.866,38.866,0,0,0-2.456,6.632c-.983,3.687-6.142,9.9-5.487,16.826" transform="translate(-534.926 -92.71)"/><path class="f" d="M580.831,325.447s-1.835,1.441-2.351,5.47" transform="translate(-534.196 -92.828)"/><path class="f" d="M572.687,343.148a4.921,4.921,0,0,0-.655,3.685" transform="translate(-534.405 -92.267)"/><line class="f" x2="1.966" y2="1.827" transform="translate(26.571 252.11)"/><line class="f" x2="1.694" y2="1.843" transform="translate(27.7 250.882)"/><line class="f" x2="1.608" y2="1.882" transform="translate(28.946 249.407)"/><line class="f" x2="1.619" y2="1.846" transform="translate(30.092 248.197)"/><ellipse class="l" cx="48.987" cy="7.529" rx="48.987" ry="7.529" transform="translate(24.76 324.891)"/></g><g transform="translate(423.413 68.84)"><path class="f" d="M433.9,153.917s-4.9-1.753-8.658,3.344-10.29.631-11.043,9.987,13,11.879,13.3,4.949" transform="translate(-411.689 -66.171)"/><path class="g" d="M436.065,153.2s-6.266-1.894-10.054,5.1-9.908,2.332-11.656,9.909,11.65,12.822,14.787,9.326,14.938-14.133,14.063-18.8S436.065,153.2,436.065,153.2Z" transform="translate(-411.688 -66.192)"/><path class="g" d="M463.259,117.066s-7.471-2.306-10.579,6.194-13.886,3.746-12.819,12.246-8.3,6.43-6.281,15.606c2.449,8.023,13.85,12.928,19.1,7.878s24.842,2,26-15.424S473.632,117.641,463.259,117.066Z" transform="translate(-411.082 -67.319)"/><path class="e" d="M448.423,214.087c1.565-16.832-6.68-19.231-6.028-37.4,1.25-23.554,11.613-22.108,20.727-21.978,9.027-1.259,15.207-3.979,19.369,19.237,2.9,17.949-3.037,21.108.6,37.616s9.584,35.068,9.584,35.068c-7.342,8.279-23.633,3.24-23.633,3.24s-17.988.528-26.3-6.777A140.672,140.672,0,0,0,448.423,214.087Z" transform="translate(-410.795 -66.169)"/><g transform="translate(60.52 11.83)"><path class="e" d="M470.425,156.405c35.706-22.151,29.745-39.45,20.952-73.357,2.267-1.156,3.46-1.632,5.75-2.742,18.89,41.9,15.21,61.172-19.757,91.125C471.126,168.723,470.5,162.416,470.425,156.405Z" transform="translate(-470.425 -80.306)"/></g><path class="e" d="M493.8,70.55c-1.1.057-.514,4.832-.514,4.832s-1.153-6.174-1.99-6.278c-1.321-.164.1,6.835.1,6.835s-1.742-7.579-3.11-7.074,1.207,7.81,1.207,7.81-2.846-6.722-3.939-6.087,2.914,9.164,2.914,9.164-4.3-2.046-4.778-1.2c-.8,1.434,8.165,6.163,8.165,6.163l5.325-1.576S494.9,70.492,493.8,70.55Z" transform="translate(-409.486 -68.84)"/><path class="c" d="M492.44,242.916l-24.463-8.95c-2.517,10.744-3.119,26.026.262,41.442,2.542,11.594,6.839,24.053,3.931,40.627-.358,2.043-.772,4.091-1.225,6.134l-33.5-5.3-1.384,11.382L468.638,339.3c14.422,3.966,17.255-4.159,18.827-7.9,3.639-8.655,8.5-21.3,9.762-29.182C502.272,270.722,492.44,242.916,492.44,242.916Z" transform="translate(-410.994 -63.657)"/><g transform="translate(1.81 89.954)"><path class="e" d="M457.191,171.973c-38.7,16.359-35.491,34.372-32.05,69.231-2.417.791-3.67,1.077-6.1,1.82-12.179-44.316-5.562-62.789,33.618-86.97C458.4,159.695,458.043,166.022,457.191,171.973Z" transform="translate(-413.519 -156.054)"/></g><path class="e" d="M420.18,250.9c1.093.113,1.256-4.693,1.256-4.693s.184,6.278.995,6.51c1.279.366.956-6.768.956-6.768s.548,7.757,1.978,7.47.016-7.9.016-7.9,1.772,7.082,2.95,6.624-1.461-9.5-1.461-9.5,3.937,2.688,4.535,1.921c1.011-1.294-7.112-7.352-7.112-7.352l-5.505.734S419.086,250.787,420.18,250.9Z" transform="translate(-411.542 -63.54)"/><path class="e" d="M459.493,323.308c.5-16.82-6.109-32.415-10.29-43.523-5.561-14.771-7.161-29.981-6.213-40.975l25.495,5.342S481.4,278.306,480.928,310.2s-24.9,80.962-24.9,80.962l-8.641-5.633S458.612,353.124,459.493,323.308Z" transform="translate(-410.783 -63.525)"/><path class="m" d="M446.419,203.842s-20.963,49.652,4.273,93.649c24.332-.748,53.79-12.275,53.79-12.275L482.038,198.2S468.193,209.571,446.419,203.842Z" transform="translate(-410.925 -64.778)"/><g transform="translate(37.518 50.904)"><g transform="translate(0 18.704)"><path class="c" d="M453.4,141.37a3.9,3.9,0,0,0-3.469-5.061h-.073c-2.47,0-2.446,7.015,1.071,7.015A2.4,2.4,0,0,0,453.4,141.37Z" transform="translate(-448.13 -136.308)"/><path class="c" d="M471.318,141.37a3.9,3.9,0,0,1,3.468-5.061h.074c2.47,0,2.445,7.015-1.071,7.015A2.4,2.4,0,0,1,471.318,141.37Z" transform="translate(-447.399 -136.308)"/></g><g transform="translate(6.457 28.137)"><path class="c" d="M469.611,154c-1.586-3.008-.955-7.6-.955-7.6l-6.189-.952-6.188.952a18.365,18.365,0,0,1-.042,4.62C458.493,153.319,462.833,156.089,469.611,154Z" transform="translate(-454.329 -145.451)"/><path class="d" d="M469.67,153.832c-6.778,2.086-11.118-.684-13.375-2.98a8.029,8.029,0,0,1-1.545,3.949c-1.19,1.428.754,2.419,3,3.055a17.582,17.582,0,0,0,9.561,0c2.242-.636,4.186-1.627,3-3.055A5.59,5.59,0,0,1,469.67,153.832Z" transform="translate(-454.388 -145.28)"/></g><g transform="translate(1.74)"><path class="e" d="M467.8,143.723a4.494,4.494,0,0,1,7.076-3.688,22.9,22.9,0,0,0,.65-5.621c0-9.272-4.388-13.343-8.036-15.126a11.013,11.013,0,0,0-9.635,0c-3.649,1.783-8.037,5.854-8.037,15.126a22.843,22.843,0,0,0,.651,5.621,4.49,4.49,0,1,1,4.7,7.631,13.244,13.244,0,0,0,1.566,1.095,11.745,11.745,0,0,0,11.866,0,13.148,13.148,0,0,0,1.565-1.095A4.481,4.481,0,0,1,467.8,143.723Z" transform="translate(-449.816 -118.179)"/><path class="c" d="M457.523,143.076a4.494,4.494,0,0,0-7.076-3.688,13.7,13.7,0,0,0,4.7,7.631A4.482,4.482,0,0,0,457.523,143.076Z" transform="translate(-449.796 -117.532)"/><path class="c" d="M474.322,139.388a4.491,4.491,0,1,0-4.706,7.631A13.7,13.7,0,0,0,474.322,139.388Z" transform="translate(-449.263 -117.532)"/></g><g transform="translate(8.58 15.832)"><path class="g" d="M456.792,137.67a.983.983,0,1,0,.983-.983A.983.983,0,0,0,456.792,137.67Z" transform="translate(-456.435 -133.424)"/><path class="g" d="M466.026,137.67a.983.983,0,1,0,.983-.983A.984.984,0,0,0,466.026,137.67Z" transform="translate(-456.142 -133.424)"/><path class="c" d="M462.415,142.162v-5.475S458.553,142.162,462.415,142.162Z" transform="translate(-456.311 -133.424)"/><path class="f" d="M456.446,134.683a2.7,2.7,0,0,1,2.322-1.159" transform="translate(-456.446 -133.524)"/><path class="f" d="M468.176,134.683a2.7,2.7,0,0,0-2.323-1.159" transform="translate(-456.148 -133.524)"/></g><path class="n" d="M460.547,143.107h3.567s-.113,2.418-1.784,2.418S460.547,143.107,460.547,143.107Z" transform="translate(-447.736 -117.388)"/></g><path class="n" d="M453.418,155.4s-10.838-.964-17.206,11.615a122.657,122.657,0,0,0,6.4,14.274,69,69,0,0,0,3.867,24.053c11.034,6.363,26.284,3.453,36.706-1.424,6.787-26.467-.6-38.352-.6-38.352s1.418-5.686-6.122-14.632a13.646,13.646,0,0,0-6.575,2.1s2.772,8.5-2.919,10.085C457.088,165.869,453.418,155.4,453.418,155.4Z" transform="translate(-410.99 -66.258)"/><path class="g" d="M447.208,139.823s4.9,2.289,7.029-3.6,8.652-2.351,10.463-7.519a16.692,16.692,0,0,0,13.241,8.6s-1.475-20.253-15.123-20.253S450.408,133.611,447.208,139.823Z" transform="translate(-410.641 -67.31)"/><path class="f" d="M442.824,179.409s10.563-5.234,5.474-22.26" transform="translate(-410.78 -66.06)"/><path class="f" d="M471.5,152.968s4.565,3.352,9.375,11.817" transform="translate(-409.871 -66.191)"/><path class="f" d="M451.458,156.152s-1.663,4.958,5.508,8.153a12.144,12.144,0,0,0,9.527,0s5.975.05,6.075-5.428-2.4-5.909-2.4-5.909" transform="translate(-410.511 -66.191)"/><line class="f" x1="3.275" y1="9.331" transform="translate(55.982 98.11)"/><path class="g" d="M467.613,165.426a.507.507,0,1,0,.508-.507A.507.507,0,0,0,467.613,165.426Z" transform="translate(-409.994 -65.814)"/><path class="g" d="M468.709,168.494a.507.507,0,1,0,.507-.508A.507.507,0,0,0,468.709,168.494Z" transform="translate(-409.959 -65.718)"/><circle class="g" cx="0.507" cy="0.507" r="0.507" transform="translate(59.743 105.009)"/><path class="f" d="M445.026,206.769A42.63,42.63,0,0,0,483.6,204.9" transform="translate(-410.71 -64.556)"/><path class="f" d="M458.14,296.61s-9.627-24.983-12.128-48.359,3.889-39.739,3.889-39.739" transform="translate(-410.697 -64.453)"/><path class="f" d="M449.4,290.867s4.436-.254,5.81-.528" transform="translate(-410.572 -61.865)"/><path class="f" d="M457.749,290.163a222.058,222.058,0,0,0,45.236-10.929" transform="translate(-410.307 -62.216)"/><path class="i" d="M456.8,387.8l4.435-9.491-11.514-7.394L443,383.656h0a3.086,3.086,0,0,0-.425,1.121c-.313,2.478,3.59,4.743,5.772,8.564s5.908,9.565,10.206,11.853c3.747-4.168,1.686-6.08-.2-10.241A20.862,20.862,0,0,1,456.8,387.8Z" transform="translate(-410.789 -59.336)"/><path class="i" d="M428.15,325.521l10.3,1.886,4.237-13.01-14.027-3.277h0a3.093,3.093,0,0,0-1.194-.127c-2.476.325-3.678,4.675-6.824,7.752s-7.756,8.137-8.882,12.875c4.981,2.57,6.309.092,9.857-2.784A20.842,20.842,0,0,1,428.15,325.521Z" transform="translate(-411.765 -61.219)"/><path class="o" d="M435.6,153.908a20.332,20.332,0,0,0,5.513,4.939" transform="translate(-411.009 -66.161)"/><path class="f" d="M445.026,177.065s.768,17.039,4.942,29.21" transform="translate(-410.71 -65.434)"/><path class="f" d="M443.61,383.543a17.789,17.789,0,0,0,3.924,5.149c2.207,1.717,5.027,10.421,11.28,14.591" transform="translate(-410.755 -58.935)"/><path class="f" d="M428.146,311.885a19.713,19.713,0,0,0-4.292,5.885c-1.961,3.924-7.846,6.008-10.666,13.241" transform="translate(-411.72 -61.19)"/><path class="f" d="M491.735,86.872a23.6,23.6,0,0,1,6.782-2" transform="translate(-409.229 -68.331)"/><path class="f" d="M492.309,89.115a51.639,51.639,0,0,1,6.614-3.275" transform="translate(-409.211 -68.3)"/><path class="f" d="M481.574,165.9s6.654,12.5.471,36.366" transform="translate(-409.551 -65.786)"/><path class="f" d="M442.42,180.355a83.083,83.083,0,0,0,3.6,23.288" transform="translate(-410.793 -65.33)"/><path class="f" d="M455.061,120.075s-3.917,6.085-8.025,7.165c-5.025,1.323-9.15,2.4-8.277,8.515s-9.7,9.066-3.785,16.948" transform="translate(-411.086 -67.228)"/><path class="f" d="M464,127.479s2.427,11.281,13.368,9.109" transform="translate(-410.108 -66.994)"/><ellipse class="l" cx="48.987" cy="7.529" rx="48.987" ry="7.529" transform="translate(0.266 356.941)"/></g><g transform="translate(44.482 101.251)"><path class="n" d="M120.377,163.846s2.017-2.139,9.922-2.139,10.4,2.66,10.4,2.66S130.894,171.807,120.377,163.846Z" transform="translate(-42.075 -98.325)"/><path class="p" d="M130.255,130.683c-10.4,0-13.86,5.158-14.8,13.128s3.4,11.017,3.4,11.017H142.15C149.5,138.771,140.656,130.683,130.255,130.683Z" transform="translate(-42.235 -99.29)"/><path class="n" d="M163.655,337.892a23.52,23.52,0,0,1,7.332,6.25c2.6,3.755,3.176,6.508,8.678,5.441.251-4.864-2.753-11.015-4.906-14.853s-2.085-8.35-4.371-9.358-8.526,2.083-8.526,2.083Z" transform="translate(-40.759 -93.198)"/><path class="m" d="M105.873,259.739l23.807-10.572c3.232,10.551,4.859,25.758,2.522,41.367-1.758,11.738-5.21,24.457-1.195,40.8.494,2.015,1.045,4.03,1.634,6.038l32.041-7.932,3.349,12.431-31.938,12.439c-14.123,4.924-17.5-2.991-19.315-6.614-4.212-8.391-9.912-20.685-11.7-28.461C97.93,288.142,105.873,259.739,105.873,259.739Z" transform="translate(-42.655 -95.608)"/><path class="e" d="M150.531,226.673c-2.607-16.7-.409-19.486-2.188-37.581-2.711-23.43-9.041-21.342-18.129-20.647-9.087-.7-15.417-2.784-18.128,20.647-1.78,18.1.419,20.879-2.188,37.581s-4.14,35.637-4.14,35.637c7.843,7.807,24.457,1.48,24.457,1.48s15.946,6.042,23.788-1.765C154,262.026,153.138,243.377,150.531,226.673Z" transform="translate(-42.539 -98.137)"/><path class="n" d="M196.95,325.347a23.519,23.519,0,0,1,8.222,5.022c3.154,3.3,4.155,5.93,9.423,4.014-.514-4.842-4.445-10.447-7.174-13.9s-3.368-7.921-5.783-8.558-8.095,3.393-8.095,3.393Z" transform="translate(-39.755 -93.62)"/><path class="e" d="M137.35,170.112l67.021-58.724,5.407,4.836-63.5,67.849S139.27,182.35,137.35,170.112Z" transform="translate(-41.537 -99.902)"/><path class="e" d="M214.8,106.629c-.739-.814-4.066,2.661-4.066,2.661s4.049-4.8,3.6-5.515c-.709-1.127-5.226,4.405-5.226,4.405s4.763-6.147,3.507-6.886-5.28,5.88-5.28,5.88,3.4-6.46,2.217-6.9-5.248,8.057-5.248,8.057-1.141-4.627-2.1-4.455c-1.616.29.4,10.221.4,10.221l4.592,3.124S215.543,107.442,214.8,106.629Z" transform="translate(-39.5 -100.255)"/><path class="e" d="M123.8,170.112,56.78,111.388l-5.407,4.836,63.495,67.849S121.881,182.35,123.8,170.112Z" transform="translate(-44.263 -99.902)"/><path class="e" d="M44.528,106.629c.739-.814,4.065,2.661,4.065,2.661s-4.048-4.8-3.6-5.515c.709-1.127,5.226,4.405,5.226,4.405s-4.764-6.147-3.507-6.886,5.28,5.88,5.28,5.88-3.4-6.46-2.217-6.9,5.248,8.057,5.248,8.057,1.141-4.627,2.1-4.455c1.616.29-.4,10.221-.4,10.221l-4.592,3.124S43.789,107.442,44.528,106.629Z" transform="translate(-44.482 -100.255)"/><path class="m" d="M127.494,257.309l21.856-14.172c4.846,9.914,8.836,24.678,8.972,40.46.1,11.869-1.312,24.972,5.214,40.482.8,1.912,1.664,3.815,2.56,5.706l30.844-13.136L202.361,329l-30.2,16.979c-13.177,7.077-17.749-.213-20.112-3.506-5.475-7.627-13.032-18.876-16.015-26.276C124.1,286.605,127.494,257.309,127.494,257.309Z" transform="translate(-41.863 -95.799)"/><g transform="translate(73.172 32.35)"><g transform="translate(0 18.704)"><path class="c" d="M120.676,154.8a3.9,3.9,0,0,0-3.469-5.061h-.074c-2.47,0-2.445,7.016,1.071,7.016A2.4,2.4,0,0,0,120.676,154.8Z" transform="translate(-115.405 -149.74)"/><path class="c" d="M138.593,154.8a3.9,3.9,0,0,1,3.469-5.061h.073c2.47,0,2.446,7.016-1.07,7.016A2.4,2.4,0,0,1,138.593,154.8Z" transform="translate(-114.674 -149.74)"/></g><g transform="translate(6.457 28.137)"><path class="c" d="M136.887,167.435c-1.587-3.008-.955-7.6-.955-7.6l-6.189-.952-6.189.952a18.375,18.375,0,0,1-.042,4.621C125.769,166.752,130.108,169.521,136.887,167.435Z" transform="translate(-121.605 -158.883)"/><path class="d" d="M136.946,167.264c-6.779,2.086-11.118-.683-13.376-2.979a8.019,8.019,0,0,1-1.544,3.948c-1.191,1.429.753,2.42,3,3.055a17.563,17.563,0,0,0,9.561,0c2.242-.635,4.186-1.626,3-3.055A5.534,5.534,0,0,1,136.946,167.264Z" transform="translate(-121.663 -158.712)"/></g><g transform="translate(1.741)"><path class="e" d="M135.074,157.155a4.5,4.5,0,0,1,7.077-3.688,22.891,22.891,0,0,0,.65-5.621c0-9.272-4.388-13.343-8.036-15.126a11.015,11.015,0,0,0-9.636,0c-3.648,1.783-8.036,5.854-8.036,15.126a22.891,22.891,0,0,0,.65,5.621,4.491,4.491,0,1,1,4.706,7.632,13.074,13.074,0,0,0,1.566,1.095,11.743,11.743,0,0,0,11.865,0,13.274,13.274,0,0,0,1.566-1.095A4.484,4.484,0,0,1,135.074,157.155Z" transform="translate(-117.092 -131.611)"/><path class="c" d="M124.8,156.508a4.5,4.5,0,0,0-7.076-3.688,13.706,13.706,0,0,0,4.706,7.632A4.484,4.484,0,0,0,124.8,156.508Z" transform="translate(-117.072 -130.964)"/><path class="c" d="M141.6,152.82a4.491,4.491,0,1,0-4.706,7.632A13.706,13.706,0,0,0,141.6,152.82Z" transform="translate(-116.539 -130.964)"/></g><path class="f" d="M132.665,156.54a4.322,4.322,0,0,1-3.018,1.088h-.006a4.322,4.322,0,0,1-3.018-1.088" transform="translate(-115.049 -130.82)"/><g transform="translate(8.58 15.833)"><path class="c" d="M129.69,155.6V150.12S125.828,155.6,129.69,155.6Z" transform="translate(-123.586 -146.857)"/><path class="f" d="M123.721,148.115a2.7,2.7,0,0,1,2.323-1.158" transform="translate(-123.721 -146.957)"/><path class="f" d="M135.451,148.115a2.7,2.7,0,0,0-2.322-1.158" transform="translate(-123.423 -146.957)"/><path class="f" d="M124.067,150.632s.12-.993.983-.993.983.993.983.993" transform="translate(-123.71 -146.872)"/><path class="f" d="M133.3,150.632s.12-.993.983-.993.982.993.982.993" transform="translate(-123.417 -146.872)"/></g></g><path class="p" d="M116.13,141.725s16.058,4.122,26.958,0C140.744,131.525,124.92,123.075,116.13,141.725Z" transform="translate(-42.21 -99.29)"/><path class="i" d="M60.53,114.678l-5.241,5.76s2.877,22.86,18.555,29.72,9.162,20.573,27.628,33.81c-3.811,17.236,1.966,33.229-3.778,53.222s1.979,35.368,1.979,35.368,36.493,12.253,66.376-5.846a54.525,54.525,0,0,0,3.02-28.469c-2.055-11.419-.678-37.891-5.62-54.275,20.564-14.811,5.787-20.423,21.781-29.583S205.5,123.478,205.5,123.478l-4.681-6.8a34.408,34.408,0,0,0-26.649,15.6c-20.64,30.633-35.874,34.385-35.874,34.385s-.47,4.66-5.9,4.66a7.062,7.062,0,0,1-6.8-4.974s-19.153-8.176-24.329-17.851C84.52,117.207,73.668,120.155,60.53,114.678Z" transform="translate(-44.139 -99.797)"/><path class="f" d="M55.289,120.438l5.24-5.759,1.482.587-5.962,6.559" transform="translate(-44.139 -99.797)"/><path class="f" d="M201.086,123.416l-4.68-6.8-2.1.161,5.4,7.48" transform="translate(-39.73 -99.736)"/><path class="f" d="M74.488,148.079s5.521,3.48,14.965,1.609" transform="translate(-43.53 -98.738)"/><path class="f" d="M100.964,182.423s12.993.858,17.289-19.038" transform="translate(-42.691 -98.273)"/><path class="f" d="M159.06,181.623s-10.244-1.312-16.093-18.238" transform="translate(-41.359 -98.273)"/><path class="f" d="M176.32,155.427s-9.881,1.4-14.094,4.916" transform="translate(-40.748 -98.522)"/><path class="f" d="M99.416,224.72s-.726,9.3,5.666,16.564" transform="translate(-42.741 -96.348)"/><path class="f" d="M98.429,264.872s33.709,12.205,65.82-5.085" transform="translate(-42.771 -95.245)"/><path class="f" d="M121.663,164.926s.967,5.67,8.6,5.451,8.208-5.451,8.208-5.451" transform="translate(-42.034 -98.224)"/><path class="f" d="M128.749,183.367a14.988,14.988,0,0,1,0-5.12c.5-2.7,1.292-8.038,1.292-8.038a12.658,12.658,0,0,1,2.121,11.2" transform="translate(-41.817 -98.058)"/><path class="f" d="M128.284,183.844a.881.881,0,1,0,.881-.881A.881.881,0,0,0,128.284,183.844Z" transform="translate(-41.824 -97.657)"/><path class="f" d="M130.807,181.87a.881.881,0,1,0,.881-.881A.881.881,0,0,0,130.807,181.87Z" transform="translate(-41.744 -97.719)"/><path class="f" d="M161.587,215.633s-.579,9.771-5.068,16.866" transform="translate(-40.929 -96.633)"/><path class="f" d="M118.161,229.885s14.856,2.59,29.023-1.132c.29,11,6.393,14.335,13.115,14.046a122.558,122.558,0,0,1-.952,13.61s-27.873,9.991-54.407,1.014c-.759-8.544-1.049-12.464-1.049-12.464S118.337,246.1,118.161,229.885Z" transform="translate(-42.598 -96.224)"/><path class="f" d="M146.13,332s7.454,10.518,8.165,11.142" transform="translate(-41.258 -92.981)"/><line class="f" x2="4.833" y2="3.235" transform="translate(83.735 197.673)"/><path class="f" d="M150.088,267.831s-.748,27.013,5.333,48.877,9.557,17.954,13.322,16.651,28.964-14.083,28.964-14.083" transform="translate(-41.134 -95.016)"/><path class="f" d="M127.124,293.476s-4.489,19.813-1.449,34,5.213,12.646,10.425,11.319,12.412-3.183,12.412-3.183" transform="translate(-41.941 -94.203)"/><path class="f" d="M147.779,268.561s-.489,19.454,2.382,35.093,8.373,33.358,14.455,32.751,33.874-15.535,33.874-15.535" transform="translate(-41.207 -94.993)"/><path class="f" d="M129.223,294.248a74.972,74.972,0,0,0-2.737,22.276c.29,12.813,2.9,21.066,6.082,20.921s15.047-3.032,15.047-3.032" transform="translate(-41.882 -94.179)"/><path class="f" d="M199.654,312.037s1.989,1.3,5.349,7.242,6.1,7.311,8.558,15.376" transform="translate(-39.561 -93.614)"/><path class="f" d="M175.581,340.11a28.088,28.088,0,0,1,2.837,9.133" transform="translate(-40.324 -92.724)"/><ellipse class="l" cx="48.987" cy="7.529" rx="48.987" ry="7.529" transform="translate(42.628 324.53)"/></g><g transform="translate(249.551 68.84)"><path class="g" d="M303.141,116.555s-8.215-1.2-11.3,5.243-11.217,14.594-5.78,22.8c2.509,3.467,7.692,3.929,11.269,2.825s13.391,3.054,19.088.2,8.045-7.423,4.091-16.448S311.421,116.2,303.141,116.555Z" transform="translate(-241.947 -67.343)"/><g transform="translate(46.975 50.987)"><g transform="translate(0 18.706)"><path class="c" d="M294.048,141.466a3.906,3.906,0,0,0-3.468-5.062h-.074c-2.47,0-2.445,7.015,1.071,7.015A2.4,2.4,0,0,0,294.048,141.466Z" transform="translate(-288.778 -136.404)"/><path class="c" d="M311.966,141.466a3.906,3.906,0,0,1,3.468-5.062h.074c2.47,0,2.445,7.015-1.071,7.015A2.4,2.4,0,0,1,311.966,141.466Z" transform="translate(-288.047 -136.404)"/></g><g transform="translate(6.457 28.138)"><path class="c" d="M310.26,154.1c-1.587-3.008-.956-7.6-.956-7.6l-6.189-.951-6.188.951a18.374,18.374,0,0,1-.042,4.621C299.141,153.415,303.481,156.185,310.26,154.1Z" transform="translate(-294.978 -145.547)"/><path class="d" d="M310.319,153.928c-6.779,2.086-11.119-.684-13.376-2.98A8.043,8.043,0,0,1,295.4,154.9c-1.191,1.428.753,2.419,3,3.055a17.582,17.582,0,0,0,9.561,0c2.242-.636,4.186-1.627,3-3.055A5.513,5.513,0,0,1,310.319,153.928Z" transform="translate(-295.036 -145.376)"/></g><g transform="translate(1.741)"><path class="e" d="M308.447,143.819a4.5,4.5,0,0,1,7.076-3.689,22.837,22.837,0,0,0,.651-5.621c0-9.271-4.388-13.343-8.037-15.126a11.013,11.013,0,0,0-9.635,0c-3.649,1.783-8.036,5.854-8.036,15.126a22.892,22.892,0,0,0,.65,5.621,4.491,4.491,0,1,1,4.706,7.632,13.139,13.139,0,0,0,1.565,1.095,11.745,11.745,0,0,0,11.866,0,13.24,13.24,0,0,0,1.566-1.095A4.482,4.482,0,0,1,308.447,143.819Z" transform="translate(-290.465 -118.274)"/><path class="c" d="M298.171,143.172a4.5,4.5,0,0,0-7.076-3.689,13.7,13.7,0,0,0,4.706,7.632A4.483,4.483,0,0,0,298.171,143.172Z" transform="translate(-290.445 -117.627)"/><path class="c" d="M314.97,139.483a4.491,4.491,0,1,0-4.7,7.632A13.7,13.7,0,0,0,314.97,139.483Z" transform="translate(-289.912 -117.627)"/></g><path class="f" d="M306.038,143.2a4.321,4.321,0,0,1-3.018,1.088h-.006A4.319,4.319,0,0,1,300,143.2" transform="translate(-288.422 -117.483)"/><g transform="translate(8.58 15.833)"><path class="g" d="M297.44,137.766a.983.983,0,1,0,.983-.983A.984.984,0,0,0,297.44,137.766Z" transform="translate(-297.083 -133.52)"/><path class="g" d="M306.675,137.766a.983.983,0,1,0,.982-.983A.983.983,0,0,0,306.675,137.766Z" transform="translate(-296.79 -133.52)"/><path class="c" d="M303.063,142.258v-5.475S299.2,142.258,303.063,142.258Z" transform="translate(-296.959 -133.52)"/><path class="f" d="M297.094,134.778a2.7,2.7,0,0,1,2.323-1.158" transform="translate(-297.094 -133.62)"/><path class="f" d="M308.824,134.778a2.7,2.7,0,0,0-2.322-1.158" transform="translate(-296.796 -133.62)"/></g></g><path class="g" d="M288.779,137.408s9.466-.834,14.626-11.292c5.718,10.543,14.563,11.292,14.563,11.292s.062-20.318-15.292-20.318S288.779,137.408,288.779,137.408Z" transform="translate(-241.804 -67.322)"/><path class="e" d="M323.837,214.087c-1.565-16.832.794-19.231.142-37.4-1.25-23.554-11.613-22.108-20.727-21.978-9.026-1.259-19.13-3.979-23.292,19.237-2.9,17.949-.887,21.108-4.527,37.616S273.7,246.63,273.7,246.63c7.342,8.279,23.632,3.24,23.632,3.24s18.372,6.988,26.684-.318A247.668,247.668,0,0,0,323.837,214.087Z" transform="translate(-242.297 -66.173)"/><g transform="translate(14.09 11.83)"><path class="e" d="M295.576,156.405c-35.706-22.151-29.745-39.45-20.952-73.357-2.267-1.156-3.46-1.632-5.75-2.742-18.889,41.9-17.171,67.058,17.8,97.01C292.913,174.609,295.5,162.416,295.576,156.405Z" transform="translate(-256.904 -80.306)"/></g><path class="e" d="M271.431,70.55c1.1.057.514,4.832.514,4.832s1.153-6.174,1.99-6.278c1.321-.164-.1,6.835-.1,6.835s1.742-7.579,3.11-7.074-1.207,7.81-1.207,7.81,2.846-6.722,3.939-6.087-2.914,9.164-2.914,9.164,4.3-2.046,4.778-1.2c.8,1.434-8.164,6.163-8.164,6.163l-5.326-1.576S270.333,70.492,271.431,70.55Z" transform="translate(-242.46 -68.84)"/><g transform="translate(67.318 37.399)"><path class="e" d="M310.25,156.671c42.018-.217,45.98-18.08,56.21-51.582,2.536.2,3.8.417,6.335.668-5.8,45.591-15.09,64.023-60.555,71.277C308.332,171.461,307.175,161.836,310.25,156.671Z" transform="translate(-308.496 -105.089)"/></g><path class="e" d="M373.943,96.033c-.966-.525-2.964,3.849-2.964,3.849s2.244-5.865,1.586-6.391c-1.04-.829-3.486,5.88-3.486,5.88s2.477-7.372,1.047-7.656S367.072,99,367.072,99s1.086-7.218-.175-7.248-2.307,9.335-2.307,9.335-2.6-3.995-3.448-3.518c-1.43.806,3.738,9.522,3.738,9.522l5.364,1.44S374.909,96.557,373.943,96.033Z" transform="translate(-239.516 -68.114)"/><path class="e" d="M354.09,316.713l-35.205,5.456c.1-14.873,4.088-35.167,6.63-46.76,3.381-15.416-1.144-30.7-3.662-41.442l-24.463,8.95s-9.832,27.806-4.787,59.306c1.262,7.878,6.123,20.527,9.762,29.182,1.571,3.737,4.4,11.862,18.827,7.9l37.416-11.066Z" transform="translate(-241.727 -63.679)"/><path class="e" d="M253.98,298.747c3.744-31.682,21.679-64.781,21.679-64.781l27.049,7.006c-.511,11.023-.18,25.889-7.639,39.8-5.611,10.46-17.564,27.508-19.29,44.246L310.1,348.287l1.219,13.093s-23.184-8.65-25.852-9.519c-13.057-4.251-30.828-12.341-32.954-28.084C251.295,314.787,252.912,307.786,253.98,298.747Z" transform="translate(-242.967 -63.679)"/><path class="k" d="M274.257,227.077s27.072,10.851,51.269,2.285c12.773,24.565,1.348,32.562,4.776,53.125s-7.861,23.093-3.931,36.394c7.93-3.263,21.639-3.688,21.639-3.688,5.433,8.07,6.7,16.538,3.944,25.39,0,0-32.234,12.97-46.65,0s-12.622-38.412-12.622-38.412l-10.707,20.3,26.411,15.913s-.4,20.073-12.378,28.641c-23.97-6.855-14.21-8.218-43.652-26.958S274.257,227.077,274.257,227.077Z" transform="translate(-243.247 -63.897)"/><g transform="translate(18.624 68.856)"><path class="i" d="M299.288,179.942c16.576-4.305,25.91-1.525,35.554-4.877-.158-.752-.273-1.162-.273-1.162l7.574-4.226s1.785-10.016-6.237-19.771a228.568,228.568,0,0,1-24.486,4.5s-.535,5.8-7.145,5.8-6.541-7.364-6.541-7.364S284.216,143.894,276.1,135.6c0,0-10.79,5.874-14.8,14.3,3.209,8.427,9.579,9.764,12.277,16.717l2.7,6.953s-.419,1.917-1.049,5.178C279.161,180.7,287.105,183.105,299.288,179.942Z" transform="translate(-261.299 -135.605)"/><path class="i" d="M298.291,205.813c16.387-4.256,26.612-2.484,36.206-4.355a35.4,35.4,0,0,1,.308-6.575c.278-2.141.452-4.127.563-5.988-1.9.41-5.084.694-5.489.738-4.712.508-9.034-.573-13.694-.628-7.315-.087-14.673,3.381-21.918,4.363a46.779,46.779,0,0,1-11.741.188,41.066,41.066,0,0,1-6.4-1.271c-.37-.105-2.081-.572-3.647-1.086-.626,4.042-1.255,8.521-1.816,13.263C275.194,206.689,284.315,209.444,298.291,205.813Z" transform="translate(-261.002 -133.915)"/><path class="i" d="M301.65,237.057c15.949-7.319,34.71-2.764,41.575-8.555-1.222-4.608-2.422-8.233-3.519-11.259-1.928.35-4.431.6-4.789.648-6.018.751-11.791-.768-17.783-.646-6.363.129-12.286,2.772-18.44,4.064-7.645,1.6-15.5,2.123-23.192.521a47.98,47.98,0,0,1-5.231-1.405c-.274-.091-1.457-.452-2.646-.861-1.768,4.87-3.79,8.067-5.08,11.219C269.479,234.712,287.615,243.5,301.65,237.057Z" transform="translate(-261.259 -133.016)"/><path class="n" d="M282.472,194.032a46.78,46.78,0,0,0,11.741-.188c7.245-.982,14.6-4.45,21.918-4.363,4.66.056,8.982,1.136,13.694.628.4-.043,3.586-.328,5.489-.738a60.064,60.064,0,0,0-.824-15.52c-9.643,3.352-18.978.572-35.554,4.877-12.182,3.163-20.127.753-24.063-1.187-.657,3.406-1.544,8.3-2.448,14.133,1.566.515,3.277.981,3.647,1.086A41.062,41.062,0,0,0,282.472,194.032Z" transform="translate(-260.946 -134.392)"/><path class="n" d="M275.346,222.343c7.695,1.6,15.547,1.083,23.192-.521,6.154-1.292,12.077-3.935,18.44-4.064,5.991-.122,11.765,1.4,17.783.646.358-.044,2.861-.3,4.789-.648-2.613-7.2-4.637-11.029-4.951-16.684-9.594,1.87-19.819.1-36.206,4.355-13.977,3.631-23.1.876-27.627-1.353-.1.867-.205,1.732-.3,2.614a56.689,56.689,0,0,1-2.994,13.388c1.19.41,2.372.771,2.646.861A47.983,47.983,0,0,0,275.346,222.343Z" transform="translate(-261.103 -133.529)"/><path class="n" d="M263.2,238.759c25.965,16.967,43.571,12.436,55.058,4.08,10.226-7.437,19.039-2.954,24.33-6.482a4.068,4.068,0,0,0,1.656-4.317c-.326-1.37-.652-2.66-.977-3.884-6.865,5.791-25.626,1.236-41.575,8.555-14.035,6.441-32.171-2.345-39.105-6.275a16.677,16.677,0,0,0-1.205,4.37A4.135,4.135,0,0,0,263.2,238.759Z" transform="translate(-261.297 -132.67)"/></g><path class="n" d="M306.384,356.69a11.145,11.145,0,0,1,4.8,6.437c1.18,4.412.8,7.2,6.337,8.047,1.875-4.494,1.119-11.3.385-15.638s.849-8.563-.963-10.283-8.73-.912-8.73-.912Z" transform="translate(-241.245 -60.184)"/><path class="n" d="M284.524,166.044s9.891,3.655,18.053,1.518,20.191-3.947,20.191-3.947-3.6-7.665-3.833-10.863l-7.055,1.065s.293,8.07-9.142,7.182c-7.677-1.158-6.64-9.2-6.64-9.2a34.049,34.049,0,0,0-3.326-2.319S289.316,162.2,284.524,166.044Z" transform="translate(-241.938 -66.304)"/><path class="f" d="M262.751,150.452s5.629-8.863,13.3-13.156" transform="translate(-242.628 -66.687)"/><path class="f" d="M277.333,172.071s10.308-4.431,15.348-21.137" transform="translate(-242.166 -66.258)"/><path class="f" d="M318.106,153.908s3,14.854,12.969,18.7" transform="translate(-240.873 -66.165)"/><path class="f" d="M332.867,150.934s4.748,5.433,5.708,17.682" transform="translate(-240.405 -66.258)"/><path class="f" d="M295.624,152.173s-1.064,8.8,7.989,8.8c7.962,0,7.916-6.352,7.916-6.352" transform="translate(-241.587 -66.218)"/><path class="f" d="M262.256,234.043s1.193,2.681,9.968,6.857,19.6,7.583,28.118,5.964,13.292-4.856,18.233-8.095,9.458-4.09,16.018-3.749,7.837-1.533,8.435-3.493" transform="translate(-242.644 -63.723)"/><path class="f" d="M291.289,298.354s-1.461-10.526-3.317-15.786c-2.059-5.834.686-17.731.686-17.731l2.631-14.425" transform="translate(-241.853 -63.135)"/><path class="f" d="M284.843,249.615s-5.977,18.21,2.5,19.926" transform="translate(-241.993 -63.155)"/><path class="f" d="M275.321,245.865s-4.461,19.79-16.93,15.786" transform="translate(-242.767 -63.273)"/><path class="f" d="M308.953,247.75s-1.667,22.765,14.495,17.731" transform="translate(-241.165 -63.214)"/><path class="f" d="M321.355,240.986s1.764,14.529,1.8,20.935-.261,18.189,0,24.137-2.483,19.219-4.086,27.227-1.209,11.668,4.086,9.38,18.794-4.119,23.827-3.775" transform="translate(-240.869 -63.439)"/><path class="f" d="M289.092,288.553s-5.949,15.673-10.066,24.023-5.148,9.151-2.517,10.982,29.056,19.332,29.056,19.332" transform="translate(-242.238 -61.948)"/><path class="f" d="M297.956,330.494a23.8,23.8,0,0,0,7.59,8.351" transform="translate(-241.512 -60.618)"/><path class="f" d="M289.184,360.71a49.053,49.053,0,0,0,11.128-20.82" transform="translate(-241.79 -60.32)"/><path class="f" d="M339.776,317.6s4.8,7.208,3.431,20.935" transform="translate(-240.186 -61.026)"/><path class="f" d="M268.925,321.447s4.347.344,11.324-2.4" transform="translate(-242.433 -60.981)"/><path class="f" d="M273.2,324.251a9.393,9.393,0,0,0,6.228-3.446" transform="translate(-242.297 -60.925)"/><path class="f" d="M322.382,316.051s.334,4.461-4.065,9.952" transform="translate(-240.866 -61.076)"/><path class="f" d="M323.842,317.6a16.976,16.976,0,0,1-.841,6.749" transform="translate(-240.718 -61.026)"/><path class="f" d="M331.773,200.294s-3.2,8.465-10.181,13.27" transform="translate(-240.762 -64.705)"/><path class="f" d="M272.029,205.727s-.5,6.749,5.472,13.841" transform="translate(-242.335 -64.535)"/><path class="f" d="M271.548,212.269s.267,5.834,2.327,9.495" transform="translate(-242.349 -64.328)"/><path class="f" d="M306.384,356.684l1.828-12.348h1.381l-1.6,12.348" transform="translate(-241.245 -60.179)"/><path class="f" d="M307.665,357.248a10.071,10.071,0,0,1,3.187,4.555c.7,2.613,1.467,8.593,5.858,8.815" transform="translate(-241.204 -59.769)"/><path class="f" d="M317.718,370.274a32.17,32.17,0,0,0,.638-10.4c-.68-5.039-1.22-7.167-.675-10.2s-.044-5.214-4.429-5.518l-2.7.019" transform="translate(-241.113 -60.184)"/><path class="f" d="M315.958,345.984a23.521,23.521,0,0,0,0,7.674,40.729,40.729,0,0,1,.927,15.769" transform="translate(-240.952 -60.126)"/><line class="f" y1="1.899" x2="1.684" transform="translate(68.348 297.029)"/><line class="f" y1="1.462" x2="1.543" transform="translate(69.441 298.928)"/><path class="n" d="M354.365,326.521a11.15,11.15,0,0,1,6.6,4.57c2.527,3.8,3.053,6.566,8.575,5.6.342-4.858-2.546-11.064-4.627-14.942s-1.928-8.387-4.195-9.438-8.563,1.922-8.563,1.922Z" transform="translate(-239.793 -61.201)"/><path class="f" d="M354.365,326.469l-2.209-12.286,1.309-.441,2.421,12.214" transform="translate(-239.793 -61.149)"/><path class="f" d="M355.812,326.562a10.066,10.066,0,0,1,4.474,3.3c1.5,2.253,4.134,7.676,8.366,6.484" transform="translate(-239.677 -60.742)"/><path class="f" d="M369.5,335.734a32.174,32.174,0,0,0-2.714-10.058c-2.253-4.558-3.445-6.4-3.9-9.456s-1.706-4.927-5.958-3.815l-2.552.879" transform="translate(-239.723 -61.201)"/><path class="f" d="M360.067,313.244a23.476,23.476,0,0,0,2.449,7.271,40.758,40.758,0,0,1,5.912,14.648" transform="translate(-239.542 -61.165)"/><line class="f" y1="2.337" x2="0.99" transform="translate(118.386 264.254)"/><line class="f" y1="1.878" x2="0.996" transform="translate(119.888 265.75)"/><path class="f" d="M302.762,124.8s2.67,12.539,15.831,12.359" transform="translate(-241.36 -67.079)"/><path class="f" d="M290.459,126.017s-11.03,8.711-5.893,17.276" transform="translate(-241.98 -67.042)"/><path class="f" d="M319.4,132.059s6.658,9.885-2.336,15.265" transform="translate(-240.906 -66.851)"/><ellipse class="l" cx="48.987" cy="7.529" rx="48.987" ry="7.529" transform="translate(18.292 356.941)"/><path class="f" d="M274.692,179.072l-1.865,10.783-2.285,16.717s-1.249,9.193-2.612,12.831" transform="translate(-242.464 -65.37)"/><path class="f" d="M332.768,174.822s1.278,7.965.774,13.395" transform="translate(-240.408 -65.502)"/><path class="f" d="M332.709,202.927s.871,7.668,4.04,12.8" transform="translate(-240.41 -64.616)"/><path class="f" d="M327.894,238.291s6.639,0,9.008-.665,7.774-1.473,4.6-8.153" transform="translate(-240.563 -63.78)"/><path class="f" d="M262.289,231.12s-3.911,5.041,3.21,9" transform="translate(-242.677 -63.728)"/><line class="f" y1="0.618" x2="5.423" transform="translate(70.74 86.778)"/><line class="f" x2="2.395" y2="1.728" transform="translate(51.201 83.454)"/></g></g><circle class="q" cx="2" cy="2" r="2" transform="translate(635.5 925.303)"/><circle class="q" cx="2" cy="2" r="2" transform="translate(801.5 819.303)"/><circle class="q" cx="2" cy="2" r="2" transform="translate(992.822 899.303)"/><circle class="q" cx="2" cy="2" r="2" transform="translate(1120.5 830.303)"/><circle class="q" cx="2" cy="2" r="2" transform="translate(1283.822 925.79)"/><circle class="q" cx="2" cy="2" r="2" transform="translate(1329.5 830.303)"/><text class="r" transform="translate(1504.822 1071.303)"><tspan x="-223.092" y="0">Background vector created by pikisuperstar - www.freepik.com</tspan></text><g transform="translate(1230.473 1061.391)"><path class="s" d="M384.124,473.046a4.844,4.844,0,0,0-.715.938l-.3-.156a.389.389,0,1,0-.334.473.4.4,0,0,0,.119-.034l.291.151a4.716,4.716,0,0,0-.348,1.126l.482.085a4.259,4.259,0,0,1,1.157-2.241Z" transform="translate(-382.339 -470.342)"/><path class="s" d="M389.414,470.075q-.166,0-.329.011l-.048-.4a.462.462,0,1,0-.486.056l.048.4a4.894,4.894,0,0,0-1.33.417l.211.442a4.443,4.443,0,0,1,1.934-.434,4.531,4.531,0,0,1,.952.1l.1-.478A4.988,4.988,0,0,0,389.414,470.075Z" transform="translate(-384.086 -468.857)"/><path class="s" d="M396.165,472.807a.39.39,0,1,0-.437-.38l-.269.234a4.9,4.9,0,0,0-.908-.735l-.261.414a4.355,4.355,0,0,1,1.655,1.888l.446-.2a4.765,4.765,0,0,0-.609-1l.26-.227A.388.388,0,0,0,396.165,472.807Z" transform="translate(-386.575 -469.945)"/><path class="s" d="M388.305,480.309c-.249.015-.5.023-.747.023a10.428,10.428,0,0,1-1.6-.116,5.594,5.594,0,0,1-.82-.189,4,4,0,0,0,7.319-.89,6.268,6.268,0,0,1-1.587.724A10.968,10.968,0,0,1,388.305,480.309Z" transform="translate(-383.331 -472.501)"/><path class="s" d="M388.437,472.26a3.886,3.886,0,0,0-3.925,3.836,3.785,3.785,0,0,0,.088.815,6.612,6.612,0,0,0,3.452.472,7.423,7.423,0,0,0,4.307-1.394c0-.126-.014-.252-.029-.376A3.9,3.9,0,0,0,388.437,472.26Zm-1.394,4.206a1.194,1.194,0,1,1,1.194-1.194A1.2,1.2,0,0,1,387.043,476.466Zm3.059-.587a.878.878,0,1,1,.878-.878A.879.879,0,0,1,390.1,475.879Z" transform="translate(-383.109 -470.063)"/><path class="s" d="M404.647,473.405a1.813,1.813,0,0,0-.892-.153c-.356.044-.545.219-.545.649v.559h1.438v1.108H403.21v3.521h-1.247v-3.521H401.1v-1.108h.864v-.573a1.589,1.589,0,0,1,1.658-1.8,2.544,2.544,0,0,1,1.026.2Z" transform="translate(-388.988 -470.003)"/><path class="s" d="M409.892,476.789a2.063,2.063,0,0,0-.34-.03.926.926,0,0,0-.975,1.041v2.523H407.33v-4.63h1.209v.507a1.459,1.459,0,0,1,1.3-.631,1.156,1.156,0,0,1,.706.217Z" transform="translate(-391.197 -471.237)"/><path class="s" d="M416.444,478a3.589,3.589,0,0,1-.024.42h-3.283a1.117,1.117,0,0,0,1.19.961,1.873,1.873,0,0,0,1.17-.444l.731.8a2.808,2.808,0,0,1-1.973.7,2.438,2.438,0,0,1-.062-4.873A2.237,2.237,0,0,1,416.444,478Zm-3.3-.43h2.05a1.03,1.03,0,0,0-2.05,0Z" transform="translate(-392.8 -471.237)"/><path class="s" d="M424.1,478a3.589,3.589,0,0,1-.024.42h-3.282a1.117,1.117,0,0,0,1.189.961,1.875,1.875,0,0,0,1.171-.444l.731.8a2.808,2.808,0,0,1-1.973.7,2.438,2.438,0,0,1-.062-4.873A2.237,2.237,0,0,1,424.1,478Zm-3.3-.43h2.05a1.03,1.03,0,0,0-2.05,0Z" transform="translate(-395.513 -471.237)"/><path class="s" d="M432.3,478.007a2.293,2.293,0,0,1-2.241,2.436,1.694,1.694,0,0,1-1.362-.6v2.394h-1.242v-6.541h1.218v.511a1.679,1.679,0,0,1,1.381-.635A2.3,2.3,0,0,1,432.3,478.007Zm-3.665,0a1.195,1.195,0,1,0,1.19-1.276A1.189,1.189,0,0,0,428.639,478.007Z" transform="translate(-398.332 -471.237)"/><path class="s" d="M437.194,472.975a.8.8,0,1,1-.8-.8A.783.783,0,0,1,437.194,472.975Zm-.167,6.144H435.78v-4.63h1.247Z" transform="translate(-401.219 -470.032)"/><path class="s" d="M440.347,476.175l1.744-1.649h1.529l-2.246,2.179,2.26,2.451H442.1l-1.753-1.873v1.873H439.1v-6.88h1.247Z" transform="translate(-402.458 -470.069)"/></g><g transform="translate(1179.822 1064.13)"><path class="s" d="M307.45,479.406v-.681a1.922,1.922,0,0,1-1.541.795c-1.192,0-2.033-.908-2.033-2.392,0-1.456.831-2.4,2.033-2.4a1.907,1.907,0,0,1,1.541.8V473.1h.709v6.307Zm0-1.239V476.1a1.712,1.712,0,0,0-1.371-.738c-.917,0-1.465.757-1.465,1.768s.549,1.759,1.465,1.759A1.7,1.7,0,0,0,307.45,478.167Z" transform="translate(-303.876 -473.099)"/><path class="s" d="M311.932,478.011a2.283,2.283,0,0,1,2.25-2.392,2.218,2.218,0,0,1,2.194,2.449v.18h-3.7a1.609,1.609,0,0,0,1.646,1.579,2,2,0,0,0,1.409-.577l.34.464a2.481,2.481,0,0,1-1.815.7A2.264,2.264,0,0,1,311.932,478.011Zm2.241-1.806a1.523,1.523,0,0,0-1.494,1.522h3A1.48,1.48,0,0,0,314.173,476.205Z" transform="translate(-306.732 -473.992)"/><path class="s" d="M319.607,479.694l.369-.511a2.069,2.069,0,0,0,1.5.653c.7,0,1.078-.331,1.078-.785,0-1.106-2.827-.425-2.827-2.119,0-.709.615-1.314,1.7-1.314a2.312,2.312,0,0,1,1.693.662l-.331.492a1.778,1.778,0,0,0-1.361-.577c-.624,0-1.012.312-1.012.718,0,1,2.827.341,2.827,2.118,0,.766-.615,1.381-1.8,1.381A2.43,2.43,0,0,1,319.607,479.694Z" transform="translate(-309.452 -473.992)"/><path class="s" d="M326.477,473.786a.477.477,0,1,1,.955,0,.477.477,0,0,1-.955,0Zm.123,5.692v-4.567h.709v4.567Z" transform="translate(-311.887 -473.172)"/><path class="s" d="M329.442,481.472l.359-.53a1.745,1.745,0,0,0,1.485.624,1.308,1.308,0,0,0,1.466-1.371v-.653a1.908,1.908,0,0,1-1.533.813,2.079,2.079,0,0,1-2.033-2.364c0-1.465.832-2.373,2.033-2.373a1.892,1.892,0,0,1,1.533.8v-.691h.709v4.435c0,1.513-1.059,1.986-2.175,1.986A2.334,2.334,0,0,1,329.442,481.472Zm3.31-2.487V476.99a1.682,1.682,0,0,0-1.362-.738c-.917,0-1.465.728-1.465,1.74s.548,1.74,1.465,1.74A1.69,1.69,0,0,0,332.751,478.985Z" transform="translate(-312.847 -473.992)"/><path class="s" d="M340.72,480.3v-2.988c0-.8-.407-1.059-1.021-1.059a1.761,1.761,0,0,0-1.352.709V480.3h-.709v-4.567h.709v.662a2.264,2.264,0,0,1,1.626-.775,1.3,1.3,0,0,1,1.456,1.475V480.3Z" transform="translate(-315.843 -473.992)"/><path class="s" d="M344.932,478.011a2.284,2.284,0,0,1,2.251-2.392,2.218,2.218,0,0,1,2.194,2.449v.18h-3.7a1.609,1.609,0,0,0,1.645,1.579,2,2,0,0,0,1.409-.577l.34.464a2.481,2.481,0,0,1-1.815.7A2.265,2.265,0,0,1,344.932,478.011Zm2.241-1.806a1.523,1.523,0,0,0-1.494,1.522h3A1.48,1.48,0,0,0,347.173,476.205Z" transform="translate(-318.429 -473.992)"/><path class="s" d="M356.387,479.406v-.681a1.923,1.923,0,0,1-1.542.795c-1.192,0-2.033-.908-2.033-2.392,0-1.456.832-2.4,2.033-2.4a1.909,1.909,0,0,1,1.542.8V473.1h.709v6.307Zm0-1.239V476.1a1.714,1.714,0,0,0-1.371-.738c-.917,0-1.465.757-1.465,1.768s.548,1.759,1.465,1.759A1.7,1.7,0,0,0,356.387,478.167Z" transform="translate(-321.222 -473.099)"/><path class="s" d="M364.692,479.406V473.1h.709v2.43a1.9,1.9,0,0,1,1.542-.8,2.122,2.122,0,0,1,2.033,2.4c0,1.485-.841,2.392-2.033,2.392a1.924,1.924,0,0,1-1.542-.795v.681Zm2.071-.52c.926,0,1.475-.747,1.475-1.759s-.549-1.768-1.475-1.768a1.7,1.7,0,0,0-1.362.738v2.07A1.681,1.681,0,0,0,366.763,478.886Z" transform="translate(-325.433 -473.099)"/><path class="s" d="M372.232,481.506a1.091,1.091,0,0,0,.388.076.657.657,0,0,0,.681-.482l.3-.69-1.91-4.615h.766l1.522,3.745,1.513-3.745h.775l-2.288,5.494a1.357,1.357,0,0,1-1.343.926,2.32,2.32,0,0,1-.52-.066Z" transform="translate(-327.914 -474.054)"/></g></g></svg>