<svg xmlns="http://www.w3.org/2000/svg" width="56.206" height="38.2" viewBox="0 0 56.206 38.2">
  <g id="그룹_1309" data-name="그룹 1309" transform="translate(-352.312 -1058.344)">
    <g id="그룹_1294" data-name="그룹 1294" transform="translate(93.43 574.877)">
      <g id="그룹_1240" data-name="그룹 1240" transform="translate(259.982 484.567)">
        <g id="그룹_1239" data-name="그룹 1239">
          <path id="패스_618" data-name="패스 618" d="M0-2.062,9.432.35h0V9.107c0,1.812-2.111,3.281-4.716,3.281S0,10.919,0,9.107Z" transform="translate(0 23.613)" fill="#fff" stroke="#2b3146" stroke-linecap="round" stroke-linejoin="round" stroke-width="2.2"/>
          <path id="패스_616" data-name="패스 616" d="M0,7.11,38.329-2V28.975L0,19.865Z" transform="translate(0 2)" fill="#9f5efd" stroke="#2b3146" stroke-linecap="round" stroke-linejoin="round" stroke-width="2.2"/>
          <path id="패스_630" data-name="패스 630" d="M15424.485,9732.257v25.691" transform="translate(-15395.928 -9729.482)" fill="#2b3146" stroke="#2b3146" stroke-linecap="round" stroke-width="2.2"/>
        </g>
        <path id="교차_1" data-name="교차 1" d="M0,6.771a6.772,6.772,0,0,0,6.77,6.77V0A6.772,6.772,0,0,0,0,6.771Z" transform="translate(45.1 21.981) rotate(180)" fill="#fff" stroke="#2b3146" stroke-linecap="round" stroke-linejoin="round" stroke-width="2.2"/>
      </g>
      <line id="선_58" data-name="선 58" x2="5.923" transform="translate(308.059 499.807)" fill="none" stroke="#2b3146" stroke-linecap="round" stroke-width="2.2"/>
      <line id="선_59" data-name="선 59" x2="5.924" transform="translate(313.586 491.069) rotate(150)" fill="none" stroke="#2b3146" stroke-linecap="round" stroke-width="2.2"/>
      <line id="선_60" data-name="선 60" x2="5.924" transform="translate(313.585 508.513) rotate(-150)" fill="none" stroke="#2b3146" stroke-linecap="round" stroke-width="2.2"/>
    </g>
  </g>
</svg>
