<?xml version="1.0" encoding="utf-8"?>
<!-- Generator: Adobe Illustrator 16.0.0, SVG Export Plug-In . SVG Version: 6.00 Build 0)  -->
<!DOCTYPE svg PUBLIC "-//W3C//DTD SVG 1.1//EN" "http://www.w3.org/Graphics/SVG/1.1/DTD/svg11.dtd">
<svg version="1.1" id="레이어_1" xmlns:sketch="http://www.bohemiancoding.com/sketch/ns"
	 xmlns="http://www.w3.org/2000/svg" xmlns:xlink="http://www.w3.org/1999/xlink" x="0px" y="0px" width="20px" height="20px"
	 viewBox="0 0 20 20" enable-background="new 0 0 20 20" xml:space="preserve">
<title></title>
<desc></desc>
<g>
	<path fill="#070509" d="M9.854,1.849l8.317,7.646v9.337h-4.936v-5.376c0,0-1.049-1-3.381-1c-2.3,0-3.424,1-3.424,1v5.376H1.539
		V9.504L9.854,1.849 M9.854,0.648c-0.292,0-0.583,0.106-0.813,0.317L0.726,8.621C0.479,8.848,0.339,9.168,0.339,9.504v9.327
		c0,0.663,0.538,1.2,1.2,1.2h4.893c0.663,0,1.2-0.537,1.2-1.2v-4.72c0.413-0.201,1.148-0.456,2.224-0.456
		c1.073,0,1.783,0.246,2.181,0.443v4.732c0,0.663,0.537,1.2,1.2,1.2h4.936c0.663,0,1.2-0.537,1.2-1.2V9.494
		c0-0.336-0.141-0.656-0.388-0.883l-8.317-7.646C10.437,0.754,10.146,0.648,9.854,0.648L9.854,0.648z"/>
</g>
</svg>
