<?xml version="1.0" encoding="utf-8"?>
<!-- Generator: Adobe Illustrator 16.0.0, SVG Export Plug-In . SVG Version: 6.00 Build 0)  -->
<!DOCTYPE svg PUBLIC "-//W3C//DTD SVG 1.1//EN" "http://www.w3.org/Graphics/SVG/1.1/DTD/svg11.dtd">
<svg version="1.1" id="레이어_1" xmlns:sketch="http://www.bohemiancoding.com/sketch/ns"
	 xmlns="http://www.w3.org/2000/svg" xmlns:xlink="http://www.w3.org/1999/xlink" x="0px" y="0px" width="20px" height="20px"
	 viewBox="0 0 20 20" enable-background="new 0 0 20 20" xml:space="preserve">
<title></title>
<desc></desc>
<rect width="6" height="1.5"/>
<rect width="1.5" height="6"/>
<rect y="14" width="1.5" height="6"/>
<rect y="18.5" width="6" height="1.5"/>
<rect x="14" width="6" height="1.5"/>
<rect x="18.5" width="1.5" height="6"/>
<rect x="18.5" y="14" width="1.5" height="6"/>
<rect x="14" y="18.5" width="6" height="1.5"/>
<rect x="3.591" y="3.735" fill="none" stroke="#070509" stroke-width="1.5" stroke-miterlimit="10" width="4.34" height="4.337"/>
<rect x="11.767" y="11.775" fill="#070509" width="1.748" height="1.744"/>
<rect x="15.257" y="15.26" fill="#070509" width="1.743" height="1.74"/>
<rect x="15.218" y="11.775" fill="#070509" width="1.744" height="1.744"/>
<rect x="13.514" y="13.521" fill="#070509" width="1.743" height="1.738"/>
<rect x="11.768" y="15.26" fill="#070509" width="1.746" height="1.74"/>
<rect x="3.591" y="12.219" fill="none" stroke="#070509" stroke-width="1.5" stroke-miterlimit="10" width="4.34" height="4.338"/>
<rect x="11.961" y="3.775" fill="none" stroke="#070509" stroke-width="1.5" stroke-miterlimit="10" width="4.341" height="4.338"/>
</svg>
