<?xml version="1.0" encoding="utf-8"?>
<!-- Generator: Adobe Illustrator 16.0.0, SVG Export Plug-In . SVG Version: 6.00 Build 0)  -->
<!DOCTYPE svg PUBLIC "-//W3C//DTD SVG 1.1//EN" "http://www.w3.org/Graphics/SVG/1.1/DTD/svg11.dtd">
<svg version="1.1" id="레이어_1" xmlns:sketch="http://www.bohemiancoding.com/sketch/ns"
	 xmlns="http://www.w3.org/2000/svg" xmlns:xlink="http://www.w3.org/1999/xlink" x="0px" y="0px" width="20px" height="20px"
	 viewBox="0 0 20 20" enable-background="new 0 0 20 20" xml:space="preserve">
<title></title>
<desc></desc>
<rect x="0.626" y="9.107" fill="#070509" stroke="#FFFFFF" stroke-width="0.2" stroke-miterlimit="10" width="4.592" height="1.811"/>
<rect x="9.146" y="0.653" fill="#070509" stroke="#FFFFFF" stroke-width="0.2" stroke-miterlimit="10" width="1.813" height="3.295"/>
<rect x="17.572" y="17.531" fill="#070509" stroke="#FFFFFF" stroke-width="0.2" stroke-miterlimit="10" width="1.813" height="1.816"/>
<rect x="12.775" y="14.549" fill="#070509" stroke="#FFFFFF" stroke-width="0.2" stroke-miterlimit="10" width="1.814" height="4.789"/>
<rect x="16.078" y="9.108" fill="#070509" stroke="#FFFFFF" stroke-width="0.2" stroke-miterlimit="10" width="3.308" height="1.814"/>
<rect x="9.146" y="16.029" fill="#070509" stroke="#FFFFFF" stroke-width="0.2" stroke-miterlimit="10" width="1.813" height="3.314"/>
<g>
	<path fill="#070509" d="M6.815,1.368v5.53h-5.53v-5.53H6.815 M6.815,0.168h-5.53c-0.663,0-1.2,0.538-1.2,1.2v5.53
		c0,0.663,0.538,1.2,1.2,1.2h5.53c0.663,0,1.2-0.538,1.2-1.2v-5.53C8.016,0.706,7.478,0.168,6.815,0.168L6.815,0.168z"/>
</g>
<rect x="3.143" y="3.226" fill="#070509" width="1.814" height="1.813"/>
<g>
	<path fill="#070509" d="M18.683,1.368v5.53h-5.53v-5.53H18.683 M18.683,0.168h-5.53c-0.663,0-1.2,0.538-1.2,1.2v5.53
		c0,0.663,0.537,1.2,1.2,1.2h5.53c0.663,0,1.2-0.538,1.2-1.2v-5.53C19.883,0.706,19.346,0.168,18.683,0.168L18.683,0.168z"/>
</g>
<rect x="15.01" y="3.226" fill="#070509" width="1.814" height="1.813"/>
<g>
	<path fill="#070509" d="M6.843,13.178v5.529H1.314v-5.529H6.843 M6.843,11.978H1.314c-0.663,0-1.2,0.537-1.2,1.2v5.529
		c0,0.663,0.538,1.2,1.2,1.2h5.528c0.663,0,1.2-0.537,1.2-1.2v-5.529C8.043,12.515,7.505,11.978,6.843,11.978L6.843,11.978z"/>
</g>
<rect x="3.17" y="15.037" fill="#070509" width="1.816" height="1.813"/>
<polygon fill="#070509" stroke="#FFFFFF" stroke-width="0.2" stroke-miterlimit="10" points="9.146,5.998 9.146,9.107 7.333,9.107 
	7.333,9.108 7.333,10.922 7.333,11.617 9.148,11.617 9.148,10.922 10.959,10.922 10.959,10.795 10.959,9.108 10.959,5.998 "/>
<polygon fill="#070509" stroke="#FFFFFF" stroke-width="0.2" stroke-miterlimit="10" points="12.775,9.108 12.775,10.92 
	10.959,10.92 10.959,12.736 10.053,12.736 10.053,14.551 12.775,14.551 12.775,14.549 12.776,14.549 12.776,12.736 14.59,12.736 
	14.59,9.108 "/>
<rect x="14.59" y="12.736" fill="#070509" stroke="#FFFFFF" stroke-width="0.2" stroke-miterlimit="10" width="2.982" height="1.814"/>
</svg>
