<?xml version="1.0" encoding="utf-8"?>
<!-- Generator: Adobe Illustrator 16.0.0, SVG Export Plug-In . SVG Version: 6.00 Build 0)  -->
<!DOCTYPE svg PUBLIC "-//W3C//DTD SVG 1.1//EN" "http://www.w3.org/Graphics/SVG/1.1/DTD/svg11.dtd">
<svg version="1.1" id="레이어_1" xmlns:sketch="http://www.bohemiancoding.com/sketch/ns"
	 xmlns="http://www.w3.org/2000/svg" xmlns:xlink="http://www.w3.org/1999/xlink" x="0px" y="0px" width="16px" height="16px"
	 viewBox="0 0 16 16" enable-background="new 0 0 16 16" xml:space="preserve">
<title></title>
<desc></desc>
<path opacity="0.3" fill="#FFFFFF" enable-background="new    " d="M15.197,5.929c0-2.147-1.633-3.676-3.781-3.676
	c-1.49,0-2.785,0.628-3.438,1.861C7.29,3.023,6.075,2.299,4.69,2.299c-2.147,0-3.888,1.74-3.888,3.888
	c0,1.116,0.472,2.123,1.226,2.831l0,0L2.03,9.02c0.019,0.02,0.037,0.035,0.055,0.055L8,14.577l5.625-5.416l0.15-0.146
	C14.578,8.189,15.197,7.188,15.197,5.929z"/>
<path fill="none" stroke="#FFFFFF" stroke-width="0.7" stroke-miterlimit="10" d="M15.197,5.929c0-2.147-1.633-3.676-3.781-3.676
	c-1.49,0-2.785,0.628-3.438,1.861C7.29,3.023,6.075,2.299,4.69,2.299c-2.147,0-3.888,1.74-3.888,3.888
	c0,1.116,0.472,2.123,1.226,2.831l0,0L2.03,9.02C2.049,9.04,2.067,9.055,2.085,9.075L8,14.578l5.625-5.416l0.15-0.145
	C14.578,8.189,15.197,7.188,15.197,5.929z"/>
</svg>
