<?xml version="1.0" encoding="utf-8"?>
<!-- Generator: Adobe Illustrator 16.0.0, SVG Export Plug-In . SVG Version: 6.00 Build 0)  -->
<!DOCTYPE svg PUBLIC "-//W3C//DTD SVG 1.1//EN" "http://www.w3.org/Graphics/SVG/1.1/DTD/svg11.dtd">
<svg version="1.1" id="레이어_1" xmlns="http://www.w3.org/2000/svg" xmlns:xlink="http://www.w3.org/1999/xlink" x="0px"
	 y="0px" width="190px" height="100px" viewBox="0 0 190 100" enable-background="new 0 0 190 100" xml:space="preserve">
<g>
	<g>
		<path fill="#00498E" d="M85.549,54.448c-0.063,0.064-0.14,0.094-0.229,0.094c-0.091,0-0.166-0.029-0.23-0.094
			c-0.063-0.063-0.094-0.139-0.094-0.23c0-0.089,0.031-0.167,0.094-0.229c0.064-0.063,0.14-0.096,0.23-0.096
			c0.09,0,0.167,0.033,0.229,0.096c0.063,0.062,0.095,0.14,0.095,0.229C85.643,54.31,85.612,54.386,85.549,54.448z M85.709,53.842
			c-0.154-0.049-0.232-0.073-0.232-0.075c0.002-0.024,0.009-0.041,0.021-0.05s0.005-0.026-0.021-0.051
			c-0.021-0.024-0.081-0.04-0.182-0.048c-0.099-0.01-0.148,0.011-0.148,0.057c0,0.015,0.012,0.025,0.034,0.036
			c0.023,0.009,0.024,0.025,0.004,0.051c-0.003,0.002-0.084,0.028-0.246,0.079c-0.161,0.052-0.242,0.182-0.242,0.392
			c0,0.159,0.067,0.281,0.201,0.367c0.134,0.087,0.275,0.13,0.423,0.13c0.146,0,0.286-0.043,0.421-0.13
			c0.134-0.086,0.201-0.208,0.201-0.367C85.942,54.02,85.865,53.89,85.709,53.842z M86.576,55.38
			c-0.074,0.004-0.126,0.018-0.155,0.038c-0.032,0.021-0.067,0.035-0.109,0.038c-0.04,0.007-0.079,0.01-0.114,0.01l-0.503,0.006
			c-0.025,0-0.049-0.009-0.069-0.021c-0.021-0.015-0.032-0.037-0.032-0.066V55.09c0-0.055,0.005-0.104,0.013-0.141
			c0.009-0.037-0.026-0.063-0.106-0.071c-0.044-0.008-0.103-0.012-0.176-0.016c-0.071-0.003-0.132-0.003-0.181,0.001
			c-0.134,0.017-0.188,0.039-0.158,0.073c0.028,0.034,0.065,0.056,0.111,0.065c0.066,0.013,0.115,0.029,0.142,0.049
			c0.027,0.021,0.042,0.058,0.042,0.111v0.224c0,0.102,0.031,0.167,0.099,0.194c0.065,0.028,0.141,0.043,0.225,0.043l1.134-0.013
			c0.104,0,0.163-0.032,0.179-0.094c0.015-0.063-0.036-0.106-0.151-0.131C86.714,55.378,86.65,55.376,86.576,55.38z M87.119,54.184
			c0.105,0,0.164-0.03,0.177-0.093c0.013-0.064-0.037-0.105-0.148-0.128c-0.046-0.005-0.1-0.007-0.162-0.007
			c-0.062,0.001-0.101,0.01-0.117,0.027c-0.021,0.021-0.053,0.036-0.094,0.046c-0.04,0.009-0.081,0.016-0.12,0.02l-0.007-0.855
			c0-0.078,0.007-0.141,0.022-0.187c0.015-0.046-0.009-0.08-0.069-0.101c-0.042-0.017-0.108-0.031-0.2-0.047
			c-0.091-0.014-0.148-0.023-0.171-0.026c-0.104-0.005-0.158,0.009-0.166,0.044c-0.007,0.034,0.02,0.064,0.08,0.092
			c0.079,0.031,0.133,0.061,0.166,0.086c0.032,0.026,0.049,0.07,0.049,0.139l0.013,1.5c0.001,0.113,0.008,0.214,0.019,0.299
			c0.011,0.086,0.039,0.129,0.085,0.127c0.049-0.003,0.091-0.058,0.128-0.162c0.036-0.106,0.055-0.244,0.055-0.41l-0.003-0.363
			H87.119L87.119,54.184z M85.916,53.388c-0.096-0.007-0.183,0.006-0.261,0.034c-0.061,0.023-0.17,0.037-0.33,0.041
			c-0.159,0.005-0.279,0.006-0.358,0.003c-0.091-0.001-0.166-0.005-0.228-0.009c-0.06-0.004-0.118-0.01-0.172-0.016
			c-0.065-0.008-0.122-0.001-0.17,0.02c-0.049,0.021-0.017,0.06,0.098,0.118c0.178,0.092,0.293,0.121,0.346,0.092
			c0.052-0.029,0.124-0.048,0.214-0.057c0.112-0.01,0.287-0.016,0.529-0.016c0.241,0,0.407,0.003,0.5,0.006
			c0.067,0,0.108-0.021,0.126-0.066c0.017-0.043-0.016-0.082-0.098-0.116C86.077,53.405,86.011,53.395,85.916,53.388z M85.75,53.151
			c0.009-0.058-0.062-0.09-0.211-0.095c-0.111-0.004-0.197-0.009-0.259-0.016c-0.063-0.008-0.133-0.018-0.213-0.03
			c-0.075-0.014-0.128-0.008-0.157,0.016c-0.029,0.022-0.018,0.055,0.034,0.091c0.062,0.04,0.115,0.072,0.161,0.096
			c0.046,0.024,0.089,0.038,0.129,0.043c0.053,0.002,0.105,0.003,0.158,0.003c0.054,0,0.117-0.003,0.19-0.009
			C85.687,53.242,85.742,53.21,85.75,53.151z"/>
		<path fill="#00498E" d="M89.441,54.011c0.005-0.035,0.013-0.076,0.024-0.127c0.012-0.053,0.022-0.112,0.036-0.179
			c0.014-0.081,0.027-0.166,0.038-0.257c0.01-0.09,0.017-0.17,0.019-0.236c-0.07,0.001-0.231,0.006-0.485,0.015
			c-0.254,0.006-0.382,0.01-0.384,0.01c-0.094,0.008-0.169,0.023-0.227,0.047c-0.057,0.022-0.188-0.014-0.393-0.11
			c-0.036-0.017-0.063-0.043-0.079-0.078c-0.018-0.035,0.05-0.049,0.201-0.038c0.109,0.015,0.343,0.021,0.702,0.018
			c0.359-0.003,0.563-0.013,0.613-0.026c0.047-0.018,0.101-0.029,0.162-0.036c0.063-0.005,0.117-0.003,0.165,0.007
			c0.097,0.021,0.131,0.054,0.103,0.098c-0.028,0.043-0.048,0.092-0.059,0.142c-0.002,0.009-0.015,0.066-0.038,0.175
			c-0.022,0.108-0.049,0.205-0.078,0.291c-0.017,0.052-0.033,0.103-0.051,0.148c-0.017,0.045-0.035,0.086-0.056,0.122
			c0.01-0.002,0.02-0.005,0.028-0.005c0.008-0.001,0.015-0.002,0.019-0.004c0.126-0.047,0.272-0.065,0.44-0.055
			c0.168,0.009,0.249,0.05,0.245,0.123c-0.002,0.053-0.04,0.084-0.116,0.094c-0.075,0.009-0.157,0.012-0.245,0.007
			c-0.103-0.006-0.226-0.009-0.368-0.009c-0.144,0-0.323,0.001-0.542,0.003v0.538c0.074-0.003,0.137-0.009,0.187-0.011
			c0.05-0.004,0.082-0.007,0.097-0.011c0.055-0.015,0.108-0.024,0.159-0.032c0.052-0.007,0.102-0.004,0.149,0.003
			c0.087,0.018,0.12,0.048,0.1,0.091c-0.021,0.042-0.031,0.088-0.033,0.137l0.003,0.406c0.003,0.13-0.018,0.241-0.06,0.332
			c-0.042,0.094-0.082,0.141-0.12,0.143c-0.033,0.002-0.06-0.036-0.08-0.112c-0.019-0.076-0.03-0.16-0.032-0.251l-0.01-0.549
			c-0.059,0.003-0.2,0.006-0.428,0.013c-0.227,0.009-0.341,0.012-0.344,0.012c-0.101,0.005-0.181,0.024-0.241,0.06
			c-0.061,0.037-0.2-0.004-0.419-0.118c-0.034-0.02-0.058-0.048-0.071-0.087s0.048-0.051,0.185-0.036
			c0.061,0.009,0.153,0.013,0.276,0.017c0.124,0.004,0.251,0.004,0.381,0.001v-0.541c-0.153,0.005-0.267,0.01-0.343,0.018
			c-0.075,0.009-0.115,0.011-0.119,0.011c-0.099,0.009-0.179,0.028-0.241,0.059c-0.062,0.029-0.216-0.009-0.464-0.118
			c-0.097-0.043-0.13-0.076-0.101-0.104s0.088-0.039,0.176-0.036c0.093,0.005,0.174,0.012,0.244,0.019s0.185,0.012,0.341,0.012
			h0.661c0.043,0,0.109,0,0.202,0.001C89.264,54.013,89.354,54.013,89.441,54.011z"/>
		<path fill="#00498E" d="M92.62,54.011c0.005-0.035,0.012-0.076,0.023-0.127c0.012-0.053,0.023-0.112,0.036-0.179
			c0.015-0.081,0.027-0.166,0.037-0.257c0.012-0.09,0.018-0.17,0.021-0.236c-0.07,0.001-0.231,0.006-0.485,0.015
			c-0.253,0.006-0.382,0.01-0.384,0.01c-0.095,0.008-0.17,0.023-0.226,0.047c-0.058,0.022-0.188-0.014-0.395-0.11
			c-0.036-0.017-0.062-0.043-0.078-0.078c-0.018-0.035,0.05-0.049,0.201-0.038c0.109,0.015,0.343,0.021,0.701,0.018
			c0.359-0.003,0.563-0.013,0.615-0.026c0.044-0.018,0.099-0.029,0.161-0.036c0.062-0.005,0.117-0.003,0.165,0.007
			c0.097,0.021,0.13,0.054,0.103,0.098c-0.029,0.043-0.049,0.092-0.059,0.142c-0.003,0.009-0.015,0.066-0.038,0.175
			s-0.049,0.205-0.078,0.291c-0.018,0.052-0.034,0.103-0.051,0.148c-0.017,0.045-0.036,0.086-0.057,0.122
			c0.011-0.002,0.021-0.005,0.029-0.005c0.008-0.001,0.014-0.002,0.018-0.004c0.127-0.047,0.273-0.065,0.44-0.055
			c0.169,0.009,0.25,0.05,0.246,0.123c-0.002,0.053-0.041,0.084-0.116,0.094c-0.076,0.009-0.157,0.012-0.246,0.007
			c-0.103-0.006-0.225-0.009-0.368-0.009c-0.143,0-0.323,0.001-0.541,0.003v0.538c0.073-0.003,0.136-0.009,0.187-0.011
			c0.05-0.004,0.082-0.007,0.098-0.011c0.054-0.015,0.107-0.024,0.158-0.032c0.052-0.007,0.102-0.004,0.15,0.003
			c0.085,0.018,0.118,0.048,0.099,0.091c-0.021,0.042-0.031,0.088-0.033,0.137l0.003,0.406c0.002,0.13-0.019,0.241-0.06,0.332
			c-0.042,0.094-0.082,0.141-0.12,0.143c-0.032,0.002-0.061-0.036-0.08-0.112s-0.03-0.16-0.033-0.251l-0.009-0.549
			c-0.059,0.003-0.202,0.006-0.429,0.013c-0.227,0.009-0.341,0.012-0.343,0.012c-0.101,0.005-0.181,0.024-0.241,0.06
			c-0.062,0.037-0.201-0.004-0.419-0.118c-0.034-0.02-0.058-0.048-0.071-0.087s0.048-0.051,0.185-0.036
			c0.061,0.009,0.152,0.013,0.276,0.017s0.251,0.004,0.382,0.001v-0.541c-0.153,0.005-0.269,0.01-0.344,0.018
			c-0.076,0.009-0.115,0.011-0.12,0.011c-0.099,0.009-0.178,0.028-0.24,0.059c-0.062,0.029-0.217-0.009-0.464-0.118
			c-0.097-0.043-0.13-0.076-0.102-0.104c0.029-0.027,0.089-0.039,0.177-0.036c0.093,0.005,0.174,0.012,0.244,0.019
			s0.184,0.012,0.341,0.012h0.661c0.042,0,0.109,0,0.202,0.001C92.441,54.013,92.532,54.013,92.62,54.011z"/>
		<path fill="#00498E" d="M95.563,54.03l-0.005-0.7c0-0.065-0.017-0.112-0.049-0.137c-0.033-0.025-0.086-0.054-0.159-0.085
			c-0.059-0.027-0.085-0.058-0.077-0.094c0.007-0.036,0.06-0.049,0.158-0.042c0.022,0.003,0.079,0.011,0.167,0.024
			s0.152,0.03,0.192,0.048c0.06,0.021,0.081,0.054,0.067,0.101c-0.014,0.046-0.02,0.108-0.02,0.185l0.013,1.606
			c0.003,0.221-0.011,0.396-0.043,0.529c-0.032,0.133-0.076,0.198-0.132,0.2c-0.048,0.003-0.077-0.055-0.088-0.169
			c-0.013-0.113-0.019-0.241-0.019-0.381l-0.006-0.926c-0.027,0.006-0.05,0.015-0.069,0.021c-0.019,0.007-0.029,0.013-0.031,0.013
			c-0.023,0.007-0.057,0.018-0.101,0.03c-0.044,0.014-0.138-0.02-0.28-0.104c-0.034-0.021-0.056-0.051-0.066-0.085
			c-0.011-0.036,0.039-0.049,0.147-0.039c0.049,0.007,0.109,0.009,0.182,0.008S95.49,54.033,95.563,54.03z M96.084,53.193
			c0-0.068-0.017-0.112-0.05-0.139c-0.032-0.025-0.085-0.053-0.158-0.086c-0.06-0.027-0.085-0.058-0.077-0.092
			c0.008-0.035,0.061-0.049,0.158-0.044c0.023,0.003,0.079,0.013,0.167,0.026c0.089,0.016,0.153,0.03,0.192,0.047
			c0.059,0.021,0.08,0.055,0.066,0.101c-0.013,0.046-0.019,0.108-0.019,0.187l0.012,1.851c0.004,0.219-0.01,0.396-0.042,0.529
			c-0.033,0.131-0.076,0.198-0.131,0.201c-0.049,0.001-0.078-0.056-0.09-0.17c-0.011-0.114-0.017-0.241-0.017-0.382L96.084,53.193z
			 M94.778,54.281c-0.116,0.151-0.231,0.279-0.345,0.384c-0.112,0.104-0.212,0.18-0.298,0.228c-0.103,0.055-0.167,0.066-0.19,0.039
			c-0.025-0.027-0.02-0.052,0.015-0.074c0.161-0.113,0.328-0.291,0.502-0.533c0.175-0.243,0.318-0.507,0.433-0.791
			c-0.056,0.003-0.1,0.009-0.137,0.015c-0.036,0.004-0.071,0.009-0.106,0.01c-0.035,0.003-0.066,0.006-0.095,0.012
			c-0.026,0.009-0.041,0.01-0.044,0.01c-0.046,0.022-0.093,0.037-0.139,0.044c-0.046,0.009-0.135-0.026-0.267-0.103
			c-0.065-0.04-0.09-0.074-0.075-0.103c0.014-0.028,0.065-0.037,0.153-0.027c0.023,0.003,0.062,0.006,0.115,0.01
			s0.114,0.007,0.181,0.007c0.092,0,0.175-0.003,0.245-0.007c0.071-0.004,0.128-0.016,0.171-0.034
			c0.03-0.018,0.09-0.023,0.177-0.021s0.138,0.008,0.149,0.014c0.055,0.021,0.072,0.061,0.053,0.117
			c-0.021,0.057-0.051,0.114-0.093,0.172c-0.053,0.096-0.104,0.182-0.153,0.262c-0.049,0.079-0.102,0.159-0.156,0.236
			c0.034,0.042,0.073,0.086,0.118,0.131c0.046,0.046,0.074,0.073,0.087,0.082c0.031,0.021,0.059,0.034,0.081,0.039
			c0.021,0.004,0.048,0.02,0.08,0.048c0.033,0.026,0.065,0.077,0.095,0.153c0.029,0.075,0.048,0.126,0.057,0.15
			c0.022,0.085,0.004,0.132-0.055,0.141c-0.061,0.009-0.123-0.031-0.188-0.125c-0.021-0.028-0.07-0.095-0.149-0.197
			C94.921,54.466,94.847,54.369,94.778,54.281z"/>
		<path fill="#00498E" d="M98.352,55.43l-0.003-0.301l0.799-0.008v0.304L98.352,55.43z M99.438,54.845
			c0-0.052,0.006-0.095,0.021-0.13c0.013-0.033-0.018-0.062-0.091-0.083c-0.045-0.017-0.096-0.03-0.152-0.039
			c-0.055-0.007-0.101-0.012-0.137-0.012c-0.103,0.007-0.15,0.022-0.143,0.052c0.007,0.028,0.029,0.049,0.064,0.063
			c0.055,0.019,0.092,0.039,0.115,0.055c0.021,0.019,0.032,0.049,0.032,0.087v0.12l-0.799,0.006l-0.004-0.047
			c0-0.042,0.003-0.079,0.007-0.11c0.005-0.032-0.024-0.06-0.085-0.081c-0.047-0.013-0.095-0.022-0.145-0.03
			c-0.051-0.009-0.099-0.015-0.143-0.015c-0.105,0.01-0.153,0.029-0.143,0.061c0.012,0.031,0.029,0.051,0.051,0.057
			c0.062,0.016,0.104,0.034,0.131,0.056c0.024,0.021,0.037,0.056,0.037,0.1l0.007,0.5c0.001,0.103,0.016,0.176,0.041,0.217
			c0.024,0.042,0.055,0.063,0.091,0.063c0.04,0,0.074-0.018,0.104-0.055c0.029-0.036,0.044-0.064,0.047-0.084l0.807-0.007
			c0.002,0.018,0.012,0.04,0.032,0.067c0.021,0.026,0.049,0.041,0.087,0.041c0.044,0,0.082-0.029,0.116-0.087
			c0.033-0.058,0.051-0.134,0.051-0.229V54.845L99.438,54.845z M98.277,54.332c-0.059,0.06-0.132,0.088-0.219,0.088
			c-0.083,0-0.155-0.028-0.217-0.088c-0.061-0.06-0.091-0.13-0.091-0.214c0-0.085,0.03-0.158,0.091-0.216
			c0.062-0.058,0.134-0.086,0.217-0.086c0.087,0,0.16,0.028,0.219,0.086c0.061,0.058,0.091,0.131,0.091,0.216
			C98.368,54.202,98.338,54.272,98.277,54.332z M97.903,53.562c-0.012,0.008-0.018,0.02-0.018,0.034s0.012,0.027,0.034,0.036
			c0.023,0.009,0.025,0.027,0.004,0.052c-0.002,0.001-0.081,0.027-0.238,0.077c-0.155,0.05-0.234,0.172-0.234,0.369
			c0,0.147,0.064,0.264,0.192,0.348c0.128,0.085,0.267,0.128,0.415,0.128c0.111,0,0.22-0.024,0.323-0.074
			c0.104-0.048,0.18-0.117,0.231-0.202c0.148,0.082,0.245,0.115,0.291,0.103c0.045-0.015,0.081-0.025,0.105-0.033
			c0.003-0.002,0.02-0.009,0.05-0.018c0.031-0.012,0.065-0.019,0.102-0.024c0.01-0.001,0.019-0.002,0.028-0.002
			c0.004,0.066,0.014,0.119,0.027,0.158c0.016,0.038,0.037,0.057,0.066,0.056c0.042-0.003,0.083-0.045,0.123-0.127
			c0.039-0.085,0.061-0.206,0.061-0.366l-0.01-0.882c0-0.078,0.007-0.141,0.021-0.187c0.016-0.046-0.009-0.08-0.069-0.101
			c-0.043-0.017-0.107-0.031-0.199-0.047c-0.092-0.014-0.148-0.023-0.172-0.026c-0.103-0.005-0.157,0.009-0.165,0.044
			c-0.008,0.034,0.019,0.064,0.08,0.092c0.077,0.031,0.133,0.061,0.165,0.085c0.032,0.027,0.05,0.071,0.05,0.138l0.005,0.505
			c-0.084,0.004-0.17,0.006-0.261,0.009c-0.09,0.003-0.163,0-0.22-0.009c-0.115-0.012-0.167,0.002-0.156,0.039
			c0.011,0.034,0.035,0.063,0.07,0.083c0.154,0.084,0.252,0.119,0.298,0.105s0.081-0.024,0.106-0.033
			c0.002-0.001,0.019-0.007,0.049-0.019c0.032-0.01,0.066-0.018,0.102-0.021c0.007-0.002,0.012-0.004,0.016-0.004l0.006,0.353v0.003
			c-0.086,0.005-0.174,0.008-0.266,0.01s-0.165-0.001-0.225-0.01c-0.007,0-0.013,0-0.018-0.001
			c-0.005-0.002-0.011-0.002-0.014-0.002c0.003-0.011,0.003-0.021,0.003-0.033c0.002-0.012,0.002-0.021,0.002-0.032
			c0-0.196-0.075-0.319-0.225-0.368c-0.15-0.052-0.225-0.076-0.225-0.079c0.002-0.022,0.009-0.039,0.021-0.049
			c0.012-0.009,0.005-0.026-0.021-0.051c-0.008-0.012-0.027-0.021-0.059-0.029c-0.03-0.009-0.063-0.015-0.099-0.016
			c0.132-0.006,0.272-0.007,0.42-0.006c0.148,0.002,0.255,0.005,0.319,0.009c0.067,0,0.109-0.022,0.127-0.066
			c0.017-0.044-0.017-0.083-0.099-0.116c-0.035-0.017-0.102-0.029-0.196-0.033c-0.097-0.008-0.183,0.004-0.26,0.033
			c-0.061,0.023-0.165,0.037-0.315,0.042c-0.148,0.003-0.263,0.004-0.343,0.001c-0.09-0.001-0.165-0.003-0.227-0.009
			c-0.061-0.004-0.118-0.009-0.173-0.016c-0.065-0.009-0.122-0.003-0.17,0.019s-0.016,0.062,0.098,0.121
			c0.178,0.088,0.294,0.118,0.346,0.091c0.053-0.03,0.125-0.049,0.214-0.058c0.02-0.002,0.042-0.004,0.066-0.004
			c0.025-0.002,0.052-0.003,0.079-0.005C97.93,53.548,97.915,53.552,97.903,53.562z M98.497,53.121
			c0.008-0.06-0.063-0.092-0.212-0.097c-0.11-0.003-0.197-0.009-0.259-0.016c-0.063-0.007-0.134-0.018-0.212-0.03
			c-0.076-0.013-0.129-0.007-0.159,0.016c-0.029,0.024-0.017,0.054,0.035,0.093c0.062,0.038,0.115,0.07,0.16,0.096
			c0.047,0.022,0.09,0.038,0.129,0.042c0.054,0.002,0.105,0.004,0.16,0.004c0.054,0,0.115-0.004,0.19-0.011
			C98.432,53.213,98.488,53.179,98.497,53.121z"/>
		<path fill="#00498E" d="M102.303,53.45l-0.004-0.257c0-0.068-0.016-0.112-0.049-0.139c-0.032-0.025-0.087-0.053-0.165-0.086
			c-0.061-0.027-0.088-0.058-0.08-0.092c0.008-0.035,0.062-0.049,0.166-0.044c0.021,0.003,0.079,0.013,0.17,0.026
			c0.092,0.016,0.159,0.03,0.201,0.047c0.061,0.021,0.083,0.055,0.069,0.101c-0.016,0.046-0.022,0.108-0.022,0.187l0.011,0.934
			c0,0.162-0.021,0.293-0.062,0.393c-0.039,0.1-0.081,0.149-0.122,0.152c-0.04,0.003-0.066-0.036-0.078-0.111
			c-0.014-0.076-0.021-0.171-0.022-0.285l-0.004-0.128c-0.009,0-0.02,0-0.034,0.003c-0.039,0.004-0.073,0.011-0.105,0.021
			c-0.033,0.011-0.051,0.017-0.053,0.019c-0.026,0.009-0.063,0.02-0.111,0.033c-0.047,0.015-0.151-0.021-0.313-0.104
			c-0.038-0.022-0.063-0.05-0.073-0.086c-0.012-0.035,0.044-0.048,0.165-0.037c0.055,0.006,0.132,0.009,0.23,0.008
			c0.101-0.001,0.198-0.002,0.292-0.005l-0.003-0.396h-0.007c-0.038,0.004-0.073,0.011-0.105,0.021
			c-0.031,0.012-0.049,0.017-0.052,0.019c-0.027,0.01-0.065,0.021-0.11,0.033c-0.049,0.015-0.153-0.021-0.314-0.104
			c-0.008-0.005-0.017-0.01-0.022-0.015s-0.013-0.009-0.019-0.014l-0.045,0.232c0.003,0,0.018,0.004,0.047,0.009
			c0.028,0.007,0.042,0.023,0.042,0.048c0,0.027-0.008,0.049-0.023,0.064s-0.057,0.023-0.124,0.023h-0.705v0.388
			c0,0.031,0.01,0.055,0.03,0.064c0.02,0.015,0.046,0.021,0.08,0.021c0.089,0,0.226-0.015,0.409-0.045
			c0.183-0.029,0.338-0.063,0.469-0.1c0.064-0.019,0.094-0.007,0.087,0.036c-0.008,0.043-0.032,0.072-0.075,0.088
			c-0.133,0.054-0.302,0.105-0.505,0.158c-0.202,0.053-0.377,0.081-0.523,0.085c-0.101,0.002-0.171-0.014-0.213-0.049
			c-0.041-0.034-0.061-0.1-0.061-0.197v-0.357c0-0.061-0.015-0.098-0.043-0.112c-0.028-0.013-0.07-0.025-0.128-0.036
			c-0.063-0.013-0.088-0.035-0.069-0.07c0.02-0.036,0.069-0.057,0.152-0.066c0.059-0.002,0.126,0,0.204,0.012
			c0.076,0.01,0.143,0.019,0.194,0.024c0.017,0.003,0.093,0.004,0.227,0.004c0.136,0,0.226,0,0.274,0l0.007-0.429
			c-0.036,0-0.099,0.001-0.187,0.004c-0.089,0.001-0.149,0.005-0.186,0.01c-0.035,0.002-0.07,0.005-0.101,0.011
			c-0.031,0.005-0.048,0.007-0.051,0.007c-0.031,0.009-0.074,0.02-0.129,0.034c-0.055,0.014-0.157-0.025-0.309-0.112
			c-0.04-0.022-0.055-0.049-0.044-0.077c0.011-0.029,0.061-0.039,0.151-0.033c0.061,0.004,0.119,0.009,0.176,0.014
			c0.057,0.003,0.118,0.008,0.184,0.011c0.075,0.003,0.167,0.003,0.277-0.001c0.107-0.004,0.176-0.01,0.201-0.023
			c0.041-0.019,0.095-0.029,0.159-0.036c0.065-0.005,0.124-0.001,0.177,0.015c0.071,0.021,0.093,0.054,0.062,0.097
			c-0.03,0.042-0.05,0.082-0.058,0.12l-0.014,0.075c0.014-0.004,0.029-0.006,0.047-0.007c0.021-0.002,0.041,0,0.067,0.003
			c0.049,0.007,0.121,0.01,0.215,0.009C102.118,53.455,102.21,53.453,102.303,53.45z M102.567,55.27
			c0.003,0.13-0.019,0.242-0.06,0.334c-0.042,0.093-0.082,0.14-0.12,0.142c-0.034,0.001-0.062-0.035-0.08-0.112
			c-0.021-0.076-0.031-0.161-0.033-0.249l-0.01-0.457c-0.059,0.003-0.202,0.008-0.428,0.015c-0.227,0.007-0.341,0.012-0.344,0.012
			c-0.101,0.003-0.181,0.021-0.242,0.059c-0.061,0.035-0.2-0.004-0.418-0.119c-0.033-0.021-0.058-0.049-0.071-0.087
			c-0.014-0.04,0.049-0.052,0.185-0.036c0.126,0.019,0.353,0.025,0.678,0.021c0.327-0.007,0.515-0.017,0.565-0.031
			c0.055-0.015,0.107-0.024,0.159-0.03c0.051-0.008,0.101-0.007,0.149,0.002c0.086,0.017,0.118,0.048,0.1,0.09
			c-0.021,0.042-0.032,0.088-0.033,0.137L102.567,55.27z"/>
		<path fill="#00498E" d="M105.68,55.386c0.116,0.024,0.166,0.067,0.151,0.131c-0.014,0.062-0.073,0.094-0.18,0.094l-1.139,0.013
			c-0.083,0-0.159-0.015-0.226-0.043c-0.065-0.027-0.099-0.093-0.099-0.194v-0.324c0-0.054-0.014-0.091-0.04-0.111
			c-0.027-0.021-0.075-0.037-0.143-0.048c-0.046-0.012-0.083-0.033-0.112-0.066c-0.027-0.034,0.025-0.058,0.159-0.072
			c0.049-0.005,0.109-0.005,0.182-0.003c0.072,0.005,0.13,0.009,0.175,0.015c0.08,0.011,0.114,0.035,0.107,0.072
			c-0.009,0.039-0.014,0.085-0.014,0.142v0.395c0,0.027,0.011,0.051,0.031,0.066c0.021,0.013,0.045,0.021,0.07,0.021l0.51-0.006
			c0.035,0,0.073-0.003,0.114-0.01c0.04-0.003,0.077-0.018,0.109-0.038c0.028-0.021,0.08-0.034,0.155-0.038
			C105.567,55.376,105.63,55.378,105.68,55.386z M105.57,53.975c0.039-0.005,0.081-0.013,0.121-0.021
			c0.041-0.011,0.072-0.025,0.093-0.046c0.016-0.018,0.056-0.026,0.118-0.027c0.063-0.002,0.115,0.003,0.162,0.007
			c0.11,0.022,0.16,0.063,0.147,0.127c-0.012,0.063-0.071,0.094-0.176,0.094h-0.466l0.003,0.438c0,0.167-0.018,0.305-0.056,0.41
			c-0.036,0.105-0.078,0.159-0.128,0.162c-0.045,0.002-0.074-0.04-0.084-0.126c-0.011-0.086-0.017-0.185-0.02-0.298l-0.003-0.502
			c-0.15,0.063-0.381,0.136-0.688,0.222c-0.308,0.087-0.543,0.129-0.706,0.129c-0.088,0-0.153-0.015-0.192-0.045
			c-0.04-0.03-0.06-0.092-0.06-0.188v-0.712c0-0.058-0.017-0.094-0.047-0.108c-0.032-0.016-0.083-0.03-0.152-0.045
			c-0.04-0.011-0.069-0.032-0.089-0.067c-0.021-0.032,0.027-0.059,0.144-0.075c0.046-0.006,0.112-0.005,0.199,0.003
			c0.087,0.007,0.171,0.016,0.251,0.026c0.029,0.002,0.103,0.004,0.22,0.008c0.117,0.003,0.192-0.008,0.226-0.033
			c0.049-0.031,0.109-0.049,0.181-0.053c0.071-0.006,0.139-0.003,0.201,0.005c0.097,0.013,0.142,0.049,0.137,0.108
			c-0.005,0.061-0.063,0.096-0.168,0.109c-0.065,0.006-0.203,0.01-0.411,0.012c-0.209,0-0.337,0.002-0.385,0.002v0.733
			c0,0.035,0.009,0.058,0.027,0.067c0.02,0.012,0.042,0.017,0.069,0.017c0.124,0,0.324-0.029,0.603-0.087
			c0.277-0.058,0.491-0.11,0.638-0.158l-0.007-0.869c0-0.068-0.016-0.112-0.049-0.139c-0.031-0.025-0.088-0.053-0.165-0.085
			c-0.061-0.027-0.087-0.059-0.08-0.093c0.009-0.034,0.063-0.049,0.166-0.044c0.021,0.003,0.079,0.013,0.171,0.027
			s0.157,0.03,0.199,0.046c0.061,0.021,0.085,0.055,0.07,0.101c-0.015,0.047-0.022,0.108-0.022,0.188L105.57,53.975z"/>
	</g>
	<g>
		<rect x="94.762" y="44.431" fill="#00498E" width="1.165" height="6.689"/>
		<polygon fill="#00498E" points="88.604,51.12 86.473,47.65 88.295,44.431 87.134,44.431 85.729,46.939 85.729,44.431 
			84.584,44.431 84.584,51.12 85.729,51.12 85.729,48.516 87.36,51.12 		"/>
		<g>
			<path fill="#00498E" d="M92.654,44.659c-0.348-0.267-0.761-0.326-1.435-0.326s-1.087,0.059-1.434,0.326
				c-0.349,0.269-0.386,0.559-0.386,0.946v4.341c0,0.388,0.037,0.678,0.386,0.945c0.347,0.271,0.76,0.327,1.434,0.327
				s1.087-0.057,1.435-0.327c0.348-0.268,0.385-0.558,0.385-0.945v-4.341C93.039,45.218,93.002,44.928,92.654,44.659z
				 M91.911,50.063c0,0.454-0.212,0.635-0.691,0.635c-0.479,0-0.691-0.181-0.691-0.635v-4.574c0-0.453,0.213-0.635,0.691-0.635
				c0.479,0,0.691,0.182,0.691,0.635V50.063z"/>
			<g>
				<path fill="#00498E" d="M99.909,50.199c0,0.273-0.144,0.499-0.542,0.499c-0.38,0-0.586-0.176-0.586-0.501v-4.842
					c0-0.319,0.164-0.499,0.585-0.499c0.376,0,0.543,0.18,0.543,0.496v0.772h1.197v-0.488c0-0.389-0.036-0.709-0.386-0.977
					c-0.322-0.247-0.687-0.326-1.308-0.326c-0.647,0-1.027,0.059-1.376,0.326c-0.349,0.269-0.384,0.559-0.384,0.946v4.341
					c0,0.388,0.035,0.678,0.384,0.945c0.349,0.271,0.729,0.327,1.376,0.327c0.621,0,0.961-0.057,1.308-0.327
					c0.349-0.268,0.386-0.586,0.386-0.975v-0.622h-1.197V50.199L99.909,50.199z"/>
			</g>
		</g>
		<g>
			<path fill="#00498E" d="M107.959,48.048c0,0,0.366-0.023,0.705,0.142c0.341,0.165,0.527,0.457,0.527,0.457
				s-0.366,0.022-0.705-0.144C108.146,48.339,107.959,48.048,107.959,48.048z"/>
			<path fill="#00498E" d="M105.73,47.746c0,0,0.373,0.019,0.729-0.146c0.356-0.165,0.561-0.452,0.561-0.452
				s-0.375-0.018-0.73,0.146C105.933,47.461,105.73,47.746,105.73,47.746z"/>
			<path fill="#00498E" d="M105.795,47.848c0,0,0.355-0.052,0.694,0.073c0.337,0.125,0.532,0.378,0.532,0.378
				s-0.354,0.052-0.693-0.073S105.795,47.848,105.795,47.848z"/>
			<path fill="#00498E" d="M106.914,47.691c0,0,0.35,0.092,0.73,0.002c0.38-0.09,0.649-0.325,0.649-0.325s-0.35-0.091-0.73-0.002
				S106.914,47.691,106.914,47.691z"/>
			<path fill="#00498E" d="M106.926,47.786c0,0,0.107,0.306,0.383,0.521c0.273,0.213,0.614,0.255,0.614,0.255
				s-0.106-0.307-0.381-0.521C107.267,47.828,106.926,47.786,106.926,47.786z"/>
			<path fill="#00498E" d="M107.966,47.948c0,0,0.383,0.069,0.771-0.046c0.391-0.115,0.643-0.368,0.643-0.368
				s-0.381-0.067-0.772,0.047C108.218,47.696,107.966,47.948,107.966,47.948z"/>
			<path fill="#00498E" d="M109.343,48.01c0,0,0.328-0.067,0.594-0.284c0.265-0.215,0.367-0.499,0.367-0.499
				s-0.328,0.066-0.594,0.283C109.445,47.725,109.343,48.01,109.343,48.01z"/>
			<path fill="#00498E" d="M110.248,47.836c0,0,0.389-0.015,0.731-0.232c0.343-0.216,0.51-0.556,0.51-0.556s-0.388,0.04-0.73,0.257
				C110.416,47.522,110.248,47.836,110.248,47.836z"/>
			<path fill="#00498E" d="M109.223,48.167c0,0,0.276,0.188,0.63,0.219c0.354,0.03,0.65-0.107,0.65-0.107s-0.278-0.189-0.631-0.219
				C109.517,48.029,109.223,48.167,109.223,48.167z"/>
		</g>
		<path fill="#00498E" d="M105.658,47.891c-0.42,0.098-0.764,0.249-1.045,0.423l-0.046-0.239c0,0,0,0.001-0.001,0.001v-0.001
			c-0.288,0.131-0.604,0.313-0.914,0.571l0,0l0.497-2.574h0.037l-0.004,0.012l0.384,1.991c0.563-0.253,1.014-0.306,1.066-0.312
			l-0.644-3.32h-1.65l-1.293,6.673h1.128l0.278-1.438l0.014-0.046c0.06-0.157,0.35-0.826,1.147-1.319l0.543,2.814h1.13
			L105.658,47.891z"/>
	</g>
</g>
<image overflow="visible" width="880" height="633" xlink:href="isu_logo.jpg"  transform="matrix(0.1578 0 0 0.1578 28.4966 0.1074)">
</image>
</svg>
