<svg xmlns="http://www.w3.org/2000/svg" width="50" height="50" viewBox="0 0 50 50"><defs><style>.a{fill:#fff;}.b{fill:#8d17f2;stroke:#8d17f2;stroke-miterlimit:10;stroke-width:2.2px;}</style></defs><g transform="translate(-664 -540)"><rect class="a" width="50" height="50" transform="translate(664 540)"/><g transform="translate(4475.662 1428.662)"><path class="b" d="M-3787.541-847.624l-14.359-16.04a9.624,9.624,0,0,1-.481-12.961,8.849,8.849,0,0,1,13.049-.324l1.791,1.84a1.179,1.179,0,0,0,1.7,0l1.611-1.655a9.006,9.006,0,0,1,12.614-.493,9.439,9.439,0,0,1,.315,13.408l-14.539,16.225A1.179,1.179,0,0,1-3787.541-847.624Z" transform="translate(0)"/></g></g></svg>