<?xml version="1.0" encoding="utf-8"?>
<!-- Generator: Adobe Illustrator 16.0.0, SVG Export Plug-In . SVG Version: 6.00 Build 0)  -->
<!DOCTYPE svg PUBLIC "-//W3C//DTD SVG 1.1//EN" "http://www.w3.org/Graphics/SVG/1.1/DTD/svg11.dtd">
<svg version="1.1" id="레이어_1" xmlns="http://www.w3.org/2000/svg" xmlns:xlink="http://www.w3.org/1999/xlink" x="0px"
	 y="0px" width="50px" height="50px" viewBox="0 0 50 50" enable-background="new 0 0 50 50" xml:space="preserve">
<linearGradient id="SVGID_1_" gradientUnits="userSpaceOnUse" x1="650.3848" y1="-1173.4561" x2="682.5352" y2="-1173.4561" gradientTransform="matrix(1 0 0 -1 -826.9805 -1138.8799)">
	<stop  offset="0" style="stop-color:#C39BEE"/>
	<stop  offset="1" style="stop-color:#6AC3FA"/>
</linearGradient>
<path fill="url(#SVGID_1_)" d="M-145.031,46.586l-5.828-5.828c1.426-2.191,2.264-4.803,2.264-7.607c0-7.718-6.279-14-14-14
	c-7.719,0-14,6.28-14,14c0,7.721,6.281,14,14,14c3.473,0,6.646-1.275,9.096-3.379l5.642,5.645c0.391,0.393,0.901,0.586,1.414,0.586
	c0.512,0,1.022-0.193,1.413-0.586C-144.25,48.633-144.25,47.367-145.031,46.586z M-162.596,43.15c-5.514,0-10-4.486-10-10
	c0-5.516,4.486-10,10-10c5.514,0,10,4.486,10,10C-152.596,38.664-157.082,43.15-162.596,43.15z"/>
<rect x="24" y="15" fill="#FFFFFF" width="2" height="20"/>
<rect x="15" y="24" fill="#FFFFFF" width="20" height="2"/>
</svg>
