<?xml version="1.0" encoding="utf-8"?>
<!-- Generator: Adobe Illustrator 16.0.0, SVG Export Plug-In . SVG Version: 6.00 Build 0)  -->
<!DOCTYPE svg PUBLIC "-//W3C//DTD SVG 1.1//EN" "http://www.w3.org/Graphics/SVG/1.1/DTD/svg11.dtd">
<svg version="1.1" id="레이어_1" xmlns="http://www.w3.org/2000/svg" xmlns:xlink="http://www.w3.org/1999/xlink" x="0px"
	 y="0px" width="50px" height="50px" viewBox="0 0 50 50" enable-background="new 0 0 50 50" xml:space="preserve">
<path fill="#B0B0B0" d="M40.488,37.012l-5.828-5.828c1.426-2.192,2.264-4.803,2.264-7.607c0-7.72-6.279-14-14-14
	c-7.719,0-14,6.28-14,14c0,7.719,6.281,14,14,14c3.473,0,6.646-1.277,9.096-3.379l5.642,5.643c0.391,0.391,0.901,0.586,1.414,0.586
	c0.512,0,1.022-0.195,1.413-0.586C41.27,39.059,41.27,37.793,40.488,37.012z M22.924,33.576c-5.514,0-10-4.486-10-10
	c0-5.514,4.486-10,10-10s10,4.486,10,10C32.924,29.09,28.438,33.576,22.924,33.576z"/>
<linearGradient id="SVGID_1_" gradientUnits="userSpaceOnUse" x1="99.0645" y1="-382.5352" x2="131.2148" y2="-382.5352" gradientTransform="matrix(1 0 0 -1 -275.6602 -347.96)">
	<stop  offset="0" style="stop-color:#C39BEE"/>
	<stop  offset="1" style="stop-color:#6AC3FA"/>
</linearGradient>
<path fill="url(#SVGID_1_)" d="M-145.031,46.586l-5.828-5.828c1.426-2.192,2.264-4.803,2.264-7.607c0-7.72-6.279-14-14-14
	c-7.719,0-14,6.28-14,14c0,7.719,6.281,14,14,14c3.473,0,6.646-1.277,9.096-3.379l5.642,5.643c0.391,0.391,0.901,0.586,1.414,0.586
	c0.512,0,1.022-0.195,1.413-0.586C-144.25,48.633-144.25,47.367-145.031,46.586z M-162.596,43.15c-5.514,0-10-4.486-10-10
	s4.486-10,10-10s10,4.486,10,10S-157.082,43.15-162.596,43.15z"/>
</svg>
