<?xml version="1.0" encoding="utf-8"?>
<!-- Generator: Adobe Illustrator 16.0.0, SVG Export Plug-In . SVG Version: 6.00 Build 0)  -->
<!DOCTYPE svg PUBLIC "-//W3C//DTD SVG 1.1//EN" "http://www.w3.org/Graphics/SVG/1.1/DTD/svg11.dtd">
<svg version="1.1" id="레이어_1" xmlns="http://www.w3.org/2000/svg" xmlns:xlink="http://www.w3.org/1999/xlink" x="0px"
	 y="0px" width="40px" height="33px" viewBox="168 0 40 33" enable-background="new 168 0 40 33" xml:space="preserve">
<image display="none" overflow="visible" enable-background="new    " width="750" height="3800" xlink:href="아이서울유_0829.jpg"  transform="matrix(1 0 0 1 -88 -471)">
</image>
<g>
	<rect x="199.488" y="22.957" fill="#73C3F8" width="8.095" height="3.924"/>
	<rect x="199.488" y="28.597" fill="#73C3F8" width="8.095" height="3.926"/>
	<rect x="199.488" y="11.671" fill="#73C3F8" width="8.095" height="3.925"/>
	<rect x="199.488" y="17.313" fill="#73C3F8" width="8.095" height="3.926"/>
</g>
<g>
	<rect x="178.774" y="22.953" fill="#A4A9F5" width="8.095" height="3.926"/>
	<rect x="178.774" y="28.597" fill="#A4A9F5" width="8.095" height="3.926"/>
	<rect x="178.774" y="17.433" fill="#A4A9F5" width="8.095" height="3.927"/>
</g>
<g>
	<rect x="168.417" y="22.957" fill="#C1A4F0" width="8.095" height="3.924"/>
	<rect x="168.417" y="28.597" fill="#C1A4F0" width="8.095" height="3.926"/>
</g>
<g>
	<rect x="189.132" y="22.957" fill="#85B7F7" width="8.095" height="3.924"/>
	<rect x="189.132" y="28.597" fill="#85B7F7" width="8.095" height="3.926"/>
	<rect x="189.132" y="11.794" fill="#85B7F7" width="8.095" height="3.925"/>
	<rect x="189.132" y="17.437" fill="#85B7F7" width="8.095" height="3.926"/>
	<rect x="189.132" y="0.477" fill="#85B7F7" width="8.095" height="3.925"/>
	<rect x="189.132" y="6.118" fill="#85B7F7" width="8.095" height="3.925"/>
</g>
</svg>
